<svg width="957" height="208" viewBox="0 0 957 208" fill="none" xmlns="http://www.w3.org/2000/svg">
<path d="M185.582 24.72V52H178.762V24.72C178.762 21.86 178.322 19.99 176.452 19.99C173.317 19.99 170.512 24.83 169.247 26.865L152.967 52H144.827L161.107 26.865C166.717 18.175 170.347 13.17 177.827 13.17C182.447 13.17 185.582 17.46 185.582 24.72ZM202.952 13.39H223.247V20.21H202.952C197.012 20.21 197.012 29.285 202.952 29.285H215.602C221.872 29.285 226.987 34.345 226.987 40.615C226.987 46.885 221.872 52 215.602 52H194.262V45.18H215.602C221.597 45.18 221.597 36.105 215.602 36.105H202.677C196.517 35.94 191.622 30.935 191.622 24.72C191.622 18.45 196.682 13.39 202.952 13.39ZM252.736 13.005C263.571 13.005 272.426 21.805 272.426 32.695C272.426 43.53 263.571 52.385 252.736 52.385C241.846 52.385 233.046 43.53 233.046 32.695C233.046 21.805 241.846 13.005 252.736 13.005ZM252.736 45.565C259.776 45.565 265.606 39.68 265.606 32.64C265.606 25.6 259.776 19.825 252.736 19.825C245.696 19.825 239.866 25.6 239.866 32.64C239.866 39.68 245.696 45.565 252.736 45.565ZM257.851 0.244998L250.096 9.155H247.621L252.241 0.244998H257.851ZM311.718 52H297.693C287.078 51.89 278.498 43.31 278.498 32.695C278.498 22.025 287.133 13.39 297.748 13.39H311.718V20.21H297.748C290.873 20.21 285.318 25.765 285.318 32.695C285.318 39.57 290.873 45.18 297.748 45.18H311.718V52ZM317.774 52V13.445H324.594V52H317.774ZM371.379 24.72V52H364.559V24.72C364.559 21.86 364.119 19.99 362.249 19.99C359.114 19.99 356.309 24.83 355.044 26.865L338.764 52H330.624L346.904 26.865C352.514 18.175 356.144 13.17 363.624 13.17C368.244 13.17 371.379 17.46 371.379 24.72ZM389.959 52V20.21H377.419V13.39H409.374V20.21H396.779V52H389.959ZM445.886 52H431.861C421.246 51.89 412.666 43.31 412.666 32.695C412.666 22.025 421.301 13.39 431.971 13.39H445.886V20.21H431.971C425.096 20.21 419.486 25.765 419.486 32.695C419.486 39.57 425.096 45.18 431.971 45.18H445.886V52ZM440.606 36.105H427.791V29.285H440.606V36.105ZM499.623 52H485.598C474.983 51.89 466.403 43.31 466.403 32.695C466.403 22.025 475.038 13.39 485.653 13.39H499.623V20.21H485.653C478.778 20.21 473.223 25.765 473.223 32.695C473.223 39.57 478.778 45.18 485.653 45.18H499.623V52ZM522.629 13.005C533.464 13.005 542.319 21.805 542.319 32.695C542.319 43.53 533.464 52.385 522.629 52.385C511.739 52.385 502.939 43.53 502.939 32.695C502.939 21.805 511.739 13.005 522.629 13.005ZM522.629 45.565C529.669 45.565 535.499 39.68 535.499 32.64C535.499 25.6 529.669 19.825 522.629 19.825C515.589 19.825 509.759 25.6 509.759 32.64C509.759 39.68 515.589 45.565 522.629 45.565ZM585.736 13.39V40.615C585.736 49.14 581.446 52 578.806 52C573.416 52 571.436 49.855 566.706 39.9L561.206 28.35C559.556 24.83 554.936 14.16 555.211 24.72V52H548.391V24.72C548.391 16.195 552.626 13.39 555.266 13.39C560.711 13.39 562.636 15.48 567.366 25.435L573.086 37.425C575.066 41.825 579.191 50.46 578.916 40.615V13.39H585.736ZM632.664 36.16H621.664V29.34H632.664C638.934 29.34 643.994 34.4 643.994 40.67C643.994 46.94 638.934 52 632.664 52H625.459C614.844 51.945 606.264 43.365 606.264 32.75C606.264 22.08 614.899 13.445 625.569 13.445H639.484V20.265H625.569C618.639 20.265 613.084 25.82 613.084 32.75C613.084 39.625 618.639 45.18 625.569 45.18H632.664C638.659 45.18 638.659 36.16 632.664 36.16ZM650.051 52V13.445H656.871V52H650.051ZM681.194 13.005C692.029 13.005 700.884 21.805 700.884 32.695C700.884 43.53 692.029 52.385 681.194 52.385C670.304 52.385 661.504 43.53 661.504 32.695C661.504 21.805 670.304 13.005 681.194 13.005ZM681.194 45.565C688.234 45.565 694.064 39.68 694.064 32.64C694.064 25.6 688.234 19.825 681.194 19.825C674.154 19.825 668.324 25.6 668.324 32.64C668.324 39.68 674.154 45.565 681.194 45.565ZM713.777 32.695V52H706.957V32.695C706.957 22.025 715.537 13.39 726.427 13.39H740.342V20.21H726.262C719.332 20.21 713.777 25.765 713.777 32.695ZM735.062 36.105H722.247V29.285H735.062V36.105ZM746.393 52V13.445H753.213V52H746.393ZM789.764 52V35.94C783.769 34.675 780.909 27.03 779.149 23.84L773.704 13.445H781.404L785.199 20.65C787.234 24.225 789.324 29.34 791.579 29.34C796.804 29.34 796.034 30.11 801.149 20.65L804.944 13.445H812.644L807.199 23.84C805.384 27.03 802.579 34.675 796.584 35.94V52H789.764ZM33.7071 129H19.6821C9.06712 128.89 0.487122 120.31 0.487122 109.695C0.487122 99.025 9.12212 90.39 19.7921 90.39H33.7071V97.21H19.7921C12.9171 97.21 7.30712 102.765 7.30712 109.695C7.30712 116.57 12.9171 122.18 19.7921 122.18H33.7071V129ZM28.4271 113.105H15.6121V106.285H28.4271V113.105ZM50.5977 109.75C47.9577 106.835 46.3627 102.93 45.2077 100.84L39.7627 90.445H47.4627L51.2577 97.65C53.2927 101.225 55.3827 106.34 57.6377 106.34C63.0827 106.34 62.0927 107 67.2077 97.65L71.0027 90.445H78.7027L73.2577 100.84C72.1027 102.93 70.5077 106.835 67.8677 109.75C70.5077 112.61 72.1027 116.515 73.2577 118.605L78.7027 129H71.0027L67.2077 121.795C65.1727 118.22 63.0827 113.16 60.8277 113.16C55.3827 113.16 56.3727 112.5 51.2577 121.795L47.4627 129H39.7627L45.2077 118.605C46.3627 116.515 47.9577 112.61 50.5977 109.75ZM84.7317 129V117.615C84.7317 111.345 89.7917 106.285 96.0617 106.285H105.247C111.187 106.285 111.187 97.21 105.247 97.21H84.7317V90.39H105.247C111.517 90.39 116.577 95.45 116.577 101.72C116.577 107.55 112.232 112.335 106.567 112.995V113.105H96.0617C93.5317 113.105 91.5517 115.14 91.5517 117.615V129H84.7317ZM153.091 129H139.066C128.451 128.89 119.871 120.31 119.871 109.695C119.871 99.025 128.506 90.39 139.176 90.39H153.091V97.21H139.176C132.301 97.21 126.691 102.765 126.691 109.695C126.691 116.57 132.301 122.18 139.176 122.18H153.091V129ZM147.811 113.105H134.996V106.285H147.811V113.105ZM183.952 112.28L192.862 129H185.162L181.367 121.74C179.277 118.165 177.242 113.105 174.987 113.105H170.477C168.002 113.105 165.967 115.14 165.967 117.615V129H159.147V117.615C159.147 111.345 164.207 106.285 170.477 106.285H179.662C185.657 106.285 185.657 97.21 179.662 97.21H159.147V90.39H179.662C192.092 90.39 195.392 107.605 183.952 112.28ZM198.906 129V90.445H205.726V129H198.906ZM233.041 118.055V101.335C233.041 101.335 233.261 97.21 232.326 97.21C231.556 97.21 231.006 99.025 229.466 102.985L219.071 129H211.756L222.096 102.985C225.176 94.625 227.871 90.39 233.316 90.39C237.166 90.39 239.861 94.295 239.861 101.335V118.055C239.861 118.055 239.586 122.18 240.521 122.18C241.181 122.18 241.676 120.805 242.776 118H242.721L248.716 102.985C251.796 94.625 254.491 90.39 259.936 90.39C263.786 90.39 266.481 94.295 266.481 101.335V129H259.661V101.335C259.661 101.335 259.881 97.21 258.946 97.21C258.176 97.21 257.626 99.025 256.086 102.985L250.696 116.515C247.671 124.82 244.921 129 239.531 129C235.681 129 233.041 125.04 233.041 118.055ZM305.736 129H291.711C281.096 128.89 272.516 120.31 272.516 109.695C272.516 99.025 281.151 90.39 291.821 90.39H305.736V97.21H291.821C284.946 97.21 279.336 102.765 279.336 109.695C279.336 116.57 284.946 122.18 291.821 122.18H305.736V129ZM300.456 113.105H287.641V106.285H300.456V113.105ZM349.136 90.39V117.615C349.136 126.14 344.846 129 342.206 129C336.816 129 334.836 126.855 330.106 116.9L324.606 105.35C322.956 101.83 318.336 91.16 318.611 101.72V129H311.791V101.72C311.791 93.195 316.026 90.39 318.666 90.39C324.111 90.39 326.036 92.48 330.766 102.435L336.486 114.425C338.466 118.825 342.591 127.46 342.316 117.615V90.39H349.136ZM367.743 129V97.21H355.203V90.39H387.158V97.21H374.563V129H367.743ZM422.934 101.72V129H416.114V101.72C416.114 98.86 415.674 96.99 413.804 96.99C410.669 96.99 407.864 101.83 406.599 103.865L390.319 129H382.179L398.459 103.865C404.069 95.175 407.699 90.17 415.179 90.17C419.799 90.17 422.934 94.46 422.934 101.72ZM454.82 122.18H469.12V129H454.82C448.55 129 443.435 123.885 443.435 117.615V90.445H450.255V117.615C450.255 120.145 452.29 122.18 454.82 122.18ZM515.946 101.72V129H509.126V101.72C509.126 98.86 508.686 96.99 506.816 96.99C503.681 96.99 500.876 101.83 499.611 103.865L483.331 129H475.191L491.471 103.865C497.081 95.175 500.711 90.17 508.191 90.17C512.811 90.17 515.946 94.46 515.946 101.72ZM573.792 90.39V117.615C573.792 126.14 569.502 129 566.862 129C561.472 129 559.492 126.855 554.762 116.9L549.262 105.35C547.612 101.83 542.992 91.16 543.267 101.72V129H536.447V101.72C536.447 93.195 540.682 90.39 543.322 90.39C548.767 90.39 550.692 92.48 555.422 102.435L561.142 114.425C563.122 118.825 567.247 127.46 566.972 117.615V90.39H573.792ZM595.368 129.11C586.788 129.11 579.858 122.18 579.858 113.6V90.5H586.678V113.6C586.678 118.385 590.583 122.29 595.368 122.29C600.153 122.29 604.003 118.385 604.003 113.6V90.5H610.823V113.6C610.823 122.18 603.893 129.11 595.368 129.11ZM649.292 129H635.267C624.652 128.89 616.072 120.31 616.072 109.695C616.072 99.025 624.707 90.39 635.377 90.39H649.292V97.21H635.377C628.502 97.21 622.892 102.765 622.892 109.695C622.892 116.57 628.502 122.18 635.377 122.18H649.292V129ZM644.012 113.105H631.197V106.285H644.012V113.105ZM655.348 117.725V90.5H662.168V117.725C662.168 120.64 662.608 122.455 664.478 122.455C667.613 122.455 670.418 117.67 671.683 115.58L687.963 90.5H696.103L679.823 115.58C674.213 124.27 670.528 129.275 663.103 129.275C658.483 129.275 655.348 125.04 655.348 117.725ZM726.409 101.72V129H719.589V101.72C719.589 98.86 719.149 96.99 717.279 96.99C714.144 96.99 711.339 101.83 710.074 103.865L693.794 129H685.654L701.934 103.865C707.544 95.175 711.174 90.17 718.654 90.17C723.274 90.17 726.409 94.46 726.409 101.72ZM780.13 129H766.105C755.49 128.89 746.91 120.31 746.91 109.695C746.91 99.025 755.545 90.39 766.215 90.39H780.13V97.21H766.215C759.34 97.21 753.73 102.765 753.73 109.695C753.73 116.57 759.34 122.18 766.215 122.18H780.13V129ZM774.85 113.105H762.035V106.285H774.85V113.105ZM810.991 112.28L819.901 129H812.201L808.406 121.74C806.316 118.165 804.281 113.105 802.026 113.105H797.516C795.041 113.105 793.006 115.14 793.006 117.615V129H786.186V117.615C786.186 111.345 791.246 106.285 797.516 106.285H806.701C812.696 106.285 812.696 97.21 806.701 97.21H786.186V90.39H806.701C819.131 90.39 822.431 107.605 810.991 112.28ZM863.961 101.72V129H857.141V101.72C857.141 98.86 856.701 96.99 854.831 96.99C851.696 96.99 848.891 101.83 847.626 103.865L831.346 129H823.206L839.486 103.865C845.096 95.175 848.726 90.17 856.206 90.17C860.826 90.17 863.961 94.46 863.961 101.72ZM898.542 129H884.462V122.18H898.377C905.307 122.18 910.862 116.57 910.862 109.695C910.862 102.765 905.307 97.21 898.377 97.21H884.462V90.39H898.377C909.047 90.39 917.682 99.025 917.682 109.695C917.682 120.31 909.102 128.89 898.542 129ZM956.957 129H942.932C932.317 128.89 923.737 120.31 923.737 109.695C923.737 99.025 932.372 90.39 943.042 90.39H956.957V97.21H943.042C936.167 97.21 930.557 102.765 930.557 109.695C930.557 116.57 936.167 122.18 943.042 122.18H956.957V129ZM951.677 113.105H938.862V106.285H951.677V113.105ZM126.1 199.18H140.4V206H126.1C119.83 206 114.715 200.885 114.715 194.615V167.445H121.535V194.615C121.535 197.145 123.57 199.18 126.1 199.18ZM187.226 178.72V206H180.406V178.72C180.406 175.86 179.966 173.99 178.096 173.99C174.961 173.99 172.156 178.83 170.891 180.865L154.611 206H146.471L162.751 180.865C168.361 172.175 171.991 167.17 179.471 167.17C184.091 167.17 187.226 171.46 187.226 178.72ZM234.128 190.16H223.128V183.34H234.128C240.398 183.34 245.458 188.4 245.458 194.67C245.458 200.94 240.398 206 234.128 206H226.923C216.308 205.945 207.728 197.365 207.728 186.75C207.728 176.08 216.363 167.445 227.033 167.445H240.948V174.265H227.033C220.103 174.265 214.548 179.82 214.548 186.75C214.548 193.625 220.103 199.18 227.033 199.18H234.128C240.123 199.18 240.123 190.16 234.128 190.16ZM281.996 206H267.971C257.356 205.89 248.776 197.31 248.776 186.695C248.776 176.025 257.411 167.39 268.081 167.39H281.996V174.21H268.081C261.206 174.21 255.596 179.765 255.596 186.695C255.596 193.57 261.206 199.18 268.081 199.18H281.996V206ZM276.716 190.105H263.901V183.285H276.716V190.105ZM297.985 167.39H318.28V174.21H297.985C292.045 174.21 292.045 183.285 297.985 183.285H310.635C316.905 183.285 322.02 188.345 322.02 194.615C322.02 200.885 316.905 206 310.635 206H289.295V199.18H310.635C316.63 199.18 316.63 190.105 310.635 190.105H297.71C291.55 189.94 286.655 184.935 286.655 178.72C286.655 172.45 291.715 167.39 297.985 167.39ZM337.879 206V174.21H325.339V167.39H357.294V174.21H344.699V206H337.879ZM363.326 206V167.445H370.146V206H363.326ZM395.866 167.005C406.701 167.005 415.556 175.805 415.556 186.695C415.556 197.53 406.701 206.385 395.866 206.385C384.976 206.385 376.176 197.53 376.176 186.695C376.176 175.805 384.976 167.005 395.866 167.005ZM395.866 199.565C402.906 199.565 408.736 193.68 408.736 186.64C408.736 179.6 402.906 173.825 395.866 173.825C388.826 173.825 382.996 179.6 382.996 186.64C382.996 193.68 388.826 199.565 395.866 199.565ZM400.981 154.245L393.226 163.155H390.751L395.371 154.245H400.981ZM458.973 167.39V194.615C458.973 203.14 454.683 206 452.043 206C446.653 206 444.673 203.855 439.943 193.9L434.443 182.35C432.793 178.83 428.173 168.16 428.448 178.72V206H421.628V178.72C421.628 170.195 425.863 167.39 428.503 167.39C433.948 167.39 435.873 169.48 440.603 179.435L446.323 191.425C448.303 195.825 452.428 204.46 452.153 194.615V167.39H458.973ZM486.321 186.695V206H479.501V186.695C479.501 176.025 488.081 167.39 498.971 167.39H512.886V174.21H498.806C491.876 174.21 486.321 179.765 486.321 186.695ZM507.606 190.105H494.791V183.285H507.606V190.105ZM518.937 206V167.445H525.757V206H518.937ZM569.132 167.39V194.615C569.132 203.14 564.842 206 562.202 206C556.812 206 554.832 203.855 550.102 193.9L544.602 182.35C542.952 178.83 538.332 168.16 538.607 178.72V206H531.787V178.72C531.787 170.195 536.022 167.39 538.662 167.39C544.107 167.39 546.032 169.48 550.762 179.435L556.482 191.425C558.462 195.825 562.587 204.46 562.312 194.615V167.39H569.132ZM611.818 178.72V206H604.998V178.72C604.998 175.86 604.558 173.99 602.688 173.99C599.553 173.99 596.748 178.83 595.483 180.865L579.203 206H571.063L587.343 180.865C592.953 172.175 596.583 167.17 604.063 167.17C608.683 167.17 611.818 171.46 611.818 178.72ZM655.203 167.39V194.615C655.203 203.14 650.913 206 648.273 206C642.883 206 640.903 203.855 636.173 193.9L630.673 182.35C629.023 178.83 624.403 168.16 624.678 178.72V206H617.858V178.72C617.858 170.195 622.093 167.39 624.733 167.39C630.178 167.39 632.103 169.48 636.833 179.435L642.553 191.425C644.533 195.825 648.658 204.46 648.383 194.615V167.39H655.203ZM694.489 206H680.464C669.849 205.89 661.269 197.31 661.269 186.695C661.269 176.025 669.904 167.39 680.519 167.39H694.489V174.21H680.519C673.644 174.21 668.089 179.765 668.089 186.695C668.089 193.57 673.644 199.18 680.519 199.18H694.489V206ZM700.545 206V167.445H707.365V206H700.545ZM746.615 206H732.59C721.975 205.89 713.395 197.31 713.395 186.695C713.395 176.025 722.03 167.39 732.7 167.39H746.615V174.21H732.7C725.825 174.21 720.215 179.765 720.215 186.695C720.215 193.57 725.825 199.18 732.7 199.18H746.615V206ZM741.335 190.105H728.52V183.285H741.335V190.105ZM777.475 189.28L786.385 206H778.685L774.89 198.74C772.8 195.165 770.765 190.105 768.51 190.105H764C761.525 190.105 759.49 192.14 759.49 194.615V206H752.67V194.615C752.67 188.345 757.73 183.285 764 183.285H773.185C779.18 183.285 779.18 174.21 773.185 174.21H752.67V167.39H773.185C785.615 167.39 788.915 184.605 777.475 189.28ZM830.445 178.72V206H823.625V178.72C823.625 175.86 823.185 173.99 821.315 173.99C818.18 173.99 815.375 178.83 814.11 180.865L797.83 206H789.69L805.97 180.865C811.58 172.175 815.21 167.17 822.69 167.17C827.31 167.17 830.445 171.46 830.445 178.72ZM836.485 202.645C836.485 198.135 843.305 198.135 843.305 202.645C843.305 207.1 836.485 207.155 836.485 202.645Z" fill="white"/>
<path d="M185.582 24.72V52H178.762V24.72C178.762 21.86 178.322 19.99 176.452 19.99C173.317 19.99 170.512 24.83 169.247 26.865L152.967 52H144.827L161.107 26.865C166.717 18.175 170.347 13.17 177.827 13.17C182.447 13.17 185.582 17.46 185.582 24.72ZM202.952 13.39H223.247V20.21H202.952C197.012 20.21 197.012 29.285 202.952 29.285H215.602C221.872 29.285 226.987 34.345 226.987 40.615C226.987 46.885 221.872 52 215.602 52H194.262V45.18H215.602C221.597 45.18 221.597 36.105 215.602 36.105H202.677C196.517 35.94 191.622 30.935 191.622 24.72C191.622 18.45 196.682 13.39 202.952 13.39ZM252.736 13.005C263.571 13.005 272.426 21.805 272.426 32.695C272.426 43.53 263.571 52.385 252.736 52.385C241.846 52.385 233.046 43.53 233.046 32.695C233.046 21.805 241.846 13.005 252.736 13.005ZM252.736 45.565C259.776 45.565 265.606 39.68 265.606 32.64C265.606 25.6 259.776 19.825 252.736 19.825C245.696 19.825 239.866 25.6 239.866 32.64C239.866 39.68 245.696 45.565 252.736 45.565ZM257.851 0.244998L250.096 9.155H247.621L252.241 0.244998H257.851ZM311.718 52H297.693C287.078 51.89 278.498 43.31 278.498 32.695C278.498 22.025 287.133 13.39 297.748 13.39H311.718V20.21H297.748C290.873 20.21 285.318 25.765 285.318 32.695C285.318 39.57 290.873 45.18 297.748 45.18H311.718V52ZM317.774 52V13.445H324.594V52H317.774ZM371.379 24.72V52H364.559V24.72C364.559 21.86 364.119 19.99 362.249 19.99C359.114 19.99 356.309 24.83 355.044 26.865L338.764 52H330.624L346.904 26.865C352.514 18.175 356.144 13.17 363.624 13.17C368.244 13.17 371.379 17.46 371.379 24.72ZM389.959 52V20.21H377.419V13.39H409.374V20.21H396.779V52H389.959ZM445.886 52H431.861C421.246 51.89 412.666 43.31 412.666 32.695C412.666 22.025 421.301 13.39 431.971 13.39H445.886V20.21H431.971C425.096 20.21 419.486 25.765 419.486 32.695C419.486 39.57 425.096 45.18 431.971 45.18H445.886V52ZM440.606 36.105H427.791V29.285H440.606V36.105ZM499.623 52H485.598C474.983 51.89 466.403 43.31 466.403 32.695C466.403 22.025 475.038 13.39 485.653 13.39H499.623V20.21H485.653C478.778 20.21 473.223 25.765 473.223 32.695C473.223 39.57 478.778 45.18 485.653 45.18H499.623V52ZM522.629 13.005C533.464 13.005 542.319 21.805 542.319 32.695C542.319 43.53 533.464 52.385 522.629 52.385C511.739 52.385 502.939 43.53 502.939 32.695C502.939 21.805 511.739 13.005 522.629 13.005ZM522.629 45.565C529.669 45.565 535.499 39.68 535.499 32.64C535.499 25.6 529.669 19.825 522.629 19.825C515.589 19.825 509.759 25.6 509.759 32.64C509.759 39.68 515.589 45.565 522.629 45.565ZM585.736 13.39V40.615C585.736 49.14 581.446 52 578.806 52C573.416 52 571.436 49.855 566.706 39.9L561.206 28.35C559.556 24.83 554.936 14.16 555.211 24.72V52H548.391V24.72C548.391 16.195 552.626 13.39 555.266 13.39C560.711 13.39 562.636 15.48 567.366 25.435L573.086 37.425C575.066 41.825 579.191 50.46 578.916 40.615V13.39H585.736ZM632.664 36.16H621.664V29.34H632.664C638.934 29.34 643.994 34.4 643.994 40.67C643.994 46.94 638.934 52 632.664 52H625.459C614.844 51.945 606.264 43.365 606.264 32.75C606.264 22.08 614.899 13.445 625.569 13.445H639.484V20.265H625.569C618.639 20.265 613.084 25.82 613.084 32.75C613.084 39.625 618.639 45.18 625.569 45.18H632.664C638.659 45.18 638.659 36.16 632.664 36.16ZM650.051 52V13.445H656.871V52H650.051ZM681.194 13.005C692.029 13.005 700.884 21.805 700.884 32.695C700.884 43.53 692.029 52.385 681.194 52.385C670.304 52.385 661.504 43.53 661.504 32.695C661.504 21.805 670.304 13.005 681.194 13.005ZM681.194 45.565C688.234 45.565 694.064 39.68 694.064 32.64C694.064 25.6 688.234 19.825 681.194 19.825C674.154 19.825 668.324 25.6 668.324 32.64C668.324 39.68 674.154 45.565 681.194 45.565ZM713.777 32.695V52H706.957V32.695C706.957 22.025 715.537 13.39 726.427 13.39H740.342V20.21H726.262C719.332 20.21 713.777 25.765 713.777 32.695ZM735.062 36.105H722.247V29.285H735.062V36.105ZM746.393 52V13.445H753.213V52H746.393ZM789.764 52V35.94C783.769 34.675 780.909 27.03 779.149 23.84L773.704 13.445H781.404L785.199 20.65C787.234 24.225 789.324 29.34 791.579 29.34C796.804 29.34 796.034 30.11 801.149 20.65L804.944 13.445H812.644L807.199 23.84C805.384 27.03 802.579 34.675 796.584 35.94V52H789.764ZM33.7071 129H19.6821C9.06712 128.89 0.487122 120.31 0.487122 109.695C0.487122 99.025 9.12212 90.39 19.7921 90.39H33.7071V97.21H19.7921C12.9171 97.21 7.30712 102.765 7.30712 109.695C7.30712 116.57 12.9171 122.18 19.7921 122.18H33.7071V129ZM28.4271 113.105H15.6121V106.285H28.4271V113.105ZM50.5977 109.75C47.9577 106.835 46.3627 102.93 45.2077 100.84L39.7627 90.445H47.4627L51.2577 97.65C53.2927 101.225 55.3827 106.34 57.6377 106.34C63.0827 106.34 62.0927 107 67.2077 97.65L71.0027 90.445H78.7027L73.2577 100.84C72.1027 102.93 70.5077 106.835 67.8677 109.75C70.5077 112.61 72.1027 116.515 73.2577 118.605L78.7027 129H71.0027L67.2077 121.795C65.1727 118.22 63.0827 113.16 60.8277 113.16C55.3827 113.16 56.3727 112.5 51.2577 121.795L47.4627 129H39.7627L45.2077 118.605C46.3627 116.515 47.9577 112.61 50.5977 109.75ZM84.7317 129V117.615C84.7317 111.345 89.7917 106.285 96.0617 106.285H105.247C111.187 106.285 111.187 97.21 105.247 97.21H84.7317V90.39H105.247C111.517 90.39 116.577 95.45 116.577 101.72C116.577 107.55 112.232 112.335 106.567 112.995V113.105H96.0617C93.5317 113.105 91.5517 115.14 91.5517 117.615V129H84.7317ZM153.091 129H139.066C128.451 128.89 119.871 120.31 119.871 109.695C119.871 99.025 128.506 90.39 139.176 90.39H153.091V97.21H139.176C132.301 97.21 126.691 102.765 126.691 109.695C126.691 116.57 132.301 122.18 139.176 122.18H153.091V129ZM147.811 113.105H134.996V106.285H147.811V113.105ZM183.952 112.28L192.862 129H185.162L181.367 121.74C179.277 118.165 177.242 113.105 174.987 113.105H170.477C168.002 113.105 165.967 115.14 165.967 117.615V129H159.147V117.615C159.147 111.345 164.207 106.285 170.477 106.285H179.662C185.657 106.285 185.657 97.21 179.662 97.21H159.147V90.39H179.662C192.092 90.39 195.392 107.605 183.952 112.28ZM198.906 129V90.445H205.726V129H198.906ZM233.041 118.055V101.335C233.041 101.335 233.261 97.21 232.326 97.21C231.556 97.21 231.006 99.025 229.466 102.985L219.071 129H211.756L222.096 102.985C225.176 94.625 227.871 90.39 233.316 90.39C237.166 90.39 239.861 94.295 239.861 101.335V118.055C239.861 118.055 239.586 122.18 240.521 122.18C241.181 122.18 241.676 120.805 242.776 118H242.721L248.716 102.985C251.796 94.625 254.491 90.39 259.936 90.39C263.786 90.39 266.481 94.295 266.481 101.335V129H259.661V101.335C259.661 101.335 259.881 97.21 258.946 97.21C258.176 97.21 257.626 99.025 256.086 102.985L250.696 116.515C247.671 124.82 244.921 129 239.531 129C235.681 129 233.041 125.04 233.041 118.055ZM305.736 129H291.711C281.096 128.89 272.516 120.31 272.516 109.695C272.516 99.025 281.151 90.39 291.821 90.39H305.736V97.21H291.821C284.946 97.21 279.336 102.765 279.336 109.695C279.336 116.57 284.946 122.18 291.821 122.18H305.736V129ZM300.456 113.105H287.641V106.285H300.456V113.105ZM349.136 90.39V117.615C349.136 126.14 344.846 129 342.206 129C336.816 129 334.836 126.855 330.106 116.9L324.606 105.35C322.956 101.83 318.336 91.16 318.611 101.72V129H311.791V101.72C311.791 93.195 316.026 90.39 318.666 90.39C324.111 90.39 326.036 92.48 330.766 102.435L336.486 114.425C338.466 118.825 342.591 127.46 342.316 117.615V90.39H349.136ZM367.743 129V97.21H355.203V90.39H387.158V97.21H374.563V129H367.743ZM422.934 101.72V129H416.114V101.72C416.114 98.86 415.674 96.99 413.804 96.99C410.669 96.99 407.864 101.83 406.599 103.865L390.319 129H382.179L398.459 103.865C404.069 95.175 407.699 90.17 415.179 90.17C419.799 90.17 422.934 94.46 422.934 101.72ZM454.82 122.18H469.12V129H454.82C448.55 129 443.435 123.885 443.435 117.615V90.445H450.255V117.615C450.255 120.145 452.29 122.18 454.82 122.18ZM515.946 101.72V129H509.126V101.72C509.126 98.86 508.686 96.99 506.816 96.99C503.681 96.99 500.876 101.83 499.611 103.865L483.331 129H475.191L491.471 103.865C497.081 95.175 500.711 90.17 508.191 90.17C512.811 90.17 515.946 94.46 515.946 101.72ZM573.792 90.39V117.615C573.792 126.14 569.502 129 566.862 129C561.472 129 559.492 126.855 554.762 116.9L549.262 105.35C547.612 101.83 542.992 91.16 543.267 101.72V129H536.447V101.72C536.447 93.195 540.682 90.39 543.322 90.39C548.767 90.39 550.692 92.48 555.422 102.435L561.142 114.425C563.122 118.825 567.247 127.46 566.972 117.615V90.39H573.792ZM595.368 129.11C586.788 129.11 579.858 122.18 579.858 113.6V90.5H586.678V113.6C586.678 118.385 590.583 122.29 595.368 122.29C600.153 122.29 604.003 118.385 604.003 113.6V90.5H610.823V113.6C610.823 122.18 603.893 129.11 595.368 129.11ZM649.292 129H635.267C624.652 128.89 616.072 120.31 616.072 109.695C616.072 99.025 624.707 90.39 635.377 90.39H649.292V97.21H635.377C628.502 97.21 622.892 102.765 622.892 109.695C622.892 116.57 628.502 122.18 635.377 122.18H649.292V129ZM644.012 113.105H631.197V106.285H644.012V113.105ZM655.348 117.725V90.5H662.168V117.725C662.168 120.64 662.608 122.455 664.478 122.455C667.613 122.455 670.418 117.67 671.683 115.58L687.963 90.5H696.103L679.823 115.58C674.213 124.27 670.528 129.275 663.103 129.275C658.483 129.275 655.348 125.04 655.348 117.725ZM726.409 101.72V129H719.589V101.72C719.589 98.86 719.149 96.99 717.279 96.99C714.144 96.99 711.339 101.83 710.074 103.865L693.794 129H685.654L701.934 103.865C707.544 95.175 711.174 90.17 718.654 90.17C723.274 90.17 726.409 94.46 726.409 101.72ZM780.13 129H766.105C755.49 128.89 746.91 120.31 746.91 109.695C746.91 99.025 755.545 90.39 766.215 90.39H780.13V97.21H766.215C759.34 97.21 753.73 102.765 753.73 109.695C753.73 116.57 759.34 122.18 766.215 122.18H780.13V129ZM774.85 113.105H762.035V106.285H774.85V113.105ZM810.991 112.28L819.901 129H812.201L808.406 121.74C806.316 118.165 804.281 113.105 802.026 113.105H797.516C795.041 113.105 793.006 115.14 793.006 117.615V129H786.186V117.615C786.186 111.345 791.246 106.285 797.516 106.285H806.701C812.696 106.285 812.696 97.21 806.701 97.21H786.186V90.39H806.701C819.131 90.39 822.431 107.605 810.991 112.28ZM863.961 101.72V129H857.141V101.72C857.141 98.86 856.701 96.99 854.831 96.99C851.696 96.99 848.891 101.83 847.626 103.865L831.346 129H823.206L839.486 103.865C845.096 95.175 848.726 90.17 856.206 90.17C860.826 90.17 863.961 94.46 863.961 101.72ZM898.542 129H884.462V122.18H898.377C905.307 122.18 910.862 116.57 910.862 109.695C910.862 102.765 905.307 97.21 898.377 97.21H884.462V90.39H898.377C909.047 90.39 917.682 99.025 917.682 109.695C917.682 120.31 909.102 128.89 898.542 129ZM956.957 129H942.932C932.317 128.89 923.737 120.31 923.737 109.695C923.737 99.025 932.372 90.39 943.042 90.39H956.957V97.21H943.042C936.167 97.21 930.557 102.765 930.557 109.695C930.557 116.57 936.167 122.18 943.042 122.18H956.957V129ZM951.677 113.105H938.862V106.285H951.677V113.105ZM126.1 199.18H140.4V206H126.1C119.83 206 114.715 200.885 114.715 194.615V167.445H121.535V194.615C121.535 197.145 123.57 199.18 126.1 199.18ZM187.226 178.72V206H180.406V178.72C180.406 175.86 179.966 173.99 178.096 173.99C174.961 173.99 172.156 178.83 170.891 180.865L154.611 206H146.471L162.751 180.865C168.361 172.175 171.991 167.17 179.471 167.17C184.091 167.17 187.226 171.46 187.226 178.72ZM234.128 190.16H223.128V183.34H234.128C240.398 183.34 245.458 188.4 245.458 194.67C245.458 200.94 240.398 206 234.128 206H226.923C216.308 205.945 207.728 197.365 207.728 186.75C207.728 176.08 216.363 167.445 227.033 167.445H240.948V174.265H227.033C220.103 174.265 214.548 179.82 214.548 186.75C214.548 193.625 220.103 199.18 227.033 199.18H234.128C240.123 199.18 240.123 190.16 234.128 190.16ZM281.996 206H267.971C257.356 205.89 248.776 197.31 248.776 186.695C248.776 176.025 257.411 167.39 268.081 167.39H281.996V174.21H268.081C261.206 174.21 255.596 179.765 255.596 186.695C255.596 193.57 261.206 199.18 268.081 199.18H281.996V206ZM276.716 190.105H263.901V183.285H276.716V190.105ZM297.985 167.39H318.28V174.21H297.985C292.045 174.21 292.045 183.285 297.985 183.285H310.635C316.905 183.285 322.02 188.345 322.02 194.615C322.02 200.885 316.905 206 310.635 206H289.295V199.18H310.635C316.63 199.18 316.63 190.105 310.635 190.105H297.71C291.55 189.94 286.655 184.935 286.655 178.72C286.655 172.45 291.715 167.39 297.985 167.39ZM337.879 206V174.21H325.339V167.39H357.294V174.21H344.699V206H337.879ZM363.326 206V167.445H370.146V206H363.326ZM395.866 167.005C406.701 167.005 415.556 175.805 415.556 186.695C415.556 197.53 406.701 206.385 395.866 206.385C384.976 206.385 376.176 197.53 376.176 186.695C376.176 175.805 384.976 167.005 395.866 167.005ZM395.866 199.565C402.906 199.565 408.736 193.68 408.736 186.64C408.736 179.6 402.906 173.825 395.866 173.825C388.826 173.825 382.996 179.6 382.996 186.64C382.996 193.68 388.826 199.565 395.866 199.565ZM400.981 154.245L393.226 163.155H390.751L395.371 154.245H400.981ZM458.973 167.39V194.615C458.973 203.14 454.683 206 452.043 206C446.653 206 444.673 203.855 439.943 193.9L434.443 182.35C432.793 178.83 428.173 168.16 428.448 178.72V206H421.628V178.72C421.628 170.195 425.863 167.39 428.503 167.39C433.948 167.39 435.873 169.48 440.603 179.435L446.323 191.425C448.303 195.825 452.428 204.46 452.153 194.615V167.39H458.973ZM486.321 186.695V206H479.501V186.695C479.501 176.025 488.081 167.39 498.971 167.39H512.886V174.21H498.806C491.876 174.21 486.321 179.765 486.321 186.695ZM507.606 190.105H494.791V183.285H507.606V190.105ZM518.937 206V167.445H525.757V206H518.937ZM569.132 167.39V194.615C569.132 203.14 564.842 206 562.202 206C556.812 206 554.832 203.855 550.102 193.9L544.602 182.35C542.952 178.83 538.332 168.16 538.607 178.72V206H531.787V178.72C531.787 170.195 536.022 167.39 538.662 167.39C544.107 167.39 546.032 169.48 550.762 179.435L556.482 191.425C558.462 195.825 562.587 204.46 562.312 194.615V167.39H569.132ZM611.818 178.72V206H604.998V178.72C604.998 175.86 604.558 173.99 602.688 173.99C599.553 173.99 596.748 178.83 595.483 180.865L579.203 206H571.063L587.343 180.865C592.953 172.175 596.583 167.17 604.063 167.17C608.683 167.17 611.818 171.46 611.818 178.72ZM655.203 167.39V194.615C655.203 203.14 650.913 206 648.273 206C642.883 206 640.903 203.855 636.173 193.9L630.673 182.35C629.023 178.83 624.403 168.16 624.678 178.72V206H617.858V178.72C617.858 170.195 622.093 167.39 624.733 167.39C630.178 167.39 632.103 169.48 636.833 179.435L642.553 191.425C644.533 195.825 648.658 204.46 648.383 194.615V167.39H655.203ZM694.489 206H680.464C669.849 205.89 661.269 197.31 661.269 186.695C661.269 176.025 669.904 167.39 680.519 167.39H694.489V174.21H680.519C673.644 174.21 668.089 179.765 668.089 186.695C668.089 193.57 673.644 199.18 680.519 199.18H694.489V206ZM700.545 206V167.445H707.365V206H700.545ZM746.615 206H732.59C721.975 205.89 713.395 197.31 713.395 186.695C713.395 176.025 722.03 167.39 732.7 167.39H746.615V174.21H732.7C725.825 174.21 720.215 179.765 720.215 186.695C720.215 193.57 725.825 199.18 732.7 199.18H746.615V206ZM741.335 190.105H728.52V183.285H741.335V190.105ZM777.475 189.28L786.385 206H778.685L774.89 198.74C772.8 195.165 770.765 190.105 768.51 190.105H764C761.525 190.105 759.49 192.14 759.49 194.615V206H752.67V194.615C752.67 188.345 757.73 183.285 764 183.285H773.185C779.18 183.285 779.18 174.21 773.185 174.21H752.67V167.39H773.185C785.615 167.39 788.915 184.605 777.475 189.28ZM830.445 178.72V206H823.625V178.72C823.625 175.86 823.185 173.99 821.315 173.99C818.18 173.99 815.375 178.83 814.11 180.865L797.83 206H789.69L805.97 180.865C811.58 172.175 815.21 167.17 822.69 167.17C827.31 167.17 830.445 171.46 830.445 178.72ZM836.485 202.645C836.485 198.135 843.305 198.135 843.305 202.645C843.305 207.1 836.485 207.155 836.485 202.645Z" fill="url(#paint0_linear_270590_466)"/>
<path d="M185.582 24.72V52H178.762V24.72C178.762 21.86 178.322 19.99 176.452 19.99C173.317 19.99 170.512 24.83 169.247 26.865L152.967 52H144.827L161.107 26.865C166.717 18.175 170.347 13.17 177.827 13.17C182.447 13.17 185.582 17.46 185.582 24.72ZM202.952 13.39H223.247V20.21H202.952C197.012 20.21 197.012 29.285 202.952 29.285H215.602C221.872 29.285 226.987 34.345 226.987 40.615C226.987 46.885 221.872 52 215.602 52H194.262V45.18H215.602C221.597 45.18 221.597 36.105 215.602 36.105H202.677C196.517 35.94 191.622 30.935 191.622 24.72C191.622 18.45 196.682 13.39 202.952 13.39ZM252.736 13.005C263.571 13.005 272.426 21.805 272.426 32.695C272.426 43.53 263.571 52.385 252.736 52.385C241.846 52.385 233.046 43.53 233.046 32.695C233.046 21.805 241.846 13.005 252.736 13.005ZM252.736 45.565C259.776 45.565 265.606 39.68 265.606 32.64C265.606 25.6 259.776 19.825 252.736 19.825C245.696 19.825 239.866 25.6 239.866 32.64C239.866 39.68 245.696 45.565 252.736 45.565ZM257.851 0.244998L250.096 9.155H247.621L252.241 0.244998H257.851ZM311.718 52H297.693C287.078 51.89 278.498 43.31 278.498 32.695C278.498 22.025 287.133 13.39 297.748 13.39H311.718V20.21H297.748C290.873 20.21 285.318 25.765 285.318 32.695C285.318 39.57 290.873 45.18 297.748 45.18H311.718V52ZM317.774 52V13.445H324.594V52H317.774ZM371.379 24.72V52H364.559V24.72C364.559 21.86 364.119 19.99 362.249 19.99C359.114 19.99 356.309 24.83 355.044 26.865L338.764 52H330.624L346.904 26.865C352.514 18.175 356.144 13.17 363.624 13.17C368.244 13.17 371.379 17.46 371.379 24.72ZM389.959 52V20.21H377.419V13.39H409.374V20.21H396.779V52H389.959ZM445.886 52H431.861C421.246 51.89 412.666 43.31 412.666 32.695C412.666 22.025 421.301 13.39 431.971 13.39H445.886V20.21H431.971C425.096 20.21 419.486 25.765 419.486 32.695C419.486 39.57 425.096 45.18 431.971 45.18H445.886V52ZM440.606 36.105H427.791V29.285H440.606V36.105ZM499.623 52H485.598C474.983 51.89 466.403 43.31 466.403 32.695C466.403 22.025 475.038 13.39 485.653 13.39H499.623V20.21H485.653C478.778 20.21 473.223 25.765 473.223 32.695C473.223 39.57 478.778 45.18 485.653 45.18H499.623V52ZM522.629 13.005C533.464 13.005 542.319 21.805 542.319 32.695C542.319 43.53 533.464 52.385 522.629 52.385C511.739 52.385 502.939 43.53 502.939 32.695C502.939 21.805 511.739 13.005 522.629 13.005ZM522.629 45.565C529.669 45.565 535.499 39.68 535.499 32.64C535.499 25.6 529.669 19.825 522.629 19.825C515.589 19.825 509.759 25.6 509.759 32.64C509.759 39.68 515.589 45.565 522.629 45.565ZM585.736 13.39V40.615C585.736 49.14 581.446 52 578.806 52C573.416 52 571.436 49.855 566.706 39.9L561.206 28.35C559.556 24.83 554.936 14.16 555.211 24.72V52H548.391V24.72C548.391 16.195 552.626 13.39 555.266 13.39C560.711 13.39 562.636 15.48 567.366 25.435L573.086 37.425C575.066 41.825 579.191 50.46 578.916 40.615V13.39H585.736ZM632.664 36.16H621.664V29.34H632.664C638.934 29.34 643.994 34.4 643.994 40.67C643.994 46.94 638.934 52 632.664 52H625.459C614.844 51.945 606.264 43.365 606.264 32.75C606.264 22.08 614.899 13.445 625.569 13.445H639.484V20.265H625.569C618.639 20.265 613.084 25.82 613.084 32.75C613.084 39.625 618.639 45.18 625.569 45.18H632.664C638.659 45.18 638.659 36.16 632.664 36.16ZM650.051 52V13.445H656.871V52H650.051ZM681.194 13.005C692.029 13.005 700.884 21.805 700.884 32.695C700.884 43.53 692.029 52.385 681.194 52.385C670.304 52.385 661.504 43.53 661.504 32.695C661.504 21.805 670.304 13.005 681.194 13.005ZM681.194 45.565C688.234 45.565 694.064 39.68 694.064 32.64C694.064 25.6 688.234 19.825 681.194 19.825C674.154 19.825 668.324 25.6 668.324 32.64C668.324 39.68 674.154 45.565 681.194 45.565ZM713.777 32.695V52H706.957V32.695C706.957 22.025 715.537 13.39 726.427 13.39H740.342V20.21H726.262C719.332 20.21 713.777 25.765 713.777 32.695ZM735.062 36.105H722.247V29.285H735.062V36.105ZM746.393 52V13.445H753.213V52H746.393ZM789.764 52V35.94C783.769 34.675 780.909 27.03 779.149 23.84L773.704 13.445H781.404L785.199 20.65C787.234 24.225 789.324 29.34 791.579 29.34C796.804 29.34 796.034 30.11 801.149 20.65L804.944 13.445H812.644L807.199 23.84C805.384 27.03 802.579 34.675 796.584 35.94V52H789.764ZM33.7071 129H19.6821C9.06712 128.89 0.487122 120.31 0.487122 109.695C0.487122 99.025 9.12212 90.39 19.7921 90.39H33.7071V97.21H19.7921C12.9171 97.21 7.30712 102.765 7.30712 109.695C7.30712 116.57 12.9171 122.18 19.7921 122.18H33.7071V129ZM28.4271 113.105H15.6121V106.285H28.4271V113.105ZM50.5977 109.75C47.9577 106.835 46.3627 102.93 45.2077 100.84L39.7627 90.445H47.4627L51.2577 97.65C53.2927 101.225 55.3827 106.34 57.6377 106.34C63.0827 106.34 62.0927 107 67.2077 97.65L71.0027 90.445H78.7027L73.2577 100.84C72.1027 102.93 70.5077 106.835 67.8677 109.75C70.5077 112.61 72.1027 116.515 73.2577 118.605L78.7027 129H71.0027L67.2077 121.795C65.1727 118.22 63.0827 113.16 60.8277 113.16C55.3827 113.16 56.3727 112.5 51.2577 121.795L47.4627 129H39.7627L45.2077 118.605C46.3627 116.515 47.9577 112.61 50.5977 109.75ZM84.7317 129V117.615C84.7317 111.345 89.7917 106.285 96.0617 106.285H105.247C111.187 106.285 111.187 97.21 105.247 97.21H84.7317V90.39H105.247C111.517 90.39 116.577 95.45 116.577 101.72C116.577 107.55 112.232 112.335 106.567 112.995V113.105H96.0617C93.5317 113.105 91.5517 115.14 91.5517 117.615V129H84.7317ZM153.091 129H139.066C128.451 128.89 119.871 120.31 119.871 109.695C119.871 99.025 128.506 90.39 139.176 90.39H153.091V97.21H139.176C132.301 97.21 126.691 102.765 126.691 109.695C126.691 116.57 132.301 122.18 139.176 122.18H153.091V129ZM147.811 113.105H134.996V106.285H147.811V113.105ZM183.952 112.28L192.862 129H185.162L181.367 121.74C179.277 118.165 177.242 113.105 174.987 113.105H170.477C168.002 113.105 165.967 115.14 165.967 117.615V129H159.147V117.615C159.147 111.345 164.207 106.285 170.477 106.285H179.662C185.657 106.285 185.657 97.21 179.662 97.21H159.147V90.39H179.662C192.092 90.39 195.392 107.605 183.952 112.28ZM198.906 129V90.445H205.726V129H198.906ZM233.041 118.055V101.335C233.041 101.335 233.261 97.21 232.326 97.21C231.556 97.21 231.006 99.025 229.466 102.985L219.071 129H211.756L222.096 102.985C225.176 94.625 227.871 90.39 233.316 90.39C237.166 90.39 239.861 94.295 239.861 101.335V118.055C239.861 118.055 239.586 122.18 240.521 122.18C241.181 122.18 241.676 120.805 242.776 118H242.721L248.716 102.985C251.796 94.625 254.491 90.39 259.936 90.39C263.786 90.39 266.481 94.295 266.481 101.335V129H259.661V101.335C259.661 101.335 259.881 97.21 258.946 97.21C258.176 97.21 257.626 99.025 256.086 102.985L250.696 116.515C247.671 124.82 244.921 129 239.531 129C235.681 129 233.041 125.04 233.041 118.055ZM305.736 129H291.711C281.096 128.89 272.516 120.31 272.516 109.695C272.516 99.025 281.151 90.39 291.821 90.39H305.736V97.21H291.821C284.946 97.21 279.336 102.765 279.336 109.695C279.336 116.57 284.946 122.18 291.821 122.18H305.736V129ZM300.456 113.105H287.641V106.285H300.456V113.105ZM349.136 90.39V117.615C349.136 126.14 344.846 129 342.206 129C336.816 129 334.836 126.855 330.106 116.9L324.606 105.35C322.956 101.83 318.336 91.16 318.611 101.72V129H311.791V101.72C311.791 93.195 316.026 90.39 318.666 90.39C324.111 90.39 326.036 92.48 330.766 102.435L336.486 114.425C338.466 118.825 342.591 127.46 342.316 117.615V90.39H349.136ZM367.743 129V97.21H355.203V90.39H387.158V97.21H374.563V129H367.743ZM422.934 101.72V129H416.114V101.72C416.114 98.86 415.674 96.99 413.804 96.99C410.669 96.99 407.864 101.83 406.599 103.865L390.319 129H382.179L398.459 103.865C404.069 95.175 407.699 90.17 415.179 90.17C419.799 90.17 422.934 94.46 422.934 101.72ZM454.82 122.18H469.12V129H454.82C448.55 129 443.435 123.885 443.435 117.615V90.445H450.255V117.615C450.255 120.145 452.29 122.18 454.82 122.18ZM515.946 101.72V129H509.126V101.72C509.126 98.86 508.686 96.99 506.816 96.99C503.681 96.99 500.876 101.83 499.611 103.865L483.331 129H475.191L491.471 103.865C497.081 95.175 500.711 90.17 508.191 90.17C512.811 90.17 515.946 94.46 515.946 101.72ZM573.792 90.39V117.615C573.792 126.14 569.502 129 566.862 129C561.472 129 559.492 126.855 554.762 116.9L549.262 105.35C547.612 101.83 542.992 91.16 543.267 101.72V129H536.447V101.72C536.447 93.195 540.682 90.39 543.322 90.39C548.767 90.39 550.692 92.48 555.422 102.435L561.142 114.425C563.122 118.825 567.247 127.46 566.972 117.615V90.39H573.792ZM595.368 129.11C586.788 129.11 579.858 122.18 579.858 113.6V90.5H586.678V113.6C586.678 118.385 590.583 122.29 595.368 122.29C600.153 122.29 604.003 118.385 604.003 113.6V90.5H610.823V113.6C610.823 122.18 603.893 129.11 595.368 129.11ZM649.292 129H635.267C624.652 128.89 616.072 120.31 616.072 109.695C616.072 99.025 624.707 90.39 635.377 90.39H649.292V97.21H635.377C628.502 97.21 622.892 102.765 622.892 109.695C622.892 116.57 628.502 122.18 635.377 122.18H649.292V129ZM644.012 113.105H631.197V106.285H644.012V113.105ZM655.348 117.725V90.5H662.168V117.725C662.168 120.64 662.608 122.455 664.478 122.455C667.613 122.455 670.418 117.67 671.683 115.58L687.963 90.5H696.103L679.823 115.58C674.213 124.27 670.528 129.275 663.103 129.275C658.483 129.275 655.348 125.04 655.348 117.725ZM726.409 101.72V129H719.589V101.72C719.589 98.86 719.149 96.99 717.279 96.99C714.144 96.99 711.339 101.83 710.074 103.865L693.794 129H685.654L701.934 103.865C707.544 95.175 711.174 90.17 718.654 90.17C723.274 90.17 726.409 94.46 726.409 101.72ZM780.13 129H766.105C755.49 128.89 746.91 120.31 746.91 109.695C746.91 99.025 755.545 90.39 766.215 90.39H780.13V97.21H766.215C759.34 97.21 753.73 102.765 753.73 109.695C753.73 116.57 759.34 122.18 766.215 122.18H780.13V129ZM774.85 113.105H762.035V106.285H774.85V113.105ZM810.991 112.28L819.901 129H812.201L808.406 121.74C806.316 118.165 804.281 113.105 802.026 113.105H797.516C795.041 113.105 793.006 115.14 793.006 117.615V129H786.186V117.615C786.186 111.345 791.246 106.285 797.516 106.285H806.701C812.696 106.285 812.696 97.21 806.701 97.21H786.186V90.39H806.701C819.131 90.39 822.431 107.605 810.991 112.28ZM863.961 101.72V129H857.141V101.72C857.141 98.86 856.701 96.99 854.831 96.99C851.696 96.99 848.891 101.83 847.626 103.865L831.346 129H823.206L839.486 103.865C845.096 95.175 848.726 90.17 856.206 90.17C860.826 90.17 863.961 94.46 863.961 101.72ZM898.542 129H884.462V122.18H898.377C905.307 122.18 910.862 116.57 910.862 109.695C910.862 102.765 905.307 97.21 898.377 97.21H884.462V90.39H898.377C909.047 90.39 917.682 99.025 917.682 109.695C917.682 120.31 909.102 128.89 898.542 129ZM956.957 129H942.932C932.317 128.89 923.737 120.31 923.737 109.695C923.737 99.025 932.372 90.39 943.042 90.39H956.957V97.21H943.042C936.167 97.21 930.557 102.765 930.557 109.695C930.557 116.57 936.167 122.18 943.042 122.18H956.957V129ZM951.677 113.105H938.862V106.285H951.677V113.105ZM126.1 199.18H140.4V206H126.1C119.83 206 114.715 200.885 114.715 194.615V167.445H121.535V194.615C121.535 197.145 123.57 199.18 126.1 199.18ZM187.226 178.72V206H180.406V178.72C180.406 175.86 179.966 173.99 178.096 173.99C174.961 173.99 172.156 178.83 170.891 180.865L154.611 206H146.471L162.751 180.865C168.361 172.175 171.991 167.17 179.471 167.17C184.091 167.17 187.226 171.46 187.226 178.72ZM234.128 190.16H223.128V183.34H234.128C240.398 183.34 245.458 188.4 245.458 194.67C245.458 200.94 240.398 206 234.128 206H226.923C216.308 205.945 207.728 197.365 207.728 186.75C207.728 176.08 216.363 167.445 227.033 167.445H240.948V174.265H227.033C220.103 174.265 214.548 179.82 214.548 186.75C214.548 193.625 220.103 199.18 227.033 199.18H234.128C240.123 199.18 240.123 190.16 234.128 190.16ZM281.996 206H267.971C257.356 205.89 248.776 197.31 248.776 186.695C248.776 176.025 257.411 167.39 268.081 167.39H281.996V174.21H268.081C261.206 174.21 255.596 179.765 255.596 186.695C255.596 193.57 261.206 199.18 268.081 199.18H281.996V206ZM276.716 190.105H263.901V183.285H276.716V190.105ZM297.985 167.39H318.28V174.21H297.985C292.045 174.21 292.045 183.285 297.985 183.285H310.635C316.905 183.285 322.02 188.345 322.02 194.615C322.02 200.885 316.905 206 310.635 206H289.295V199.18H310.635C316.63 199.18 316.63 190.105 310.635 190.105H297.71C291.55 189.94 286.655 184.935 286.655 178.72C286.655 172.45 291.715 167.39 297.985 167.39ZM337.879 206V174.21H325.339V167.39H357.294V174.21H344.699V206H337.879ZM363.326 206V167.445H370.146V206H363.326ZM395.866 167.005C406.701 167.005 415.556 175.805 415.556 186.695C415.556 197.53 406.701 206.385 395.866 206.385C384.976 206.385 376.176 197.53 376.176 186.695C376.176 175.805 384.976 167.005 395.866 167.005ZM395.866 199.565C402.906 199.565 408.736 193.68 408.736 186.64C408.736 179.6 402.906 173.825 395.866 173.825C388.826 173.825 382.996 179.6 382.996 186.64C382.996 193.68 388.826 199.565 395.866 199.565ZM400.981 154.245L393.226 163.155H390.751L395.371 154.245H400.981ZM458.973 167.39V194.615C458.973 203.14 454.683 206 452.043 206C446.653 206 444.673 203.855 439.943 193.9L434.443 182.35C432.793 178.83 428.173 168.16 428.448 178.72V206H421.628V178.72C421.628 170.195 425.863 167.39 428.503 167.39C433.948 167.39 435.873 169.48 440.603 179.435L446.323 191.425C448.303 195.825 452.428 204.46 452.153 194.615V167.39H458.973ZM486.321 186.695V206H479.501V186.695C479.501 176.025 488.081 167.39 498.971 167.39H512.886V174.21H498.806C491.876 174.21 486.321 179.765 486.321 186.695ZM507.606 190.105H494.791V183.285H507.606V190.105ZM518.937 206V167.445H525.757V206H518.937ZM569.132 167.39V194.615C569.132 203.14 564.842 206 562.202 206C556.812 206 554.832 203.855 550.102 193.9L544.602 182.35C542.952 178.83 538.332 168.16 538.607 178.72V206H531.787V178.72C531.787 170.195 536.022 167.39 538.662 167.39C544.107 167.39 546.032 169.48 550.762 179.435L556.482 191.425C558.462 195.825 562.587 204.46 562.312 194.615V167.39H569.132ZM611.818 178.72V206H604.998V178.72C604.998 175.86 604.558 173.99 602.688 173.99C599.553 173.99 596.748 178.83 595.483 180.865L579.203 206H571.063L587.343 180.865C592.953 172.175 596.583 167.17 604.063 167.17C608.683 167.17 611.818 171.46 611.818 178.72ZM655.203 167.39V194.615C655.203 203.14 650.913 206 648.273 206C642.883 206 640.903 203.855 636.173 193.9L630.673 182.35C629.023 178.83 624.403 168.16 624.678 178.72V206H617.858V178.72C617.858 170.195 622.093 167.39 624.733 167.39C630.178 167.39 632.103 169.48 636.833 179.435L642.553 191.425C644.533 195.825 648.658 204.46 648.383 194.615V167.39H655.203ZM694.489 206H680.464C669.849 205.89 661.269 197.31 661.269 186.695C661.269 176.025 669.904 167.39 680.519 167.39H694.489V174.21H680.519C673.644 174.21 668.089 179.765 668.089 186.695C668.089 193.57 673.644 199.18 680.519 199.18H694.489V206ZM700.545 206V167.445H707.365V206H700.545ZM746.615 206H732.59C721.975 205.89 713.395 197.31 713.395 186.695C713.395 176.025 722.03 167.39 732.7 167.39H746.615V174.21H732.7C725.825 174.21 720.215 179.765 720.215 186.695C720.215 193.57 725.825 199.18 732.7 199.18H746.615V206ZM741.335 190.105H728.52V183.285H741.335V190.105ZM777.475 189.28L786.385 206H778.685L774.89 198.74C772.8 195.165 770.765 190.105 768.51 190.105H764C761.525 190.105 759.49 192.14 759.49 194.615V206H752.67V194.615C752.67 188.345 757.73 183.285 764 183.285H773.185C779.18 183.285 779.18 174.21 773.185 174.21H752.67V167.39H773.185C785.615 167.39 788.915 184.605 777.475 189.28ZM830.445 178.72V206H823.625V178.72C823.625 175.86 823.185 173.99 821.315 173.99C818.18 173.99 815.375 178.83 814.11 180.865L797.83 206H789.69L805.97 180.865C811.58 172.175 815.21 167.17 822.69 167.17C827.31 167.17 830.445 171.46 830.445 178.72ZM836.485 202.645C836.485 198.135 843.305 198.135 843.305 202.645C843.305 207.1 836.485 207.155 836.485 202.645Z" fill="url(#paint1_radial_270590_466)"/>
<path d="M185.582 24.72V52H178.762V24.72C178.762 21.86 178.322 19.99 176.452 19.99C173.317 19.99 170.512 24.83 169.247 26.865L152.967 52H144.827L161.107 26.865C166.717 18.175 170.347 13.17 177.827 13.17C182.447 13.17 185.582 17.46 185.582 24.72ZM202.952 13.39H223.247V20.21H202.952C197.012 20.21 197.012 29.285 202.952 29.285H215.602C221.872 29.285 226.987 34.345 226.987 40.615C226.987 46.885 221.872 52 215.602 52H194.262V45.18H215.602C221.597 45.18 221.597 36.105 215.602 36.105H202.677C196.517 35.94 191.622 30.935 191.622 24.72C191.622 18.45 196.682 13.39 202.952 13.39ZM252.736 13.005C263.571 13.005 272.426 21.805 272.426 32.695C272.426 43.53 263.571 52.385 252.736 52.385C241.846 52.385 233.046 43.53 233.046 32.695C233.046 21.805 241.846 13.005 252.736 13.005ZM252.736 45.565C259.776 45.565 265.606 39.68 265.606 32.64C265.606 25.6 259.776 19.825 252.736 19.825C245.696 19.825 239.866 25.6 239.866 32.64C239.866 39.68 245.696 45.565 252.736 45.565ZM257.851 0.244998L250.096 9.155H247.621L252.241 0.244998H257.851ZM311.718 52H297.693C287.078 51.89 278.498 43.31 278.498 32.695C278.498 22.025 287.133 13.39 297.748 13.39H311.718V20.21H297.748C290.873 20.21 285.318 25.765 285.318 32.695C285.318 39.57 290.873 45.18 297.748 45.18H311.718V52ZM317.774 52V13.445H324.594V52H317.774ZM371.379 24.72V52H364.559V24.72C364.559 21.86 364.119 19.99 362.249 19.99C359.114 19.99 356.309 24.83 355.044 26.865L338.764 52H330.624L346.904 26.865C352.514 18.175 356.144 13.17 363.624 13.17C368.244 13.17 371.379 17.46 371.379 24.72ZM389.959 52V20.21H377.419V13.39H409.374V20.21H396.779V52H389.959ZM445.886 52H431.861C421.246 51.89 412.666 43.31 412.666 32.695C412.666 22.025 421.301 13.39 431.971 13.39H445.886V20.21H431.971C425.096 20.21 419.486 25.765 419.486 32.695C419.486 39.57 425.096 45.18 431.971 45.18H445.886V52ZM440.606 36.105H427.791V29.285H440.606V36.105ZM499.623 52H485.598C474.983 51.89 466.403 43.31 466.403 32.695C466.403 22.025 475.038 13.39 485.653 13.39H499.623V20.21H485.653C478.778 20.21 473.223 25.765 473.223 32.695C473.223 39.57 478.778 45.18 485.653 45.18H499.623V52ZM522.629 13.005C533.464 13.005 542.319 21.805 542.319 32.695C542.319 43.53 533.464 52.385 522.629 52.385C511.739 52.385 502.939 43.53 502.939 32.695C502.939 21.805 511.739 13.005 522.629 13.005ZM522.629 45.565C529.669 45.565 535.499 39.68 535.499 32.64C535.499 25.6 529.669 19.825 522.629 19.825C515.589 19.825 509.759 25.6 509.759 32.64C509.759 39.68 515.589 45.565 522.629 45.565ZM585.736 13.39V40.615C585.736 49.14 581.446 52 578.806 52C573.416 52 571.436 49.855 566.706 39.9L561.206 28.35C559.556 24.83 554.936 14.16 555.211 24.72V52H548.391V24.72C548.391 16.195 552.626 13.39 555.266 13.39C560.711 13.39 562.636 15.48 567.366 25.435L573.086 37.425C575.066 41.825 579.191 50.46 578.916 40.615V13.39H585.736ZM632.664 36.16H621.664V29.34H632.664C638.934 29.34 643.994 34.4 643.994 40.67C643.994 46.94 638.934 52 632.664 52H625.459C614.844 51.945 606.264 43.365 606.264 32.75C606.264 22.08 614.899 13.445 625.569 13.445H639.484V20.265H625.569C618.639 20.265 613.084 25.82 613.084 32.75C613.084 39.625 618.639 45.18 625.569 45.18H632.664C638.659 45.18 638.659 36.16 632.664 36.16ZM650.051 52V13.445H656.871V52H650.051ZM681.194 13.005C692.029 13.005 700.884 21.805 700.884 32.695C700.884 43.53 692.029 52.385 681.194 52.385C670.304 52.385 661.504 43.53 661.504 32.695C661.504 21.805 670.304 13.005 681.194 13.005ZM681.194 45.565C688.234 45.565 694.064 39.68 694.064 32.64C694.064 25.6 688.234 19.825 681.194 19.825C674.154 19.825 668.324 25.6 668.324 32.64C668.324 39.68 674.154 45.565 681.194 45.565ZM713.777 32.695V52H706.957V32.695C706.957 22.025 715.537 13.39 726.427 13.39H740.342V20.21H726.262C719.332 20.21 713.777 25.765 713.777 32.695ZM735.062 36.105H722.247V29.285H735.062V36.105ZM746.393 52V13.445H753.213V52H746.393ZM789.764 52V35.94C783.769 34.675 780.909 27.03 779.149 23.84L773.704 13.445H781.404L785.199 20.65C787.234 24.225 789.324 29.34 791.579 29.34C796.804 29.34 796.034 30.11 801.149 20.65L804.944 13.445H812.644L807.199 23.84C805.384 27.03 802.579 34.675 796.584 35.94V52H789.764ZM33.7071 129H19.6821C9.06712 128.89 0.487122 120.31 0.487122 109.695C0.487122 99.025 9.12212 90.39 19.7921 90.39H33.7071V97.21H19.7921C12.9171 97.21 7.30712 102.765 7.30712 109.695C7.30712 116.57 12.9171 122.18 19.7921 122.18H33.7071V129ZM28.4271 113.105H15.6121V106.285H28.4271V113.105ZM50.5977 109.75C47.9577 106.835 46.3627 102.93 45.2077 100.84L39.7627 90.445H47.4627L51.2577 97.65C53.2927 101.225 55.3827 106.34 57.6377 106.34C63.0827 106.34 62.0927 107 67.2077 97.65L71.0027 90.445H78.7027L73.2577 100.84C72.1027 102.93 70.5077 106.835 67.8677 109.75C70.5077 112.61 72.1027 116.515 73.2577 118.605L78.7027 129H71.0027L67.2077 121.795C65.1727 118.22 63.0827 113.16 60.8277 113.16C55.3827 113.16 56.3727 112.5 51.2577 121.795L47.4627 129H39.7627L45.2077 118.605C46.3627 116.515 47.9577 112.61 50.5977 109.75ZM84.7317 129V117.615C84.7317 111.345 89.7917 106.285 96.0617 106.285H105.247C111.187 106.285 111.187 97.21 105.247 97.21H84.7317V90.39H105.247C111.517 90.39 116.577 95.45 116.577 101.72C116.577 107.55 112.232 112.335 106.567 112.995V113.105H96.0617C93.5317 113.105 91.5517 115.14 91.5517 117.615V129H84.7317ZM153.091 129H139.066C128.451 128.89 119.871 120.31 119.871 109.695C119.871 99.025 128.506 90.39 139.176 90.39H153.091V97.21H139.176C132.301 97.21 126.691 102.765 126.691 109.695C126.691 116.57 132.301 122.18 139.176 122.18H153.091V129ZM147.811 113.105H134.996V106.285H147.811V113.105ZM183.952 112.28L192.862 129H185.162L181.367 121.74C179.277 118.165 177.242 113.105 174.987 113.105H170.477C168.002 113.105 165.967 115.14 165.967 117.615V129H159.147V117.615C159.147 111.345 164.207 106.285 170.477 106.285H179.662C185.657 106.285 185.657 97.21 179.662 97.21H159.147V90.39H179.662C192.092 90.39 195.392 107.605 183.952 112.28ZM198.906 129V90.445H205.726V129H198.906ZM233.041 118.055V101.335C233.041 101.335 233.261 97.21 232.326 97.21C231.556 97.21 231.006 99.025 229.466 102.985L219.071 129H211.756L222.096 102.985C225.176 94.625 227.871 90.39 233.316 90.39C237.166 90.39 239.861 94.295 239.861 101.335V118.055C239.861 118.055 239.586 122.18 240.521 122.18C241.181 122.18 241.676 120.805 242.776 118H242.721L248.716 102.985C251.796 94.625 254.491 90.39 259.936 90.39C263.786 90.39 266.481 94.295 266.481 101.335V129H259.661V101.335C259.661 101.335 259.881 97.21 258.946 97.21C258.176 97.21 257.626 99.025 256.086 102.985L250.696 116.515C247.671 124.82 244.921 129 239.531 129C235.681 129 233.041 125.04 233.041 118.055ZM305.736 129H291.711C281.096 128.89 272.516 120.31 272.516 109.695C272.516 99.025 281.151 90.39 291.821 90.39H305.736V97.21H291.821C284.946 97.21 279.336 102.765 279.336 109.695C279.336 116.57 284.946 122.18 291.821 122.18H305.736V129ZM300.456 113.105H287.641V106.285H300.456V113.105ZM349.136 90.39V117.615C349.136 126.14 344.846 129 342.206 129C336.816 129 334.836 126.855 330.106 116.9L324.606 105.35C322.956 101.83 318.336 91.16 318.611 101.72V129H311.791V101.72C311.791 93.195 316.026 90.39 318.666 90.39C324.111 90.39 326.036 92.48 330.766 102.435L336.486 114.425C338.466 118.825 342.591 127.46 342.316 117.615V90.39H349.136ZM367.743 129V97.21H355.203V90.39H387.158V97.21H374.563V129H367.743ZM422.934 101.72V129H416.114V101.72C416.114 98.86 415.674 96.99 413.804 96.99C410.669 96.99 407.864 101.83 406.599 103.865L390.319 129H382.179L398.459 103.865C404.069 95.175 407.699 90.17 415.179 90.17C419.799 90.17 422.934 94.46 422.934 101.72ZM454.82 122.18H469.12V129H454.82C448.55 129 443.435 123.885 443.435 117.615V90.445H450.255V117.615C450.255 120.145 452.29 122.18 454.82 122.18ZM515.946 101.72V129H509.126V101.72C509.126 98.86 508.686 96.99 506.816 96.99C503.681 96.99 500.876 101.83 499.611 103.865L483.331 129H475.191L491.471 103.865C497.081 95.175 500.711 90.17 508.191 90.17C512.811 90.17 515.946 94.46 515.946 101.72ZM573.792 90.39V117.615C573.792 126.14 569.502 129 566.862 129C561.472 129 559.492 126.855 554.762 116.9L549.262 105.35C547.612 101.83 542.992 91.16 543.267 101.72V129H536.447V101.72C536.447 93.195 540.682 90.39 543.322 90.39C548.767 90.39 550.692 92.48 555.422 102.435L561.142 114.425C563.122 118.825 567.247 127.46 566.972 117.615V90.39H573.792ZM595.368 129.11C586.788 129.11 579.858 122.18 579.858 113.6V90.5H586.678V113.6C586.678 118.385 590.583 122.29 595.368 122.29C600.153 122.29 604.003 118.385 604.003 113.6V90.5H610.823V113.6C610.823 122.18 603.893 129.11 595.368 129.11ZM649.292 129H635.267C624.652 128.89 616.072 120.31 616.072 109.695C616.072 99.025 624.707 90.39 635.377 90.39H649.292V97.21H635.377C628.502 97.21 622.892 102.765 622.892 109.695C622.892 116.57 628.502 122.18 635.377 122.18H649.292V129ZM644.012 113.105H631.197V106.285H644.012V113.105ZM655.348 117.725V90.5H662.168V117.725C662.168 120.64 662.608 122.455 664.478 122.455C667.613 122.455 670.418 117.67 671.683 115.58L687.963 90.5H696.103L679.823 115.58C674.213 124.27 670.528 129.275 663.103 129.275C658.483 129.275 655.348 125.04 655.348 117.725ZM726.409 101.72V129H719.589V101.72C719.589 98.86 719.149 96.99 717.279 96.99C714.144 96.99 711.339 101.83 710.074 103.865L693.794 129H685.654L701.934 103.865C707.544 95.175 711.174 90.17 718.654 90.17C723.274 90.17 726.409 94.46 726.409 101.72ZM780.13 129H766.105C755.49 128.89 746.91 120.31 746.91 109.695C746.91 99.025 755.545 90.39 766.215 90.39H780.13V97.21H766.215C759.34 97.21 753.73 102.765 753.73 109.695C753.73 116.57 759.34 122.18 766.215 122.18H780.13V129ZM774.85 113.105H762.035V106.285H774.85V113.105ZM810.991 112.28L819.901 129H812.201L808.406 121.74C806.316 118.165 804.281 113.105 802.026 113.105H797.516C795.041 113.105 793.006 115.14 793.006 117.615V129H786.186V117.615C786.186 111.345 791.246 106.285 797.516 106.285H806.701C812.696 106.285 812.696 97.21 806.701 97.21H786.186V90.39H806.701C819.131 90.39 822.431 107.605 810.991 112.28ZM863.961 101.72V129H857.141V101.72C857.141 98.86 856.701 96.99 854.831 96.99C851.696 96.99 848.891 101.83 847.626 103.865L831.346 129H823.206L839.486 103.865C845.096 95.175 848.726 90.17 856.206 90.17C860.826 90.17 863.961 94.46 863.961 101.72ZM898.542 129H884.462V122.18H898.377C905.307 122.18 910.862 116.57 910.862 109.695C910.862 102.765 905.307 97.21 898.377 97.21H884.462V90.39H898.377C909.047 90.39 917.682 99.025 917.682 109.695C917.682 120.31 909.102 128.89 898.542 129ZM956.957 129H942.932C932.317 128.89 923.737 120.31 923.737 109.695C923.737 99.025 932.372 90.39 943.042 90.39H956.957V97.21H943.042C936.167 97.21 930.557 102.765 930.557 109.695C930.557 116.57 936.167 122.18 943.042 122.18H956.957V129ZM951.677 113.105H938.862V106.285H951.677V113.105ZM126.1 199.18H140.4V206H126.1C119.83 206 114.715 200.885 114.715 194.615V167.445H121.535V194.615C121.535 197.145 123.57 199.18 126.1 199.18ZM187.226 178.72V206H180.406V178.72C180.406 175.86 179.966 173.99 178.096 173.99C174.961 173.99 172.156 178.83 170.891 180.865L154.611 206H146.471L162.751 180.865C168.361 172.175 171.991 167.17 179.471 167.17C184.091 167.17 187.226 171.46 187.226 178.72ZM234.128 190.16H223.128V183.34H234.128C240.398 183.34 245.458 188.4 245.458 194.67C245.458 200.94 240.398 206 234.128 206H226.923C216.308 205.945 207.728 197.365 207.728 186.75C207.728 176.08 216.363 167.445 227.033 167.445H240.948V174.265H227.033C220.103 174.265 214.548 179.82 214.548 186.75C214.548 193.625 220.103 199.18 227.033 199.18H234.128C240.123 199.18 240.123 190.16 234.128 190.16ZM281.996 206H267.971C257.356 205.89 248.776 197.31 248.776 186.695C248.776 176.025 257.411 167.39 268.081 167.39H281.996V174.21H268.081C261.206 174.21 255.596 179.765 255.596 186.695C255.596 193.57 261.206 199.18 268.081 199.18H281.996V206ZM276.716 190.105H263.901V183.285H276.716V190.105ZM297.985 167.39H318.28V174.21H297.985C292.045 174.21 292.045 183.285 297.985 183.285H310.635C316.905 183.285 322.02 188.345 322.02 194.615C322.02 200.885 316.905 206 310.635 206H289.295V199.18H310.635C316.63 199.18 316.63 190.105 310.635 190.105H297.71C291.55 189.94 286.655 184.935 286.655 178.72C286.655 172.45 291.715 167.39 297.985 167.39ZM337.879 206V174.21H325.339V167.39H357.294V174.21H344.699V206H337.879ZM363.326 206V167.445H370.146V206H363.326ZM395.866 167.005C406.701 167.005 415.556 175.805 415.556 186.695C415.556 197.53 406.701 206.385 395.866 206.385C384.976 206.385 376.176 197.53 376.176 186.695C376.176 175.805 384.976 167.005 395.866 167.005ZM395.866 199.565C402.906 199.565 408.736 193.68 408.736 186.64C408.736 179.6 402.906 173.825 395.866 173.825C388.826 173.825 382.996 179.6 382.996 186.64C382.996 193.68 388.826 199.565 395.866 199.565ZM400.981 154.245L393.226 163.155H390.751L395.371 154.245H400.981ZM458.973 167.39V194.615C458.973 203.14 454.683 206 452.043 206C446.653 206 444.673 203.855 439.943 193.9L434.443 182.35C432.793 178.83 428.173 168.16 428.448 178.72V206H421.628V178.72C421.628 170.195 425.863 167.39 428.503 167.39C433.948 167.39 435.873 169.48 440.603 179.435L446.323 191.425C448.303 195.825 452.428 204.46 452.153 194.615V167.39H458.973ZM486.321 186.695V206H479.501V186.695C479.501 176.025 488.081 167.39 498.971 167.39H512.886V174.21H498.806C491.876 174.21 486.321 179.765 486.321 186.695ZM507.606 190.105H494.791V183.285H507.606V190.105ZM518.937 206V167.445H525.757V206H518.937ZM569.132 167.39V194.615C569.132 203.14 564.842 206 562.202 206C556.812 206 554.832 203.855 550.102 193.9L544.602 182.35C542.952 178.83 538.332 168.16 538.607 178.72V206H531.787V178.72C531.787 170.195 536.022 167.39 538.662 167.39C544.107 167.39 546.032 169.48 550.762 179.435L556.482 191.425C558.462 195.825 562.587 204.46 562.312 194.615V167.39H569.132ZM611.818 178.72V206H604.998V178.72C604.998 175.86 604.558 173.99 602.688 173.99C599.553 173.99 596.748 178.83 595.483 180.865L579.203 206H571.063L587.343 180.865C592.953 172.175 596.583 167.17 604.063 167.17C608.683 167.17 611.818 171.46 611.818 178.72ZM655.203 167.39V194.615C655.203 203.14 650.913 206 648.273 206C642.883 206 640.903 203.855 636.173 193.9L630.673 182.35C629.023 178.83 624.403 168.16 624.678 178.72V206H617.858V178.72C617.858 170.195 622.093 167.39 624.733 167.39C630.178 167.39 632.103 169.48 636.833 179.435L642.553 191.425C644.533 195.825 648.658 204.46 648.383 194.615V167.39H655.203ZM694.489 206H680.464C669.849 205.89 661.269 197.31 661.269 186.695C661.269 176.025 669.904 167.39 680.519 167.39H694.489V174.21H680.519C673.644 174.21 668.089 179.765 668.089 186.695C668.089 193.57 673.644 199.18 680.519 199.18H694.489V206ZM700.545 206V167.445H707.365V206H700.545ZM746.615 206H732.59C721.975 205.89 713.395 197.31 713.395 186.695C713.395 176.025 722.03 167.39 732.7 167.39H746.615V174.21H732.7C725.825 174.21 720.215 179.765 720.215 186.695C720.215 193.57 725.825 199.18 732.7 199.18H746.615V206ZM741.335 190.105H728.52V183.285H741.335V190.105ZM777.475 189.28L786.385 206H778.685L774.89 198.74C772.8 195.165 770.765 190.105 768.51 190.105H764C761.525 190.105 759.49 192.14 759.49 194.615V206H752.67V194.615C752.67 188.345 757.73 183.285 764 183.285H773.185C779.18 183.285 779.18 174.21 773.185 174.21H752.67V167.39H773.185C785.615 167.39 788.915 184.605 777.475 189.28ZM830.445 178.72V206H823.625V178.72C823.625 175.86 823.185 173.99 821.315 173.99C818.18 173.99 815.375 178.83 814.11 180.865L797.83 206H789.69L805.97 180.865C811.58 172.175 815.21 167.17 822.69 167.17C827.31 167.17 830.445 171.46 830.445 178.72ZM836.485 202.645C836.485 198.135 843.305 198.135 843.305 202.645C843.305 207.1 836.485 207.155 836.485 202.645Z" fill="url(#paint2_radial_270590_466)" fill-opacity="0.8"/>
<defs>
<linearGradient id="paint0_linear_270590_466" x1="-18" y1="0" x2="102.058" y2="473.563" gradientUnits="userSpaceOnUse">
<stop stop-color="#3B10D8"/>
<stop offset="0.415" stop-color="#3F15D9"/>
<stop offset="1" stop-color="#FEF7F8"/>
</linearGradient>
<radialGradient id="paint1_radial_270590_466" cx="0" cy="0" r="1" gradientUnits="userSpaceOnUse" gradientTransform="translate(976 12.4833) rotate(160.998) scale(700.858 451.926)">
<stop stop-color="#1BF8FD"/>
<stop offset="0.338135" stop-color="#1CF1FC" stop-opacity="0.6"/>
<stop offset="0.661415" stop-color="#9F85F3" stop-opacity="0.3"/>
<stop offset="1" stop-color="white" stop-opacity="0"/>
</radialGradient>
<radialGradient id="paint2_radial_270590_466" cx="0" cy="0" r="1" gradientUnits="userSpaceOnUse" gradientTransform="translate(-1.43332 42) rotate(15.6005) scale(391.307 203.658)">
<stop stop-color="#3B10D8"/>
<stop offset="1" stop-color="#3B10D8" stop-opacity="0"/>
</radialGradient>
</defs>
</svg>
