<svg width="230" height="51" viewBox="0 0 230 51" fill="none" xmlns="http://www.w3.org/2000/svg">
<path d="M0 14C0 6.26801 6.26801 0 14 0H216C223.732 0 230 6.26801 230 14V37C230 44.732 223.732 51 216 51H14C6.26802 51 0 44.732 0 37V14Z" fill="url(#paint0_linear_272659_161)"/>
<path d="M0 14C0 6.26801 6.26801 0 14 0H216C223.732 0 230 6.26801 230 14V37C230 44.732 223.732 51 216 51H14C6.26802 51 0 44.732 0 37V14Z" fill="url(#paint1_radial_272659_161)"/>
<path d="M0 14C0 6.26801 6.26801 0 14 0H216C223.732 0 230 6.26801 230 14V37C230 44.732 223.732 51 216 51H14C6.26802 51 0 44.732 0 37V14Z" fill="url(#paint2_radial_272659_161)" fill-opacity="0.8"/>
<path d="M0.5 14C0.5 6.54416 6.54416 0.5 14 0.5H216C223.456 0.5 229.5 6.54416 229.5 14V37C229.5 44.4558 223.456 50.5 216 50.5H14C6.54416 50.5 0.5 44.4558 0.5 37V14Z" stroke="white" stroke-opacity="0.08"/>
<path d="M48.0559 31.24C46.0159 31.24 44.4359 30.62 43.3159 29.38C42.2093 28.14 41.6559 26.3867 41.6559 24.12C41.6559 21.8267 42.2159 20.06 43.3359 18.82C44.4559 17.58 46.0359 16.96 48.0759 16.96C48.9026 16.96 49.6626 17.0667 50.3559 17.28C51.0626 17.48 51.6559 17.76 52.1359 18.12L51.3159 19.86C50.3159 19.2867 49.2626 19 48.1559 19C46.8226 19 45.8026 19.44 45.0959 20.32C44.3893 21.2 44.0359 22.4733 44.0359 24.14C44.0359 25.7933 44.3826 27.0533 45.0759 27.92C45.7826 28.7733 46.8293 29.2 48.2159 29.2C49.4159 29.2 50.5359 28.8667 51.5759 28.2L52.3759 29.96C51.7893 30.3733 51.1226 30.6933 50.3759 30.92C49.6426 31.1333 48.8693 31.24 48.0559 31.24ZM61.1284 31.24C59.0618 31.24 57.4684 30.62 56.3484 29.38C55.2284 28.14 54.6684 26.38 54.6684 24.1C54.6684 21.82 55.2284 20.06 56.3484 18.82C57.4684 17.58 59.0618 16.96 61.1284 16.96C63.2618 16.96 64.9018 17.58 66.0484 18.82C67.2084 20.06 67.7884 21.82 67.7884 24.1C67.7884 26.38 67.2084 28.14 66.0484 29.38C64.9018 30.62 63.2618 31.24 61.1284 31.24ZM61.1284 29.2C62.5018 29.2 63.5551 28.76 64.2884 27.88C65.0218 27 65.3884 25.74 65.3884 24.1C65.3884 22.4467 65.0218 21.1867 64.2884 20.32C63.5551 19.44 62.5018 19 61.1284 19C59.8218 19 58.8151 19.44 58.1084 20.32C57.4018 21.1867 57.0484 22.4467 57.0484 24.1C57.0484 25.74 57.4018 27 58.1084 27.88C58.8151 28.76 59.8218 29.2 61.1284 29.2ZM71.5706 17.2H74.4706L78.3706 26.98H78.5106L82.4906 17.2H85.3306L85.7106 31H83.4106L83.1506 20.86H82.9906L79.2506 29.92H77.4306L73.7306 20.86H73.5706L73.2706 31H71.1306L71.5706 17.2ZM89.8728 17.2H92.1928V31H89.8728V17.2ZM96.6939 17.2H99.2539L105.254 27.12H105.394V17.2H107.714V31H105.334L99.1539 20.86H99.0139V31H96.6939V17.2ZM117.786 31.24C115.746 31.24 114.166 30.62 113.046 29.38C111.94 28.14 111.386 26.3867 111.386 24.12C111.386 21.8267 111.946 20.06 113.066 18.82C114.186 17.58 115.766 16.96 117.806 16.96C118.62 16.96 119.38 17.0667 120.086 17.28C120.793 17.48 121.386 17.76 121.866 18.12L121.186 19.86C120.146 19.2867 119.046 19 117.886 19C116.553 19 115.533 19.44 114.826 20.32C114.12 21.2 113.766 22.4733 113.766 24.14C113.766 25.78 114.12 27.0333 114.826 27.9C115.546 28.7667 116.586 29.2 117.946 29.2C118.48 29.2 119.006 29.1333 119.526 29C120.06 28.8533 120.513 28.66 120.886 28.42V23.54H123.066V29.54C121.533 30.6733 119.773 31.24 117.786 31.24ZM135.28 31.24C134.534 31.24 133.754 31.16 132.94 31C132.14 30.8267 131.474 30.6 130.94 30.32L131.52 28.32C132.04 28.6133 132.614 28.8467 133.24 29.02C133.867 29.1933 134.514 29.28 135.18 29.28C135.954 29.28 136.58 29.1133 137.06 28.78C137.54 28.4467 137.78 27.98 137.78 27.38C137.78 26.9667 137.66 26.6133 137.42 26.32C137.194 26.0133 136.914 25.76 136.58 25.56C136.247 25.36 135.76 25.1133 135.12 24.82C134.32 24.4467 133.66 24.1 133.14 23.78C132.62 23.4467 132.174 23.02 131.8 22.5C131.44 21.98 131.26 21.3533 131.26 20.62C131.26 19.4733 131.687 18.58 132.54 17.94C133.394 17.2867 134.487 16.96 135.82 16.96C136.5 16.96 137.2 17.04 137.92 17.2C138.654 17.3467 139.227 17.54 139.64 17.78L139.1 19.72C138.66 19.48 138.14 19.2867 137.54 19.14C136.94 18.9933 136.394 18.92 135.9 18.92C135.207 18.92 134.66 19.0667 134.26 19.36C133.86 19.6533 133.66 20.0733 133.66 20.62C133.66 21.0067 133.774 21.3467 134 21.64C134.24 21.9333 134.534 22.1867 134.88 22.4C135.227 22.6 135.707 22.8533 136.32 23.16C137.134 23.5333 137.794 23.88 138.3 24.2C138.82 24.5067 139.26 24.92 139.62 25.44C139.994 25.96 140.18 26.6 140.18 27.36C140.18 28.1333 139.98 28.8133 139.58 29.4C139.18 29.9867 138.607 30.44 137.86 30.76C137.127 31.08 136.267 31.24 135.28 31.24ZM149.247 31.24C147.181 31.24 145.587 30.62 144.467 29.38C143.347 28.14 142.787 26.38 142.787 24.1C142.787 21.82 143.347 20.06 144.467 18.82C145.587 17.58 147.181 16.96 149.247 16.96C151.381 16.96 153.021 17.58 154.167 18.82C155.327 20.06 155.907 21.82 155.907 24.1C155.907 26.38 155.327 28.14 154.167 29.38C153.021 30.62 151.381 31.24 149.247 31.24ZM149.247 29.2C150.621 29.2 151.674 28.76 152.407 27.88C153.141 27 153.507 25.74 153.507 24.1C153.507 22.4467 153.141 21.1867 152.407 20.32C151.674 19.44 150.621 19 149.247 19C147.941 19 146.934 19.44 146.227 20.32C145.521 21.1867 145.167 22.4467 145.167 24.1C145.167 25.74 145.521 27 146.227 27.88C146.934 28.76 147.941 29.2 149.247 29.2ZM165.189 31.24C163.123 31.24 161.529 30.62 160.409 29.38C159.289 28.14 158.729 26.38 158.729 24.1C158.729 21.82 159.289 20.06 160.409 18.82C161.529 17.58 163.123 16.96 165.189 16.96C167.323 16.96 168.963 17.58 170.109 18.82C171.269 20.06 171.849 21.82 171.849 24.1C171.849 26.38 171.269 28.14 170.109 29.38C168.963 30.62 167.323 31.24 165.189 31.24ZM165.189 29.2C166.563 29.2 167.616 28.76 168.349 27.88C169.083 27 169.449 25.74 169.449 24.1C169.449 22.4467 169.083 21.1867 168.349 20.32C167.616 19.44 166.563 19 165.189 19C163.883 19 162.876 19.44 162.169 20.32C161.463 21.1867 161.109 22.4467 161.109 24.1C161.109 25.74 161.463 27 162.169 27.88C162.876 28.76 163.883 29.2 165.189 29.2ZM175.492 17.2H178.052L184.052 27.12H184.192V17.2H186.512V31H184.132L177.952 20.86H177.812V31H175.492V17.2Z" fill="white"/>
<defs>
<linearGradient id="paint0_linear_272659_161" x1="0" y1="0" x2="21.5574" y2="97.2199" gradientUnits="userSpaceOnUse">
<stop stop-color="#3B10D8"/>
<stop offset="0.36" stop-color="#3F15D9"/>
<stop offset="1" stop-color="#FEF7F8"/>
</linearGradient>
<radialGradient id="paint1_radial_272659_161" cx="0" cy="0" r="1" gradientUnits="userSpaceOnUse" gradientTransform="translate(207.719 93.2957) rotate(-144.313) scale(205.795 238.634)">
<stop stop-color="#1BF8FD"/>
<stop offset="0.370717" stop-color="#1CF1FC" stop-opacity="0.6"/>
<stop offset="0.661415" stop-color="#9F85F3" stop-opacity="0.3"/>
<stop offset="1" stop-color="white" stop-opacity="0"/>
</radialGradient>
<radialGradient id="paint2_radial_272659_161" cx="0" cy="0" r="1" gradientUnits="userSpaceOnUse" gradientTransform="translate(-5.43057 -2.11638e-06) rotate(20.3366) scale(146.748 87.0954)">
<stop stop-color="#FCF0F8"/>
<stop offset="0.553379" stop-color="#3B10D8" stop-opacity="0"/>
</radialGradient>
</defs>
</svg>
