<svg width="507" height="113" viewBox="0 0 507 113" fill="none" xmlns="http://www.w3.org/2000/svg">
<path d="M0.4 35V29.048H12.544C14.048 29.048 15.456 28.76 16.768 28.184C18.112 27.608 19.264 26.84 20.224 25.88C21.216 24.888 22 23.736 22.576 22.424C23.152 21.08 23.44 19.656 23.44 18.152C23.44 16.648 23.152 15.24 22.576 13.928C22 12.584 21.216 11.432 20.224 10.472C19.264 9.48 18.112 8.696 16.768 8.12C15.456 7.544 14.048 7.256 12.544 7.256H0.4V1.304H12.544C14.88 1.304 17.072 1.752 19.12 2.648C21.168 3.512 22.944 4.712 24.448 6.248C25.984 7.752 27.184 9.528 28.048 11.576C28.944 13.624 29.392 15.816 29.392 18.152C29.392 20.456 28.944 22.632 28.048 24.68C27.184 26.728 26 28.52 24.496 30.056C22.992 31.56 21.216 32.76 19.168 33.656C17.152 34.52 14.992 34.968 12.688 35H0.4ZM34.6769 1.352H40.6289V35H34.6769V1.352ZM73.4912 1.304V7.256H55.7792C54.9152 7.256 54.1952 7.448 53.6192 7.832C53.0432 8.216 52.6112 8.712 52.3232 9.32C52.0352 9.896 51.8912 10.536 51.8912 11.24C51.8912 11.912 52.0352 12.552 52.3232 13.16C52.6112 13.736 53.0432 14.216 53.6192 14.6C54.1952 14.984 54.9152 15.176 55.7792 15.176H66.8193C68.1953 15.176 69.4753 15.432 70.6593 15.944C71.8753 16.456 72.9313 17.16 73.8273 18.056C74.7233 18.952 75.4273 20.008 75.9393 21.224C76.4833 22.408 76.7552 23.688 76.7552 25.064C76.7552 26.44 76.4833 27.736 75.9393 28.952C75.4273 30.136 74.7233 31.176 73.8273 32.072C72.9313 32.968 71.8753 33.688 70.6593 34.232C69.4753 34.744 68.1953 35 66.8193 35H48.1952V29.048H66.8193C67.6832 29.048 68.4032 28.856 68.9792 28.472C69.5872 28.088 70.0352 27.608 70.3232 27.032C70.6112 26.424 70.7552 25.784 70.7552 25.112C70.7552 24.408 70.6112 23.768 70.3232 23.192C70.0352 22.584 69.5872 22.088 68.9792 21.704C68.4032 21.32 67.6832 21.128 66.8193 21.128H55.5392C54.1952 21.096 52.9312 20.824 51.7472 20.312C50.5952 19.768 49.5712 19.048 48.6752 18.152C47.8112 17.256 47.1232 16.216 46.6112 15.032C46.1312 13.816 45.8912 12.536 45.8912 11.192C45.8912 9.816 46.1472 8.536 46.6592 7.352C47.1712 6.136 47.8752 5.08 48.7712 4.184C49.6672 3.288 50.7072 2.584 51.8912 2.072C53.1072 1.56 54.4032 1.304 55.7792 1.304H73.4912ZM96.4045 35C94.1005 34.968 91.9245 34.52 89.8765 33.656C87.8285 32.76 86.0525 31.56 84.5485 30.056C83.0445 28.52 81.8445 26.728 80.9485 24.68C80.0845 22.632 79.6525 20.456 79.6525 18.152C79.6525 15.816 80.0845 13.624 80.9485 11.576C81.8445 9.528 83.0445 7.752 84.5485 6.248C86.0845 4.712 87.8765 3.512 89.9245 2.648C91.9725 1.752 94.1485 1.304 96.4525 1.304H108.645V7.256H96.4525C94.9485 7.256 93.5405 7.544 92.2285 8.12C90.9165 8.696 89.7645 9.48 88.7725 10.472C87.7805 11.432 86.9965 12.584 86.4205 13.928C85.8765 15.24 85.6045 16.648 85.6045 18.152C85.6045 19.656 85.8765 21.08 86.4205 22.424C86.9965 23.736 87.7805 24.888 88.7725 25.88C89.7645 26.84 90.9165 27.608 92.2285 28.184C93.5405 28.76 94.9485 29.048 96.4525 29.048H108.645V35H96.4045ZM128.723 0.967998C131.091 0.967998 133.315 1.416 135.395 2.312C137.475 3.208 139.299 4.44 140.867 6.008C142.435 7.544 143.667 9.368 144.563 11.48C145.459 13.56 145.907 15.784 145.907 18.152C145.907 20.52 145.459 22.744 144.563 24.824C143.667 26.904 142.435 28.728 140.867 30.296C139.299 31.864 137.475 33.096 135.395 33.992C133.315 34.888 131.091 35.336 128.723 35.336C126.355 35.336 124.115 34.888 122.003 33.992C119.923 33.096 118.099 31.864 116.531 30.296C114.995 28.728 113.779 26.904 112.883 24.824C111.987 22.744 111.539 20.52 111.539 18.152C111.539 15.784 111.987 13.56 112.883 11.48C113.779 9.368 114.995 7.544 116.531 6.008C118.099 4.44 119.923 3.208 122.003 2.312C124.115 1.416 126.355 0.967998 128.723 0.967998ZM128.723 29.384C130.259 29.384 131.699 29.096 133.043 28.52C134.419 27.912 135.619 27.096 136.643 26.072C137.667 25.016 138.467 23.816 139.043 22.472C139.651 21.096 139.955 19.64 139.955 18.104C139.955 16.568 139.651 15.128 139.043 13.784C138.467 12.408 137.667 11.224 136.643 10.232C135.619 9.208 134.419 8.408 133.043 7.832C131.699 7.224 130.259 6.92 128.723 6.92C127.187 6.92 125.731 7.224 124.355 7.832C123.011 8.408 121.827 9.208 120.803 10.232C119.779 11.224 118.963 12.408 118.355 13.784C117.779 15.128 117.491 16.568 117.491 18.104C117.491 19.64 117.779 21.096 118.355 22.472C118.963 23.816 119.779 25.016 120.803 26.072C121.827 27.096 123.011 27.912 124.355 28.52C125.731 29.096 127.187 29.384 128.723 29.384ZM151.206 1.4H157.158V25.16C157.158 26.44 157.286 27.448 157.542 28.184C157.798 28.92 158.342 29.288 159.174 29.288C159.846 29.288 160.502 29.064 161.142 28.616C161.782 28.168 162.374 27.624 162.918 26.984C163.462 26.344 163.942 25.688 164.358 25.016C164.806 24.312 165.174 23.736 165.462 23.288L179.67 1.4H186.774L172.566 23.288C171.35 25.176 170.198 26.872 169.11 28.376C168.054 29.848 166.966 31.096 165.846 32.12C164.758 33.144 163.574 33.928 162.294 34.472C161.046 34.984 159.606 35.24 157.974 35.24C155.958 35.24 154.326 34.36 153.078 32.6C151.83 30.84 151.206 28.36 151.206 25.16V1.4ZM204.016 35C201.712 34.968 199.536 34.52 197.488 33.656C195.44 32.76 193.664 31.56 192.16 30.056C190.656 28.52 189.456 26.728 188.56 24.68C187.696 22.632 187.264 20.456 187.264 18.152C187.264 15.816 187.696 13.624 188.56 11.576C189.456 9.528 190.656 7.752 192.16 6.248C193.696 4.712 195.488 3.512 197.536 2.648C199.584 1.752 201.776 1.304 204.112 1.304H216.256V7.256H204.112C202.608 7.256 201.184 7.544 199.84 8.12C198.528 8.696 197.376 9.48 196.384 10.472C195.424 11.432 194.656 12.584 194.08 13.928C193.504 15.24 193.216 16.648 193.216 18.152C193.216 19.656 193.504 21.08 194.08 22.424C194.656 23.736 195.424 24.888 196.384 25.88C197.376 26.84 198.528 27.608 199.84 28.184C201.184 28.76 202.608 29.048 204.112 29.048H216.256V35H204.016ZM211.648 21.128V15.176H200.464V21.128H211.648ZM243.189 20.408L250.965 35H244.245L240.933 28.664C240.485 27.896 240.021 27.064 239.541 26.168C239.093 25.272 238.645 24.456 238.197 23.72C237.749 22.984 237.285 22.376 236.805 21.896C236.325 21.384 235.845 21.128 235.365 21.128H231.429C230.341 21.128 229.413 21.512 228.645 22.28C227.877 23.048 227.493 23.976 227.493 25.064V35H221.541V25.064C221.541 23.688 221.797 22.408 222.309 21.224C222.821 20.008 223.525 18.952 224.421 18.056C225.317 17.16 226.357 16.456 227.541 15.944C228.757 15.432 230.053 15.176 231.429 15.176H239.445C240.309 15.176 241.029 14.984 241.605 14.6C242.213 14.216 242.661 13.736 242.949 13.16C243.237 12.552 243.381 11.912 243.381 11.24C243.381 10.536 243.237 9.896 242.949 9.32C242.661 8.712 242.213 8.216 241.605 7.832C241.029 7.448 240.309 7.256 239.445 7.256H221.541V1.304H239.445C241.237 1.304 242.805 1.688 244.149 2.456C245.525 3.192 246.629 4.152 247.461 5.336C248.293 6.52 248.853 7.848 249.141 9.32C249.429 10.792 249.397 12.232 249.045 13.64C248.725 15.048 248.085 16.36 247.125 17.576C246.165 18.792 244.853 19.736 243.189 20.408ZM286.045 0.967998C288.413 0.967998 290.637 1.416 292.717 2.312C294.797 3.208 296.621 4.44 298.189 6.008C299.757 7.544 300.989 9.368 301.885 11.48C302.781 13.56 303.229 15.784 303.229 18.152C303.229 20.52 302.781 22.744 301.885 24.824C300.989 26.904 299.757 28.728 298.189 30.296C296.621 31.864 294.797 33.096 292.717 33.992C290.637 34.888 288.413 35.336 286.045 35.336C283.677 35.336 281.437 34.888 279.325 33.992C277.245 33.096 275.421 31.864 273.853 30.296C272.317 28.728 271.101 26.904 270.205 24.824C269.309 22.744 268.861 20.52 268.861 18.152C268.861 15.784 269.309 13.56 270.205 11.48C271.101 9.368 272.317 7.544 273.853 6.008C275.421 4.44 277.245 3.208 279.325 2.312C281.437 1.416 283.677 0.967998 286.045 0.967998ZM286.045 29.384C287.581 29.384 289.021 29.096 290.365 28.52C291.741 27.912 292.941 27.096 293.965 26.072C294.989 25.016 295.789 23.816 296.365 22.472C296.973 21.096 297.277 19.64 297.277 18.104C297.277 16.568 296.973 15.128 296.365 13.784C295.789 12.408 294.989 11.224 293.965 10.232C292.941 9.208 291.741 8.408 290.365 7.832C289.021 7.224 287.581 6.92 286.045 6.92C284.509 6.92 283.053 7.224 281.677 7.832C280.333 8.408 279.149 9.208 278.125 10.232C277.101 11.224 276.285 12.408 275.677 13.784C275.101 15.128 274.813 16.568 274.813 18.104C274.813 19.64 275.101 21.096 275.677 22.472C276.285 23.816 277.101 25.016 278.125 26.072C279.149 27.096 280.333 27.912 281.677 28.52C283.053 29.096 284.509 29.384 286.045 29.384ZM320.845 35.096C318.957 35.096 317.197 34.744 315.565 34.04C313.933 33.336 312.493 32.376 311.245 31.16C310.029 29.912 309.069 28.472 308.365 26.84C307.661 25.208 307.309 23.448 307.309 21.56V1.4H313.261V21.56C313.261 22.616 313.453 23.608 313.837 24.536C314.253 25.432 314.797 26.232 315.469 26.936C316.173 27.608 316.973 28.152 317.869 28.568C318.797 28.952 319.789 29.144 320.845 29.144C321.901 29.144 322.877 28.952 323.773 28.568C324.701 28.152 325.501 27.608 326.173 26.936C326.845 26.232 327.373 25.432 327.757 24.536C328.173 23.608 328.381 22.616 328.381 21.56V1.4H334.333V21.56C334.333 23.448 333.981 25.208 333.277 26.84C332.573 28.472 331.597 29.912 330.349 31.16C329.133 32.376 327.709 33.336 326.077 34.04C324.445 34.744 322.701 35.096 320.845 35.096ZM361.266 20.408L369.042 35H362.321L359.01 28.664C358.562 27.896 358.097 27.064 357.617 26.168C357.169 25.272 356.721 24.456 356.273 23.72C355.825 22.984 355.361 22.376 354.882 21.896C354.401 21.384 353.921 21.128 353.442 21.128H349.505C348.417 21.128 347.489 21.512 346.721 22.28C345.953 23.048 345.569 23.976 345.569 25.064V35H339.617V25.064C339.617 23.688 339.873 22.408 340.385 21.224C340.897 20.008 341.601 18.952 342.497 18.056C343.393 17.16 344.433 16.456 345.617 15.944C346.833 15.432 348.129 15.176 349.505 15.176H357.521C358.385 15.176 359.105 14.984 359.681 14.6C360.289 14.216 360.737 13.736 361.025 13.16C361.313 12.552 361.457 11.912 361.457 11.24C361.457 10.536 361.313 9.896 361.025 9.32C360.737 8.712 360.289 8.216 359.681 7.832C359.105 7.448 358.385 7.256 357.521 7.256H339.617V1.304H357.521C359.313 1.304 360.882 1.688 362.226 2.456C363.601 3.192 364.705 4.152 365.538 5.336C366.37 6.52 366.93 7.848 367.217 9.32C367.505 10.792 367.473 12.232 367.122 13.64C366.802 15.048 366.161 16.36 365.201 17.576C364.241 18.792 362.93 19.736 361.266 20.408ZM419.529 25.064C419.529 26.92 419.321 28.488 418.905 29.768C418.489 31.016 417.977 32.04 417.369 32.84C416.761 33.608 416.105 34.168 415.401 34.52C414.697 34.84 414.057 35 413.481 35C412.297 35 411.273 34.856 410.409 34.568C409.545 34.28 408.729 33.752 407.961 32.984C407.193 32.216 406.409 31.144 405.609 29.768C404.841 28.392 403.945 26.616 402.921 24.44L398.121 14.36C397.865 13.848 397.561 13.208 397.209 12.44C396.857 11.64 396.473 10.872 396.057 10.136C395.673 9.368 395.273 8.712 394.857 8.168C394.473 7.624 394.121 7.32 393.801 7.256C393.513 7.192 393.273 7.448 393.081 8.024C392.921 8.6 392.857 9.656 392.889 11.192V35H386.937V11.192C386.937 9.336 387.145 7.784 387.561 6.536C387.977 5.256 388.473 4.232 389.049 3.464C389.657 2.696 390.313 2.152 391.017 1.832C391.721 1.48 392.361 1.304 392.937 1.304C394.121 1.304 395.145 1.448 396.009 1.736C396.873 2.024 397.689 2.552 398.457 3.32C399.225 4.088 399.993 5.16 400.761 6.536C401.561 7.88 402.473 9.64 403.497 11.816L408.489 22.28C408.777 22.92 409.097 23.64 409.449 24.44C409.833 25.208 410.217 25.944 410.601 26.648C411.017 27.32 411.401 27.896 411.753 28.376C412.137 28.824 412.473 29.048 412.761 29.048C413.049 29.016 413.257 28.712 413.385 28.136C413.545 27.528 413.609 26.504 413.577 25.064V1.304H419.529V25.064ZM441.575 35C439.271 34.968 437.095 34.52 435.047 33.656C432.999 32.76 431.223 31.56 429.719 30.056C428.215 28.52 427.015 26.728 426.119 24.68C425.255 22.632 424.823 20.456 424.823 18.152C424.823 15.816 425.255 13.624 426.119 11.576C427.015 9.528 428.215 7.752 429.719 6.248C431.255 4.712 433.047 3.512 435.095 2.648C437.143 1.752 439.335 1.304 441.671 1.304H453.815V7.256H441.671C440.167 7.256 438.743 7.544 437.399 8.12C436.087 8.696 434.935 9.48 433.943 10.472C432.983 11.432 432.215 12.584 431.639 13.928C431.063 15.24 430.775 16.648 430.775 18.152C430.775 19.656 431.063 21.08 431.639 22.424C432.215 23.736 432.983 24.888 433.943 25.88C434.935 26.84 436.087 27.608 437.399 28.184C438.743 28.76 440.167 29.048 441.671 29.048H453.815V35H441.575ZM449.207 21.128V15.176H438.023V21.128H449.207ZM488.284 25.544C488.252 26.216 488.252 26.824 488.284 27.368C488.316 27.816 488.364 28.232 488.428 28.616C488.492 28.968 488.636 29.144 488.86 29.144C489.212 29.144 489.548 28.728 489.868 27.896C490.188 27.064 490.684 25.784 491.356 24.056L500.428 1.4H506.812L497.788 24.056C497.116 25.88 496.444 27.496 495.772 28.904C495.132 30.28 494.428 31.432 493.66 32.36C492.892 33.256 492.044 33.944 491.116 34.424C490.22 34.872 489.18 35.096 487.996 35.096C486.3 35.096 484.924 34.28 483.868 32.648C482.844 30.984 482.332 28.616 482.332 25.544V10.952C482.364 10.312 482.364 9.72 482.332 9.176C482.3 8.728 482.236 8.312 482.14 7.928C482.044 7.544 481.9 7.352 481.708 7.352C481.42 7.352 481.132 7.656 480.844 8.264C480.588 8.84 480.22 9.736 479.74 10.952H479.788L474.556 24.056C473.884 25.88 473.212 27.496 472.54 28.904C471.9 30.28 471.196 31.432 470.428 32.36C469.66 33.256 468.812 33.944 467.884 34.424C466.988 34.872 465.948 35.096 464.764 35.096C463.068 35.096 461.692 34.28 460.636 32.648C459.612 30.984 459.1 28.616 459.1 25.544V1.4H465.052V25.544C465.02 26.216 465.02 26.824 465.052 27.368C465.084 27.816 465.132 28.232 465.196 28.616C465.26 28.968 465.404 29.144 465.628 29.144C465.98 29.144 466.316 28.728 466.636 27.896C466.956 27.064 467.452 25.784 468.124 24.056L472.828 12.248C473.5 10.456 474.156 8.888 474.796 7.544C475.468 6.168 476.172 5.032 476.908 4.136C477.676 3.208 478.508 2.52 479.404 2.072C480.332 1.624 481.388 1.4 482.572 1.4C484.268 1.4 485.644 2.216 486.7 3.848C487.756 5.48 488.284 7.848 488.284 10.952V25.544ZM35.968 112H30.016V88.192C30.016 86.944 29.888 85.952 29.632 85.216C29.376 84.448 28.832 84.064 28 84.064C27.328 84.064 26.672 84.304 26.032 84.784C25.392 85.232 24.8 85.776 24.256 86.416C23.712 87.056 23.216 87.712 22.768 88.384C22.352 89.056 22 89.616 21.712 90.064L7.504 112H0.4L14.608 90.064C15.824 88.176 16.96 86.496 18.016 85.024C19.104 83.52 20.192 82.256 21.28 81.232C22.4 80.208 23.584 79.44 24.832 78.928C26.112 78.384 27.568 78.112 29.2 78.112C31.216 78.112 32.848 78.992 34.096 80.752C35.344 82.512 35.968 84.992 35.968 88.192V112ZM41.2394 102.064C41.2394 100.688 41.4954 99.408 42.0074 98.224C42.5194 97.008 43.2234 95.952 44.1194 95.056C45.0154 94.16 46.0554 93.456 47.2394 92.944C48.4554 92.432 49.7514 92.176 51.1274 92.176H59.1434C60.0074 92.176 60.7274 91.984 61.3034 91.6C61.8794 91.216 62.3114 90.736 62.5994 90.16C62.8874 89.552 63.0314 88.912 63.0314 88.24C63.0314 87.536 62.8874 86.896 62.5994 86.32C62.3114 85.712 61.8794 85.216 61.3034 84.832C60.7274 84.448 60.0074 84.256 59.1434 84.256H41.2394V78.304H59.1434C60.5194 78.304 61.7994 78.56 62.9834 79.072C64.1994 79.584 65.2554 80.288 66.1514 81.184C67.0474 82.08 67.7514 83.136 68.2634 84.352C68.7754 85.536 69.0314 86.816 69.0314 88.192C69.0314 89.472 68.8074 90.672 68.3594 91.792C67.9114 92.912 67.2874 93.92 66.4874 94.816C65.7194 95.68 64.8074 96.4 63.7514 96.976C62.6954 97.552 61.5434 97.904 60.2954 98.032V98.128H51.1274C50.0074 98.128 49.0634 98.512 48.2954 99.28C47.5594 100.048 47.1914 100.976 47.1914 102.064V112H41.2394V102.064ZM74.2975 102.064C74.2975 100.688 74.5535 99.408 75.0655 98.224C75.5775 97.008 76.2815 95.952 77.1775 95.056C78.0735 94.16 79.1135 93.456 80.2975 92.944C81.5135 92.432 82.8095 92.176 84.1855 92.176H92.2015C93.0655 92.176 93.7855 91.984 94.3615 91.6C94.9375 91.216 95.3695 90.736 95.6575 90.16C95.9455 89.552 96.0895 88.912 96.0895 88.24C96.0895 87.536 95.9455 86.896 95.6575 86.32C95.3695 85.712 94.9375 85.216 94.3615 84.832C93.7855 84.448 93.0655 84.256 92.2015 84.256H74.2975V78.304H92.2015C93.5775 78.304 94.8575 78.56 96.0415 79.072C97.2575 79.584 98.3135 80.288 99.2095 81.184C100.105 82.08 100.809 83.136 101.322 84.352C101.833 85.536 102.089 86.816 102.089 88.192C102.089 89.472 101.865 90.672 101.417 91.792C100.969 92.912 100.345 93.92 99.5455 94.816C98.7775 95.68 97.8655 96.4 96.8095 96.976C95.7535 97.552 94.6015 97.904 93.3535 98.032V98.128H84.1855C83.0655 98.128 82.1215 98.512 81.3535 99.28C80.6175 100.048 80.2495 100.976 80.2495 102.064V112H74.2975V102.064ZM147.576 78.304V84.256H129.864C129 84.256 128.28 84.448 127.704 84.832C127.128 85.216 126.696 85.712 126.408 86.32C126.12 86.896 125.976 87.536 125.976 88.24C125.976 88.912 126.12 89.552 126.408 90.16C126.696 90.736 127.128 91.216 127.704 91.6C128.28 91.984 129 92.176 129.864 92.176H140.904C142.28 92.176 143.56 92.432 144.744 92.944C145.96 93.456 147.016 94.16 147.912 95.056C148.808 95.952 149.512 97.008 150.024 98.224C150.568 99.408 150.84 100.688 150.84 102.064C150.84 103.44 150.568 104.736 150.024 105.952C149.512 107.136 148.808 108.176 147.912 109.072C147.016 109.968 145.96 110.688 144.744 111.232C143.56 111.744 142.28 112 140.904 112H122.28V106.048H140.904C141.768 106.048 142.488 105.856 143.064 105.472C143.672 105.088 144.12 104.608 144.408 104.032C144.696 103.424 144.84 102.784 144.84 102.112C144.84 101.408 144.696 100.768 144.408 100.192C144.12 99.584 143.672 99.088 143.064 98.704C142.488 98.32 141.768 98.128 140.904 98.128H129.624C128.28 98.096 127.016 97.824 125.832 97.312C124.68 96.768 123.656 96.048 122.76 95.152C121.896 94.256 121.208 93.216 120.696 92.032C120.216 90.816 119.976 89.536 119.976 88.192C119.976 86.816 120.232 85.536 120.744 84.352C121.256 83.136 121.96 82.08 122.856 81.184C123.752 80.288 124.792 79.584 125.976 79.072C127.192 78.56 128.488 78.304 129.864 78.304H147.576ZM170.921 77.968C173.289 77.968 175.513 78.416 177.593 79.312C179.673 80.208 181.497 81.44 183.065 83.008C184.633 84.544 185.865 86.368 186.761 88.48C187.657 90.56 188.105 92.784 188.105 95.152C188.105 97.52 187.657 99.744 186.761 101.824C185.865 103.904 184.633 105.728 183.065 107.296C181.497 108.864 179.673 110.096 177.593 110.992C175.513 111.888 173.289 112.336 170.921 112.336C168.553 112.336 166.313 111.888 164.201 110.992C162.121 110.096 160.297 108.864 158.729 107.296C157.193 105.728 155.977 103.904 155.081 101.824C154.185 99.744 153.737 97.52 153.737 95.152C153.737 92.784 154.185 90.56 155.081 88.48C155.977 86.368 157.193 84.544 158.729 83.008C160.297 81.44 162.121 80.208 164.201 79.312C166.313 78.416 168.553 77.968 170.921 77.968ZM170.921 106.384C172.457 106.384 173.897 106.096 175.241 105.52C176.617 104.912 177.817 104.096 178.841 103.072C179.865 102.016 180.665 100.816 181.241 99.472C181.849 98.096 182.153 96.64 182.153 95.104C182.153 93.568 181.849 92.128 181.241 90.784C180.665 89.408 179.865 88.224 178.841 87.232C177.817 86.208 176.617 85.408 175.241 84.832C173.897 84.224 172.457 83.92 170.921 83.92C169.385 83.92 167.929 84.224 166.553 84.832C165.209 85.408 164.025 86.208 163.001 87.232C161.977 88.224 161.161 89.408 160.553 90.784C159.977 92.128 159.689 93.568 159.689 95.104C159.689 96.64 159.977 98.096 160.553 99.472C161.161 100.816 161.977 102.016 163.001 103.072C164.025 104.096 165.209 104.912 166.553 105.52C167.929 106.096 169.385 106.384 170.921 106.384ZM209.37 77.968C211.738 77.968 213.962 78.416 216.042 79.312C218.122 80.208 219.946 81.44 221.514 83.008C223.082 84.544 224.314 86.368 225.21 88.48C226.106 90.56 226.554 92.784 226.554 95.152C226.554 97.52 226.106 99.744 225.21 101.824C224.314 103.904 223.082 105.728 221.514 107.296C219.946 108.864 218.122 110.096 216.042 110.992C213.962 111.888 211.738 112.336 209.37 112.336C207.002 112.336 204.762 111.888 202.65 110.992C200.57 110.096 198.746 108.864 197.178 107.296C195.642 105.728 194.426 103.904 193.53 101.824C192.634 99.744 192.186 97.52 192.186 95.152C192.186 92.784 192.634 90.56 193.53 88.48C194.426 86.368 195.642 84.544 197.178 83.008C198.746 81.44 200.57 80.208 202.65 79.312C204.762 78.416 207.002 77.968 209.37 77.968ZM209.37 106.384C210.906 106.384 212.346 106.096 213.69 105.52C215.066 104.912 216.266 104.096 217.29 103.072C218.314 102.016 219.114 100.816 219.69 99.472C220.298 98.096 220.602 96.64 220.602 95.104C220.602 93.568 220.298 92.128 219.69 90.784C219.114 89.408 218.314 88.224 217.29 87.232C216.266 86.208 215.066 85.408 213.69 84.832C212.346 84.224 210.906 83.92 209.37 83.92C207.834 83.92 206.378 84.224 205.002 84.832C203.658 85.408 202.474 86.208 201.45 87.232C200.426 88.224 199.61 89.408 199.002 90.784C198.426 92.128 198.138 93.568 198.138 95.104C198.138 96.64 198.426 98.096 199.002 99.472C199.61 100.816 200.426 102.016 201.45 103.072C202.474 104.096 203.658 104.912 205.002 105.52C206.378 106.096 207.834 106.384 209.37 106.384ZM264.446 102.064C264.446 103.92 264.238 105.488 263.822 106.768C263.406 108.016 262.894 109.04 262.286 109.84C261.678 110.608 261.022 111.168 260.318 111.52C259.614 111.84 258.974 112 258.398 112C257.214 112 256.19 111.856 255.326 111.568C254.462 111.28 253.646 110.752 252.878 109.984C252.11 109.216 251.326 108.144 250.526 106.768C249.758 105.392 248.862 103.616 247.838 101.44L243.038 91.36C242.782 90.848 242.478 90.208 242.126 89.44C241.774 88.64 241.39 87.872 240.974 87.136C240.59 86.368 240.19 85.712 239.774 85.168C239.39 84.624 239.038 84.32 238.718 84.256C238.43 84.192 238.19 84.448 237.998 85.024C237.838 85.6 237.774 86.656 237.806 88.192V112H231.854V88.192C231.854 86.336 232.062 84.784 232.478 83.536C232.894 82.256 233.39 81.232 233.966 80.464C234.574 79.696 235.23 79.152 235.934 78.832C236.638 78.48 237.278 78.304 237.854 78.304C239.038 78.304 240.062 78.448 240.926 78.736C241.79 79.024 242.606 79.552 243.374 80.32C244.142 81.088 244.91 82.16 245.678 83.536C246.478 84.88 247.39 86.64 248.414 88.816L253.406 99.28C253.694 99.92 254.014 100.64 254.366 101.44C254.75 102.208 255.134 102.944 255.518 103.648C255.934 104.32 256.318 104.896 256.67 105.376C257.054 105.824 257.39 106.048 257.678 106.048C257.966 106.016 258.174 105.712 258.302 105.136C258.462 104.528 258.526 103.504 258.494 102.064V78.304H264.446V102.064Z" fill="#9747FF"/>
</svg>
