<svg width="741" height="141" viewBox="0 0 741 141" fill="none" xmlns="http://www.w3.org/2000/svg">
<path d="M7.67492 39.18H25.7349V45H0.714922V3.6H25.2549V9.42H7.67492V21.24H22.9149V27H7.67492V39.18ZM40.7466 8.52V16.44H46.3866V21.36H40.7466V45H34.8666V21.36H30.4866L31.7466 16.44H34.8666V8.28C34.8666 3.3 37.7466 0.479997 42.7866 0.479997C44.2866 0.479997 45.7866 0.839996 46.8666 1.44L47.3466 6.12C46.0866 5.52 44.6466 5.34 43.6866 5.34C41.7666 5.34 40.7466 6.48 40.7466 8.52ZM54.3198 45V21.36H49.9398L51.1998 16.44H54.3198V8.28C54.3198 3.3 57.1998 0.479997 62.2398 0.479997C63.7398 0.479997 65.2398 0.839996 66.2598 1.44L66.7998 6.12C65.5398 5.52 64.0998 5.34 63.1398 5.34C61.2198 5.34 60.1998 6.48 60.1998 8.52V16.44H78.1398V45H72.2598V21.36H60.1998V45H54.3198ZM75.2598 12.9C72.9198 12.9 71.6598 11.76 71.6598 9.48C71.6598 7.2 72.9198 6 75.2598 6C77.5398 6 78.7998 7.2 78.7998 9.48C78.7998 11.76 77.5398 12.9 75.2598 12.9ZM98.6157 45.72C90.1557 45.72 85.2957 40.32 85.2957 30.72C85.2957 21.12 90.1557 15.72 98.6757 15.72C102.636 15.72 105.936 16.86 107.916 18.84L106.476 23.76C104.616 21.78 102.036 20.7 99.2757 20.7C94.1157 20.7 91.2357 24.3 91.2357 30.72C91.2357 37.2 94.0557 40.68 99.0957 40.68C102.036 40.68 104.736 39.42 107.016 37.14L108.396 42.06C106.116 44.4 102.696 45.72 98.6157 45.72ZM117.868 12.9C115.528 12.9 114.268 11.76 114.268 9.48C114.268 7.2 115.528 6 117.868 6C120.148 6 121.408 7.2 121.408 9.48C121.408 11.76 120.148 12.9 117.868 12.9ZM114.868 45V16.44H120.748V45H114.868ZM141.213 45.72C132.753 45.72 127.893 40.32 127.893 30.72C127.893 21.12 132.813 15.72 141.093 15.72C149.013 15.72 152.853 20.58 152.853 29.28C152.853 29.82 152.853 30.9 152.733 31.68H133.953C133.953 37.68 137.013 40.68 142.233 40.68C145.833 40.68 149.073 39.42 151.473 37.32L152.133 42.12C149.553 44.46 145.713 45.72 141.213 45.72ZM134.013 27.96H146.793C146.793 23.34 144.753 20.7 140.913 20.7C136.533 20.7 134.373 23.7 134.013 27.96ZM175.285 15.72C180.265 15.72 183.445 18.72 183.445 23.58V45H177.565V25.56C177.565 22.74 175.645 20.94 172.945 20.94C170.545 20.94 167.905 22.44 165.865 24.72V45H159.985V16.44H164.725L165.265 20.52C167.965 17.58 171.445 15.72 175.285 15.72ZM204.117 40.08L205.557 44.1C203.877 44.94 202.197 45.36 200.457 45.36C195.417 45.36 192.537 42.54 192.537 37.56V21.42H188.157L189.417 16.44H192.537V6.3H198.417V16.44H204.057V21.42H198.417V37.32C198.417 39.36 199.437 40.5 201.357 40.5C202.317 40.5 203.277 40.44 204.117 40.08ZM235.657 15.72C242.017 15.72 245.797 19.2 245.797 24.96V45H240.877L240.337 41.52C237.817 44.1 234.217 45.72 230.737 45.72C225.757 45.72 222.637 42.48 222.637 37.68C222.637 30.78 228.877 27 239.917 27V24.48C239.917 21.96 238.237 20.46 234.637 20.46C231.577 20.46 228.337 21.42 225.277 22.92L223.957 18.78C227.497 16.8 232.057 15.72 235.657 15.72ZM228.697 36.84C228.697 39.36 230.257 41.16 233.077 41.16C235.297 41.16 237.937 40.02 239.917 38.04V30.6C232.717 30.6 228.697 32.82 228.697 36.84ZM269.504 15.72C274.484 15.72 277.664 18.72 277.664 23.58V45H271.784V25.56C271.784 22.74 269.864 20.94 267.164 20.94C264.764 20.94 262.124 22.44 260.084 24.72V45H254.204V16.44H258.944L259.484 20.52C262.184 17.58 265.664 15.72 269.504 15.72ZM304.319 1.2H310.199V45H305.399L304.739 41.22C302.639 44.28 299.519 45.72 295.799 45.72C288.539 45.72 284.339 40.14 284.339 30.78C284.339 21.42 288.539 15.72 295.919 15.72C298.979 15.72 302.039 16.74 304.319 19.14V1.2ZM297.719 40.68C300.239 40.68 302.699 39.54 304.319 37.44V24C302.699 21.96 300.179 20.7 297.599 20.7C293.099 20.7 290.399 24.42 290.399 30.66C290.399 37.38 293.339 40.68 297.719 40.68ZM344.245 45.72C339.925 45.72 334.525 44.7 331.225 42.96L332.965 36.96C335.905 38.64 339.745 39.84 343.945 39.84C348.445 39.84 351.745 37.86 351.745 34.14C351.745 30.12 347.965 28.44 343.765 26.46C338.425 23.94 332.185 20.94 332.185 13.86C332.185 6.84 338.065 2.88 345.865 2.88C349.825 2.88 354.745 3.84 357.325 5.34L355.705 11.16C353.005 9.72 348.985 8.76 346.105 8.76C342.025 8.76 339.385 10.56 339.385 13.86C339.385 17.58 343.225 19.44 347.365 21.48C352.765 23.94 358.945 26.76 358.945 34.08C358.945 41.04 353.305 45.72 344.245 45.72ZM377.874 45.72C369.414 45.72 364.554 40.32 364.554 30.72C364.554 21.12 369.474 15.72 377.754 15.72C385.674 15.72 389.514 20.58 389.514 29.28C389.514 29.82 389.514 30.9 389.394 31.68H370.614C370.614 37.68 373.674 40.68 378.894 40.68C382.494 40.68 385.734 39.42 388.134 37.32L388.794 42.12C386.214 44.46 382.374 45.72 377.874 45.72ZM370.674 27.96H383.454C383.454 23.34 381.414 20.7 377.574 20.7C373.194 20.7 371.034 23.7 370.674 27.96ZM408.225 45.72C399.765 45.72 394.905 40.32 394.905 30.72C394.905 21.12 399.765 15.72 408.285 15.72C412.245 15.72 415.545 16.86 417.525 18.84L416.085 23.76C414.225 21.78 411.645 20.7 408.885 20.7C403.725 20.7 400.845 24.3 400.845 30.72C400.845 37.2 403.665 40.68 408.705 40.68C411.645 40.68 414.345 39.42 416.625 37.14L418.005 42.06C415.725 44.4 412.305 45.72 408.225 45.72ZM441.817 16.44H447.697V45H442.897L442.357 40.92C439.717 43.86 436.237 45.72 432.397 45.72C427.417 45.72 424.237 42.66 424.237 37.86V16.44H430.117V35.82C430.117 38.7 432.037 40.44 434.737 40.44C437.137 40.44 439.777 39 441.817 36.66V16.44ZM471.166 15.72L471.646 20.7C468.226 20.88 464.926 22.26 462.466 24.54V45H456.586V16.44H461.326L461.986 20.46C464.626 17.52 468.166 15.72 471.166 15.72ZM488.206 45.72C479.746 45.72 474.886 40.32 474.886 30.72C474.886 21.12 479.806 15.72 488.086 15.72C496.006 15.72 499.846 20.58 499.846 29.28C499.846 29.82 499.846 30.9 499.726 31.68H480.946C480.946 37.68 484.006 40.68 489.226 40.68C492.826 40.68 496.066 39.42 498.466 37.32L499.126 42.12C496.546 44.46 492.706 45.72 488.206 45.72ZM481.006 27.96H493.786C493.786 23.34 491.746 20.7 487.906 20.7C483.526 20.7 481.366 23.7 481.006 27.96ZM546.435 9.42H529.335V22.14H544.635V27.9H529.335V45H522.375V3.6H546.435V9.42ZM557.028 12.9C554.688 12.9 553.428 11.76 553.428 9.48C553.428 7.2 554.688 6 557.028 6C559.308 6 560.568 7.2 560.568 9.48C560.568 11.76 559.308 12.9 557.028 12.9ZM554.028 45V16.44H559.908V45H554.028ZM584.094 15.72C589.074 15.72 592.254 18.72 592.254 23.58V45H586.374V25.56C586.374 22.74 584.454 20.94 581.754 20.94C579.354 20.94 576.714 22.44 574.674 24.72V45H568.794V16.44H573.534L574.074 20.52C576.774 17.58 580.254 15.72 584.094 15.72ZM611.829 15.72C618.189 15.72 621.969 19.2 621.969 24.96V45H617.049L616.509 41.52C613.989 44.1 610.389 45.72 606.909 45.72C601.929 45.72 598.809 42.48 598.809 37.68C598.809 30.78 605.049 27 616.089 27V24.48C616.089 21.96 614.409 20.46 610.809 20.46C607.749 20.46 604.509 21.42 601.449 22.92L600.129 18.78C603.669 16.8 608.229 15.72 611.829 15.72ZM604.869 36.84C604.869 39.36 606.429 41.16 609.249 41.16C611.469 41.16 614.109 40.02 616.089 38.04V30.6C608.889 30.6 604.869 32.82 604.869 36.84ZM645.676 15.72C650.656 15.72 653.836 18.72 653.836 23.58V45H647.956V25.56C647.956 22.74 646.036 20.94 643.336 20.94C640.936 20.94 638.296 22.44 636.256 24.72V45H630.376V16.44H635.116L635.656 20.52C638.356 17.58 641.836 15.72 645.676 15.72ZM673.831 45.72C665.371 45.72 660.511 40.32 660.511 30.72C660.511 21.12 665.371 15.72 673.891 15.72C677.851 15.72 681.151 16.86 683.131 18.84L681.691 23.76C679.831 21.78 677.251 20.7 674.491 20.7C669.331 20.7 666.451 24.3 666.451 30.72C666.451 37.2 669.271 40.68 674.311 40.68C677.251 40.68 679.951 39.42 682.231 37.14L683.611 42.06C681.331 44.4 677.911 45.72 673.831 45.72ZM693.083 12.9C690.743 12.9 689.483 11.76 689.483 9.48C689.483 7.2 690.743 6 693.083 6C695.363 6 696.623 7.2 696.623 9.48C696.623 11.76 695.363 12.9 693.083 12.9ZM690.083 45V16.44H695.963V45H690.083ZM715.832 15.72C722.192 15.72 725.972 19.2 725.972 24.96V45H721.052L720.512 41.52C717.992 44.1 714.392 45.72 710.912 45.72C705.932 45.72 702.812 42.48 702.812 37.68C702.812 30.78 709.052 27 720.092 27V24.48C720.092 21.96 718.412 20.46 714.812 20.46C711.752 20.46 708.512 21.42 705.452 22.92L704.132 18.78C707.672 16.8 712.232 15.72 715.832 15.72ZM708.872 36.84C708.872 39.36 710.432 41.16 713.252 41.16C715.472 41.16 718.112 40.02 720.092 38.04V30.6C712.892 30.6 708.872 32.82 708.872 36.84ZM734.379 45V1.2H740.259V45H734.379ZM100.223 129.72C87.8628 129.72 80.8428 121.98 80.8428 108.3C80.8428 94.62 87.8628 86.88 100.223 86.88C113.003 86.88 120.203 94.62 120.203 108.3C120.203 121.98 113.003 129.72 100.223 129.72ZM100.223 123.6C108.443 123.6 113.003 118.14 113.003 108.3C113.003 98.4 108.443 93 100.223 93C92.3628 93 87.9828 98.4 87.9828 108.3C87.9828 118.14 92.3628 123.6 100.223 123.6ZM142.126 99.72C148.906 99.72 153.766 105.3 153.766 114.72C153.766 124.2 149.386 129.72 142.246 129.72C138.766 129.72 135.826 128.46 133.726 125.76V141H127.846V100.44H132.586L133.186 103.74C135.586 100.86 138.886 99.72 142.126 99.72ZM140.386 124.68C144.946 124.68 147.706 121.14 147.706 114.72C147.706 108.42 145.006 104.7 140.506 104.7C137.866 104.7 135.406 105.9 133.726 108.06V121.38C135.346 123.54 137.746 124.68 140.386 124.68ZM172.415 129.72C163.955 129.72 159.095 124.32 159.095 114.72C159.095 105.12 164.015 99.72 172.295 99.72C180.215 99.72 184.055 104.58 184.055 113.28C184.055 113.82 184.055 114.9 183.935 115.68H165.155C165.155 121.68 168.215 124.68 173.435 124.68C177.035 124.68 180.275 123.42 182.675 121.32L183.335 126.12C180.755 128.46 176.915 129.72 172.415 129.72ZM165.215 111.96H177.995C177.995 107.34 175.955 104.7 172.115 104.7C167.735 104.7 165.575 107.7 165.215 111.96ZM205.766 99.72L206.246 104.7C202.826 104.88 199.526 106.26 197.066 108.54V129H191.186V100.44H195.926L196.586 104.46C199.226 101.52 202.766 99.72 205.766 99.72ZM222.561 99.72C228.921 99.72 232.701 103.2 232.701 108.96V129H227.781L227.241 125.52C224.721 128.1 221.121 129.72 217.641 129.72C212.661 129.72 209.541 126.48 209.541 121.68C209.541 114.78 215.781 111 226.821 111V108.48C226.821 105.96 225.141 104.46 221.541 104.46C218.481 104.46 215.241 105.42 212.181 106.92L210.861 102.78C214.401 100.8 218.961 99.72 222.561 99.72ZM215.601 120.84C215.601 123.36 217.161 125.16 219.981 125.16C222.201 125.16 224.841 124.02 226.821 122.04V114.6C219.621 114.6 215.601 116.82 215.601 120.84ZM253.365 124.08L254.805 128.1C253.125 128.94 251.445 129.36 249.705 129.36C244.665 129.36 241.785 126.54 241.785 121.56V105.42H237.405L238.665 100.44H241.785V90.3H247.665V100.44H253.305V105.42H247.665V121.32C247.665 123.36 248.685 124.5 250.605 124.5C251.565 124.5 252.525 124.44 253.365 124.08ZM263.327 96.9C260.987 96.9 259.727 95.76 259.727 93.48C259.727 91.2 260.987 90 263.327 90C265.607 90 266.867 91.2 266.867 93.48C266.867 95.76 265.607 96.9 263.327 96.9ZM260.327 129V100.44H266.207V129H260.327ZM286.792 129.72C278.212 129.72 273.352 124.32 273.352 114.72C273.352 105.12 278.212 99.72 286.792 99.72C295.432 99.72 300.292 105.12 300.292 114.72C300.292 124.32 295.432 129.72 286.792 129.72ZM286.852 124.68C291.712 124.68 294.352 121.2 294.352 114.72C294.352 108.24 291.712 104.7 286.852 104.7C281.932 104.7 279.292 108.24 279.292 114.72C279.292 121.2 281.932 124.68 286.852 124.68ZM322.678 99.72C327.658 99.72 330.838 102.72 330.838 107.58V129H324.958V109.56C324.958 106.74 323.038 104.94 320.338 104.94C317.938 104.94 315.298 106.44 313.258 108.72V129H307.378V100.44H312.118L312.658 104.52C315.358 101.58 318.838 99.72 322.678 99.72ZM348.013 129.72C344.113 129.72 339.793 128.64 337.453 127.02L337.933 121.86C340.453 123.48 345.433 124.8 348.673 124.8C351.853 124.8 353.893 123.66 353.893 121.2C353.893 118.62 350.713 117.54 347.233 116.52C342.853 115.2 337.813 113.4 337.813 108C337.813 102.3 342.253 99.72 347.953 99.72C351.073 99.72 354.913 100.5 357.853 101.76L357.433 106.62C355.093 105.54 351.133 104.34 348.433 104.34C345.673 104.34 343.693 105.6 343.693 107.7C343.693 110.16 346.453 110.82 349.693 111.78C354.193 113.04 359.413 114.96 359.413 120.66C359.413 126.72 354.793 129.72 348.013 129.72ZM411.429 100.44H417.369L408.669 129H402.129L396.549 108.66L390.849 129H384.129L375.909 100.44H382.329L387.969 122.28L394.209 100.44H399.789L405.669 122.34L411.429 100.44ZM425.69 96.9C423.35 96.9 422.09 95.76 422.09 93.48C422.09 91.2 423.35 90 425.69 90C427.97 90 429.23 91.2 429.23 93.48C429.23 95.76 427.97 96.9 425.69 96.9ZM422.69 129V100.44H428.57V129H422.69ZM450.416 124.08L451.856 128.1C450.176 128.94 448.496 129.36 446.756 129.36C441.716 129.36 438.836 126.54 438.836 121.56V105.42H434.456L435.716 100.44H438.836V90.3H444.716V100.44H450.356V105.42H444.716V121.32C444.716 123.36 445.736 124.5 447.656 124.5C448.616 124.5 449.576 124.44 450.416 124.08ZM472.678 99.72C477.598 99.72 480.838 102.72 480.838 107.58V129H474.958V109.56C474.958 106.74 473.038 104.94 470.278 104.94C467.878 104.94 465.298 106.44 463.258 108.72V129H457.378V85.2H463.258V103.86C465.898 101.28 469.138 99.72 472.678 99.72Z" fill="white"/>
<path d="M530.03 111.72H518.03V104.28H530.03C531.75 104.28 533.35 104.6 534.83 105.24C536.35 105.88 537.67 106.76 538.79 107.88C539.91 109 540.79 110.32 541.43 111.84C542.07 113.32 542.39 114.92 542.39 116.64C542.39 118.36 542.07 119.98 541.43 121.5C540.79 122.98 539.91 124.28 538.79 125.4C537.67 126.52 536.35 127.4 534.83 128.04C533.35 128.68 531.75 129 530.03 129H522.17C519.29 129 516.57 128.44 514.01 127.32C511.45 126.2 509.23 124.7 507.35 122.82C505.47 120.94 503.97 118.72 502.85 116.16C501.77 113.6 501.23 110.88 501.23 108C501.23 105.08 501.77 102.34 502.85 99.78C503.97 97.22 505.47 95 507.35 93.12C509.27 91.2 511.51 89.7 514.07 88.62C516.63 87.5 519.37 86.94 522.29 86.94H537.47V94.38H522.29C520.41 94.38 518.63 94.74 516.95 95.46C515.31 96.18 513.87 97.16 512.63 98.4C511.39 99.6 510.41 101.04 509.69 102.72C509.01 104.36 508.67 106.12 508.67 108C508.67 109.88 509.01 111.64 509.69 113.28C510.41 114.92 511.39 116.36 512.63 117.6C513.87 118.84 515.31 119.82 516.95 120.54C518.63 121.22 520.41 121.56 522.29 121.56H530.03C531.67 121.56 532.89 121.06 533.69 120.06C534.53 119.02 534.95 117.88 534.95 116.64C534.95 115.4 534.53 114.28 533.69 113.28C532.89 112.24 531.67 111.72 530.03 111.72ZM548.398 86.94H555.838V129H548.398V86.94ZM581.773 86.46C584.733 86.46 587.513 87.02 590.113 88.14C592.713 89.26 594.993 90.8 596.953 92.76C598.913 94.68 600.453 96.96 601.573 99.6C602.693 102.2 603.253 104.98 603.253 107.94C603.253 110.9 602.693 113.68 601.573 116.28C600.453 118.88 598.913 121.16 596.953 123.12C594.993 125.08 592.713 126.62 590.113 127.74C587.513 128.86 584.733 129.42 581.773 129.42C578.813 129.42 576.013 128.86 573.373 127.74C570.773 126.62 568.493 125.08 566.533 123.12C564.613 121.16 563.093 118.88 561.973 116.28C560.853 113.68 560.293 110.9 560.293 107.94C560.293 104.98 560.853 102.2 561.973 99.6C563.093 96.96 564.613 94.68 566.533 92.76C568.493 90.8 570.773 89.26 573.373 88.14C576.013 87.02 578.813 86.46 581.773 86.46ZM581.773 121.98C583.693 121.98 585.493 121.62 587.173 120.9C588.893 120.14 590.393 119.12 591.673 117.84C592.953 116.52 593.953 115.02 594.673 113.34C595.433 111.62 595.813 109.8 595.813 107.88C595.813 105.96 595.433 104.16 594.673 102.48C593.953 100.76 592.953 99.28 591.673 98.04C590.393 96.76 588.893 95.76 587.173 95.04C585.493 94.28 583.693 93.9 581.773 93.9C579.853 93.9 578.033 94.28 576.313 95.04C574.633 95.76 573.153 96.76 571.873 98.04C570.593 99.28 569.573 100.76 568.813 102.48C568.093 104.16 567.733 105.96 567.733 107.88C567.733 109.8 568.093 111.62 568.813 113.34C569.573 115.02 570.593 116.52 571.873 117.84C573.153 119.12 574.633 120.14 576.313 120.9C578.033 121.62 579.853 121.98 581.773 121.98ZM616.717 107.94V129H609.277V107.94C609.277 105.02 609.817 102.28 610.897 99.72C612.017 97.16 613.537 94.94 615.457 93.06C617.377 91.14 619.617 89.64 622.177 88.56C624.777 87.44 627.557 86.88 630.517 86.88H645.697V94.32H630.337C628.457 94.32 626.677 94.68 624.997 95.4C623.357 96.12 621.917 97.1 620.677 98.34C619.437 99.54 618.457 100.98 617.737 102.66C617.057 104.3 616.717 106.06 616.717 107.94ZM639.937 111.66V104.22H625.957V111.66H639.937ZM651.699 86.94H659.139V129H651.699V86.94Z" fill="url(#paint0_radial_1_214)"/>
<defs>
<radialGradient id="paint0_radial_1_214" cx="0" cy="0" r="1" gradientUnits="userSpaceOnUse" gradientTransform="translate(583.394 39.6764) rotate(111.917) scale(117.604 604.703)">
<stop offset="0.00887753" stop-color="#DEF9FA"/>
<stop offset="0.1723" stop-color="#BEF3F5"/>
<stop offset="0.4204" stop-color="#9DEDF0"/>
<stop offset="0.5512" stop-color="#7DE7EB"/>
<stop offset="0.7154" stop-color="#5CE1E6"/>
<stop offset="1" stop-color="#33BBCF"/>
</radialGradient>
</defs>
</svg>
