<svg width="638" height="118" viewBox="0 0 638 118" fill="none" xmlns="http://www.w3.org/2000/svg">
<path d="M27.43 43H15.955C7.27 42.91 0.25 35.89 0.25 27.205C0.25 18.475 7.315 11.41 16.045 11.41H27.43V16.99H16.045C10.42 16.99 5.83 21.535 5.83 27.205C5.83 32.83 10.42 37.42 16.045 37.42H27.43V43ZM23.11 29.995H12.625V24.415H23.11V29.995ZM41.6996 37.42H53.3996V43H41.6996C36.5696 43 32.3846 38.815 32.3846 33.685V11.455H37.9646V33.685C37.9646 35.755 39.6296 37.42 41.6996 37.42ZM81.7186 43H70.1986V37.42H81.5836C87.2536 37.42 91.7986 32.83 91.7986 27.205C91.7986 21.535 87.2536 16.99 81.5836 16.99H70.1986V11.41H81.5836C90.3136 11.41 97.3786 18.475 97.3786 27.205C97.3786 35.89 90.3586 42.91 81.7186 43ZM129.513 43H118.038C109.353 42.91 102.333 35.89 102.333 27.205C102.333 18.475 109.398 11.41 118.128 11.41H129.513V16.99H118.128C112.503 16.99 107.913 21.535 107.913 27.205C107.913 32.83 112.503 37.42 118.128 37.42H129.513V43ZM125.193 29.995H114.708V24.415H125.193V29.995ZM142.595 11.41H159.2V16.99H142.595C137.735 16.99 137.735 24.415 142.595 24.415H152.945C158.075 24.415 162.26 28.555 162.26 33.685C162.26 38.815 158.075 43 152.945 43H135.485V37.42H152.945C157.85 37.42 157.85 29.995 152.945 29.995H142.37C137.33 29.86 133.325 25.765 133.325 20.68C133.325 15.55 137.465 11.41 142.595 11.41ZM197.179 20.68V43H191.599V20.68C191.599 18.34 191.239 16.81 189.709 16.81C187.144 16.81 184.849 20.77 183.814 22.435L170.494 43H163.834L177.154 22.435C181.744 15.325 184.714 11.23 190.834 11.23C194.614 11.23 197.179 14.74 197.179 20.68ZM207.701 27.205V43H202.121V27.205C202.121 18.475 209.141 11.41 218.051 11.41H229.436V16.99H217.916C212.246 16.99 207.701 21.535 207.701 27.205ZM225.116 29.995H214.631V24.415H225.116V29.995ZM234.387 43V11.455H239.967V43H234.387ZM241.362 0.654998L235.017 7.945H232.992L236.772 0.654998H241.362ZM261.011 11.095C269.876 11.095 277.121 18.295 277.121 27.205C277.121 36.07 269.876 43.315 261.011 43.315C252.101 43.315 244.901 36.07 244.901 27.205C244.901 18.295 252.101 11.095 261.011 11.095ZM261.011 37.735C266.771 37.735 271.541 32.92 271.541 27.16C271.541 21.4 266.771 16.675 261.011 16.675C255.251 16.675 250.481 21.4 250.481 27.16C250.481 32.92 255.251 37.735 261.011 37.735ZM299.501 27.205V43H293.921V27.205C293.921 18.475 300.941 11.41 309.851 11.41H321.236V16.99H309.716C304.046 16.99 299.501 21.535 299.501 27.205ZM316.916 29.995H306.431V24.415H316.916V29.995ZM326.187 43V11.455H331.767V43H326.187ZM361.676 33.685V20.725C361.676 15.595 365.816 11.41 370.946 11.41H394.211V11.455C399.431 10.465 402.671 13.57 402.671 20.68V43H397.091V20.68C397.091 18.34 396.776 16.855 395.246 16.855C392.636 16.855 390.386 20.77 389.306 22.435L376.031 43H369.371L382.646 22.435C383.996 20.365 385.211 18.52 386.426 16.99H370.946C368.921 16.99 367.256 18.655 367.256 20.725V33.685C367.256 40.66 363.791 43 361.631 43C357.176 43 355.601 41.29 351.731 33.145L347.231 23.65C345.836 20.815 342.056 12.085 342.281 20.68V43H336.701V20.68C336.701 13.705 340.211 11.41 342.326 11.41C346.781 11.41 348.401 13.12 352.271 21.265L356.906 31.075C358.571 34.675 361.901 41.74 361.676 33.685ZM438.194 11.41V33.685C438.194 40.66 434.684 43 432.524 43C428.114 43 426.494 41.245 422.624 33.1L418.124 23.65C416.774 20.77 412.994 12.04 413.219 20.68V43H407.639V20.68C407.639 13.705 411.104 11.41 413.264 11.41C417.719 11.41 419.294 13.12 423.164 21.265L427.844 31.075C429.464 34.675 432.839 41.74 432.614 33.685V11.41H438.194ZM470.337 43H458.862C450.177 42.91 443.157 35.89 443.157 27.205C443.157 18.475 450.222 11.41 458.907 11.41H470.337V16.99H458.907C453.282 16.99 448.737 21.535 448.737 27.205C448.737 32.83 453.282 37.42 458.907 37.42H470.337V43ZM475.292 43V11.455H480.872V43H475.292ZM536.43 29.32L543.675 43H537.375L534.27 37.06C532.605 34.18 530.895 30.04 529.095 30.04V29.995H525.405C523.335 29.995 521.715 31.66 521.715 33.73V43H516.135V33.73C516.135 28.6 520.275 24.415 525.405 24.415H532.92C537.78 24.415 537.78 17.035 532.92 17.035H501.6C495.975 17.035 491.385 21.58 491.385 27.205C491.385 32.875 495.975 37.42 501.6 37.42H512.985V43H501.51C492.825 42.955 485.805 35.89 485.805 27.205C485.805 18.52 492.87 11.41 501.6 11.41H532.92C543.09 11.41 545.79 25.495 536.43 29.32ZM508.665 29.995H498.18V24.415H508.665V29.995ZM561.34 11.095C570.205 11.095 577.45 18.295 577.45 27.205C577.45 36.07 570.205 43.315 561.34 43.315C552.43 43.315 545.23 36.07 545.23 27.205C545.23 18.295 552.43 11.095 561.34 11.095ZM561.34 37.735C567.1 37.735 571.87 32.92 571.87 27.16C571.87 21.4 567.1 16.675 561.34 16.675C555.58 16.675 550.81 21.4 550.81 27.16C550.81 32.92 555.58 37.735 561.34 37.735ZM582.418 24.955C582.418 21.265 587.998 21.265 587.998 24.955C587.998 28.645 582.418 28.645 582.418 24.955ZM582.418 37.69C582.418 34 587.998 34 587.998 37.69C587.998 41.335 582.418 41.38 582.418 37.69Z" fill="#3B10D8"/>
<path d="M42.415 83.5C52.135 81.205 62.035 88.675 62.035 99.205C62.035 109.69 52.27 117.205 42.415 114.955C39.265 114.235 36.43 112.57 34.27 110.32C33.325 109.69 32.335 109.285 31.165 109.195C26.44 109.555 24.775 115.315 16.36 115.315C7.45 115.315 0.25 108.115 0.25 99.205C0.25 90.34 7.45 83.095 16.36 83.095C24.775 83.095 26.44 88.9 31.165 89.215C32.335 89.17 33.325 88.72 34.27 88.135C36.43 85.84 39.265 84.22 42.415 83.5ZM30.4 94.975C23.875 94.57 23.02 88.675 16.36 88.675C10.6 88.675 5.83 93.445 5.83 99.205C5.83 104.92 10.6 109.735 16.36 109.735C23.02 109.735 23.875 103.885 30.4 103.48C29.635 100.69 29.635 97.765 30.4 94.975ZM45.655 109.735C51.505 109.915 56.455 105.055 56.455 99.205C56.455 90.475 45.745 84.445 37.87 92.5C34.585 96.01 34.63 102.49 37.96 106.045C39.895 107.89 42.64 109.69 45.655 109.735ZM84.3845 106.045V92.365C84.3845 92.365 84.5645 88.99 83.7995 88.99C83.1695 88.99 82.7195 90.475 81.4595 93.715L72.9545 115H66.9695L75.4295 93.715C77.9495 86.875 80.1545 83.41 84.6095 83.41C87.7595 83.41 89.9645 86.605 89.9645 92.365V106.045C89.9645 106.045 89.7395 109.42 90.5045 109.42C91.0445 109.42 91.4495 108.295 92.3495 106H92.3045L97.2095 93.715C99.7295 86.875 101.935 83.41 106.39 83.41C109.54 83.41 111.745 86.605 111.745 92.365V115H106.165V92.365C106.165 92.365 106.345 88.99 105.58 88.99C104.95 88.99 104.5 90.475 103.24 93.715L98.8295 104.785C96.3545 111.58 94.1045 115 89.6945 115C86.5445 115 84.3845 111.76 84.3845 106.045ZM116.682 115V105.685C116.682 100.555 120.822 96.415 125.952 96.415H133.467C138.327 96.415 138.327 88.99 133.467 88.99H116.682V83.41H133.467C138.597 83.41 142.737 87.55 142.737 92.68C142.737 97.45 139.182 101.365 134.547 101.905V101.995H125.952C123.882 101.995 122.262 103.66 122.262 105.685V115H116.682ZM156.989 109.42H168.689V115H156.989C151.859 115 147.674 110.815 147.674 105.685V83.455H153.254V105.685C153.254 107.755 154.919 109.42 156.989 109.42ZM198.595 115H187.12C178.435 114.91 171.415 107.89 171.415 99.205C171.415 90.475 178.48 83.41 187.21 83.41H198.595V88.99H187.21C181.585 88.99 176.995 93.535 176.995 99.205C176.995 104.83 181.585 109.42 187.21 109.42H198.595V115ZM194.275 101.995H183.79V96.415H194.275V101.995ZM215.25 109.42C217.32 109.42 218.985 107.755 218.985 105.685V83.455H224.565V105.685C224.565 110.815 220.38 115 215.25 115H203.55V109.42H215.25ZM229.532 115V83.455H235.112V115H229.532ZM251.566 115H240.046V109.42H251.431C257.101 109.42 261.646 104.83 261.646 99.205C261.646 93.535 257.101 88.99 251.431 88.99H240.046V83.41H251.431C260.161 83.41 267.226 90.475 267.226 99.205C267.226 107.89 260.206 114.91 251.566 115ZM305.03 115H293.555V109.42H304.94C310.565 109.42 315.155 104.83 315.155 99.205C315.155 93.58 310.565 88.99 304.94 88.99H293.555C289.505 88.99 287.57 92.77 286.49 94.48L273.215 115H266.555L279.83 94.48C284.465 87.37 287.435 83.41 293.555 83.41H304.94C313.67 83.41 320.735 90.475 320.735 99.205C320.735 107.89 313.715 114.955 305.03 115ZM350.644 115V101.86C345.739 100.825 343.399 94.57 341.959 91.96L337.504 83.455H343.804L346.909 89.35C348.574 92.275 350.284 96.46 352.129 96.46C356.404 96.46 355.774 97.09 359.959 89.35L363.064 83.455H369.364L364.909 91.96C363.424 94.57 361.129 100.825 356.224 101.86V115H350.644ZM395.399 83.41H412.004V88.99H395.399C390.539 88.99 390.539 96.415 395.399 96.415H405.749C410.879 96.415 415.064 100.555 415.064 105.685C415.064 110.815 410.879 115 405.749 115H388.289V109.42H405.749C410.654 109.42 410.654 101.995 405.749 101.995H395.174C390.134 101.86 386.129 97.765 386.129 92.68C386.129 87.55 390.269 83.41 395.399 83.41ZM446.058 115H434.583C425.898 114.91 418.878 107.89 418.878 99.205C418.878 90.475 425.943 83.41 434.673 83.41H446.058V88.99H434.673C429.048 88.99 424.458 93.535 424.458 99.205C424.458 104.83 429.048 109.42 434.673 109.42H446.058V115ZM441.738 101.995H431.253V96.415H441.738V101.995ZM449.537 104.29L449.042 101.635C448.187 97 449.672 91.96 453.767 87.82C458.987 82.6 465.242 83.455 471.587 83.455H480.137C487.382 83.455 488.597 87.055 488.597 90.79V102.355C488.597 106.27 491.747 109.42 495.662 109.42C499.577 109.42 502.772 106.27 502.772 102.355V83.455H508.352V102.355C508.352 109.33 502.682 115 495.662 115C488.687 115 483.017 109.33 483.017 102.355V93.265C483.017 90.025 482.207 89.08 479.237 89.08V89.035H464.702C459.077 89.035 454.532 93.58 454.532 99.25C454.532 104.875 459.122 109.42 464.747 109.42H470.507C475.367 109.42 475.367 102.04 470.507 102.04H461.507V96.46H470.507C475.637 96.46 479.777 100.6 479.777 105.73C479.777 110.86 475.637 115 470.507 115H464.567C457.142 114.955 451.472 110.365 449.537 104.29ZM533.589 101.32L540.879 115H534.579L531.474 109.06C529.764 106.135 528.099 101.995 526.254 101.995H522.564C520.539 101.995 518.874 103.66 518.874 105.685V115H513.294V105.685C513.294 100.555 517.434 96.415 522.564 96.415H530.079C534.984 96.415 534.984 88.99 530.079 88.99H513.294V83.41H530.079C540.249 83.41 542.949 97.495 533.589 101.32ZM545.824 115V83.455H551.404V115H545.824ZM567.858 115H556.338V109.42H567.723C573.393 109.42 577.938 104.83 577.938 99.205C577.938 93.535 573.393 88.99 567.723 88.99H556.338V83.41H567.723C576.453 83.41 583.518 90.475 583.518 99.205C583.518 107.89 576.498 114.91 567.858 115ZM621.322 115H609.847V109.42H621.232C626.857 109.42 631.447 104.83 631.447 99.205C631.447 93.58 626.857 88.99 621.232 88.99H609.847C605.797 88.99 603.862 92.77 602.782 94.48L589.507 115H582.847L596.122 94.48C600.757 87.37 603.727 83.41 609.847 83.41H621.232C629.962 83.41 637.027 90.475 637.027 99.205C637.027 107.89 630.007 114.955 621.322 115Z" fill="#6A57F5"/>
</svg>
