<svg width="932" height="141" viewBox="0 0 932 141" fill="none" xmlns="http://www.w3.org/2000/svg">
<path d="M20.1154 45.72C13.9154 45.72 9.13539 43.86 5.77539 40.14C2.41539 36.42 0.735391 31.14 0.735391 24.3C0.735391 17.46 2.41539 12.18 5.77539 8.46C9.13539 4.74 13.9154 2.88 20.1154 2.88C26.5154 2.88 31.4354 4.74 34.8754 8.46C38.3554 12.18 40.0954 17.46 40.0954 24.3C40.0954 31.14 38.3554 36.42 34.8754 40.14C31.4354 43.86 26.5154 45.72 20.1154 45.72ZM20.1154 39.6C24.2354 39.6 27.3954 38.28 29.5954 35.64C31.7954 33 32.8954 29.22 32.8954 24.3C32.8954 19.34 31.7954 15.56 29.5954 12.96C27.3954 10.32 24.2354 9 20.1154 9C16.1954 9 13.1754 10.32 11.0554 12.96C8.93539 15.56 7.87539 19.34 7.87539 24.3C7.87539 29.22 8.93539 33 11.0554 35.64C13.1754 38.28 16.1954 39.6 20.1154 39.6ZM62.0188 15.72C64.2988 15.72 66.3188 16.32 68.0788 17.52C69.8388 18.72 71.1988 20.46 72.1588 22.74C73.1588 24.98 73.6588 27.64 73.6588 30.72C73.6588 35.44 72.6388 39.12 70.5988 41.76C68.5588 44.4 65.7388 45.72 62.1388 45.72C58.4988 45.72 55.6588 44.4 53.6188 41.76V57H47.7388V16.44H52.4788L53.0788 19.74C54.2388 18.38 55.5788 17.38 57.0988 16.74C58.6588 16.06 60.2988 15.72 62.0188 15.72ZM60.2788 40.68C62.5588 40.68 64.3388 39.82 65.6188 38.1C66.9388 36.38 67.5988 33.92 67.5988 30.72C67.5988 27.56 66.9588 25.1 65.6788 23.34C64.3988 21.58 62.6388 20.7 60.3988 20.7C59.0788 20.7 57.8188 21 56.6188 21.6C55.4588 22.16 54.4588 22.98 53.6188 24.06V37.38C54.4188 38.46 55.3988 39.28 56.5588 39.84C57.7188 40.4 58.9588 40.68 60.2788 40.68ZM92.3071 45.72C88.0671 45.72 84.7871 44.42 82.4671 41.82C80.1471 39.22 78.9871 35.52 78.9871 30.72C78.9871 25.96 80.1471 22.28 82.4671 19.68C84.7871 17.04 88.0271 15.72 92.1871 15.72C96.1071 15.72 99.0471 16.88 101.007 19.2C102.967 21.52 103.947 24.88 103.947 29.28C103.947 30.36 103.907 31.16 103.827 31.68H85.0471C85.0471 34.64 85.7671 36.88 87.2071 38.4C88.6471 39.92 90.6871 40.68 93.3271 40.68C95.0871 40.68 96.7671 40.4 98.3671 39.84C99.9671 39.24 101.367 38.4 102.567 37.32L103.227 42.12C101.947 43.28 100.367 44.18 98.4871 44.82C96.6071 45.42 94.5471 45.72 92.3071 45.72ZM97.8871 27.96C97.8871 25.64 97.3871 23.86 96.3871 22.62C95.3871 21.34 93.9271 20.7 92.0071 20.7C89.8871 20.7 88.2471 21.36 87.0871 22.68C85.9671 23.96 85.3071 25.72 85.1071 27.96H97.8871ZM126.139 20.7C124.419 20.78 122.759 21.16 121.159 21.84C119.599 22.52 118.199 23.42 116.959 24.54V45H111.079V16.44H115.819L116.479 20.46C117.799 18.98 119.279 17.82 120.919 16.98C122.559 16.14 124.139 15.72 125.659 15.72L126.139 20.7ZM142.454 15.72C145.614 15.72 148.094 16.54 149.894 18.18C151.694 19.82 152.594 22.08 152.594 24.96V45H147.674L147.134 41.52C145.854 42.8 144.354 43.82 142.634 44.58C140.954 45.34 139.254 45.72 137.534 45.72C135.054 45.72 133.074 44.98 131.594 43.5C130.154 42.02 129.434 40.08 129.434 37.68C129.434 34.24 130.934 31.6 133.934 29.76C136.934 27.92 141.194 27 146.714 27V24.48C146.714 23.2 146.274 22.22 145.394 21.54C144.514 20.82 143.194 20.46 141.434 20.46C138.554 20.46 135.434 21.28 132.074 22.92L130.754 18.78C132.474 17.82 134.394 17.08 136.514 16.56C138.634 16 140.614 15.72 142.454 15.72ZM135.494 36.84C135.494 38.12 135.874 39.16 136.634 39.96C137.434 40.76 138.514 41.16 139.874 41.16C140.994 41.16 142.174 40.88 143.414 40.32C144.654 39.76 145.754 39 146.714 38.04V30.6C143.114 30.6 140.334 31.14 138.374 32.22C136.454 33.3 135.494 34.84 135.494 36.84ZM172.581 45.72C168.341 45.72 165.061 44.42 162.741 41.82C160.421 39.22 159.261 35.52 159.261 30.72C159.261 25.92 160.421 22.22 162.741 19.62C165.061 17.02 168.361 15.72 172.641 15.72C174.601 15.72 176.381 16 177.981 16.56C179.581 17.08 180.881 17.84 181.881 18.84L180.441 23.76C179.521 22.76 178.441 22 177.201 21.48C175.961 20.96 174.641 20.7 173.241 20.7C170.681 20.7 168.701 21.58 167.301 23.34C165.901 25.06 165.201 27.52 165.201 30.72C165.201 33.96 165.881 36.44 167.241 38.16C168.601 39.84 170.541 40.68 173.061 40.68C175.981 40.68 178.621 39.5 180.981 37.14L182.361 42.06C181.201 43.22 179.781 44.12 178.101 44.76C176.461 45.4 174.621 45.72 172.581 45.72ZM188.833 16.44H194.713V45H188.833V16.44ZM191.833 12.9C189.433 12.9 188.233 11.76 188.233 9.48C188.233 8.36 188.533 7.5 189.133 6.9C189.773 6.3 190.673 6 191.833 6C192.993 6 193.873 6.3 194.473 6.9C195.073 7.5 195.373 8.36 195.373 9.48C195.373 11.76 194.193 12.9 191.833 12.9ZM215.298 45.72C211.018 45.72 207.698 44.42 205.338 41.82C203.018 39.22 201.858 35.52 201.858 30.72C201.858 25.92 203.018 22.22 205.338 19.62C207.698 17.02 211.018 15.72 215.298 15.72C219.618 15.72 222.938 17.02 225.258 19.62C227.618 22.22 228.798 25.92 228.798 30.72C228.798 35.52 227.618 39.22 225.258 41.82C222.938 44.42 219.618 45.72 215.298 45.72ZM215.358 40.68C217.798 40.68 219.658 39.84 220.938 38.16C222.218 36.44 222.858 33.96 222.858 30.72C222.858 27.48 222.218 25 220.938 23.28C219.658 21.56 217.798 20.7 215.358 20.7C212.918 20.7 211.038 21.56 209.718 23.28C208.438 25 207.798 27.48 207.798 30.72C207.798 33.96 208.438 36.44 209.718 38.16C211.038 39.84 212.918 40.68 215.358 40.68ZM251.183 15.72C253.663 15.72 255.643 16.42 257.123 17.82C258.603 19.22 259.343 21.14 259.343 23.58V45H253.463V25.56C253.463 24.16 253.023 23.04 252.143 22.2C251.303 21.36 250.203 20.94 248.843 20.94C247.683 20.94 246.463 21.28 245.183 21.96C243.943 22.64 242.803 23.56 241.763 24.72V45H235.883V16.44H240.623L241.163 20.52C242.563 19 244.103 17.82 245.783 16.98C247.503 16.14 249.303 15.72 251.183 15.72ZM279.338 45.72C275.098 45.72 271.818 44.42 269.498 41.82C267.178 39.22 266.018 35.52 266.018 30.72C266.018 25.96 267.178 22.28 269.498 19.68C271.818 17.04 275.058 15.72 279.218 15.72C283.138 15.72 286.078 16.88 288.038 19.2C289.998 21.52 290.978 24.88 290.978 29.28C290.978 30.36 290.938 31.16 290.858 31.68H272.078C272.078 34.64 272.798 36.88 274.238 38.4C275.678 39.92 277.718 40.68 280.358 40.68C282.118 40.68 283.798 40.4 285.398 39.84C286.998 39.24 288.398 38.4 289.598 37.32L290.258 42.12C288.978 43.28 287.398 44.18 285.518 44.82C283.638 45.42 281.578 45.72 279.338 45.72ZM284.918 27.96C284.918 25.64 284.418 23.86 283.418 22.62C282.418 21.34 280.958 20.7 279.038 20.7C276.918 20.7 275.278 21.36 274.118 22.68C272.998 23.96 272.338 25.72 272.138 27.96H284.918ZM306.753 45.72C304.793 45.72 302.833 45.48 300.873 45C298.913 44.48 297.353 43.82 296.193 43.02L296.673 37.86C297.913 38.66 299.593 39.36 301.713 39.96C303.873 40.52 305.773 40.8 307.413 40.8C309.053 40.8 310.333 40.5 311.253 39.9C312.173 39.3 312.633 38.4 312.633 37.2C312.633 36.04 312.073 35.14 310.953 34.5C309.833 33.82 308.173 33.16 305.973 32.52C303.053 31.64 300.753 30.6 299.073 29.4C297.393 28.2 296.553 26.4 296.553 24C296.553 21.28 297.493 19.22 299.373 17.82C301.253 16.42 303.693 15.72 306.693 15.72C308.253 15.72 309.913 15.9 311.673 16.26C313.473 16.62 315.113 17.12 316.593 17.76L316.173 22.62C314.893 22.02 313.393 21.5 311.673 21.06C309.953 20.58 308.453 20.34 307.173 20.34C305.773 20.34 304.633 20.64 303.753 21.24C302.873 21.84 302.433 22.66 302.433 23.7C302.433 24.46 302.693 25.08 303.213 25.56C303.733 26.04 304.333 26.42 305.013 26.7C305.733 26.94 306.873 27.3 308.433 27.78C311.393 28.62 313.753 29.68 315.513 30.96C317.273 32.2 318.153 34.1 318.153 36.66C318.153 39.62 317.113 41.88 315.033 43.44C312.993 44.96 310.233 45.72 306.753 45.72ZM347.069 9.42V22.14H362.369V27.9H347.069V45H340.109V3.6H364.169V9.42H347.069ZM371.762 16.44H377.642V45H371.762V16.44ZM374.762 12.9C372.362 12.9 371.162 11.76 371.162 9.48C371.162 8.36 371.462 7.5 372.062 6.9C372.702 6.3 373.602 6 374.762 6C375.922 6 376.802 6.3 377.402 6.9C378.002 7.5 378.302 8.36 378.302 9.48C378.302 11.76 377.122 12.9 374.762 12.9ZM401.828 15.72C404.308 15.72 406.288 16.42 407.768 17.82C409.248 19.22 409.988 21.14 409.988 23.58V45H404.108V25.56C404.108 24.16 403.668 23.04 402.788 22.2C401.948 21.36 400.848 20.94 399.488 20.94C398.328 20.94 397.108 21.28 395.828 21.96C394.588 22.64 393.448 23.56 392.408 24.72V45H386.528V16.44H391.268L391.808 20.52C393.208 19 394.748 17.82 396.428 16.98C398.148 16.14 399.948 15.72 401.828 15.72ZM429.563 15.72C432.723 15.72 435.203 16.54 437.003 18.18C438.803 19.82 439.703 22.08 439.703 24.96V45H434.783L434.243 41.52C432.963 42.8 431.463 43.82 429.743 44.58C428.063 45.34 426.363 45.72 424.643 45.72C422.163 45.72 420.183 44.98 418.703 43.5C417.263 42.02 416.543 40.08 416.543 37.68C416.543 34.24 418.043 31.6 421.043 29.76C424.043 27.92 428.303 27 433.823 27V24.48C433.823 23.2 433.383 22.22 432.503 21.54C431.623 20.82 430.303 20.46 428.543 20.46C425.663 20.46 422.543 21.28 419.183 22.92L417.863 18.78C419.583 17.82 421.503 17.08 423.623 16.56C425.743 16 427.723 15.72 429.563 15.72ZM422.603 36.84C422.603 38.12 422.983 39.16 423.743 39.96C424.543 40.76 425.623 41.16 426.983 41.16C428.103 41.16 429.283 40.88 430.523 40.32C431.763 39.76 432.863 39 433.823 38.04V30.6C430.223 30.6 427.443 31.14 425.483 32.22C423.563 33.3 422.603 34.84 422.603 36.84ZM463.41 15.72C465.89 15.72 467.87 16.42 469.35 17.82C470.83 19.22 471.57 21.14 471.57 23.58V45H465.69V25.56C465.69 24.16 465.25 23.04 464.37 22.2C463.53 21.36 462.43 20.94 461.07 20.94C459.91 20.94 458.69 21.28 457.41 21.96C456.17 22.64 455.03 23.56 453.99 24.72V45H448.11V16.44H452.85L453.39 20.52C454.79 19 456.33 17.82 458.01 16.98C459.73 16.14 461.53 15.72 463.41 15.72ZM491.565 45.72C487.325 45.72 484.045 44.42 481.725 41.82C479.405 39.22 478.245 35.52 478.245 30.72C478.245 25.92 479.405 22.22 481.725 19.62C484.045 17.02 487.345 15.72 491.625 15.72C493.585 15.72 495.365 16 496.965 16.56C498.565 17.08 499.865 17.84 500.865 18.84L499.425 23.76C498.505 22.76 497.425 22 496.185 21.48C494.945 20.96 493.625 20.7 492.225 20.7C489.665 20.7 487.685 21.58 486.285 23.34C484.885 25.06 484.185 27.52 484.185 30.72C484.185 33.96 484.865 36.44 486.225 38.16C487.585 39.84 489.525 40.68 492.045 40.68C494.965 40.68 497.605 39.5 499.965 37.14L501.345 42.06C500.185 43.22 498.765 44.12 497.085 44.76C495.445 45.4 493.605 45.72 491.565 45.72ZM507.817 16.44H513.697V45H507.817V16.44ZM510.817 12.9C508.417 12.9 507.217 11.76 507.217 9.48C507.217 8.36 507.517 7.5 508.117 6.9C508.757 6.3 509.657 6 510.817 6C511.977 6 512.857 6.3 513.457 6.9C514.057 7.5 514.357 8.36 514.357 9.48C514.357 11.76 513.177 12.9 510.817 12.9ZM534.163 45.72C529.923 45.72 526.643 44.42 524.323 41.82C522.003 39.22 520.843 35.52 520.843 30.72C520.843 25.96 522.003 22.28 524.323 19.68C526.643 17.04 529.883 15.72 534.043 15.72C537.963 15.72 540.903 16.88 542.863 19.2C544.823 21.52 545.803 24.88 545.803 29.28C545.803 30.36 545.763 31.16 545.683 31.68H526.903C526.903 34.64 527.623 36.88 529.063 38.4C530.503 39.92 532.543 40.68 535.183 40.68C536.943 40.68 538.623 40.4 540.223 39.84C541.823 39.24 543.223 38.4 544.423 37.32L545.083 42.12C543.803 43.28 542.223 44.18 540.343 44.82C538.463 45.42 536.403 45.72 534.163 45.72ZM539.743 27.96C539.743 25.64 539.243 23.86 538.243 22.62C537.243 21.34 535.783 20.7 533.863 20.7C531.743 20.7 530.103 21.36 528.943 22.68C527.823 23.96 527.163 25.72 526.963 27.96H539.743ZM567.994 20.7C566.274 20.78 564.614 21.16 563.014 21.84C561.454 22.52 560.054 23.42 558.814 24.54V45H552.934V16.44H557.674L558.334 20.46C559.654 18.98 561.134 17.82 562.774 16.98C564.414 16.14 565.994 15.72 567.514 15.72L567.994 20.7ZM584.309 15.72C587.469 15.72 589.949 16.54 591.749 18.18C593.549 19.82 594.449 22.08 594.449 24.96V45H589.529L588.989 41.52C587.709 42.8 586.209 43.82 584.489 44.58C582.809 45.34 581.109 45.72 579.389 45.72C576.909 45.72 574.929 44.98 573.449 43.5C572.009 42.02 571.289 40.08 571.289 37.68C571.289 34.24 572.789 31.6 575.789 29.76C578.789 27.92 583.049 27 588.569 27V24.48C588.569 23.2 588.129 22.22 587.249 21.54C586.369 20.82 585.049 20.46 583.289 20.46C580.409 20.46 577.289 21.28 573.929 22.92L572.609 18.78C574.329 17.82 576.249 17.08 578.369 16.56C580.489 16 582.469 15.72 584.309 15.72ZM577.349 36.84C577.349 38.12 577.729 39.16 578.489 39.96C579.289 40.76 580.369 41.16 581.729 41.16C582.849 41.16 584.029 40.88 585.269 40.32C586.509 39.76 587.609 39 588.569 38.04V30.6C584.969 30.6 582.189 31.14 580.229 32.22C578.309 33.3 577.349 34.84 577.349 36.84ZM611.616 45.72C609.656 45.72 607.696 45.48 605.736 45C603.776 44.48 602.216 43.82 601.056 43.02L601.536 37.86C602.776 38.66 604.456 39.36 606.576 39.96C608.736 40.52 610.636 40.8 612.276 40.8C613.916 40.8 615.196 40.5 616.116 39.9C617.036 39.3 617.496 38.4 617.496 37.2C617.496 36.04 616.936 35.14 615.816 34.5C614.696 33.82 613.036 33.16 610.836 32.52C607.916 31.64 605.616 30.6 603.936 29.4C602.256 28.2 601.416 26.4 601.416 24C601.416 21.28 602.356 19.22 604.236 17.82C606.116 16.42 608.556 15.72 611.556 15.72C613.116 15.72 614.776 15.9 616.536 16.26C618.336 16.62 619.976 17.12 621.456 17.76L621.036 22.62C619.756 22.02 618.256 21.5 616.536 21.06C614.816 20.58 613.316 20.34 612.036 20.34C610.636 20.34 609.496 20.64 608.616 21.24C607.736 21.84 607.296 22.66 607.296 23.7C607.296 24.46 607.556 25.08 608.076 25.56C608.596 26.04 609.196 26.42 609.876 26.7C610.596 26.94 611.736 27.3 613.296 27.78C616.256 28.62 618.616 29.68 620.376 30.96C622.136 32.2 623.016 34.1 623.016 36.66C623.016 39.62 621.976 41.88 619.896 43.44C617.856 44.96 615.096 45.72 611.616 45.72ZM669.993 39.18V45H644.973V3.6H669.513V9.42H651.933V21.24H667.173V27H651.933V39.18H669.993ZM680.706 21.36H676.326L677.586 16.44H680.706V8.28C680.706 5.8 681.386 3.88 682.746 2.52C684.146 1.16 686.106 0.479997 688.626 0.479997C690.226 0.479997 691.566 0.799998 692.646 1.44L693.186 6.12C692.106 5.6 690.886 5.34 689.526 5.34C688.566 5.34 687.826 5.62 687.306 6.18C686.826 6.7 686.586 7.48 686.586 8.52V16.44H704.526V45H698.646V21.36H686.586V45H680.706V21.36ZM701.646 12.9C699.246 12.9 698.046 11.76 698.046 9.48C698.046 8.36 698.346 7.5 698.946 6.9C699.586 6.3 700.486 6 701.646 6C702.806 6 703.686 6.3 704.286 6.9C704.886 7.5 705.186 8.36 705.186 9.48C705.186 11.76 704.006 12.9 701.646 12.9ZM725.002 45.72C720.762 45.72 717.482 44.42 715.162 41.82C712.842 39.22 711.682 35.52 711.682 30.72C711.682 25.92 712.842 22.22 715.162 19.62C717.482 17.02 720.782 15.72 725.062 15.72C727.022 15.72 728.802 16 730.402 16.56C732.002 17.08 733.302 17.84 734.302 18.84L732.862 23.76C731.942 22.76 730.862 22 729.622 21.48C728.382 20.96 727.062 20.7 725.662 20.7C723.102 20.7 721.122 21.58 719.722 23.34C718.322 25.06 717.622 27.52 717.622 30.72C717.622 33.96 718.302 36.44 719.662 38.16C721.022 39.84 722.962 40.68 725.482 40.68C728.402 40.68 731.042 39.5 733.402 37.14L734.782 42.06C733.622 43.22 732.202 44.12 730.522 44.76C728.882 45.4 727.042 45.72 725.002 45.72ZM741.254 16.44H747.134V45H741.254V16.44ZM744.254 12.9C741.854 12.9 740.654 11.76 740.654 9.48C740.654 8.36 740.954 7.5 741.554 6.9C742.194 6.3 743.094 6 744.254 6C745.414 6 746.294 6.3 746.894 6.9C747.494 7.5 747.794 8.36 747.794 9.48C747.794 11.76 746.614 12.9 744.254 12.9ZM767.6 45.72C763.36 45.72 760.08 44.42 757.76 41.82C755.44 39.22 754.28 35.52 754.28 30.72C754.28 25.96 755.44 22.28 757.76 19.68C760.08 17.04 763.32 15.72 767.48 15.72C771.4 15.72 774.34 16.88 776.3 19.2C778.26 21.52 779.24 24.88 779.24 29.28C779.24 30.36 779.2 31.16 779.12 31.68H760.34C760.34 34.64 761.06 36.88 762.5 38.4C763.94 39.92 765.98 40.68 768.62 40.68C770.38 40.68 772.06 40.4 773.66 39.84C775.26 39.24 776.66 38.4 777.86 37.32L778.52 42.12C777.24 43.28 775.66 44.18 773.78 44.82C771.9 45.42 769.84 45.72 767.6 45.72ZM773.18 27.96C773.18 25.64 772.68 23.86 771.68 22.62C770.68 21.34 769.22 20.7 767.3 20.7C765.18 20.7 763.54 21.36 762.38 22.68C761.26 23.96 760.6 25.72 760.4 27.96H773.18ZM801.672 15.72C804.152 15.72 806.132 16.42 807.612 17.82C809.092 19.22 809.832 21.14 809.832 23.58V45H803.952V25.56C803.952 24.16 803.512 23.04 802.632 22.2C801.792 21.36 800.692 20.94 799.332 20.94C798.172 20.94 796.952 21.28 795.672 21.96C794.432 22.64 793.292 23.56 792.252 24.72V45H786.372V16.44H791.112L791.652 20.52C793.052 19 794.592 17.82 796.272 16.98C797.992 16.14 799.792 15.72 801.672 15.72ZM831.944 44.1C830.264 44.94 828.564 45.36 826.844 45.36C824.324 45.36 822.364 44.68 820.964 43.32C819.604 41.96 818.924 40.04 818.924 37.56V21.42H814.544L815.804 16.44H818.924V6.3H824.804V16.44H830.444V21.42H824.804V37.32C824.804 38.36 825.044 39.16 825.524 39.72C826.044 40.24 826.784 40.5 827.744 40.5C828.944 40.5 829.864 40.36 830.504 40.08L831.944 44.1ZM848.577 45.72C844.337 45.72 841.057 44.42 838.737 41.82C836.417 39.22 835.257 35.52 835.257 30.72C835.257 25.96 836.417 22.28 838.737 19.68C841.057 17.04 844.297 15.72 848.457 15.72C852.377 15.72 855.317 16.88 857.277 19.2C859.237 21.52 860.217 24.88 860.217 29.28C860.217 30.36 860.177 31.16 860.097 31.68H841.317C841.317 34.64 842.037 36.88 843.477 38.4C844.917 39.92 846.957 40.68 849.597 40.68C851.357 40.68 853.037 40.4 854.637 39.84C856.237 39.24 857.637 38.4 858.837 37.32L859.497 42.12C858.217 43.28 856.637 44.18 854.757 44.82C852.877 45.42 850.817 45.72 848.577 45.72ZM854.157 27.96C854.157 25.64 853.657 23.86 852.657 22.62C851.657 21.34 850.197 20.7 848.277 20.7C846.157 20.7 844.517 21.36 843.357 22.68C842.237 23.96 841.577 25.72 841.377 27.96H854.157ZM875.991 45.72C874.031 45.72 872.071 45.48 870.111 45C868.151 44.48 866.591 43.82 865.431 43.02L865.911 37.86C867.151 38.66 868.831 39.36 870.951 39.96C873.111 40.52 875.011 40.8 876.651 40.8C878.291 40.8 879.571 40.5 880.491 39.9C881.411 39.3 881.871 38.4 881.871 37.2C881.871 36.04 881.311 35.14 880.191 34.5C879.071 33.82 877.411 33.16 875.211 32.52C872.291 31.64 869.991 30.6 868.311 29.4C866.631 28.2 865.791 26.4 865.791 24C865.791 21.28 866.731 19.22 868.611 17.82C870.491 16.42 872.931 15.72 875.931 15.72C877.491 15.72 879.151 15.9 880.911 16.26C882.711 16.62 884.351 17.12 885.831 17.76L885.411 22.62C884.131 22.02 882.631 21.5 880.911 21.06C879.191 20.58 877.691 20.34 876.411 20.34C875.011 20.34 873.871 20.64 872.991 21.24C872.111 21.84 871.671 22.66 871.671 23.7C871.671 24.46 871.931 25.08 872.451 25.56C872.971 26.04 873.571 26.42 874.251 26.7C874.971 26.94 876.111 27.3 877.671 27.78C880.631 28.62 882.991 29.68 884.751 30.96C886.511 32.2 887.391 34.1 887.391 36.66C887.391 39.62 886.351 41.88 884.271 43.44C882.231 44.96 879.471 45.72 875.991 45.72ZM931.248 16.44L920.448 46.14C919.208 49.78 917.788 52.5 916.188 54.3C914.588 56.1 912.468 57 909.828 57C908.988 57 908.028 56.9 906.948 56.7L906.168 51.72C906.768 51.88 907.448 51.96 908.208 51.96C909.688 51.96 910.928 51.54 911.928 50.7C912.928 49.9 913.808 48.26 914.568 45.78L903.888 16.44H910.428L917.928 38.58L925.188 16.44H931.248ZM238.005 129.72C235.765 129.72 233.425 129.48 230.985 129C228.585 128.48 226.585 127.8 224.985 126.96L226.725 120.96C228.285 121.84 230.005 122.54 231.885 123.06C233.765 123.58 235.705 123.84 237.705 123.84C240.025 123.84 241.905 123.34 243.345 122.34C244.785 121.34 245.505 119.94 245.505 118.14C245.505 116.9 245.145 115.84 244.425 114.96C243.745 114.04 242.905 113.28 241.905 112.68C240.905 112.08 239.445 111.34 237.525 110.46C235.125 109.34 233.145 108.3 231.585 107.34C230.025 106.34 228.685 105.06 227.565 103.5C226.485 101.94 225.945 100.06 225.945 97.86C225.945 94.42 227.225 91.74 229.785 89.82C232.345 87.86 235.625 86.88 239.625 86.88C241.665 86.88 243.765 87.12 245.925 87.6C248.125 88.04 249.845 88.62 251.085 89.34L249.465 95.16C248.145 94.44 246.585 93.86 244.785 93.42C242.985 92.98 241.345 92.76 239.865 92.76C237.785 92.76 236.145 93.2 234.945 94.08C233.745 94.96 233.145 96.22 233.145 97.86C233.145 99.02 233.485 100.04 234.165 100.92C234.885 101.8 235.765 102.56 236.805 103.2C237.845 103.8 239.285 104.56 241.125 105.48C243.565 106.6 245.545 107.64 247.065 108.6C248.625 109.52 249.945 110.76 251.025 112.32C252.145 113.88 252.705 115.8 252.705 118.08C252.705 120.4 252.105 122.44 250.905 124.2C249.705 125.96 247.985 127.32 245.745 128.28C243.545 129.24 240.965 129.72 238.005 129.72ZM271.633 129.72C267.393 129.72 264.113 128.42 261.793 125.82C259.473 123.22 258.313 119.52 258.313 114.72C258.313 109.96 259.473 106.28 261.793 103.68C264.113 101.04 267.353 99.72 271.513 99.72C275.433 99.72 278.373 100.88 280.333 103.2C282.293 105.52 283.273 108.88 283.273 113.28C283.273 114.36 283.233 115.16 283.153 115.68H264.373C264.373 118.64 265.093 120.88 266.533 122.4C267.973 123.92 270.013 124.68 272.653 124.68C274.413 124.68 276.093 124.4 277.693 123.84C279.293 123.24 280.693 122.4 281.893 121.32L282.553 126.12C281.273 127.28 279.693 128.18 277.813 128.82C275.933 129.42 273.873 129.72 271.633 129.72ZM277.213 111.96C277.213 109.64 276.713 107.86 275.713 106.62C274.713 105.34 273.253 104.7 271.333 104.7C269.213 104.7 267.573 105.36 266.413 106.68C265.293 107.96 264.633 109.72 264.433 111.96H277.213ZM302.23 123.06C310.31 123.66 314.35 126.56 314.35 131.76C314.35 134.8 313.13 137.1 310.69 138.66C308.29 140.22 304.73 141 300.01 141C295.69 141 292.37 140.32 290.05 138.96C287.73 137.6 286.57 135.62 286.57 133.02C286.57 129.34 288.73 126.8 293.05 125.4C291.53 124.84 290.77 123.72 290.77 122.04C290.77 121.16 291.05 120.4 291.61 119.76C292.21 119.08 293.03 118.58 294.07 118.26C292.39 117.46 291.11 116.34 290.23 114.9C289.39 113.42 288.97 111.66 288.97 109.62C288.97 106.5 289.97 104.08 291.97 102.36C294.01 100.6 296.83 99.72 300.43 99.72C303.87 99.72 306.59 100.5 308.59 102.06L313.45 99.66L314.59 103.86L310.87 104.94C311.55 106.3 311.89 107.86 311.89 109.62C311.89 112.74 310.89 115.18 308.89 116.94C306.89 118.66 304.07 119.52 300.43 119.52C299.71 119.52 299.19 119.5 298.87 119.46L298.75 119.52C297.83 119.52 297.13 119.66 296.65 119.94C296.17 120.22 295.93 120.6 295.93 121.08C295.93 121.64 296.39 122.06 297.31 122.34C298.23 122.62 299.87 122.86 302.23 123.06ZM300.49 103.62C298.57 103.62 297.09 104.14 296.05 105.18C295.05 106.22 294.55 107.68 294.55 109.56C294.55 111.4 295.07 112.86 296.11 113.94C297.19 114.98 298.65 115.5 300.49 115.5C302.37 115.5 303.83 114.98 304.87 113.94C305.91 112.86 306.43 111.4 306.43 109.56C306.43 107.68 305.91 106.22 304.87 105.18C303.87 104.14 302.41 103.62 300.49 103.62ZM300.85 136.5C303.29 136.5 305.19 136.14 306.55 135.42C307.91 134.7 308.59 133.68 308.59 132.36C308.59 131.44 308.25 130.7 307.57 130.14C306.93 129.62 306.05 129.22 304.93 128.94C303.81 128.62 302.17 128.26 300.01 127.86C299.45 127.78 298.57 127.62 297.37 127.38C295.53 127.54 294.11 128.02 293.11 128.82C292.11 129.62 291.61 130.6 291.61 131.76C291.61 133.28 292.43 134.44 294.07 135.24C295.71 136.08 297.97 136.5 300.85 136.5ZM343.625 100.44V129H338.825L338.285 124.92C336.925 126.44 335.385 127.62 333.665 128.46C331.985 129.3 330.205 129.72 328.325 129.72C325.845 129.72 323.865 129.02 322.385 127.62C320.905 126.18 320.165 124.26 320.165 121.86V100.44H326.045V119.82C326.045 121.22 326.465 122.34 327.305 123.18C328.185 124.02 329.305 124.44 330.665 124.44C331.865 124.44 333.085 124.1 334.325 123.42C335.565 122.74 336.705 121.82 337.745 120.66V100.44H343.625ZM367.574 104.7C365.854 104.78 364.194 105.16 362.594 105.84C361.034 106.52 359.634 107.42 358.394 108.54V129H352.514V100.44H357.254L357.914 104.46C359.234 102.98 360.714 101.82 362.354 100.98C363.994 100.14 365.574 99.72 367.094 99.72L367.574 104.7ZM383.889 99.72C387.049 99.72 389.529 100.54 391.329 102.18C393.129 103.82 394.029 106.08 394.029 108.96V129H389.109L388.569 125.52C387.289 126.8 385.789 127.82 384.069 128.58C382.389 129.34 380.689 129.72 378.969 129.72C376.489 129.72 374.509 128.98 373.029 127.5C371.589 126.02 370.869 124.08 370.869 121.68C370.869 118.24 372.369 115.6 375.369 113.76C378.369 111.92 382.629 111 388.149 111V108.48C388.149 107.2 387.709 106.22 386.829 105.54C385.949 104.82 384.629 104.46 382.869 104.46C379.989 104.46 376.869 105.28 373.509 106.92L372.189 102.78C373.909 101.82 375.829 101.08 377.949 100.56C380.069 100 382.049 99.72 383.889 99.72ZM376.929 120.84C376.929 122.12 377.309 123.16 378.069 123.96C378.869 124.76 379.949 125.16 381.309 125.16C382.429 125.16 383.609 124.88 384.849 124.32C386.089 123.76 387.189 123 388.149 122.04V114.6C384.549 114.6 381.769 115.14 379.809 116.22C377.889 117.3 376.929 118.84 376.929 120.84ZM411.196 129.72C409.236 129.72 407.276 129.48 405.316 129C403.356 128.48 401.796 127.82 400.636 127.02L401.116 121.86C402.356 122.66 404.036 123.36 406.156 123.96C408.316 124.52 410.216 124.8 411.856 124.8C413.496 124.8 414.776 124.5 415.696 123.9C416.616 123.3 417.076 122.4 417.076 121.2C417.076 120.04 416.516 119.14 415.396 118.5C414.276 117.82 412.616 117.16 410.416 116.52C407.496 115.64 405.196 114.6 403.516 113.4C401.836 112.2 400.996 110.4 400.996 108C400.996 105.28 401.936 103.22 403.816 101.82C405.696 100.42 408.136 99.72 411.136 99.72C412.696 99.72 414.356 99.9 416.116 100.26C417.916 100.62 419.556 101.12 421.036 101.76L420.616 106.62C419.336 106.02 417.836 105.5 416.116 105.06C414.396 104.58 412.896 104.34 411.616 104.34C410.216 104.34 409.076 104.64 408.196 105.24C407.316 105.84 406.876 106.66 406.876 107.7C406.876 108.46 407.136 109.08 407.656 109.56C408.176 110.04 408.776 110.42 409.456 110.7C410.176 110.94 411.316 111.3 412.876 111.78C415.836 112.62 418.196 113.68 419.956 114.96C421.716 116.2 422.596 118.1 422.596 120.66C422.596 123.62 421.556 125.88 419.476 127.44C417.436 128.96 414.676 129.72 411.196 129.72ZM454.153 129.72C449.913 129.72 446.633 128.42 444.313 125.82C441.993 123.22 440.833 119.52 440.833 114.72C440.833 109.92 441.993 106.22 444.313 103.62C446.633 101.02 449.933 99.72 454.213 99.72C456.173 99.72 457.953 100 459.553 100.56C461.153 101.08 462.453 101.84 463.453 102.84L462.013 107.76C461.093 106.76 460.013 106 458.773 105.48C457.533 104.96 456.213 104.7 454.813 104.7C452.253 104.7 450.273 105.58 448.873 107.34C447.473 109.06 446.773 111.52 446.773 114.72C446.773 117.96 447.453 120.44 448.813 122.16C450.173 123.84 452.113 124.68 454.633 124.68C457.553 124.68 460.193 123.5 462.553 121.14L463.933 126.06C462.773 127.22 461.353 128.12 459.673 128.76C458.033 129.4 456.193 129.72 454.153 129.72ZM481.87 129.72C477.59 129.72 474.27 128.42 471.91 125.82C469.59 123.22 468.43 119.52 468.43 114.72C468.43 109.92 469.59 106.22 471.91 103.62C474.27 101.02 477.59 99.72 481.87 99.72C486.19 99.72 489.51 101.02 491.83 103.62C494.19 106.22 495.37 109.92 495.37 114.72C495.37 119.52 494.19 123.22 491.83 125.82C489.51 128.42 486.19 129.72 481.87 129.72ZM481.93 124.68C484.37 124.68 486.23 123.84 487.51 122.16C488.79 120.44 489.43 117.96 489.43 114.72C489.43 111.48 488.79 109 487.51 107.28C486.23 105.56 484.37 104.7 481.93 104.7C479.49 104.7 477.61 105.56 476.29 107.28C475.01 109 474.37 111.48 474.37 114.72C474.37 117.96 475.01 120.44 476.29 122.16C477.61 123.84 479.49 124.68 481.93 124.68ZM517.756 99.72C520.236 99.72 522.216 100.42 523.696 101.82C525.176 103.22 525.916 105.14 525.916 107.58V129H520.036V109.56C520.036 108.16 519.596 107.04 518.716 106.2C517.876 105.36 516.776 104.94 515.416 104.94C514.256 104.94 513.036 105.28 511.756 105.96C510.516 106.64 509.376 107.56 508.336 108.72V129H502.456V100.44H507.196L507.736 104.52C509.136 103 510.676 101.82 512.356 100.98C514.076 100.14 515.876 99.72 517.756 99.72Z" fill="white"/>
<path d="M575.109 111.72H563.109V104.28H575.109C581.949 104.28 587.469 109.8 587.469 116.64C587.469 123.48 581.949 129 575.109 129H567.249C555.669 128.94 546.309 119.58 546.309 108C546.309 96.36 555.729 86.94 567.369 86.94H582.549V94.38H567.369C559.809 94.38 553.749 100.44 553.749 108C553.749 115.5 559.809 121.56 567.369 121.56H575.109C581.649 121.56 581.649 111.72 575.109 111.72ZM593.477 129V86.94H600.917V129H593.477ZM626.851 86.46C638.671 86.46 648.331 96.06 648.331 107.94C648.331 119.76 638.671 129.42 626.851 129.42C614.971 129.42 605.371 119.76 605.371 107.94C605.371 96.06 614.971 86.46 626.851 86.46ZM626.851 121.98C634.531 121.98 640.891 115.56 640.891 107.88C640.891 100.2 634.531 93.9 626.851 93.9C619.171 93.9 612.811 100.2 612.811 107.88C612.811 115.56 619.171 121.98 626.851 121.98ZM661.795 107.94V129H654.355V107.94C654.355 96.3 663.715 86.88 675.595 86.88H690.775V94.32H675.415C667.855 94.32 661.795 100.38 661.795 107.94ZM685.015 111.66H671.035V104.22H685.015V111.66ZM696.777 129V86.94H704.217V129H696.777Z" fill="url(#paint0_radial_1_214)"/>
<defs>
<radialGradient id="paint0_radial_1_214" cx="0" cy="0" r="1" gradientUnits="userSpaceOnUse" gradientTransform="translate(678.394 39.6764) rotate(111.917) scale(117.604 604.703)">
<stop offset="0.00887753" stop-color="#DEF9FA"/>
<stop offset="0.1723" stop-color="#BEF3F5"/>
<stop offset="0.4204" stop-color="#9DEDF0"/>
<stop offset="0.5512" stop-color="#7DE7EB"/>
<stop offset="0.7154" stop-color="#5CE1E6"/>
<stop offset="1" stop-color="#33BBCF"/>
</radialGradient>
</defs>
</svg>
