<svg width="557" height="105" viewBox="0 0 557 105" fill="none" xmlns="http://www.w3.org/2000/svg">
<path d="M9.565 26.42H21.265V32H9.565C8.275 32 7.06 31.76 5.92 31.28C4.81 30.77 3.835 30.095 2.995 29.255C2.155 28.415 1.48 27.44 0.97 26.33C0.49 25.19 0.25 23.975 0.25 22.685V0.454998H5.83V22.685C5.83 23.735 6.19 24.62 6.91 25.34C7.63 26.06 8.515 26.42 9.565 26.42ZM39.696 32C37.536 31.97 35.496 31.55 33.576 30.74C31.656 29.9 29.991 28.775 28.581 27.365C27.171 25.925 26.046 24.245 25.206 22.325C24.396 20.405 23.991 18.365 23.991 16.205C23.991 14.015 24.396 11.96 25.206 10.04C26.046 8.12 27.171 6.455 28.581 5.045C30.021 3.605 31.701 2.48 33.621 1.67C35.541 0.829999 37.596 0.409999 39.786 0.409999H51.171V5.99H39.786C38.376 5.99 37.041 6.26 35.781 6.8C34.551 7.34 33.471 8.075 32.541 9.005C31.641 9.905 30.921 10.985 30.381 12.245C29.841 13.475 29.571 14.795 29.571 16.205C29.571 17.615 29.841 18.95 30.381 20.21C30.921 21.44 31.641 22.52 32.541 23.45C33.471 24.35 34.551 25.07 35.781 25.61C37.041 26.15 38.376 26.42 39.786 26.42H51.171V32H39.696ZM46.851 18.995V13.415H36.366V18.995H46.851ZM80.858 0.409999V5.99H64.253C63.443 5.99 62.768 6.17 62.228 6.53C61.688 6.89 61.283 7.355 61.013 7.925C60.743 8.465 60.608 9.065 60.608 9.725C60.608 10.355 60.743 10.955 61.013 11.525C61.283 12.065 61.688 12.515 62.228 12.875C62.768 13.235 63.443 13.415 64.253 13.415H74.603C75.893 13.415 77.093 13.655 78.203 14.135C79.343 14.615 80.333 15.275 81.173 16.115C82.013 16.955 82.673 17.945 83.153 19.085C83.663 20.195 83.918 21.395 83.918 22.685C83.918 23.975 83.663 25.19 83.153 26.33C82.673 27.44 82.013 28.415 81.173 29.255C80.333 30.095 79.343 30.77 78.203 31.28C77.093 31.76 75.893 32 74.603 32H57.143V26.42H74.603C75.413 26.42 76.088 26.24 76.628 25.88C77.198 25.52 77.618 25.07 77.888 24.53C78.158 23.96 78.293 23.36 78.293 22.73C78.293 22.07 78.158 21.47 77.888 20.93C77.618 20.36 77.198 19.895 76.628 19.535C76.088 19.175 75.413 18.995 74.603 18.995H64.028C62.768 18.965 61.583 18.71 60.473 18.23C59.393 17.72 58.433 17.045 57.593 16.205C56.783 15.365 56.138 14.39 55.658 13.28C55.208 12.14 54.983 10.94 54.983 9.68C54.983 8.39 55.223 7.19 55.703 6.08C56.183 4.94 56.843 3.95 57.683 3.11C58.523 2.27 59.498 1.61 60.608 1.13C61.748 0.649999 62.963 0.409999 64.253 0.409999H80.858ZM112.509 0.409999V5.99H95.9042C95.0942 5.99 94.4192 6.17 93.8792 6.53C93.3392 6.89 92.9342 7.355 92.6642 7.925C92.3942 8.465 92.2592 9.065 92.2592 9.725C92.2592 10.355 92.3942 10.955 92.6642 11.525C92.9342 12.065 93.3392 12.515 93.8792 12.875C94.4192 13.235 95.0942 13.415 95.9042 13.415H106.254C107.544 13.415 108.744 13.655 109.854 14.135C110.994 14.615 111.984 15.275 112.824 16.115C113.664 16.955 114.324 17.945 114.804 19.085C115.314 20.195 115.569 21.395 115.569 22.685C115.569 23.975 115.314 25.19 114.804 26.33C114.324 27.44 113.664 28.415 112.824 29.255C111.984 30.095 110.994 30.77 109.854 31.28C108.744 31.76 107.544 32 106.254 32H88.7942V26.42H106.254C107.064 26.42 107.739 26.24 108.279 25.88C108.849 25.52 109.269 25.07 109.539 24.53C109.809 23.96 109.944 23.36 109.944 22.73C109.944 22.07 109.809 21.47 109.539 20.93C109.269 20.36 108.849 19.895 108.279 19.535C107.739 19.175 107.064 18.995 106.254 18.995H95.6792C94.4192 18.965 93.2342 18.71 92.1242 18.23C91.0442 17.72 90.0842 17.045 89.2442 16.205C88.4342 15.365 87.7892 14.39 87.3092 13.28C86.8592 12.14 86.6342 10.94 86.6342 9.68C86.6342 8.39 86.8742 7.19 87.3542 6.08C87.8342 4.94 88.4942 3.95 89.3342 3.11C90.1742 2.27 91.1492 1.61 92.2592 1.13C93.3992 0.649999 94.6142 0.409999 95.9042 0.409999H112.509ZM137.938 16.205V32H132.358V16.205C132.358 14.015 132.763 11.96 133.573 10.04C134.413 8.12 135.553 6.455 136.993 5.045C138.433 3.605 140.113 2.48 142.033 1.67C143.983 0.829999 146.068 0.409999 148.288 0.409999H159.673V5.99H148.153C146.743 5.99 145.408 6.26 144.148 6.8C142.918 7.34 141.838 8.075 140.908 9.005C139.978 9.905 139.243 10.985 138.703 12.245C138.193 13.475 137.938 14.795 137.938 16.205ZM155.353 18.995V13.415H144.868V18.995H155.353ZM184.92 18.32L192.21 32H185.91L182.805 26.06C182.385 25.34 181.95 24.56 181.5 23.72C181.08 22.88 180.66 22.115 180.24 21.425C179.82 20.735 179.385 20.165 178.935 19.715C178.485 19.235 178.035 18.995 177.585 18.995H173.895C172.875 18.995 172.005 19.355 171.285 20.075C170.565 20.795 170.205 21.665 170.205 22.685V32H164.625V22.685C164.625 21.395 164.865 20.195 165.345 19.085C165.825 17.945 166.485 16.955 167.325 16.115C168.165 15.275 169.14 14.615 170.25 14.135C171.39 13.655 172.605 13.415 173.895 13.415H181.41C182.22 13.415 182.895 13.235 183.435 12.875C184.005 12.515 184.425 12.065 184.695 11.525C184.965 10.955 185.1 10.355 185.1 9.725C185.1 9.065 184.965 8.465 184.695 7.925C184.425 7.355 184.005 6.89 183.435 6.53C182.895 6.17 182.22 5.99 181.41 5.99H164.625V0.409999H181.41C183.09 0.409999 184.56 0.769999 185.82 1.49C187.11 2.18 188.145 3.08 188.925 4.19C189.705 5.3 190.23 6.545 190.5 7.925C190.77 9.305 190.74 10.655 190.41 11.975C190.11 13.295 189.51 14.525 188.61 15.665C187.71 16.805 186.48 17.69 184.92 18.32ZM228.259 32H222.679V9.68C222.679 8.51 222.559 7.58 222.319 6.89C222.079 6.17 221.569 5.81 220.789 5.81C220.159 5.81 219.544 6.035 218.944 6.485C218.344 6.905 217.789 7.415 217.279 8.015C216.769 8.615 216.304 9.23 215.884 9.86C215.494 10.49 215.164 11.015 214.894 11.435L201.574 32H194.914L208.234 11.435C209.374 9.665 210.439 8.09 211.429 6.71C212.449 5.3 213.469 4.115 214.489 3.155C215.539 2.195 216.649 1.475 217.819 0.995C219.019 0.484999 220.384 0.229999 221.914 0.229999C223.804 0.229999 225.334 1.055 226.504 2.705C227.674 4.355 228.259 6.68 228.259 9.68V32ZM254.801 19.04H245.801V13.46H254.801C256.091 13.46 257.291 13.7 258.401 14.18C259.541 14.66 260.531 15.32 261.371 16.16C262.211 17 262.871 17.99 263.351 19.13C263.831 20.24 264.071 21.44 264.071 22.73C264.071 24.02 263.831 25.235 263.351 26.375C262.871 27.485 262.211 28.46 261.371 29.3C260.531 30.14 259.541 30.8 258.401 31.28C257.291 31.76 256.091 32 254.801 32H248.906C246.746 32 244.706 31.58 242.786 30.74C240.866 29.9 239.201 28.775 237.791 27.365C236.381 25.955 235.256 24.29 234.416 22.37C233.606 20.45 233.201 18.41 233.201 16.25C233.201 14.06 233.606 12.005 234.416 10.085C235.256 8.165 236.381 6.5 237.791 5.09C239.231 3.65 240.911 2.525 242.831 1.715C244.751 0.874998 246.806 0.454998 248.996 0.454998H260.381V6.035H248.996C247.586 6.035 246.251 6.305 244.991 6.845C243.761 7.385 242.681 8.12 241.751 9.05C240.821 9.95 240.086 11.03 239.546 12.29C239.036 13.52 238.781 14.84 238.781 16.25C238.781 17.66 239.036 18.98 239.546 20.21C240.086 21.44 240.821 22.52 241.751 23.45C242.681 24.38 243.761 25.115 244.991 25.655C246.251 26.165 247.586 26.42 248.996 26.42H254.801C256.031 26.42 256.946 26.045 257.546 25.295C258.176 24.515 258.491 23.66 258.491 22.73C258.491 21.8 258.176 20.96 257.546 20.21C256.946 19.43 256.031 19.04 254.801 19.04ZM284.2 9.365C284.23 8.765 284.23 8.21 284.2 7.7C284.17 7.28 284.11 6.89 284.02 6.53C283.93 6.17 283.795 5.99 283.615 5.99C283.285 5.99 282.97 6.38 282.67 7.16C282.37 7.91 281.905 9.095 281.275 10.715L272.77 32H266.785L275.245 10.715C275.875 9.005 276.49 7.505 277.09 6.215C277.72 4.925 278.395 3.86 279.115 3.02C279.835 2.15 280.615 1.505 281.455 1.085C282.325 0.634999 283.315 0.409999 284.425 0.409999C286.015 0.409999 287.305 1.175 288.295 2.705C289.285 4.235 289.78 6.455 289.78 9.365V23.045C289.75 23.675 289.75 24.245 289.78 24.755C289.81 25.175 289.855 25.565 289.915 25.925C289.975 26.255 290.11 26.42 290.32 26.42C290.59 26.42 290.845 26.135 291.085 25.565C291.355 24.995 291.715 24.14 292.165 23H292.12L297.025 10.715C297.655 9.005 298.27 7.505 298.87 6.215C299.5 4.925 300.175 3.86 300.895 3.02C301.615 2.15 302.395 1.505 303.235 1.085C304.105 0.634999 305.095 0.409999 306.205 0.409999C307.795 0.409999 309.085 1.175 310.075 2.705C311.065 4.235 311.56 6.455 311.56 9.365V32H305.98V9.365C306.01 8.765 306.01 8.21 305.98 7.7C305.95 7.28 305.89 6.89 305.8 6.53C305.71 6.17 305.575 5.99 305.395 5.99C305.065 5.99 304.75 6.38 304.45 7.16C304.15 7.91 303.685 9.095 303.055 10.715L298.645 21.785C298.015 23.495 297.385 24.995 296.755 26.285C296.155 27.545 295.495 28.61 294.775 29.48C294.085 30.32 293.305 30.95 292.435 31.37C291.595 31.79 290.62 32 289.51 32C287.92 32 286.63 31.235 285.64 29.705C284.68 28.145 284.2 25.925 284.2 23.045V9.365ZM332.203 32C330.043 31.97 328.003 31.55 326.083 30.74C324.163 29.9 322.498 28.775 321.088 27.365C319.678 25.925 318.553 24.245 317.713 22.325C316.903 20.405 316.498 18.365 316.498 16.205C316.498 14.015 316.903 11.96 317.713 10.04C318.553 8.12 319.678 6.455 321.088 5.045C322.528 3.605 324.208 2.48 326.128 1.67C328.048 0.829999 330.103 0.409999 332.293 0.409999H343.678V5.99H332.293C330.883 5.99 329.548 6.26 328.288 6.8C327.058 7.34 325.978 8.075 325.048 9.005C324.148 9.905 323.428 10.985 322.888 12.245C322.348 13.475 322.078 14.795 322.078 16.205C322.078 17.615 322.348 18.95 322.888 20.21C323.428 21.44 324.148 22.52 325.048 23.45C325.978 24.35 327.058 25.07 328.288 25.61C329.548 26.15 330.883 26.42 332.293 26.42H343.678V32H332.203ZM339.358 18.995V13.415H328.873V18.995H339.358ZM379.188 22.685C379.188 24.425 378.993 25.895 378.603 27.095C378.213 28.265 377.733 29.225 377.163 29.975C376.593 30.695 375.978 31.22 375.318 31.55C374.658 31.85 374.058 32 373.518 32C372.408 32 371.448 31.865 370.638 31.595C369.828 31.325 369.063 30.83 368.343 30.11C367.623 29.39 366.888 28.385 366.138 27.095C365.418 25.805 364.578 24.14 363.618 22.1L359.118 12.65C358.878 12.17 358.593 11.57 358.263 10.85C357.933 10.1 357.573 9.38 357.183 8.69C356.823 7.97 356.448 7.355 356.058 6.845C355.698 6.335 355.368 6.05 355.068 5.99C354.798 5.93 354.573 6.17 354.393 6.71C354.243 7.25 354.183 8.24 354.213 9.68V32H348.633V9.68C348.633 7.94 348.828 6.485 349.218 5.315C349.608 4.115 350.073 3.155 350.613 2.435C351.183 1.715 351.798 1.205 352.458 0.904998C353.118 0.574999 353.718 0.409999 354.258 0.409999C355.368 0.409999 356.328 0.544999 357.138 0.814999C357.948 1.085 358.713 1.58 359.433 2.3C360.153 3.02 360.873 4.025 361.593 5.315C362.343 6.575 363.198 8.225 364.158 10.265L368.838 20.075C369.108 20.675 369.408 21.35 369.738 22.1C370.098 22.82 370.458 23.51 370.818 24.17C371.208 24.8 371.568 25.34 371.898 25.79C372.258 26.21 372.573 26.42 372.843 26.42C373.113 26.39 373.308 26.105 373.428 25.565C373.578 24.995 373.638 24.035 373.608 22.685V0.409999H379.188V22.685ZM394.411 5.99H384.151V0.409999H410.296V5.99H399.991V32H394.411V5.99ZM439.567 32H433.987V9.68C433.987 8.51 433.867 7.58 433.627 6.89C433.387 6.17 432.877 5.81 432.097 5.81C431.467 5.81 430.852 6.035 430.252 6.485C429.652 6.905 429.097 7.415 428.587 8.015C428.077 8.615 427.612 9.23 427.192 9.86C426.802 10.49 426.472 11.015 426.202 11.435L412.882 32H406.222L419.542 11.435C420.682 9.665 421.747 8.09 422.737 6.71C423.757 5.3 424.777 4.115 425.797 3.155C426.847 2.195 427.957 1.475 429.127 0.995C430.327 0.484999 431.692 0.229999 433.222 0.229999C435.112 0.229999 436.642 1.055 437.812 2.705C438.982 4.355 439.567 6.68 439.567 9.68V32ZM454.769 5.99H444.509V0.409999H470.654V5.99H460.349V32H454.769V5.99ZM475.589 0.454998H481.169V32H475.589V0.454998ZM501.07 0.0949977C503.29 0.0949977 505.375 0.514998 507.325 1.355C509.275 2.195 510.985 3.35 512.455 4.82C513.925 6.26 515.08 7.97 515.92 9.95C516.76 11.9 517.18 13.985 517.18 16.205C517.18 18.425 516.76 20.51 515.92 22.46C515.08 24.41 513.925 26.12 512.455 27.59C510.985 29.06 509.275 30.215 507.325 31.055C505.375 31.895 503.29 32.315 501.07 32.315C498.85 32.315 496.75 31.895 494.77 31.055C492.82 30.215 491.11 29.06 489.64 27.59C488.2 26.12 487.06 24.41 486.22 22.46C485.38 20.51 484.96 18.425 484.96 16.205C484.96 13.985 485.38 11.9 486.22 9.95C487.06 7.97 488.2 6.26 489.64 4.82C491.11 3.35 492.82 2.195 494.77 1.355C496.75 0.514998 498.85 0.0949977 501.07 0.0949977ZM501.07 26.735C502.51 26.735 503.86 26.465 505.12 25.925C506.41 25.355 507.535 24.59 508.495 23.63C509.455 22.64 510.205 21.515 510.745 20.255C511.315 18.965 511.6 17.6 511.6 16.16C511.6 14.72 511.315 13.37 510.745 12.11C510.205 10.82 509.455 9.71 508.495 8.78C507.535 7.82 506.41 7.07 505.12 6.53C503.86 5.96 502.51 5.675 501.07 5.675C499.63 5.675 498.265 5.96 496.975 6.53C495.715 7.07 494.605 7.82 493.645 8.78C492.685 9.71 491.92 10.82 491.35 12.11C490.81 13.37 490.54 14.72 490.54 16.16C490.54 17.6 490.81 18.965 491.35 20.255C491.92 21.515 492.685 22.64 493.645 23.63C494.605 24.59 495.715 25.355 496.975 25.925C498.265 26.465 499.63 26.735 501.07 26.735ZM552.703 22.685C552.703 24.425 552.508 25.895 552.118 27.095C551.728 28.265 551.248 29.225 550.678 29.975C550.108 30.695 549.493 31.22 548.833 31.55C548.173 31.85 547.573 32 547.033 32C545.923 32 544.963 31.865 544.153 31.595C543.343 31.325 542.578 30.83 541.858 30.11C541.138 29.39 540.403 28.385 539.653 27.095C538.933 25.805 538.093 24.14 537.133 22.1L532.633 12.65C532.393 12.17 532.108 11.57 531.778 10.85C531.448 10.1 531.088 9.38 530.698 8.69C530.338 7.97 529.963 7.355 529.573 6.845C529.213 6.335 528.883 6.05 528.583 5.99C528.313 5.93 528.088 6.17 527.908 6.71C527.758 7.25 527.698 8.24 527.728 9.68V32H522.148V9.68C522.148 7.94 522.343 6.485 522.733 5.315C523.123 4.115 523.588 3.155 524.128 2.435C524.698 1.715 525.313 1.205 525.973 0.904998C526.633 0.574999 527.233 0.409999 527.773 0.409999C528.883 0.409999 529.843 0.544999 530.653 0.814999C531.463 1.085 532.228 1.58 532.948 2.3C533.668 3.02 534.388 4.025 535.108 5.315C535.858 6.575 536.713 8.225 537.673 10.265L542.353 20.075C542.623 20.675 542.923 21.35 543.253 22.1C543.613 22.82 543.973 23.51 544.333 24.17C544.723 24.8 545.083 25.34 545.413 25.79C545.773 26.21 546.088 26.42 546.358 26.42C546.628 26.39 546.823 26.105 546.943 25.565C547.093 24.995 547.153 24.035 547.123 22.685V0.409999H552.703V22.685ZM33.595 104H28.015V81.68C28.015 80.51 27.895 79.58 27.655 78.89C27.415 78.17 26.905 77.81 26.125 77.81C25.495 77.81 24.88 78.035 24.28 78.485C23.68 78.905 23.125 79.415 22.615 80.015C22.105 80.615 21.64 81.23 21.22 81.86C20.83 82.49 20.5 83.015 20.23 83.435L6.91 104H0.25L13.57 83.435C14.71 81.665 15.775 80.09 16.765 78.71C17.785 77.3 18.805 76.115 19.825 75.155C20.875 74.195 21.985 73.475 23.155 72.995C24.355 72.485 25.72 72.23 27.25 72.23C29.14 72.23 30.67 73.055 31.84 74.705C33.01 76.355 33.595 78.68 33.595 81.68V104ZM69.0919 94.685C69.0919 96.425 68.8969 97.895 68.5069 99.095C68.1169 100.265 67.6369 101.225 67.0669 101.975C66.4969 102.695 65.8819 103.22 65.2219 103.55C64.5619 103.85 63.9619 104 63.4219 104C62.3119 104 61.3519 103.865 60.5419 103.595C59.7319 103.325 58.9669 102.83 58.2469 102.11C57.5269 101.39 56.7919 100.385 56.0419 99.095C55.3219 97.805 54.4819 96.14 53.5219 94.1L49.0219 84.65C48.7819 84.17 48.4969 83.57 48.1669 82.85C47.8369 82.1 47.4769 81.38 47.0869 80.69C46.7269 79.97 46.3519 79.355 45.9619 78.845C45.6019 78.335 45.2719 78.05 44.9719 77.99C44.7019 77.93 44.4769 78.17 44.2969 78.71C44.1469 79.25 44.0869 80.24 44.1169 81.68V104H38.5369V81.68C38.5369 79.94 38.7319 78.485 39.1219 77.315C39.5119 76.115 39.9769 75.155 40.5169 74.435C41.0869 73.715 41.7019 73.205 42.3619 72.905C43.0219 72.575 43.6219 72.41 44.1619 72.41C45.2719 72.41 46.2319 72.545 47.0419 72.815C47.8519 73.085 48.6169 73.58 49.3369 74.3C50.0569 75.02 50.7769 76.025 51.4969 77.315C52.2469 78.575 53.1019 80.225 54.0619 82.265L58.7419 92.075C59.0119 92.675 59.3119 93.35 59.6419 94.1C60.0019 94.82 60.3619 95.51 60.7219 96.17C61.1119 96.8 61.4719 97.34 61.8019 97.79C62.1619 98.21 62.4769 98.42 62.7469 98.42C63.0169 98.39 63.2119 98.105 63.3319 97.565C63.4819 96.995 63.5419 96.035 63.5119 94.685V72.41H69.0919V94.685ZM74.0553 104V98.42H85.4403C86.8503 98.42 88.1703 98.15 89.4003 97.61C90.6603 97.07 91.7403 96.35 92.6403 95.45C93.5703 94.52 94.3053 93.44 94.8453 92.21C95.3853 90.95 95.6553 89.615 95.6553 88.205C95.6553 86.795 95.3853 85.475 94.8453 84.245C94.3053 82.985 93.5703 81.905 92.6403 81.005C91.7403 80.075 90.6603 79.34 89.4003 78.8C88.1703 78.26 86.8503 77.99 85.4403 77.99H74.0553V72.41H85.4403C87.6303 72.41 89.6853 72.83 91.6053 73.67C93.5253 74.48 95.1903 75.605 96.6003 77.045C98.0403 78.455 99.1653 80.12 99.9753 82.04C100.815 83.96 101.235 86.015 101.235 88.205C101.235 90.365 100.815 92.405 99.9753 94.325C99.1653 96.245 98.0553 97.925 96.6453 99.365C95.2353 100.775 93.5703 101.9 91.6503 102.74C89.7603 103.55 87.7353 103.97 85.5753 104H74.0553ZM135.437 81.365C135.467 80.765 135.467 80.21 135.437 79.7C135.407 79.28 135.347 78.89 135.257 78.53C135.167 78.17 135.032 77.99 134.852 77.99C134.522 77.99 134.207 78.38 133.907 79.16C133.607 79.91 133.142 81.095 132.512 82.715L124.007 104H118.022L126.482 82.715C127.112 81.005 127.727 79.505 128.327 78.215C128.957 76.925 129.632 75.86 130.352 75.02C131.072 74.15 131.852 73.505 132.692 73.085C133.562 72.635 134.552 72.41 135.662 72.41C137.252 72.41 138.542 73.175 139.532 74.705C140.522 76.235 141.017 78.455 141.017 81.365V95.045C140.987 95.675 140.987 96.245 141.017 96.755C141.047 97.175 141.092 97.565 141.152 97.925C141.212 98.255 141.347 98.42 141.557 98.42C141.827 98.42 142.082 98.135 142.322 97.565C142.592 96.995 142.952 96.14 143.402 95H143.357L148.262 82.715C148.892 81.005 149.507 79.505 150.107 78.215C150.737 76.925 151.412 75.86 152.132 75.02C152.852 74.15 153.632 73.505 154.472 73.085C155.342 72.635 156.332 72.41 157.442 72.41C159.032 72.41 160.322 73.175 161.312 74.705C162.302 76.235 162.797 78.455 162.797 81.365V104H157.217V81.365C157.247 80.765 157.247 80.21 157.217 79.7C157.187 79.28 157.127 78.89 157.037 78.53C156.947 78.17 156.812 77.99 156.632 77.99C156.302 77.99 155.987 78.38 155.687 79.16C155.387 79.91 154.922 81.095 154.292 82.715L149.882 93.785C149.252 95.495 148.622 96.995 147.992 98.285C147.392 99.545 146.732 100.61 146.012 101.48C145.322 102.32 144.542 102.95 143.672 103.37C142.832 103.79 141.857 104 140.747 104C139.157 104 137.867 103.235 136.877 101.705C135.917 100.145 135.437 97.925 135.437 95.045V81.365ZM183.844 72.095C186.064 72.095 188.149 72.515 190.099 73.355C192.049 74.195 193.759 75.35 195.229 76.82C196.699 78.26 197.854 79.97 198.694 81.95C199.534 83.9 199.954 85.985 199.954 88.205C199.954 90.425 199.534 92.51 198.694 94.46C197.854 96.41 196.699 98.12 195.229 99.59C193.759 101.06 192.049 102.215 190.099 103.055C188.149 103.895 186.064 104.315 183.844 104.315C181.624 104.315 179.524 103.895 177.544 103.055C175.594 102.215 173.884 101.06 172.414 99.59C170.974 98.12 169.834 96.41 168.994 94.46C168.154 92.51 167.734 90.425 167.734 88.205C167.734 85.985 168.154 83.9 168.994 81.95C169.834 79.97 170.974 78.26 172.414 76.82C173.884 75.35 175.594 74.195 177.544 73.355C179.524 72.515 181.624 72.095 183.844 72.095ZM183.844 98.735C185.284 98.735 186.634 98.465 187.894 97.925C189.184 97.355 190.309 96.59 191.269 95.63C192.229 94.64 192.979 93.515 193.519 92.255C194.089 90.965 194.374 89.6 194.374 88.16C194.374 86.72 194.089 85.37 193.519 84.11C192.979 82.82 192.229 81.71 191.269 80.78C190.309 79.82 189.184 79.07 187.894 78.53C186.634 77.96 185.284 77.675 183.844 77.675C182.404 77.675 181.039 77.96 179.749 78.53C178.489 79.07 177.379 79.82 176.419 80.78C175.459 81.71 174.694 82.82 174.124 84.11C173.584 85.37 173.314 86.72 173.314 88.16C173.314 89.6 173.584 90.965 174.124 92.255C174.694 93.515 175.459 94.64 176.419 95.63C177.379 96.59 178.489 97.355 179.749 97.925C181.039 98.465 182.404 98.735 183.844 98.735ZM224.075 90.32L231.365 104H225.065L221.96 98.06C221.54 97.34 221.105 96.56 220.655 95.72C220.235 94.88 219.815 94.115 219.395 93.425C218.975 92.735 218.54 92.165 218.09 91.715C217.64 91.235 217.19 90.995 216.74 90.995H213.05C212.03 90.995 211.16 91.355 210.44 92.075C209.72 92.795 209.36 93.665 209.36 94.685V104H203.78V94.685C203.78 93.395 204.02 92.195 204.5 91.085C204.98 89.945 205.64 88.955 206.48 88.115C207.32 87.275 208.295 86.615 209.405 86.135C210.545 85.655 211.76 85.415 213.05 85.415H220.565C221.375 85.415 222.05 85.235 222.59 84.875C223.16 84.515 223.58 84.065 223.85 83.525C224.12 82.955 224.255 82.355 224.255 81.725C224.255 81.065 224.12 80.465 223.85 79.925C223.58 79.355 223.16 78.89 222.59 78.53C222.05 78.17 221.375 77.99 220.565 77.99H203.78V72.41H220.565C222.245 72.41 223.715 72.77 224.975 73.49C226.265 74.18 227.3 75.08 228.08 76.19C228.86 77.3 229.385 78.545 229.655 79.925C229.925 81.305 229.895 82.655 229.565 83.975C229.265 85.295 228.665 86.525 227.765 87.665C226.865 88.805 225.635 89.69 224.075 90.32ZM249.774 104C247.614 103.97 245.574 103.55 243.654 102.74C241.734 101.9 240.069 100.775 238.659 99.365C237.249 97.925 236.124 96.245 235.284 94.325C234.474 92.405 234.069 90.365 234.069 88.205C234.069 86.015 234.474 83.96 235.284 82.04C236.124 80.12 237.249 78.455 238.659 77.045C240.099 75.605 241.779 74.48 243.699 73.67C245.619 72.83 247.674 72.41 249.864 72.41H261.249V77.99H249.864C248.454 77.99 247.119 78.26 245.859 78.8C244.629 79.34 243.549 80.075 242.619 81.005C241.719 81.905 240.999 82.985 240.459 84.245C239.919 85.475 239.649 86.795 239.649 88.205C239.649 89.615 239.919 90.95 240.459 92.21C240.999 93.44 241.719 94.52 242.619 95.45C243.549 96.35 244.629 97.07 245.859 97.61C247.119 98.15 248.454 98.42 249.864 98.42H261.249V104H249.774ZM256.929 90.995V85.415H246.444V90.995H256.929ZM293.74 104C291.58 103.97 289.54 103.55 287.62 102.74C285.7 101.9 284.035 100.775 282.625 99.365C281.215 97.925 280.09 96.245 279.25 94.325C278.44 92.405 278.035 90.365 278.035 88.205C278.035 86.015 278.44 83.96 279.25 82.04C280.09 80.12 281.215 78.455 282.625 77.045C284.065 75.605 285.745 74.48 287.665 73.67C289.585 72.83 291.64 72.41 293.83 72.41H305.215V77.99H293.83C292.42 77.99 291.085 78.26 289.825 78.8C288.595 79.34 287.515 80.075 286.585 81.005C285.685 81.905 284.965 82.985 284.425 84.245C283.885 85.475 283.615 86.795 283.615 88.205C283.615 89.615 283.885 90.95 284.425 92.21C284.965 93.44 285.685 94.52 286.585 95.45C287.515 96.35 288.595 97.07 289.825 97.61C291.085 98.15 292.42 98.42 293.83 98.42H305.215V104H293.74ZM300.895 90.995V85.415H290.41V90.995H300.895ZM315.75 88.205V104H310.17V88.205C310.17 86.015 310.575 83.96 311.385 82.04C312.225 80.12 313.365 78.455 314.805 77.045C316.245 75.605 317.925 74.48 319.845 73.67C321.795 72.83 323.88 72.41 326.1 72.41H337.485V77.99H325.965C324.555 77.99 323.22 78.26 321.96 78.8C320.73 79.34 319.65 80.075 318.72 81.005C317.79 81.905 317.055 82.985 316.515 84.245C316.005 85.475 315.75 86.795 315.75 88.205ZM333.165 90.995V85.415H322.68V90.995H333.165ZM344.633 88.205V104H339.053V88.205C339.053 86.015 339.458 83.96 340.268 82.04C341.108 80.12 342.248 78.455 343.688 77.045C345.128 75.605 346.808 74.48 348.728 73.67C350.678 72.83 352.763 72.41 354.983 72.41H366.368V77.99H354.848C353.438 77.99 352.103 78.26 350.843 78.8C349.613 79.34 348.533 80.075 347.603 81.005C346.673 81.905 345.938 82.985 345.398 84.245C344.888 85.475 344.633 86.795 344.633 88.205ZM362.048 90.995V85.415H351.563V90.995H362.048ZM371.319 72.455H376.899V104H371.319V72.455ZM397.537 104C395.377 103.97 393.337 103.55 391.417 102.74C389.497 101.9 387.832 100.775 386.422 99.365C385.012 97.925 383.887 96.245 383.047 94.325C382.237 92.405 381.832 90.365 381.832 88.205C381.832 86.015 382.237 83.96 383.047 82.04C383.887 80.12 385.012 78.455 386.422 77.045C387.862 75.605 389.542 74.48 391.462 73.67C393.382 72.83 395.422 72.41 397.582 72.41H409.012V77.99H397.582C396.172 77.99 394.852 78.26 393.622 78.8C392.392 79.34 391.312 80.075 390.382 81.005C389.452 81.905 388.717 82.985 388.177 84.245C387.667 85.475 387.412 86.795 387.412 88.205C387.412 89.615 387.667 90.95 388.177 92.21C388.717 93.44 389.452 94.52 390.382 95.45C391.312 96.35 392.392 97.07 393.622 97.61C394.852 98.15 396.172 98.42 397.582 98.42H409.012V104H397.537ZM413.967 72.455H419.547V104H413.967V72.455ZM440.185 104C438.025 103.97 435.985 103.55 434.065 102.74C432.145 101.9 430.48 100.775 429.07 99.365C427.66 97.925 426.535 96.245 425.695 94.325C424.885 92.405 424.48 90.365 424.48 88.205C424.48 86.015 424.885 83.96 425.695 82.04C426.535 80.12 427.66 78.455 429.07 77.045C430.51 75.605 432.19 74.48 434.11 73.67C436.03 72.83 438.085 72.41 440.275 72.41H451.66V77.99H440.275C438.865 77.99 437.53 78.26 436.27 78.8C435.04 79.34 433.96 80.075 433.03 81.005C432.13 81.905 431.41 82.985 430.87 84.245C430.33 85.475 430.06 86.795 430.06 88.205C430.06 89.615 430.33 90.95 430.87 92.21C431.41 93.44 432.13 94.52 433.03 95.45C433.96 96.35 435.04 97.07 436.27 97.61C437.53 98.15 438.865 98.42 440.275 98.42H451.66V104H440.185ZM447.34 90.995V85.415H436.855V90.995H447.34ZM487.17 94.685C487.17 96.425 486.975 97.895 486.585 99.095C486.195 100.265 485.715 101.225 485.145 101.975C484.575 102.695 483.96 103.22 483.3 103.55C482.64 103.85 482.04 104 481.5 104C480.39 104 479.43 103.865 478.62 103.595C477.81 103.325 477.045 102.83 476.325 102.11C475.605 101.39 474.87 100.385 474.12 99.095C473.4 97.805 472.56 96.14 471.6 94.1L467.1 84.65C466.86 84.17 466.575 83.57 466.245 82.85C465.915 82.1 465.555 81.38 465.165 80.69C464.805 79.97 464.43 79.355 464.04 78.845C463.68 78.335 463.35 78.05 463.05 77.99C462.78 77.93 462.555 78.17 462.375 78.71C462.225 79.25 462.165 80.24 462.195 81.68V104H456.615V81.68C456.615 79.94 456.81 78.485 457.2 77.315C457.59 76.115 458.055 75.155 458.595 74.435C459.165 73.715 459.78 73.205 460.44 72.905C461.1 72.575 461.7 72.41 462.24 72.41C463.35 72.41 464.31 72.545 465.12 72.815C465.93 73.085 466.695 73.58 467.415 74.3C468.135 75.02 468.855 76.025 469.575 77.315C470.325 78.575 471.18 80.225 472.14 82.265L476.82 92.075C477.09 92.675 477.39 93.35 477.72 94.1C478.08 94.82 478.44 95.51 478.8 96.17C479.19 96.8 479.55 97.34 479.88 97.79C480.24 98.21 480.555 98.42 480.825 98.42C481.095 98.39 481.29 98.105 481.41 97.565C481.56 96.995 481.62 96.035 481.59 94.685V72.41H487.17V94.685ZM507.838 104C505.678 103.97 503.638 103.55 501.718 102.74C499.798 101.9 498.133 100.775 496.723 99.365C495.313 97.925 494.188 96.245 493.348 94.325C492.538 92.405 492.133 90.365 492.133 88.205C492.133 86.015 492.538 83.96 493.348 82.04C494.188 80.12 495.313 78.455 496.723 77.045C498.163 75.605 499.843 74.48 501.763 73.67C503.683 72.83 505.723 72.41 507.883 72.41H519.313V77.99H507.883C506.473 77.99 505.153 78.26 503.923 78.8C502.693 79.34 501.613 80.075 500.683 81.005C499.753 81.905 499.018 82.985 498.478 84.245C497.968 85.475 497.713 86.795 497.713 88.205C497.713 89.615 497.968 90.95 498.478 92.21C499.018 93.44 499.753 94.52 500.683 95.45C501.613 96.35 502.693 97.07 503.923 97.61C505.153 98.15 506.473 98.42 507.883 98.42H519.313V104H507.838ZM537.408 90.86C536.178 90.59 535.098 90.05 534.168 89.24C533.268 88.43 532.473 87.515 531.783 86.495C531.093 85.475 530.493 84.47 529.983 83.48C529.503 82.46 529.083 81.62 528.723 80.96L524.268 72.455H530.568L533.673 78.35C534.093 79.07 534.513 79.85 534.933 80.69C535.353 81.53 535.773 82.31 536.193 83.03C536.643 83.72 537.093 84.305 537.543 84.785C537.993 85.235 538.443 85.46 538.893 85.46C539.613 85.46 540.198 85.46 540.648 85.46C541.128 85.46 541.533 85.415 541.863 85.325C542.223 85.235 542.538 85.07 542.808 84.83C543.108 84.56 543.423 84.17 543.753 83.66C544.113 83.12 544.518 82.43 544.968 81.59C545.448 80.72 546.033 79.64 546.723 78.35L549.828 72.455H556.128L551.673 80.96C551.313 81.62 550.878 82.46 550.368 83.48C549.888 84.47 549.303 85.475 548.613 86.495C547.923 87.515 547.113 88.43 546.183 89.24C545.283 90.05 544.218 90.59 542.988 90.86V104H537.408V90.86Z" fill="#3B10D8"/>
</svg>
