<svg width="621" height="115" viewBox="0 0 621 115" fill="none" xmlns="http://www.w3.org/2000/svg">
<path d="M17.665 34.045V20.365C17.665 20.365 17.845 16.99 17.08 16.99C16.45 16.99 16 18.475 14.74 21.715L6.235 43H0.25L8.71 21.715C11.23 14.875 13.435 11.41 17.89 11.41C21.04 11.41 23.245 14.605 23.245 20.365V34.045C23.245 34.045 23.02 37.42 23.785 37.42C24.325 37.42 24.73 36.295 25.63 34H25.585L30.49 21.715C33.01 14.875 35.215 11.41 39.67 11.41C42.82 11.41 45.025 14.605 45.025 20.365V43H39.445V20.365C39.445 20.365 39.625 16.99 38.86 16.99C38.23 16.99 37.78 18.475 36.52 21.715L32.11 32.785C29.635 39.58 27.385 43 22.975 43C19.825 43 17.665 39.76 17.665 34.045ZM77.1427 43H65.6677C56.9827 42.91 49.9627 35.89 49.9627 27.205C49.9627 18.475 57.0277 11.41 65.7577 11.41H77.1427V16.99H65.7577C60.1327 16.99 55.5427 21.535 55.5427 27.205C55.5427 32.83 60.1327 37.42 65.7577 37.42H77.1427V43ZM72.8227 29.995H62.3377V24.415H72.8227V29.995ZM112.652 11.41V33.685C112.652 40.66 109.142 43 106.982 43C102.572 43 100.952 41.245 97.0823 33.1L92.5823 23.65C91.2323 20.77 87.4523 12.04 87.6773 20.68V43H82.0973V20.68C82.0973 13.705 85.5623 11.41 87.7223 11.41C92.1773 11.41 93.7523 13.12 97.6223 21.265L102.302 31.075C103.922 34.675 107.297 41.74 107.072 33.685V11.41H112.652ZM133.726 11.095C142.591 11.095 149.836 18.295 149.836 27.205C149.836 36.07 142.591 43.315 133.726 43.315C124.816 43.315 117.616 36.07 117.616 27.205C117.616 18.295 124.816 11.095 133.726 11.095ZM133.726 37.735C139.486 37.735 144.256 32.92 144.256 27.16C144.256 21.4 139.486 16.675 133.726 16.675C127.966 16.675 123.196 21.4 123.196 27.16C123.196 32.92 127.966 37.735 133.726 37.735ZM161.833 11.41H178.438V16.99H161.833C156.973 16.99 156.973 24.415 161.833 24.415H172.183C177.313 24.415 181.498 28.555 181.498 33.685C181.498 38.815 177.313 43 172.183 43H154.723V37.42H172.183C177.088 37.42 177.088 29.995 172.183 29.995H161.608C156.568 29.86 152.563 25.765 152.563 20.68C152.563 15.55 156.703 11.41 161.833 11.41ZM203.867 27.205V43H198.287V27.205C198.287 18.475 205.307 11.41 214.217 11.41H225.602V16.99H214.082C208.412 16.99 203.867 21.535 203.867 27.205ZM221.282 29.995H210.797V24.415H221.282V29.995ZM250.848 29.32L258.138 43H251.838L248.733 37.06C247.023 34.135 245.358 29.995 243.513 29.995H239.823C237.798 29.995 236.133 31.66 236.133 33.685V43H230.553V33.685C230.553 28.555 234.693 24.415 239.823 24.415H247.338C252.243 24.415 252.243 16.99 247.338 16.99H230.553V11.41H247.338C257.508 11.41 260.208 25.495 250.848 29.32ZM294.187 20.68V43H288.607V20.68C288.607 18.34 288.247 16.81 286.717 16.81C284.152 16.81 281.857 20.77 280.822 22.435L267.502 43H260.842L274.162 22.435C278.752 15.325 281.722 11.23 287.842 11.23C291.622 11.23 294.187 14.74 294.187 20.68ZM320.729 30.04H311.729V24.46H320.729C325.859 24.46 329.999 28.6 329.999 33.73C329.999 38.86 325.859 43 320.729 43H314.834C306.149 42.955 299.129 35.935 299.129 27.25C299.129 18.52 306.194 11.455 314.924 11.455H326.309V17.035H314.924C309.254 17.035 304.709 21.58 304.709 27.25C304.709 32.875 309.254 37.42 314.924 37.42H320.729C325.634 37.42 325.634 30.04 320.729 30.04ZM350.129 34.045V20.365C350.129 20.365 350.309 16.99 349.544 16.99C348.914 16.99 348.464 18.475 347.204 21.715L338.699 43H332.714L341.174 21.715C343.694 14.875 345.899 11.41 350.354 11.41C353.504 11.41 355.709 14.605 355.709 20.365V34.045C355.709 34.045 355.484 37.42 356.249 37.42C356.789 37.42 357.194 36.295 358.094 34H358.049L362.954 21.715C365.474 14.875 367.679 11.41 372.134 11.41C375.284 11.41 377.489 14.605 377.489 20.365V43H371.909V20.365C371.909 20.365 372.089 16.99 371.324 16.99C370.694 16.99 370.244 18.475 368.984 21.715L364.574 32.785C362.099 39.58 359.849 43 355.439 43C352.289 43 350.129 39.76 350.129 34.045ZM409.607 43H398.132C389.447 42.91 382.427 35.89 382.427 27.205C382.427 18.475 389.492 11.41 398.222 11.41H409.607V16.99H398.222C392.597 16.99 388.007 21.535 388.007 27.205C388.007 32.83 392.597 37.42 398.222 37.42H409.607V43ZM405.287 29.995H394.802V24.415H405.287V29.995ZM445.116 11.41V33.685C445.116 40.66 441.606 43 439.446 43C435.036 43 433.416 41.245 429.546 33.1L425.046 23.65C423.696 20.77 419.916 12.04 420.141 20.68V43H414.561V20.68C414.561 13.705 418.026 11.41 420.186 11.41C424.641 11.41 426.216 13.12 430.086 21.265L434.766 31.075C436.386 34.675 439.761 41.74 439.536 33.685V11.41H445.116ZM460.339 43V16.99H450.079V11.41H476.225V16.99H465.919V43H460.339ZM505.496 20.68V43H499.916V20.68C499.916 18.34 499.556 16.81 498.026 16.81C495.461 16.81 493.166 20.77 492.131 22.435L478.811 43H472.151L485.471 22.435C490.061 15.325 493.031 11.23 499.151 11.23C502.931 11.23 505.496 14.74 505.496 20.68ZM537.618 43H526.143C517.458 42.91 510.438 35.89 510.438 27.205C510.438 18.475 517.503 11.41 526.188 11.41H537.618V16.99H526.188C520.563 16.99 516.018 21.535 516.018 27.205C516.018 32.83 520.563 37.42 526.188 37.42H537.618V43ZM542.572 43V11.455H548.152V43H542.572ZM569.196 11.095C578.061 11.095 585.306 18.295 585.306 27.205C585.306 36.07 578.061 43.315 569.196 43.315C560.286 43.315 553.086 36.07 553.086 27.205C553.086 18.295 560.286 11.095 569.196 11.095ZM569.196 37.735C574.956 37.735 579.726 32.92 579.726 27.16C579.726 21.4 574.956 16.675 569.196 16.675C563.436 16.675 558.666 21.4 558.666 27.16C558.666 32.92 563.436 37.735 569.196 37.735ZM573.381 0.654998L567.036 7.945H565.011L568.791 0.654998H573.381ZM620.829 11.41V33.685C620.829 40.66 617.319 43 615.159 43C610.749 43 609.129 41.245 605.259 33.1L600.759 23.65C599.409 20.77 595.629 12.04 595.854 20.68V43H590.274V20.68C590.274 13.705 593.739 11.41 595.899 11.41C600.354 11.41 601.929 13.12 605.799 21.265L610.479 31.075C612.099 34.675 615.474 41.74 615.249 33.685V11.41H620.829ZM13.39 115V101.86C8.485 100.825 6.145 94.57 4.705 91.96L0.25 83.455H6.55L9.655 89.35C11.32 92.275 13.03 96.46 14.875 96.46C19.15 96.46 18.52 97.09 22.705 89.35L25.81 83.455H32.11L27.655 91.96C26.17 94.57 23.875 100.825 18.97 101.86V115H13.39ZM66.2896 106.045V92.365C66.2896 92.365 66.4696 88.99 65.7046 88.99C65.0746 88.99 64.6246 90.475 63.3646 93.715L54.8596 115H48.8746L57.3346 93.715C59.8546 86.875 62.0596 83.41 66.5146 83.41C69.6646 83.41 71.8696 86.605 71.8696 92.365V106.045C71.8696 106.045 71.6446 109.42 72.4096 109.42C72.9496 109.42 73.3546 108.295 74.2546 106H74.2096L79.1146 93.715C81.6346 86.875 83.8396 83.41 88.2946 83.41C91.4446 83.41 93.6496 86.605 93.6496 92.365V115H88.0696V92.365C88.0696 92.365 88.2496 88.99 87.4846 88.99C86.8546 88.99 86.4046 90.475 85.1446 93.715L80.7346 104.785C78.2596 111.58 76.0096 115 71.5996 115C68.4496 115 66.2896 111.76 66.2896 106.045ZM131.932 92.68V115H126.352V92.68C126.352 90.34 125.992 88.81 124.462 88.81C121.897 88.81 119.602 92.77 118.567 94.435L105.247 115H98.5873L111.907 94.435C116.497 87.325 119.467 83.23 125.587 83.23C129.367 83.23 131.932 86.74 131.932 92.68ZM131.887 72.655L125.542 79.945H123.517L127.297 72.655H131.887ZM146.144 83.41H162.749V88.99H146.144C141.284 88.99 141.284 96.415 146.144 96.415H156.494C161.624 96.415 165.809 100.555 165.809 105.685C165.809 110.815 161.624 115 156.494 115H139.034V109.42H156.494C161.399 109.42 161.399 101.995 156.494 101.995H145.919C140.879 101.86 136.874 97.765 136.874 92.68C136.874 87.55 141.014 83.41 146.144 83.41ZM209.778 115H198.303C189.618 114.91 182.598 107.89 182.598 99.205C182.598 90.475 189.663 83.41 198.393 83.41H209.778V88.99H198.393C192.768 88.99 188.178 93.535 188.178 99.205C188.178 104.83 192.768 109.42 198.393 109.42H209.778V115ZM205.458 101.995H194.973V96.415H205.458V101.995ZM220.313 99.205V115H214.733V99.205C214.733 90.475 221.753 83.41 230.663 83.41H242.048V88.99H230.528C224.858 88.99 220.313 93.535 220.313 99.205ZM237.728 101.995H227.243V96.415H237.728V101.995ZM246.999 115V83.455H252.579V115H246.999ZM284.693 115H273.218C264.533 114.91 257.513 107.89 257.513 99.205C257.513 90.475 264.578 83.41 273.263 83.41H284.693V88.99H273.263C267.638 88.99 263.093 93.535 263.093 99.205C263.093 104.83 267.638 109.42 273.263 109.42H284.693V115ZM289.647 115V83.455H295.227V115H289.647ZM327.341 115H315.866C307.181 114.91 300.161 107.89 300.161 99.205C300.161 90.475 307.226 83.41 315.956 83.41H327.341V88.99H315.956C310.331 88.99 305.741 93.535 305.741 99.205C305.741 104.83 310.331 109.42 315.956 109.42H327.341V115ZM323.021 101.995H312.536V96.415H323.021V101.995ZM362.851 83.41V105.685C362.851 112.66 359.341 115 357.181 115C352.771 115 351.151 113.245 347.281 105.1L342.781 95.65C341.431 92.77 337.651 84.04 337.876 92.68V115H332.296V92.68C332.296 85.705 335.761 83.41 337.921 83.41C342.376 83.41 343.951 85.12 347.821 93.265L352.501 103.075C354.121 106.675 357.496 113.74 357.271 105.685V83.41H362.851ZM394.994 115H383.519C374.834 114.91 367.814 107.89 367.814 99.205C367.814 90.475 374.879 83.41 383.564 83.41H394.994V88.99H383.564C377.939 88.99 373.394 93.535 373.394 99.205C373.394 104.83 377.939 109.42 383.564 109.42H394.994V115ZM399.948 115V83.455H405.528V115H399.948ZM443.807 92.68V115H438.227V92.68C438.227 90.34 437.867 88.81 436.337 88.81C433.772 88.81 431.477 92.77 430.442 94.435L417.122 115H410.462L423.782 94.435C428.372 87.325 431.342 83.23 437.462 83.23C441.242 83.23 443.807 86.74 443.807 92.68Z" fill="#3B10D8"/>
</svg>
