<svg width="544" height="124" viewBox="0 0 544 124" fill="none" xmlns="http://www.w3.org/2000/svg">
<path d="M0.4 46V36.064C0.4 30.592 4.816 26.176 10.288 26.176H18.304C23.488 26.176 23.488 18.256 18.304 18.256H0.4V12.304H18.304C23.776 12.304 28.192 16.72 28.192 22.192C28.192 27.28 24.4 31.456 19.456 32.032V32.128H10.288C8.08 32.128 6.352 33.904 6.352 36.064V46H0.4ZM53.8874 31.408L61.6634 46H54.9434L51.6314 39.664C49.8074 36.544 48.0314 32.128 46.0634 32.128H42.1274C39.9674 32.128 38.1914 33.904 38.1914 36.064V46H32.2394V36.064C32.2394 30.592 36.6554 26.176 42.1274 26.176H50.1434C55.3754 26.176 55.3754 18.256 50.1434 18.256H32.2394V12.304H50.1434C60.9914 12.304 63.8714 27.328 53.8874 31.408ZM80.5128 11.968C89.9688 11.968 97.6968 19.648 97.6968 29.152C97.6968 38.608 89.9688 46.336 80.5128 46.336C71.0087 46.336 63.3287 38.608 63.3287 29.152C63.3287 19.648 71.0087 11.968 80.5128 11.968ZM80.5128 40.384C86.6567 40.384 91.7448 35.248 91.7448 29.104C91.7448 22.96 86.6567 17.92 80.5128 17.92C74.3687 17.92 69.2807 22.96 69.2807 29.104C69.2807 35.248 74.3687 40.384 80.5128 40.384ZM135.588 12.304V36.064C135.588 43.504 131.844 46 129.54 46C124.836 46 123.108 44.128 118.98 35.44L114.18 25.36C112.74 22.288 108.708 12.976 108.948 22.192V46H102.996V22.192C102.996 14.752 106.692 12.304 108.996 12.304C113.748 12.304 115.428 14.128 119.556 22.816L124.548 33.28C126.276 37.12 129.876 44.656 129.636 36.064V12.304H135.588ZM151.826 46V18.256H140.882V12.304H168.771V18.256H157.778V46H151.826ZM187.609 11.968C197.065 11.968 204.793 19.648 204.793 29.152C204.793 38.608 197.065 46.336 187.609 46.336C178.105 46.336 170.425 38.608 170.425 29.152C170.425 19.648 178.105 11.968 187.609 11.968ZM187.609 40.384C193.753 40.384 198.841 35.248 198.841 29.104C198.841 22.96 193.753 17.92 187.609 17.92C181.465 17.92 176.377 22.96 176.377 29.104C176.377 35.248 181.465 40.384 187.609 40.384ZM251.705 46H239.465C230.201 45.904 222.713 38.416 222.713 29.152C222.713 19.84 230.249 12.304 239.513 12.304H251.705V18.256H239.513C233.513 18.256 228.665 23.104 228.665 29.152C228.665 35.152 233.513 40.048 239.513 40.048H251.705V46ZM271.783 11.968C281.239 11.968 288.967 19.648 288.967 29.152C288.967 38.608 281.239 46.336 271.783 46.336C262.279 46.336 254.599 38.608 254.599 29.152C254.599 19.648 262.279 11.968 271.783 11.968ZM271.783 40.384C277.927 40.384 283.015 35.248 283.015 29.104C283.015 22.96 277.927 17.92 271.783 17.92C265.639 17.92 260.551 22.96 260.551 29.104C260.551 35.248 265.639 40.384 271.783 40.384ZM326.859 12.304V36.064C326.859 43.504 323.115 46 320.811 46C316.107 46 314.379 44.128 310.251 35.44L305.451 25.36C304.011 22.288 299.979 12.976 300.219 22.192V46H294.267V22.192C294.267 14.752 297.963 12.304 300.267 12.304C305.019 12.304 306.699 14.128 310.827 22.816L315.819 33.28C317.547 37.12 321.147 44.656 320.907 36.064V12.304H326.859ZM349.337 11.968C358.793 11.968 366.521 19.648 366.521 29.152C366.521 38.608 358.793 46.336 349.337 46.336C339.833 46.336 332.153 38.608 332.153 29.152C332.153 19.648 339.833 11.968 349.337 11.968ZM349.337 40.384C355.481 40.384 360.569 35.248 360.569 29.104C360.569 22.96 355.481 17.92 349.337 17.92C343.193 17.92 338.105 22.96 338.105 29.104C338.105 35.248 343.193 40.384 349.337 40.384ZM399.594 46H387.354C378.09 45.904 370.602 38.416 370.602 29.152C370.602 19.84 378.138 12.304 387.402 12.304H399.594V18.256H387.402C381.402 18.256 376.554 23.104 376.554 29.152C376.554 35.152 381.402 40.048 387.402 40.048H399.594V46ZM431.48 46H419.24C409.976 45.904 402.488 38.416 402.488 29.152C402.488 19.84 410.024 12.304 419.336 12.304H431.48V18.256H419.336C413.336 18.256 408.44 23.104 408.44 29.152C408.44 35.152 413.336 40.048 419.336 40.048H431.48V46ZM426.872 32.128H415.688V26.176H426.872V32.128ZM458.413 31.408L466.189 46H459.469L456.157 39.664C454.333 36.544 452.557 32.128 450.589 32.128H446.653C444.493 32.128 442.717 33.904 442.717 36.064V46H436.765V36.064C436.765 30.592 441.181 26.176 446.653 26.176H454.669C459.901 26.176 459.901 18.256 454.669 18.256H436.765V12.304H454.669C465.517 12.304 468.397 27.328 458.413 31.408ZM507.032 22.192V46H501.08V22.192C501.08 19.696 500.696 18.064 499.064 18.064C496.328 18.064 493.88 22.288 492.776 24.064L478.568 46H471.464L485.672 24.064C490.568 16.48 493.736 12.112 500.264 12.112C504.296 12.112 507.032 15.856 507.032 22.192ZM506.984 0.831998L500.216 8.608H498.056L502.088 0.831998H506.984ZM522.191 12.304H539.903V18.256H522.191C517.007 18.256 517.007 26.176 522.191 26.176H533.231C538.703 26.176 543.167 30.592 543.167 36.064C543.167 41.536 538.703 46 533.231 46H514.607V40.048H533.231C538.463 40.048 538.463 32.128 533.231 32.128H521.951C516.575 31.984 512.303 27.616 512.303 22.192C512.303 16.72 516.719 12.304 522.191 12.304ZM32.992 89.304V113.064C32.992 120.504 29.248 123 26.944 123C22.24 123 20.512 121.128 16.384 112.44L11.584 102.36C10.144 99.288 6.112 89.976 6.352 99.192V123H0.4V99.192C0.4 91.752 4.096 89.304 6.4 89.304C11.152 89.304 12.832 91.128 16.96 99.816L21.952 110.28C23.68 114.12 27.28 121.656 27.04 113.064V89.304H32.992ZM51.8223 123.096C44.3343 123.096 38.2862 117.048 38.2862 109.56V89.4H44.2383V109.56C44.2383 113.736 47.6462 117.144 51.8223 117.144C55.9983 117.144 59.3583 113.736 59.3583 109.56V89.4H65.3103V109.56C65.3103 117.048 59.2623 123.096 51.8223 123.096ZM98.8833 123H86.6432C77.3792 122.904 69.8912 115.416 69.8912 106.152C69.8912 96.84 77.4272 89.304 86.7393 89.304H98.8833V95.256H86.7393C80.7393 95.256 75.8432 100.104 75.8432 106.152C75.8432 112.152 80.7393 117.048 86.7393 117.048H98.8833V123ZM94.2753 109.128H83.0912V103.176H94.2753V109.128ZM112.837 89.304H130.549V95.256H112.837C107.653 95.256 107.653 103.176 112.837 103.176H123.877C129.349 103.176 133.813 107.592 133.813 113.064C133.813 118.536 129.349 123 123.877 123H105.253V117.048H123.877C129.109 117.048 129.109 109.128 123.877 109.128H112.597C107.221 108.984 102.949 104.616 102.949 99.192C102.949 93.72 107.365 89.304 112.837 89.304ZM147.655 123V95.256H136.711V89.304H164.599V95.256H153.607V123H147.655ZM191.51 108.408L199.286 123H192.566L189.254 116.664C187.43 113.544 185.654 109.128 183.686 109.128H179.75C177.59 109.128 175.814 110.904 175.814 113.064V123H169.862V113.064C169.862 107.592 174.278 103.176 179.75 103.176H187.766C192.998 103.176 192.998 95.256 187.766 95.256H169.862V89.304H187.766C198.614 89.304 201.494 104.328 191.51 108.408ZM237.739 99.192V123H231.787V99.192C231.787 96.696 231.403 95.064 229.771 95.064C227.035 95.064 224.587 99.288 223.483 101.064L209.275 123H202.171L216.379 101.064C221.275 93.48 224.443 89.112 230.971 89.112C235.003 89.112 237.739 92.856 237.739 99.192ZM288.223 89.304V113.064C288.223 120.504 284.479 123 282.175 123C277.471 123 275.743 121.128 271.615 112.44L266.815 102.36C265.375 99.288 261.343 89.976 261.583 99.192V123H255.631V99.192C255.631 91.752 259.327 89.304 261.631 89.304C266.383 89.304 268.063 91.128 272.191 99.816L277.183 110.28C278.911 114.12 282.511 121.656 282.271 113.064V89.304H288.223ZM307.053 123.096C299.565 123.096 293.517 117.048 293.517 109.56V89.4H299.469V109.56C299.469 113.736 302.877 117.144 307.053 117.144C311.229 117.144 314.589 113.736 314.589 109.56V89.4H320.541V109.56C320.541 117.048 314.493 123.096 307.053 123.096ZM354.114 123H341.874C332.61 122.904 325.122 115.416 325.122 106.152C325.122 96.84 332.658 89.304 341.97 89.304H354.114V95.256H341.97C335.97 95.256 331.074 100.104 331.074 106.152C331.074 112.152 335.97 117.048 341.97 117.048H354.114V123ZM349.506 109.128H338.322V103.176H349.506V109.128ZM359.399 113.16V89.4H365.351V113.16C365.351 115.704 365.735 117.288 367.367 117.288C370.103 117.288 372.551 113.112 373.655 111.288L387.863 89.4H394.967L380.759 111.288C375.863 118.872 372.647 123.24 366.167 123.24C362.135 123.24 359.399 119.544 359.399 113.16ZM421.416 99.192V123H415.464V99.192C415.464 96.696 415.08 95.064 413.448 95.064C410.712 95.064 408.264 99.288 407.16 101.064L392.952 123H385.848L400.056 101.064C404.952 93.48 408.12 89.112 414.648 89.112C418.68 89.112 421.416 92.856 421.416 99.192ZM474.876 99.192V123H468.924V99.192C468.924 96.696 468.54 95.064 466.908 95.064C464.172 95.064 461.724 99.288 460.62 101.064L446.412 123H439.308L453.516 101.064C458.412 93.48 461.58 89.112 468.108 89.112C472.14 89.112 474.876 92.856 474.876 99.192ZM480.147 123V113.064C480.147 107.592 484.563 103.176 490.035 103.176H498.051C503.235 103.176 503.235 95.256 498.051 95.256H480.147V89.304H498.051C503.523 89.304 507.939 93.72 507.939 99.192C507.939 104.28 504.147 108.456 499.203 109.032V109.128H490.035C487.827 109.128 486.099 110.904 486.099 113.064V123H480.147ZM513.205 123V113.064C513.205 107.592 517.621 103.176 523.093 103.176H531.109C536.293 103.176 536.293 95.256 531.109 95.256H513.205V89.304H531.109C536.581 89.304 540.997 93.72 540.997 99.192C540.997 104.28 537.205 108.456 532.261 109.032V109.128H523.093C520.885 109.128 519.157 110.904 519.157 113.064V123H513.205Z" fill="#9747FF"/>
</svg>
