<svg width="501" height="201" viewBox="0 0 501 201" fill="none" xmlns="http://www.w3.org/2000/svg">
<mask id="path-1-outside-1_272573_178" maskUnits="userSpaceOnUse" x="-1" y="1" width="503" height="201" fill="black">
<rect fill="white" x="-1" y="1" width="503" height="201"/>
<path d="M11.344 46V18.256H0.4V12.304H28.288V18.256H17.296V46H11.344ZM60.1533 46H47.9133C38.6493 45.904 31.1612 38.416 31.1612 29.152C31.1612 19.84 38.6973 12.304 48.0093 12.304H60.1533V18.256H48.0093C42.0093 18.256 37.1133 23.104 37.1133 29.152C37.1133 35.152 42.0093 40.048 48.0093 40.048H60.1533V46ZM55.5453 32.128H44.3613V26.176H55.5453V32.128ZM113.627 22.192V46H107.675V22.192C107.675 19.696 107.291 18.064 105.659 18.064C102.923 18.064 100.475 22.288 99.3708 24.064L85.1628 46H78.0588L92.2668 24.064C97.1628 16.48 100.331 12.112 106.859 12.112C110.891 12.112 113.627 15.856 113.627 22.192ZM147.89 46H135.65C126.386 45.904 118.898 38.416 118.898 29.152C118.898 19.84 126.434 12.304 135.698 12.304H147.89V18.256H135.698C129.698 18.256 124.85 23.104 124.85 29.152C124.85 35.152 129.698 40.048 135.698 40.048H147.89V46ZM167.968 11.968C177.424 11.968 185.152 19.648 185.152 29.152C185.152 38.608 177.424 46.336 167.968 46.336C158.464 46.336 150.784 38.608 150.784 29.152C150.784 19.648 158.464 11.968 167.968 11.968ZM167.968 40.384C174.112 40.384 179.2 35.248 179.2 29.104C179.2 22.96 174.112 17.92 167.968 17.92C161.824 17.92 156.736 22.96 156.736 29.104C156.736 35.248 161.824 40.384 167.968 40.384ZM204.247 36.448V21.856C204.247 21.856 204.439 18.256 203.623 18.256C202.951 18.256 202.471 19.84 201.127 23.296L192.055 46H185.671L194.695 23.296C197.383 16 199.735 12.304 204.487 12.304C207.847 12.304 210.199 15.712 210.199 21.856V36.448C210.199 36.448 209.959 40.048 210.775 40.048C211.351 40.048 211.783 38.848 212.743 36.4H212.695L217.927 23.296C220.615 16 222.967 12.304 227.719 12.304C231.079 12.304 233.431 15.712 233.431 21.856V46H227.479V21.856C227.479 21.856 227.671 18.256 226.855 18.256C226.183 18.256 225.703 19.84 224.359 23.296L219.655 35.104C217.015 42.352 214.615 46 209.911 46C206.551 46 204.247 42.544 204.247 36.448ZM238.698 46V36.064C238.698 30.592 243.114 26.176 248.586 26.176H256.602C261.786 26.176 261.786 18.256 256.602 18.256H238.698V12.304H256.602C262.074 12.304 266.49 16.72 266.49 22.192C266.49 27.28 262.698 31.456 257.754 32.032V32.128H248.586C246.378 32.128 244.65 33.904 244.65 36.064V46H238.698ZM295.324 22.192V46H289.372V22.192C289.372 19.696 288.988 18.064 287.356 18.064C284.62 18.064 282.172 22.288 281.068 24.064L266.86 46H259.756L273.964 24.064C278.86 16.48 282.028 12.112 288.556 12.112C292.588 12.112 295.324 15.856 295.324 22.192ZM333.187 36.064C333.187 43.504 329.443 46 327.139 46C322.435 46 320.707 44.128 316.579 35.44L311.779 25.36C310.339 22.288 306.307 12.976 306.547 22.192V46H300.595V22.192C300.595 14.752 304.291 12.304 306.595 12.304C311.347 12.304 313.027 14.128 317.155 22.816L322.147 33.28C323.875 37.12 327.475 44.656 327.235 36.064V12.304H333.187V36.064ZM323.203 2.752C323.107 6.736 321.283 7.936 317.443 5.248C311.635 1.216 308.323 1.36 307.747 9.52H310.627C311.059 0.735999 318.883 11.344 322.867 9.712C325.123 8.8 325.843 5.392 326.035 2.752H323.203ZM374.049 22.192V46H368.097V22.192C368.097 19.696 367.713 18.064 366.081 18.064C363.345 18.064 360.897 22.288 359.793 24.064L345.585 46H338.481L352.689 24.064C357.585 16.48 360.753 12.112 367.281 12.112C371.313 12.112 374.049 15.856 374.049 22.192ZM397.897 36.448V21.856C397.897 21.856 398.089 18.256 397.273 18.256C396.601 18.256 396.121 19.84 394.777 23.296L385.705 46H379.321L388.345 23.296C391.033 16 393.385 12.304 398.137 12.304C401.497 12.304 403.849 15.712 403.849 21.856V36.448C403.849 36.448 403.609 40.048 404.425 40.048C405.001 40.048 405.433 38.848 406.393 36.4H406.345L411.577 23.296C414.265 16 416.617 12.304 421.369 12.304C424.729 12.304 427.081 15.712 427.081 21.856V46H421.129V21.856C421.129 21.856 421.321 18.256 420.505 18.256C419.833 18.256 419.353 19.84 418.009 23.296L413.305 35.104C410.665 42.352 408.265 46 403.561 46C400.201 46 397.897 42.544 397.897 36.448ZM449.532 11.968C458.988 11.968 466.716 19.648 466.716 29.152C466.716 38.608 458.988 46.336 449.532 46.336C440.028 46.336 432.348 38.608 432.348 29.152C432.348 19.648 440.028 11.968 449.532 11.968ZM449.532 40.384C455.676 40.384 460.764 35.248 460.764 29.104C460.764 22.96 455.676 17.92 449.532 17.92C443.388 17.92 438.3 22.96 438.3 29.104C438.3 35.248 443.388 40.384 449.532 40.384ZM479.512 12.304H497.224V18.256H479.512C474.328 18.256 474.328 26.176 479.512 26.176H490.552C496.024 26.176 500.488 30.592 500.488 36.064C500.488 41.536 496.024 46 490.552 46H471.928V40.048H490.552C495.784 40.048 495.784 32.128 490.552 32.128H479.272C473.896 31.984 469.624 27.616 469.624 22.192C469.624 16.72 474.04 12.304 479.512 12.304ZM29.392 123H17.152C7.888 122.904 0.4 115.416 0.4 106.152C0.4 96.84 7.936 89.304 17.248 89.304H29.392V95.256H17.248C11.248 95.256 6.352 100.104 6.352 106.152C6.352 112.152 11.248 117.048 17.248 117.048H29.392V123ZM24.784 109.128H13.6V103.176H24.784V109.128ZM67.2689 89.304V113.064C67.2689 120.504 63.5249 123 61.2209 123C56.5169 123 54.7889 121.128 50.6609 112.44L45.8609 102.36C44.4209 99.288 40.3889 89.976 40.6289 99.192V123H34.6769V99.192C34.6769 91.752 38.3729 89.304 40.6769 89.304C45.4289 89.304 47.1089 91.128 51.2369 99.816L56.2289 110.28C57.9569 114.12 61.5569 121.656 61.3169 113.064V89.304H67.2689ZM97.4718 123H85.1838V117.048H97.3278C103.376 117.048 108.224 112.152 108.224 106.152C108.224 100.104 103.376 95.256 97.3278 95.256H85.1838V89.304H97.3278C106.64 89.304 114.176 96.84 114.176 106.152C114.176 115.416 106.688 122.904 97.4718 123ZM132.997 123.096C125.509 123.096 119.461 117.048 119.461 109.56V89.4H125.413V109.56C125.413 113.736 128.821 117.144 132.997 117.144C137.173 117.144 140.533 113.736 140.533 109.56V89.4H146.485V109.56C146.485 117.048 140.437 123.096 132.997 123.096ZM173.417 108.408L181.193 123H174.473L171.161 116.664C169.337 113.544 167.561 109.128 165.593 109.128H161.657C159.497 109.128 157.721 110.904 157.721 113.064V123H151.769V113.064C151.769 107.592 156.185 103.176 161.657 103.176H169.673C174.905 103.176 174.905 95.256 169.673 95.256H151.769V89.304H169.673C180.521 89.304 183.401 104.328 173.417 108.408ZM219.645 99.192V123H213.693V99.192C213.693 96.696 213.309 95.064 211.677 95.064C208.941 95.064 206.493 99.288 205.389 101.064L191.181 123H184.077L198.285 101.064C203.181 93.48 206.349 89.112 212.877 89.112C216.909 89.112 219.645 92.856 219.645 99.192ZM257.508 89.304V113.064C257.508 120.504 253.764 123 251.46 123C246.756 123 245.028 121.128 240.9 112.44L236.1 102.36C234.66 99.288 230.628 89.976 230.868 99.192V123H224.916V99.192C224.916 91.752 228.612 89.304 230.916 89.304C235.668 89.304 237.348 91.128 241.476 99.816L246.468 110.28C248.196 114.12 251.796 121.656 251.556 113.064V89.304H257.508ZM273.746 123V95.256H262.802V89.304H290.69V95.256H279.698V123H273.746ZM322.556 123H310.316C301.052 122.904 293.564 115.416 293.564 106.152C293.564 96.84 301.1 89.304 310.412 89.304H322.556V95.256H310.412C304.412 95.256 299.516 100.104 299.516 106.152C299.516 112.152 304.412 117.048 310.412 117.048H322.556V123ZM317.948 109.128H306.764V103.176H317.948V109.128ZM369.453 123H357.213C347.949 122.904 340.461 115.416 340.461 106.152C340.461 96.84 347.997 89.304 357.309 89.304H369.453V95.256H357.309C351.309 95.256 346.413 100.104 346.413 106.152C346.413 112.152 351.309 117.048 357.309 117.048H369.453V123ZM364.845 109.128H353.661V103.176H364.845V109.128ZM384.674 117.048H397.154V123H384.674C379.202 123 374.738 118.536 374.738 113.064V89.352H380.69V113.064C380.69 115.272 382.466 117.048 384.674 117.048ZM0.4 200V190.064C0.4 184.592 4.816 180.176 10.288 180.176H18.304C23.488 180.176 23.488 172.256 18.304 172.256H0.4V166.304H18.304C23.776 166.304 28.192 170.72 28.192 176.192C28.192 181.28 24.4 185.456 19.456 186.032V186.128H10.288C8.08 186.128 6.352 187.904 6.352 190.064V200H0.4ZM53.8874 185.408L61.6634 200H54.9434L51.6314 193.664C49.8074 190.544 48.0314 186.128 46.0634 186.128H42.1274C39.9674 186.128 38.1914 187.904 38.1914 190.064V200H32.2394V190.064C32.2394 184.592 36.6554 180.176 42.1274 180.176H50.1434C55.3754 180.176 55.3754 172.256 50.1434 172.256H32.2394V166.304H50.1434C60.9914 166.304 63.8714 181.328 53.8874 185.408ZM80.5128 165.968C89.9688 165.968 97.6968 173.648 97.6968 183.152C97.6968 192.608 89.9688 200.336 80.5128 200.336C71.0087 200.336 63.3287 192.608 63.3287 183.152C63.3287 173.648 71.0087 165.968 80.5128 165.968ZM80.5128 194.384C86.6567 194.384 91.7448 189.248 91.7448 183.104C91.7448 176.96 86.6567 171.92 80.5128 171.92C74.3687 171.92 69.2807 176.96 69.2807 183.104C69.2807 189.248 74.3687 194.384 80.5128 194.384ZM130.77 200H118.53C109.266 199.904 101.778 192.416 101.778 183.152C101.778 173.84 109.314 166.304 118.578 166.304H130.77V172.256H118.578C112.578 172.256 107.73 177.104 107.73 183.152C107.73 189.152 112.578 194.048 118.578 194.048H130.77V200ZM162.656 200H150.416C141.152 199.904 133.664 192.416 133.664 183.152C133.664 173.84 141.2 166.304 150.512 166.304H162.656V172.256H150.512C144.512 172.256 139.616 177.104 139.616 183.152C139.616 189.152 144.512 194.048 150.512 194.048H162.656V200ZM158.048 186.128H146.864V180.176H158.048V186.128ZM176.61 166.304H194.322V172.256H176.61C171.426 172.256 171.426 180.176 176.61 180.176H187.65C193.122 180.176 197.586 184.592 197.586 190.064C197.586 195.536 193.122 200 187.65 200H169.026V194.048H187.65C192.882 194.048 192.882 186.128 187.65 186.128H176.37C170.994 185.984 166.722 181.616 166.722 176.192C166.722 170.72 171.138 166.304 176.61 166.304ZM217.667 165.968C227.123 165.968 234.851 173.648 234.851 183.152C234.851 192.608 227.123 200.336 217.667 200.336C208.163 200.336 200.483 192.608 200.483 183.152C200.483 173.648 208.163 165.968 217.667 165.968ZM217.667 194.384C223.811 194.384 228.899 189.248 228.899 183.104C228.899 176.96 223.811 171.92 217.667 171.92C211.523 171.92 206.435 176.96 206.435 183.104C206.435 189.248 211.523 194.384 217.667 194.384Z"/>
</mask>
<path d="M11.344 46V18.256H0.4V12.304H28.288V18.256H17.296V46H11.344ZM60.1533 46H47.9133C38.6493 45.904 31.1612 38.416 31.1612 29.152C31.1612 19.84 38.6973 12.304 48.0093 12.304H60.1533V18.256H48.0093C42.0093 18.256 37.1133 23.104 37.1133 29.152C37.1133 35.152 42.0093 40.048 48.0093 40.048H60.1533V46ZM55.5453 32.128H44.3613V26.176H55.5453V32.128ZM113.627 22.192V46H107.675V22.192C107.675 19.696 107.291 18.064 105.659 18.064C102.923 18.064 100.475 22.288 99.3708 24.064L85.1628 46H78.0588L92.2668 24.064C97.1628 16.48 100.331 12.112 106.859 12.112C110.891 12.112 113.627 15.856 113.627 22.192ZM147.89 46H135.65C126.386 45.904 118.898 38.416 118.898 29.152C118.898 19.84 126.434 12.304 135.698 12.304H147.89V18.256H135.698C129.698 18.256 124.85 23.104 124.85 29.152C124.85 35.152 129.698 40.048 135.698 40.048H147.89V46ZM167.968 11.968C177.424 11.968 185.152 19.648 185.152 29.152C185.152 38.608 177.424 46.336 167.968 46.336C158.464 46.336 150.784 38.608 150.784 29.152C150.784 19.648 158.464 11.968 167.968 11.968ZM167.968 40.384C174.112 40.384 179.2 35.248 179.2 29.104C179.2 22.96 174.112 17.92 167.968 17.92C161.824 17.92 156.736 22.96 156.736 29.104C156.736 35.248 161.824 40.384 167.968 40.384ZM204.247 36.448V21.856C204.247 21.856 204.439 18.256 203.623 18.256C202.951 18.256 202.471 19.84 201.127 23.296L192.055 46H185.671L194.695 23.296C197.383 16 199.735 12.304 204.487 12.304C207.847 12.304 210.199 15.712 210.199 21.856V36.448C210.199 36.448 209.959 40.048 210.775 40.048C211.351 40.048 211.783 38.848 212.743 36.4H212.695L217.927 23.296C220.615 16 222.967 12.304 227.719 12.304C231.079 12.304 233.431 15.712 233.431 21.856V46H227.479V21.856C227.479 21.856 227.671 18.256 226.855 18.256C226.183 18.256 225.703 19.84 224.359 23.296L219.655 35.104C217.015 42.352 214.615 46 209.911 46C206.551 46 204.247 42.544 204.247 36.448ZM238.698 46V36.064C238.698 30.592 243.114 26.176 248.586 26.176H256.602C261.786 26.176 261.786 18.256 256.602 18.256H238.698V12.304H256.602C262.074 12.304 266.49 16.72 266.49 22.192C266.49 27.28 262.698 31.456 257.754 32.032V32.128H248.586C246.378 32.128 244.65 33.904 244.65 36.064V46H238.698ZM295.324 22.192V46H289.372V22.192C289.372 19.696 288.988 18.064 287.356 18.064C284.62 18.064 282.172 22.288 281.068 24.064L266.86 46H259.756L273.964 24.064C278.86 16.48 282.028 12.112 288.556 12.112C292.588 12.112 295.324 15.856 295.324 22.192ZM333.187 36.064C333.187 43.504 329.443 46 327.139 46C322.435 46 320.707 44.128 316.579 35.44L311.779 25.36C310.339 22.288 306.307 12.976 306.547 22.192V46H300.595V22.192C300.595 14.752 304.291 12.304 306.595 12.304C311.347 12.304 313.027 14.128 317.155 22.816L322.147 33.28C323.875 37.12 327.475 44.656 327.235 36.064V12.304H333.187V36.064ZM323.203 2.752C323.107 6.736 321.283 7.936 317.443 5.248C311.635 1.216 308.323 1.36 307.747 9.52H310.627C311.059 0.735999 318.883 11.344 322.867 9.712C325.123 8.8 325.843 5.392 326.035 2.752H323.203ZM374.049 22.192V46H368.097V22.192C368.097 19.696 367.713 18.064 366.081 18.064C363.345 18.064 360.897 22.288 359.793 24.064L345.585 46H338.481L352.689 24.064C357.585 16.48 360.753 12.112 367.281 12.112C371.313 12.112 374.049 15.856 374.049 22.192ZM397.897 36.448V21.856C397.897 21.856 398.089 18.256 397.273 18.256C396.601 18.256 396.121 19.84 394.777 23.296L385.705 46H379.321L388.345 23.296C391.033 16 393.385 12.304 398.137 12.304C401.497 12.304 403.849 15.712 403.849 21.856V36.448C403.849 36.448 403.609 40.048 404.425 40.048C405.001 40.048 405.433 38.848 406.393 36.4H406.345L411.577 23.296C414.265 16 416.617 12.304 421.369 12.304C424.729 12.304 427.081 15.712 427.081 21.856V46H421.129V21.856C421.129 21.856 421.321 18.256 420.505 18.256C419.833 18.256 419.353 19.84 418.009 23.296L413.305 35.104C410.665 42.352 408.265 46 403.561 46C400.201 46 397.897 42.544 397.897 36.448ZM449.532 11.968C458.988 11.968 466.716 19.648 466.716 29.152C466.716 38.608 458.988 46.336 449.532 46.336C440.028 46.336 432.348 38.608 432.348 29.152C432.348 19.648 440.028 11.968 449.532 11.968ZM449.532 40.384C455.676 40.384 460.764 35.248 460.764 29.104C460.764 22.96 455.676 17.92 449.532 17.92C443.388 17.92 438.3 22.96 438.3 29.104C438.3 35.248 443.388 40.384 449.532 40.384ZM479.512 12.304H497.224V18.256H479.512C474.328 18.256 474.328 26.176 479.512 26.176H490.552C496.024 26.176 500.488 30.592 500.488 36.064C500.488 41.536 496.024 46 490.552 46H471.928V40.048H490.552C495.784 40.048 495.784 32.128 490.552 32.128H479.272C473.896 31.984 469.624 27.616 469.624 22.192C469.624 16.72 474.04 12.304 479.512 12.304ZM29.392 123H17.152C7.888 122.904 0.4 115.416 0.4 106.152C0.4 96.84 7.936 89.304 17.248 89.304H29.392V95.256H17.248C11.248 95.256 6.352 100.104 6.352 106.152C6.352 112.152 11.248 117.048 17.248 117.048H29.392V123ZM24.784 109.128H13.6V103.176H24.784V109.128ZM67.2689 89.304V113.064C67.2689 120.504 63.5249 123 61.2209 123C56.5169 123 54.7889 121.128 50.6609 112.44L45.8609 102.36C44.4209 99.288 40.3889 89.976 40.6289 99.192V123H34.6769V99.192C34.6769 91.752 38.3729 89.304 40.6769 89.304C45.4289 89.304 47.1089 91.128 51.2369 99.816L56.2289 110.28C57.9569 114.12 61.5569 121.656 61.3169 113.064V89.304H67.2689ZM97.4718 123H85.1838V117.048H97.3278C103.376 117.048 108.224 112.152 108.224 106.152C108.224 100.104 103.376 95.256 97.3278 95.256H85.1838V89.304H97.3278C106.64 89.304 114.176 96.84 114.176 106.152C114.176 115.416 106.688 122.904 97.4718 123ZM132.997 123.096C125.509 123.096 119.461 117.048 119.461 109.56V89.4H125.413V109.56C125.413 113.736 128.821 117.144 132.997 117.144C137.173 117.144 140.533 113.736 140.533 109.56V89.4H146.485V109.56C146.485 117.048 140.437 123.096 132.997 123.096ZM173.417 108.408L181.193 123H174.473L171.161 116.664C169.337 113.544 167.561 109.128 165.593 109.128H161.657C159.497 109.128 157.721 110.904 157.721 113.064V123H151.769V113.064C151.769 107.592 156.185 103.176 161.657 103.176H169.673C174.905 103.176 174.905 95.256 169.673 95.256H151.769V89.304H169.673C180.521 89.304 183.401 104.328 173.417 108.408ZM219.645 99.192V123H213.693V99.192C213.693 96.696 213.309 95.064 211.677 95.064C208.941 95.064 206.493 99.288 205.389 101.064L191.181 123H184.077L198.285 101.064C203.181 93.48 206.349 89.112 212.877 89.112C216.909 89.112 219.645 92.856 219.645 99.192ZM257.508 89.304V113.064C257.508 120.504 253.764 123 251.46 123C246.756 123 245.028 121.128 240.9 112.44L236.1 102.36C234.66 99.288 230.628 89.976 230.868 99.192V123H224.916V99.192C224.916 91.752 228.612 89.304 230.916 89.304C235.668 89.304 237.348 91.128 241.476 99.816L246.468 110.28C248.196 114.12 251.796 121.656 251.556 113.064V89.304H257.508ZM273.746 123V95.256H262.802V89.304H290.69V95.256H279.698V123H273.746ZM322.556 123H310.316C301.052 122.904 293.564 115.416 293.564 106.152C293.564 96.84 301.1 89.304 310.412 89.304H322.556V95.256H310.412C304.412 95.256 299.516 100.104 299.516 106.152C299.516 112.152 304.412 117.048 310.412 117.048H322.556V123ZM317.948 109.128H306.764V103.176H317.948V109.128ZM369.453 123H357.213C347.949 122.904 340.461 115.416 340.461 106.152C340.461 96.84 347.997 89.304 357.309 89.304H369.453V95.256H357.309C351.309 95.256 346.413 100.104 346.413 106.152C346.413 112.152 351.309 117.048 357.309 117.048H369.453V123ZM364.845 109.128H353.661V103.176H364.845V109.128ZM384.674 117.048H397.154V123H384.674C379.202 123 374.738 118.536 374.738 113.064V89.352H380.69V113.064C380.69 115.272 382.466 117.048 384.674 117.048ZM0.4 200V190.064C0.4 184.592 4.816 180.176 10.288 180.176H18.304C23.488 180.176 23.488 172.256 18.304 172.256H0.4V166.304H18.304C23.776 166.304 28.192 170.72 28.192 176.192C28.192 181.28 24.4 185.456 19.456 186.032V186.128H10.288C8.08 186.128 6.352 187.904 6.352 190.064V200H0.4ZM53.8874 185.408L61.6634 200H54.9434L51.6314 193.664C49.8074 190.544 48.0314 186.128 46.0634 186.128H42.1274C39.9674 186.128 38.1914 187.904 38.1914 190.064V200H32.2394V190.064C32.2394 184.592 36.6554 180.176 42.1274 180.176H50.1434C55.3754 180.176 55.3754 172.256 50.1434 172.256H32.2394V166.304H50.1434C60.9914 166.304 63.8714 181.328 53.8874 185.408ZM80.5128 165.968C89.9688 165.968 97.6968 173.648 97.6968 183.152C97.6968 192.608 89.9688 200.336 80.5128 200.336C71.0087 200.336 63.3287 192.608 63.3287 183.152C63.3287 173.648 71.0087 165.968 80.5128 165.968ZM80.5128 194.384C86.6567 194.384 91.7448 189.248 91.7448 183.104C91.7448 176.96 86.6567 171.92 80.5128 171.92C74.3687 171.92 69.2807 176.96 69.2807 183.104C69.2807 189.248 74.3687 194.384 80.5128 194.384ZM130.77 200H118.53C109.266 199.904 101.778 192.416 101.778 183.152C101.778 173.84 109.314 166.304 118.578 166.304H130.77V172.256H118.578C112.578 172.256 107.73 177.104 107.73 183.152C107.73 189.152 112.578 194.048 118.578 194.048H130.77V200ZM162.656 200H150.416C141.152 199.904 133.664 192.416 133.664 183.152C133.664 173.84 141.2 166.304 150.512 166.304H162.656V172.256H150.512C144.512 172.256 139.616 177.104 139.616 183.152C139.616 189.152 144.512 194.048 150.512 194.048H162.656V200ZM158.048 186.128H146.864V180.176H158.048V186.128ZM176.61 166.304H194.322V172.256H176.61C171.426 172.256 171.426 180.176 176.61 180.176H187.65C193.122 180.176 197.586 184.592 197.586 190.064C197.586 195.536 193.122 200 187.65 200H169.026V194.048H187.65C192.882 194.048 192.882 186.128 187.65 186.128H176.37C170.994 185.984 166.722 181.616 166.722 176.192C166.722 170.72 171.138 166.304 176.61 166.304ZM217.667 165.968C227.123 165.968 234.851 173.648 234.851 183.152C234.851 192.608 227.123 200.336 217.667 200.336C208.163 200.336 200.483 192.608 200.483 183.152C200.483 173.648 208.163 165.968 217.667 165.968ZM217.667 194.384C223.811 194.384 228.899 189.248 228.899 183.104C228.899 176.96 223.811 171.92 217.667 171.92C211.523 171.92 206.435 176.96 206.435 183.104C206.435 189.248 211.523 194.384 217.667 194.384Z" fill="white"/>
<path d="M11.344 46H10.344V47H11.344V46ZM11.344 18.256H12.344V17.256H11.344V18.256ZM0.4 18.256H-0.6V19.256H0.4V18.256ZM0.4 12.304V11.304H-0.6V12.304H0.4ZM28.288 12.304H29.288V11.304H28.288V12.304ZM28.288 18.256V19.256H29.288V18.256H28.288ZM17.296 18.256V17.256H16.296V18.256H17.296ZM17.296 46V47H18.296V46H17.296ZM12.344 46V18.256H10.344V46H12.344ZM11.344 17.256H0.4V19.256H11.344V17.256ZM1.4 18.256V12.304H-0.6V18.256H1.4ZM0.4 13.304H28.288V11.304H0.4V13.304ZM27.288 12.304V18.256H29.288V12.304H27.288ZM28.288 17.256H17.296V19.256H28.288V17.256ZM16.296 18.256V46H18.296V18.256H16.296ZM17.296 45H11.344V47H17.296V45ZM60.1533 46V47H61.1533V46H60.1533ZM47.9133 46L47.9029 47H47.9133V46ZM60.1533 12.304H61.1533V11.304H60.1533V12.304ZM60.1533 18.256V19.256H61.1533V18.256H60.1533ZM60.1533 40.048H61.1533V39.048H60.1533V40.048ZM55.5453 32.128V33.128H56.5453V32.128H55.5453ZM44.3613 32.128H43.3613V33.128H44.3613V32.128ZM44.3613 26.176V25.176H43.3613V26.176H44.3613ZM55.5453 26.176H56.5453V25.176H55.5453V26.176ZM60.1533 45H47.9133V47H60.1533V45ZM47.9236 45.0001C39.2018 44.9097 32.1612 37.8618 32.1612 29.152H30.1612C30.1612 38.9702 38.0967 46.8983 47.9029 46.9999L47.9236 45.0001ZM32.1612 29.152C32.1612 20.3923 39.2495 13.304 48.0093 13.304V11.304C38.145 11.304 30.1612 19.2877 30.1612 29.152H32.1612ZM48.0093 13.304H60.1533V11.304H48.0093V13.304ZM59.1533 12.304V18.256H61.1533V12.304H59.1533ZM60.1533 17.256H48.0093V19.256H60.1533V17.256ZM48.0093 17.256C41.4598 17.256 36.1133 22.5488 36.1133 29.152H38.1133C38.1133 23.6592 42.5587 19.256 48.0093 19.256V17.256ZM36.1133 29.152C36.1133 35.7043 41.457 41.048 48.0093 41.048V39.048C42.5615 39.048 38.1133 34.5997 38.1133 29.152H36.1133ZM48.0093 41.048H60.1533V39.048H48.0093V41.048ZM59.1533 40.048V46H61.1533V40.048H59.1533ZM55.5453 31.128H44.3613V33.128H55.5453V31.128ZM45.3613 32.128V26.176H43.3613V32.128H45.3613ZM44.3613 27.176H55.5453V25.176H44.3613V27.176ZM54.5453 26.176V32.128H56.5453V26.176H54.5453ZM113.627 46V47H114.627V46H113.627ZM107.675 46H106.675V47H107.675V46ZM99.3708 24.064L100.21 24.6076L100.215 24.5998L100.22 24.5919L99.3708 24.064ZM85.1628 46V47H85.7065L86.0021 46.5436L85.1628 46ZM78.0588 46L77.2194 45.4564L76.2196 47H78.0588V46ZM92.2668 24.064L93.1061 24.6076L93.1069 24.6064L92.2668 24.064ZM112.627 22.192V46H114.627V22.192H112.627ZM113.627 45H107.675V47H113.627V45ZM108.675 46V22.192H106.675V46H108.675ZM108.675 22.192C108.675 20.9348 108.585 19.7264 108.202 18.8074C108.002 18.3283 107.703 17.8762 107.248 17.5477C106.786 17.2131 106.242 17.064 105.659 17.064V19.064C105.892 19.064 106.008 19.1189 106.076 19.1683C106.153 19.2238 106.255 19.3357 106.356 19.5766C106.573 20.0976 106.675 20.9532 106.675 22.192H108.675ZM105.659 17.064C104.713 17.064 103.854 17.4287 103.12 17.9214C102.386 18.4142 101.721 19.0708 101.142 19.7484C99.9897 21.0975 99.0567 22.675 98.5215 23.5361L100.22 24.5919C100.789 23.677 101.632 22.2545 102.663 21.0476C103.176 20.4472 103.706 19.9368 104.234 19.5821C104.763 19.2273 105.237 19.064 105.659 19.064V17.064ZM98.5314 23.5204L84.3234 45.4564L86.0021 46.5436L100.21 24.6076L98.5314 23.5204ZM85.1628 45H78.0588V47H85.1628V45ZM78.8981 46.5436L93.1061 24.6076L91.4274 23.5204L77.2194 45.4564L78.8981 46.5436ZM93.1069 24.6064C95.5687 20.7929 97.5181 17.9186 99.6274 15.9803C101.681 14.0936 103.868 13.112 106.859 13.112V11.112C103.321 11.112 100.661 12.3144 98.2741 14.5077C95.9434 16.6494 93.8608 19.7511 91.4266 23.5216L93.1069 24.6064ZM106.859 13.112C108.522 13.112 109.916 13.8659 110.931 15.3425C111.968 16.8516 112.627 19.1519 112.627 22.192H114.627C114.627 18.8961 113.917 16.1564 112.579 14.2095C111.218 12.2301 109.228 11.112 106.859 11.112V13.112ZM147.89 46V47H148.89V46H147.89ZM135.65 46L135.64 47H135.65V46ZM147.89 12.304H148.89V11.304H147.89V12.304ZM147.89 18.256V19.256H148.89V18.256H147.89ZM147.89 40.048H148.89V39.048H147.89V40.048ZM147.89 45H135.65V47H147.89V45ZM135.66 45.0001C126.939 44.9097 119.898 37.8618 119.898 29.152H117.898C117.898 38.9702 125.834 46.8983 135.64 46.9999L135.66 45.0001ZM119.898 29.152C119.898 20.3904 126.988 13.304 135.698 13.304V11.304C125.88 11.304 117.898 19.2896 117.898 29.152H119.898ZM135.698 13.304H147.89V11.304H135.698V13.304ZM146.89 12.304V18.256H148.89V12.304H146.89ZM147.89 17.256H135.698V19.256H147.89V17.256ZM135.698 17.256C129.143 17.256 123.85 22.5546 123.85 29.152H125.85C125.85 23.6534 130.253 19.256 135.698 19.256V17.256ZM123.85 29.152C123.85 35.6985 129.14 41.048 135.698 41.048V39.048C130.256 39.048 125.85 34.6055 125.85 29.152H123.85ZM135.698 41.048H147.89V39.048H135.698V41.048ZM146.89 40.048V46H148.89V40.048H146.89ZM167.968 12.968C176.874 12.968 184.152 20.2021 184.152 29.152H186.152C186.152 19.0939 177.975 10.968 167.968 10.968V12.968ZM184.152 29.152C184.152 38.0557 176.872 45.336 167.968 45.336V47.336C177.977 47.336 186.152 39.1603 186.152 29.152H184.152ZM167.968 45.336C159.018 45.336 151.784 38.0575 151.784 29.152H149.784C149.784 39.1585 157.91 47.336 167.968 47.336V45.336ZM151.784 29.152C151.784 20.2003 159.017 12.968 167.968 12.968V10.968C157.912 10.968 149.784 19.0957 149.784 29.152H151.784ZM167.968 41.384C174.67 41.384 180.2 35.7947 180.2 29.104H178.2C178.2 34.7013 173.555 39.384 167.968 39.384V41.384ZM180.2 29.104C180.2 22.4022 174.659 16.92 167.968 16.92V18.92C173.566 18.92 178.2 23.5178 178.2 29.104H180.2ZM167.968 16.92C161.278 16.92 155.736 22.4022 155.736 29.104H157.736C157.736 23.5178 162.371 18.92 167.968 18.92V16.92ZM155.736 29.104C155.736 35.7947 161.267 41.384 167.968 41.384V39.384C162.382 39.384 157.736 34.7013 157.736 29.104H155.736ZM204.247 21.856L203.248 21.8027L203.247 21.8294V21.856H204.247ZM201.127 23.296L202.055 23.6671L202.059 23.6584L201.127 23.296ZM192.055 46V47H192.732L192.983 46.3711L192.055 46ZM185.671 46L184.741 45.6306L184.197 47H185.671V46ZM194.695 23.296L195.624 23.6654L195.629 23.6536L195.633 23.6417L194.695 23.296ZM210.199 36.448L211.196 36.5145L211.199 36.4813V36.448H210.199ZM212.743 36.4L213.674 36.7651L214.209 35.4H212.743V36.4ZM212.695 36.4L211.766 36.0292L211.219 37.4H212.695V36.4ZM217.927 23.296L218.855 23.6668L218.86 23.6543L218.865 23.6417L217.927 23.296ZM233.431 46V47H234.431V46H233.431ZM227.479 46H226.479V47H227.479V46ZM227.479 21.856L226.48 21.8027L226.479 21.8294V21.856H227.479ZM224.359 23.296L225.288 23.6661L225.291 23.6584L224.359 23.296ZM219.655 35.104L218.726 34.7339L218.72 34.7478L218.715 34.7618L219.655 35.104ZM205.247 36.448V21.856H203.247V36.448H205.247ZM204.247 21.856C205.245 21.9093 205.245 21.9091 205.245 21.909C205.245 21.9089 205.245 21.9088 205.245 21.9086C205.245 21.9084 205.245 21.9081 205.245 21.9077C205.245 21.907 205.245 21.906 205.245 21.9049C205.246 21.9025 205.246 21.8993 205.246 21.8953C205.246 21.8872 205.247 21.8758 205.248 21.8613C205.249 21.8323 205.251 21.7907 205.253 21.7384C205.256 21.634 205.261 21.4861 205.264 21.3091C205.269 20.9574 205.268 20.4802 205.239 19.9961C205.211 19.5271 205.153 18.9885 205.026 18.5429C204.963 18.3259 204.864 18.0537 204.688 17.8158C204.502 17.5646 204.15 17.256 203.623 17.256V19.256C203.299 19.256 203.12 19.0599 203.08 19.0055C203.05 18.9645 203.069 18.9736 203.103 19.0941C203.169 19.3235 203.217 19.6849 203.242 20.1159C203.267 20.5318 203.269 20.9546 203.264 21.2779C203.262 21.4384 203.257 21.5718 203.254 21.6642C203.252 21.7103 203.251 21.7461 203.25 21.7698C203.249 21.7817 203.249 21.7905 203.248 21.7961C203.248 21.7988 203.248 21.8008 203.248 21.8019C203.248 21.8025 203.248 21.8028 203.248 21.803C203.248 21.803 203.248 21.8031 203.248 21.803C203.248 21.803 203.248 21.8029 203.248 21.8029C203.248 21.8028 203.248 21.8027 204.247 21.856ZM203.623 17.256C203.007 17.256 202.594 17.6344 202.354 17.9364C202.113 18.2411 201.907 18.6423 201.714 19.0702C201.329 19.9292 200.851 21.2454 200.195 22.9336L202.059 23.6584C202.746 21.8906 203.181 20.6868 203.539 19.8898C203.719 19.4897 203.842 19.2789 203.922 19.1786C204.003 19.0756 203.902 19.256 203.623 19.256V17.256ZM200.198 22.9249L191.126 45.6289L192.983 46.3711L202.055 23.6671L200.198 22.9249ZM192.055 45H185.671V47H192.055V45ZM186.6 46.3694L195.624 23.6654L193.765 22.9266L184.741 45.6306L186.6 46.3694ZM195.633 23.6417C196.975 19.9994 198.187 17.3946 199.587 15.7012C200.934 14.0724 202.437 13.304 204.487 13.304V11.304C201.784 11.304 199.735 12.3836 198.046 14.4268C196.41 16.4054 195.102 19.2966 193.756 22.9503L195.633 23.6417ZM204.487 13.304C205.772 13.304 206.901 13.9336 207.754 15.3043C208.629 16.7105 209.199 18.8928 209.199 21.856H211.199C211.199 18.6752 210.593 16.0815 209.452 14.2477C208.289 12.3783 206.561 11.304 204.487 11.304V13.304ZM209.199 21.856V36.448H211.199V21.856H209.199ZM210.199 36.448C209.201 36.3815 209.201 36.3816 209.201 36.3817C209.201 36.3818 209.201 36.382 209.201 36.3821C209.201 36.3823 209.201 36.3827 209.201 36.383C209.201 36.3838 209.201 36.3847 209.201 36.3859C209.2 36.3882 209.2 36.3914 209.2 36.3954C209.199 36.4035 209.199 36.4149 209.198 36.4294C209.196 36.4585 209.194 36.5 209.191 36.5523C209.186 36.6567 209.179 36.8046 209.174 36.9816C209.164 37.3332 209.159 37.8104 209.182 38.2946C209.204 38.7635 209.254 39.3026 209.376 39.7492C209.435 39.9665 209.532 40.2407 209.707 40.4812C209.892 40.7367 210.245 41.048 210.775 41.048V39.048C211.101 39.048 211.282 39.2468 211.325 39.3055C211.356 39.349 211.338 39.342 211.305 39.2218C211.243 38.9934 211.2 38.6325 211.18 38.2014C211.16 37.7856 211.164 37.3628 211.173 37.0394C211.178 36.8789 211.184 36.7455 211.189 36.6531C211.191 36.6069 211.193 36.5711 211.194 36.5474C211.195 36.5356 211.196 36.5268 211.196 36.5212C211.196 36.5184 211.196 36.5165 211.196 36.5153C211.196 36.5148 211.196 36.5144 211.196 36.5143C211.196 36.5142 211.196 36.5142 211.196 36.5142C211.196 36.5143 211.196 36.5143 211.196 36.5143C211.196 36.5144 211.196 36.5145 210.199 36.448ZM210.775 41.048C211.31 41.048 211.694 40.7561 211.931 40.4935C212.162 40.2384 212.349 39.9122 212.511 39.5857C212.836 38.9297 213.205 37.9595 213.674 36.7651L211.812 36.0349C211.32 37.2885 210.994 38.1423 210.718 38.6983C210.58 38.9778 210.491 39.1046 210.449 39.151C210.414 39.1899 210.527 39.048 210.775 39.048V41.048ZM212.743 35.4H212.695V37.4H212.743V35.4ZM213.623 36.7708L218.855 23.6668L216.998 22.9252L211.766 36.0292L213.623 36.7708ZM218.865 23.6417C220.207 19.9994 221.419 17.3946 222.819 15.7012C224.166 14.0724 225.669 13.304 227.719 13.304V11.304C225.016 11.304 222.967 12.3836 221.278 14.4268C219.642 16.4054 218.334 19.2966 216.988 22.9503L218.865 23.6417ZM227.719 13.304C229.004 13.304 230.133 13.9336 230.986 15.3043C231.861 16.7105 232.431 18.8928 232.431 21.856H234.431C234.431 18.6752 233.825 16.0815 232.684 14.2477C231.521 12.3783 229.793 11.304 227.719 11.304V13.304ZM232.431 21.856V46H234.431V21.856H232.431ZM233.431 45H227.479V47H233.431V45ZM228.479 46V21.856H226.479V46H228.479ZM227.479 21.856C228.477 21.9093 228.477 21.9091 228.477 21.909C228.477 21.9089 228.477 21.9088 228.477 21.9086C228.477 21.9084 228.477 21.9081 228.477 21.9077C228.477 21.907 228.477 21.906 228.477 21.9049C228.478 21.9025 228.478 21.8993 228.478 21.8953C228.478 21.8872 228.479 21.8758 228.48 21.8613C228.481 21.8323 228.483 21.7907 228.485 21.7384C228.488 21.634 228.493 21.4861 228.496 21.3091C228.501 20.9574 228.5 20.4802 228.471 19.9961C228.443 19.5271 228.385 18.9885 228.258 18.5429C228.195 18.3259 228.096 18.0537 227.92 17.8158C227.734 17.5646 227.382 17.256 226.855 17.256V19.256C226.531 19.256 226.352 19.0599 226.312 19.0055C226.282 18.9645 226.301 18.9736 226.335 19.0941C226.401 19.3235 226.449 19.6849 226.474 20.1159C226.499 20.5318 226.501 20.9546 226.496 21.2779C226.494 21.4384 226.489 21.5718 226.486 21.6642C226.484 21.7103 226.483 21.7461 226.482 21.7698C226.481 21.7817 226.481 21.7905 226.48 21.7961C226.48 21.7988 226.48 21.8008 226.48 21.8019C226.48 21.8025 226.48 21.8028 226.48 21.803C226.48 21.803 226.48 21.8031 226.48 21.803C226.48 21.803 226.48 21.8029 226.48 21.8029C226.48 21.8028 226.48 21.8027 227.479 21.856ZM226.855 17.256C226.239 17.256 225.826 17.6344 225.586 17.9364C225.345 18.2411 225.139 18.6423 224.946 19.0702C224.561 19.9292 224.083 21.2454 223.427 22.9336L225.291 23.6584C225.978 21.8906 226.413 20.6868 226.771 19.8898C226.951 19.4897 227.074 19.2789 227.154 19.1786C227.235 19.0756 227.134 19.256 226.855 19.256V17.256ZM223.43 22.9259L218.726 34.7339L220.584 35.4741L225.288 23.6661L223.43 22.9259ZM218.715 34.7618C217.399 38.3754 216.187 40.955 214.789 42.6291C213.443 44.241 211.939 45 209.911 45V47C212.586 47 214.634 45.935 216.324 43.9109C217.962 41.949 219.27 39.0806 220.594 35.4462L218.715 34.7618ZM209.911 45C208.632 45 207.516 44.3658 206.671 42.9877C205.805 41.5739 205.247 39.3891 205.247 36.448H203.247C203.247 39.6029 203.84 42.1941 204.966 44.0323C206.114 45.9062 207.829 47 209.911 47V45ZM238.698 46H237.698V47H238.698V46ZM238.698 18.256H237.698V19.256H238.698V18.256ZM238.698 12.304V11.304H237.698V12.304H238.698ZM257.754 32.032L257.638 31.0387L256.754 31.1417V32.032H257.754ZM257.754 32.128V33.128H258.754V32.128H257.754ZM244.65 46V47H245.65V46H244.65ZM239.698 46V36.064H237.698V46H239.698ZM239.698 36.064C239.698 31.1443 243.666 27.176 248.586 27.176V25.176C242.561 25.176 237.698 30.0397 237.698 36.064H239.698ZM248.586 27.176H256.602V25.176H248.586V27.176ZM256.602 27.176C258.175 27.176 259.426 26.5643 260.271 25.596C261.099 24.6475 261.49 23.4142 261.49 22.216C261.49 21.0178 261.099 19.7845 260.271 18.836C259.426 17.8677 258.175 17.256 256.602 17.256V19.256C257.62 19.256 258.313 19.6343 258.764 20.151C259.232 20.6875 259.49 21.4342 259.49 22.216C259.49 22.9978 259.232 23.7445 258.764 24.281C258.313 24.7977 257.62 25.176 256.602 25.176V27.176ZM256.602 17.256H238.698V19.256H256.602V17.256ZM239.698 18.256V12.304H237.698V18.256H239.698ZM238.698 13.304H256.602V11.304H238.698V13.304ZM256.602 13.304C261.521 13.304 265.49 17.2723 265.49 22.192H267.49C267.49 16.1677 262.626 11.304 256.602 11.304V13.304ZM265.49 22.192C265.49 26.7689 262.081 30.521 257.638 31.0387L257.869 33.0253C263.314 32.391 267.49 27.7911 267.49 22.192H265.49ZM256.754 32.032V32.128H258.754V32.032H256.754ZM257.754 31.128H248.586V33.128H257.754V31.128ZM248.586 31.128C245.817 31.128 243.65 33.3597 243.65 36.064H245.65C245.65 34.4483 246.938 33.128 248.586 33.128V31.128ZM243.65 36.064V46H245.65V36.064H243.65ZM244.65 45H238.698V47H244.65V45ZM295.324 46V47H296.324V46H295.324ZM289.372 46H288.372V47H289.372V46ZM281.068 24.064L281.907 24.6076L281.912 24.5998L281.917 24.5919L281.068 24.064ZM266.86 46V47H267.403L267.699 46.5436L266.86 46ZM259.756 46L258.916 45.4564L257.916 47H259.756V46ZM273.964 24.064L274.803 24.6076L274.804 24.6064L273.964 24.064ZM294.324 22.192V46H296.324V22.192H294.324ZM295.324 45H289.372V47H295.324V45ZM290.372 46V22.192H288.372V46H290.372ZM290.372 22.192C290.372 20.9348 290.282 19.7264 289.899 18.8074C289.699 18.3283 289.399 17.8762 288.945 17.5477C288.482 17.2131 287.939 17.064 287.356 17.064V19.064C287.589 19.064 287.705 19.1189 287.773 19.1683C287.85 19.2238 287.952 19.3357 288.053 19.5766C288.27 20.0976 288.372 20.9532 288.372 22.192H290.372ZM287.356 17.064C286.41 17.064 285.551 17.4287 284.817 17.9214C284.082 18.4142 283.418 19.0708 282.839 19.7484C281.687 21.0975 280.754 22.675 280.218 23.5361L281.917 24.5919C282.486 23.677 283.329 22.2545 284.36 21.0476C284.873 20.4472 285.403 19.9368 285.931 19.5821C286.46 19.2273 286.934 19.064 287.356 19.064V17.064ZM280.228 23.5204L266.02 45.4564L267.699 46.5436L281.907 24.6076L280.228 23.5204ZM266.86 45H259.756V47H266.86V45ZM260.595 46.5436L274.803 24.6076L273.124 23.5204L258.916 45.4564L260.595 46.5436ZM274.804 24.6064C277.266 20.7929 279.215 17.9186 281.324 15.9803C283.377 14.0936 285.565 13.112 288.556 13.112V11.112C285.018 11.112 282.358 12.3144 279.971 14.5077C277.64 16.6494 275.558 19.7511 273.123 23.5216L274.804 24.6064ZM288.556 13.112C290.219 13.112 291.612 13.8659 292.628 15.3425C293.665 16.8516 294.324 19.1519 294.324 22.192H296.324C296.324 18.8961 295.614 16.1564 294.276 14.2095C292.915 12.2301 290.924 11.112 288.556 11.112V13.112ZM316.579 35.44L317.482 35.0108L317.482 35.0101L316.579 35.44ZM311.779 25.36L310.874 25.7844L310.876 25.7899L311.779 25.36ZM306.547 22.192H307.547V22.179L307.547 22.166L306.547 22.192ZM306.547 46V47H307.547V46H306.547ZM300.595 46H299.595V47H300.595V46ZM317.155 22.816L316.252 23.2452L316.252 23.2466L317.155 22.816ZM322.147 33.28L323.059 32.8696L323.054 32.8595L323.05 32.8494L322.147 33.28ZM327.235 36.064H326.235V36.078L326.235 36.0919L327.235 36.064ZM327.235 12.304V11.304H326.235V12.304H327.235ZM333.187 12.304H334.187V11.304H333.187V12.304ZM323.203 2.752V1.752H322.227L322.203 2.72791L323.203 2.752ZM317.443 5.248L318.016 4.42876L318.013 4.42654L317.443 5.248ZM307.747 9.52L306.749 9.44958L306.674 10.52H307.747V9.52ZM310.627 9.52V10.52H311.579L311.626 9.56912L310.627 9.52ZM322.867 9.712L322.492 8.78488L322.488 8.78663L322.867 9.712ZM326.035 2.752L327.032 2.82453L327.11 1.752H326.035V2.752ZM332.187 36.064C332.187 43.1873 328.681 45 327.139 45V47C330.205 47 334.187 43.8207 334.187 36.064H332.187ZM327.139 45C326.024 45 325.158 44.8881 324.416 44.628C323.687 44.3725 323.028 43.9563 322.354 43.275C320.957 41.8611 319.558 39.3795 317.482 35.0108L315.676 35.8692C317.728 40.1885 319.257 42.9869 320.932 44.681C321.794 45.5537 322.707 46.1485 323.754 46.5155C324.788 46.8779 325.902 47 327.139 47V45ZM317.482 35.0101L312.682 24.9301L310.876 25.7899L315.676 35.8699L317.482 35.0101ZM312.684 24.9356C312.333 24.1857 311.799 23.0025 311.216 21.8281C310.637 20.6632 309.972 19.4293 309.336 18.572C309.03 18.1597 308.657 17.7317 308.231 17.4765C308.009 17.3432 307.7 17.2133 307.333 17.2247C306.935 17.2371 306.596 17.4119 306.346 17.6678C305.921 18.1023 305.747 18.7712 305.654 19.4126C305.552 20.1143 305.517 21.0406 305.547 22.218L307.547 22.166C307.517 21.0394 307.555 20.2407 307.634 19.6996C307.721 19.0983 307.834 19.0067 307.776 19.0662C307.709 19.1346 307.573 19.2182 307.395 19.2238C307.248 19.2283 307.176 19.1759 307.204 19.1923C307.277 19.2363 307.457 19.3963 307.73 19.764C308.252 20.4667 308.85 21.5608 309.425 22.7179C309.995 23.8655 310.505 24.9983 310.874 25.7844L312.684 24.9356ZM305.547 22.192V46H307.547V22.192H305.547ZM306.547 45H300.595V47H306.547V45ZM301.595 46V22.192H299.595V46H301.595ZM301.595 22.192C301.595 15.0666 305.054 13.304 306.595 13.304V11.304C303.528 11.304 299.595 14.4374 299.595 22.192H301.595ZM306.595 13.304C307.725 13.304 308.598 13.4135 309.343 13.6702C310.074 13.922 310.731 14.3325 311.399 15.0063C312.789 16.4072 314.175 18.8744 316.252 23.2452L318.058 22.3868C316.007 18.0696 314.489 15.2808 312.819 13.5977C311.958 12.7295 311.045 12.141 309.995 11.7793C308.96 11.4225 307.841 11.304 306.595 11.304V13.304ZM316.252 23.2466L321.244 33.7106L323.05 32.8494L318.058 22.3854L316.252 23.2466ZM321.235 33.6904C321.669 34.6548 322.227 35.8661 322.817 37.0036C323.397 38.1218 324.044 39.2415 324.664 39.978C324.957 40.3258 325.348 40.7178 325.823 40.9031C326.085 41.0054 326.42 41.0623 326.779 40.962C327.139 40.8613 327.403 40.6355 327.585 40.3931C327.913 39.9546 328.065 39.3388 328.148 38.6972C328.236 38.0157 328.265 37.1359 328.235 36.0361L326.235 36.0919C326.265 37.1401 326.234 37.9043 326.164 38.4403C326.13 38.7074 326.088 38.8995 326.047 39.0321C326.005 39.1699 325.974 39.2072 325.984 39.1944C326 39.1729 326.08 39.0807 326.24 39.0359C326.399 38.9916 326.517 39.0269 326.55 39.0397C326.566 39.046 326.444 38.9872 326.194 38.69C325.728 38.1365 325.166 37.1892 324.593 36.0829C324.029 34.9959 323.489 33.8252 323.059 32.8696L321.235 33.6904ZM328.235 36.064V12.304H326.235V36.064H328.235ZM327.235 13.304H333.187V11.304H327.235V13.304ZM332.187 12.304V36.064H334.187V12.304H332.187ZM322.203 2.72791C322.181 3.66142 322.057 4.35658 321.87 4.83932C321.686 5.31356 321.47 5.51459 321.289 5.60307C321.104 5.69303 320.783 5.75024 320.224 5.59061C319.658 5.42929 318.927 5.06631 318.016 4.42877L316.87 6.06723C317.879 6.77368 318.816 7.26871 319.675 7.51389C320.541 7.76075 321.402 7.77296 322.165 7.40093C322.932 7.02741 323.43 6.34944 323.735 5.56218C324.037 4.78342 324.177 3.83458 324.203 2.77609L322.203 2.72791ZM318.013 4.42654C316.533 3.39868 315.158 2.59876 313.91 2.13064C312.669 1.6655 311.434 1.48386 310.312 1.86508C309.155 2.25786 308.33 3.17296 307.773 4.44087C307.224 5.69034 306.897 7.35992 306.749 9.44958L308.745 9.59041C308.885 7.60007 309.188 6.19166 309.604 5.24513C310.011 4.31704 310.485 3.91813 310.954 3.75892C311.458 3.58813 312.176 3.6165 313.208 4.00335C314.232 4.38723 315.449 5.08132 316.873 6.06946L318.013 4.42654ZM307.747 10.52H310.627V8.52H307.747V10.52ZM311.626 9.56912C311.677 8.53215 311.834 7.8864 312.017 7.5023C312.184 7.15011 312.346 7.06358 312.458 7.02867C312.617 6.97949 312.893 6.97183 313.353 7.10916C313.805 7.244 314.334 7.48779 314.941 7.81454C315.547 8.14063 316.177 8.51936 316.851 8.9149C317.513 9.30325 318.21 9.70287 318.9 10.0358C320.203 10.6651 321.809 11.2262 323.246 10.6374L322.488 8.78663C321.933 9.01379 321.067 8.86088 319.769 8.23468C319.158 7.93988 318.522 7.57637 317.863 7.18978C317.216 6.81038 316.537 6.40236 315.889 6.05346C315.242 5.70521 314.572 5.38575 313.925 5.19265C313.286 5.00204 312.563 4.90176 311.865 5.11882C311.12 5.35016 310.569 5.88877 310.21 6.64414C309.867 7.3676 309.685 8.31185 309.628 9.47088L311.626 9.56912ZM323.242 10.6391C324.751 10.0289 325.635 8.63382 326.161 7.23112C326.695 5.80815 326.933 4.18931 327.032 2.82453L325.038 2.67946C324.945 3.95469 324.727 5.35985 324.289 6.52888C323.843 7.71818 323.239 8.48305 322.492 8.78489L323.242 10.6391ZM326.035 1.752H323.203V3.752H326.035V1.752ZM374.049 46V47H375.049V46H374.049ZM368.097 46H367.097V47H368.097V46ZM359.793 24.064L360.633 24.6076L360.638 24.5998L360.643 24.5919L359.793 24.064ZM345.585 46V47H346.129L346.425 46.5436L345.585 46ZM338.481 46L337.642 45.4564L336.642 47H338.481V46ZM352.689 24.064L353.529 24.6076L353.529 24.6064L352.689 24.064ZM373.049 22.192V46H375.049V22.192H373.049ZM374.049 45H368.097V47H374.049V45ZM369.097 46V22.192H367.097V46H369.097ZM369.097 22.192C369.097 20.9348 369.007 19.7264 368.624 18.8074C368.425 18.3283 368.125 17.8762 367.671 17.5477C367.208 17.2131 366.664 17.064 366.081 17.064V19.064C366.314 19.064 366.43 19.1189 366.499 19.1683C366.575 19.2238 366.678 19.3357 366.778 19.5766C366.995 20.0976 367.097 20.9532 367.097 22.192H369.097ZM366.081 17.064C365.135 17.064 364.277 17.4287 363.543 17.9214C362.808 18.4142 362.144 19.0708 361.565 19.7484C360.412 21.0975 359.479 22.675 358.944 23.5361L360.643 24.5919C361.211 23.677 362.054 22.2545 363.086 21.0476C363.599 20.4472 364.128 19.9368 364.657 19.5821C365.186 19.2273 365.659 19.064 366.081 19.064V17.064ZM358.954 23.5204L344.746 45.4564L346.425 46.5436L360.633 24.6076L358.954 23.5204ZM345.585 45H338.481V47H345.585V45ZM339.321 46.5436L353.529 24.6076L351.85 23.5204L337.642 45.4564L339.321 46.5436ZM353.529 24.6064C355.991 20.7929 357.941 17.9186 360.05 15.9803C362.103 14.0936 364.291 13.112 367.281 13.112V11.112C363.744 11.112 361.083 12.3144 358.697 14.5077C356.366 16.6494 354.283 19.7511 351.849 23.5216L353.529 24.6064ZM367.281 13.112C368.944 13.112 370.338 13.8659 371.353 15.3425C372.391 16.8516 373.049 19.1519 373.049 22.192H375.049C375.049 18.8961 374.34 16.1564 373.001 14.2095C371.64 12.2301 369.65 11.112 367.281 11.112V13.112ZM397.897 21.856L396.898 21.8027L396.897 21.8294V21.856H397.897ZM394.777 23.296L395.705 23.6671L395.709 23.6584L394.777 23.296ZM385.705 46V47H386.382L386.633 46.3711L385.705 46ZM379.321 46L378.391 45.6306L377.847 47H379.321V46ZM388.345 23.296L389.274 23.6654L389.279 23.6536L389.283 23.6417L388.345 23.296ZM403.849 36.448L404.846 36.5145L404.849 36.4813V36.448H403.849ZM406.393 36.4L407.324 36.7651L407.859 35.4H406.393V36.4ZM406.345 36.4L405.416 36.0292L404.869 37.4H406.345V36.4ZM411.577 23.296L412.505 23.6668L412.51 23.6543L412.515 23.6417L411.577 23.296ZM427.081 46V47H428.081V46H427.081ZM421.129 46H420.129V47H421.129V46ZM421.129 21.856L420.13 21.8027L420.129 21.8294V21.856H421.129ZM418.009 23.296L418.938 23.6661L418.941 23.6584L418.009 23.296ZM413.305 35.104L412.376 34.7339L412.37 34.7478L412.365 34.7618L413.305 35.104ZM398.897 36.448V21.856H396.897V36.448H398.897ZM397.897 21.856C398.895 21.9093 398.895 21.9091 398.895 21.909C398.895 21.9089 398.895 21.9088 398.895 21.9086C398.895 21.9084 398.895 21.9081 398.895 21.9077C398.895 21.907 398.895 21.906 398.895 21.9049C398.896 21.9025 398.896 21.8993 398.896 21.8953C398.896 21.8872 398.897 21.8758 398.898 21.8613C398.899 21.8323 398.901 21.7907 398.903 21.7384C398.906 21.634 398.911 21.4861 398.914 21.3091C398.919 20.9574 398.918 20.4802 398.889 19.9961C398.861 19.5271 398.803 18.9885 398.676 18.5429C398.613 18.3259 398.514 18.0537 398.338 17.8158C398.152 17.5646 397.8 17.256 397.273 17.256V19.256C396.949 19.256 396.77 19.0599 396.73 19.0055C396.7 18.9645 396.719 18.9736 396.753 19.0941C396.819 19.3235 396.867 19.6849 396.892 20.1159C396.917 20.5318 396.919 20.9546 396.914 21.2779C396.911 21.4384 396.907 21.5718 396.904 21.6642C396.902 21.7103 396.901 21.7461 396.9 21.7698C396.899 21.7817 396.899 21.7905 396.898 21.7961C396.898 21.7988 396.898 21.8008 396.898 21.8019C396.898 21.8025 396.898 21.8028 396.898 21.803C396.898 21.803 396.898 21.8031 396.898 21.803C396.898 21.803 396.898 21.8029 396.898 21.8029C396.898 21.8028 396.898 21.8027 397.897 21.856ZM397.273 17.256C396.657 17.256 396.244 17.6344 396.004 17.9364C395.763 18.2411 395.557 18.6423 395.364 19.0702C394.979 19.9292 394.501 21.2454 393.845 22.9336L395.709 23.6584C396.396 21.8906 396.831 20.6868 397.189 19.8898C397.369 19.4897 397.492 19.2789 397.572 19.1786C397.653 19.0756 397.552 19.256 397.273 19.256V17.256ZM393.848 22.9249L384.776 45.6289L386.633 46.3711L395.705 23.6671L393.848 22.9249ZM385.705 45H379.321V47H385.705V45ZM380.25 46.3694L389.274 23.6654L387.415 22.9266L378.391 45.6306L380.25 46.3694ZM389.283 23.6417C390.625 19.9994 391.837 17.3946 393.237 15.7012C394.584 14.0724 396.087 13.304 398.137 13.304V11.304C395.434 11.304 393.385 12.3836 391.696 14.4268C390.06 16.4054 388.752 19.2966 387.406 22.9503L389.283 23.6417ZM398.137 13.304C399.422 13.304 400.551 13.9336 401.404 15.3043C402.279 16.7105 402.849 18.8928 402.849 21.856H404.849C404.849 18.6752 404.243 16.0815 403.102 14.2477C401.939 12.3783 400.211 11.304 398.137 11.304V13.304ZM402.849 21.856V36.448H404.849V21.856H402.849ZM403.849 36.448C402.851 36.3815 402.851 36.3816 402.851 36.3817C402.851 36.3818 402.851 36.382 402.851 36.3821C402.851 36.3823 402.851 36.3827 402.851 36.383C402.851 36.3838 402.851 36.3847 402.851 36.3859C402.85 36.3882 402.85 36.3914 402.85 36.3954C402.849 36.4035 402.849 36.4149 402.848 36.4294C402.846 36.4585 402.844 36.5 402.841 36.5523C402.836 36.6567 402.829 36.8046 402.824 36.9816C402.814 37.3332 402.809 37.8104 402.832 38.2946C402.854 38.7635 402.904 39.3026 403.026 39.7492C403.085 39.9665 403.182 40.2407 403.357 40.4812C403.542 40.7367 403.895 41.048 404.425 41.048V39.048C404.751 39.048 404.932 39.2468 404.975 39.3055C405.006 39.349 404.988 39.342 404.955 39.2218C404.893 38.9934 404.85 38.6325 404.83 38.2014C404.81 37.7856 404.814 37.3628 404.823 37.0394C404.828 36.8789 404.834 36.7455 404.839 36.6531C404.841 36.6069 404.843 36.5711 404.844 36.5474C404.845 36.5356 404.846 36.5268 404.846 36.5212C404.846 36.5184 404.846 36.5165 404.846 36.5153C404.846 36.5148 404.846 36.5144 404.846 36.5143C404.846 36.5142 404.846 36.5142 404.846 36.5142C404.846 36.5143 404.846 36.5143 404.846 36.5143C404.846 36.5144 404.846 36.5145 403.849 36.448ZM404.425 41.048C404.96 41.048 405.344 40.7561 405.581 40.4935C405.812 40.2384 405.999 39.9122 406.161 39.5857C406.486 38.9297 406.855 37.9595 407.324 36.7651L405.462 36.0349C404.97 37.2885 404.644 38.1423 404.368 38.6983C404.23 38.9778 404.141 39.1046 404.099 39.151C404.064 39.1899 404.177 39.048 404.425 39.048V41.048ZM406.393 35.4H406.345V37.4H406.393V35.4ZM407.273 36.7708L412.505 23.6668L410.648 22.9252L405.416 36.0292L407.273 36.7708ZM412.515 23.6417C413.857 19.9994 415.069 17.3946 416.469 15.7012C417.816 14.0724 419.319 13.304 421.369 13.304V11.304C418.666 11.304 416.617 12.3836 414.928 14.4268C413.292 16.4054 411.984 19.2966 410.638 22.9503L412.515 23.6417ZM421.369 13.304C422.654 13.304 423.783 13.9336 424.636 15.3043C425.511 16.7105 426.081 18.8928 426.081 21.856H428.081C428.081 18.6752 427.475 16.0815 426.334 14.2477C425.171 12.3783 423.443 11.304 421.369 11.304V13.304ZM426.081 21.856V46H428.081V21.856H426.081ZM427.081 45H421.129V47H427.081V45ZM422.129 46V21.856H420.129V46H422.129ZM421.129 21.856C422.127 21.9093 422.127 21.9091 422.127 21.909C422.127 21.9089 422.127 21.9088 422.127 21.9086C422.127 21.9084 422.127 21.9081 422.127 21.9077C422.127 21.907 422.127 21.906 422.127 21.9049C422.128 21.9025 422.128 21.8993 422.128 21.8953C422.128 21.8872 422.129 21.8758 422.13 21.8613C422.131 21.8323 422.133 21.7907 422.135 21.7384C422.138 21.634 422.143 21.4861 422.146 21.3091C422.151 20.9574 422.15 20.4802 422.121 19.9961C422.093 19.5271 422.035 18.9885 421.908 18.5429C421.845 18.3259 421.746 18.0537 421.57 17.8158C421.384 17.5646 421.032 17.256 420.505 17.256V19.256C420.181 19.256 420.002 19.0599 419.962 19.0055C419.932 18.9645 419.951 18.9736 419.985 19.0941C420.051 19.3235 420.099 19.6849 420.124 20.1159C420.149 20.5318 420.151 20.9546 420.146 21.2779C420.144 21.4384 420.139 21.5718 420.136 21.6642C420.134 21.7103 420.133 21.7461 420.132 21.7698C420.131 21.7817 420.131 21.7905 420.13 21.7961C420.13 21.7988 420.13 21.8008 420.13 21.8019C420.13 21.8025 420.13 21.8028 420.13 21.803C420.13 21.803 420.13 21.8031 420.13 21.803C420.13 21.803 420.13 21.8029 420.13 21.8029C420.13 21.8028 420.13 21.8027 421.129 21.856ZM420.505 17.256C419.889 17.256 419.476 17.6344 419.236 17.9364C418.995 18.2411 418.789 18.6423 418.596 19.0702C418.211 19.9292 417.733 21.2454 417.077 22.9336L418.941 23.6584C419.628 21.8906 420.063 20.6868 420.421 19.8898C420.601 19.4897 420.724 19.2789 420.804 19.1786C420.885 19.0756 420.784 19.256 420.505 19.256V17.256ZM417.08 22.9259L412.376 34.7339L414.234 35.4741L418.938 23.6661L417.08 22.9259ZM412.365 34.7618C411.049 38.3754 409.837 40.955 408.439 42.6291C407.093 44.241 405.589 45 403.561 45V47C406.236 47 408.284 45.935 409.974 43.9109C411.612 41.949 412.92 39.0806 414.244 35.4462L412.365 34.7618ZM403.561 45C402.282 45 401.166 44.3658 400.321 42.9877C399.455 41.5739 398.897 39.3891 398.897 36.448H396.897C396.897 39.6029 397.49 42.1941 398.616 44.0323C399.764 45.9062 401.479 47 403.561 47V45ZM449.532 12.968C458.437 12.968 465.716 20.2021 465.716 29.152H467.716C467.716 19.0939 459.538 10.968 449.532 10.968V12.968ZM465.716 29.152C465.716 38.0557 458.435 45.336 449.532 45.336V47.336C459.54 47.336 467.716 39.1603 467.716 29.152H465.716ZM449.532 45.336C440.582 45.336 433.348 38.0575 433.348 29.152H431.348C431.348 39.1585 439.473 47.336 449.532 47.336V45.336ZM433.348 29.152C433.348 20.2003 440.58 12.968 449.532 12.968V10.968C439.475 10.968 431.348 19.0957 431.348 29.152H433.348ZM449.532 41.384C456.233 41.384 461.764 35.7947 461.764 29.104H459.764C459.764 34.7013 455.118 39.384 449.532 39.384V41.384ZM461.764 29.104C461.764 22.4022 456.222 16.92 449.532 16.92V18.92C455.129 18.92 459.764 23.5178 459.764 29.104H461.764ZM449.532 16.92C442.841 16.92 437.3 22.4022 437.3 29.104H439.3C439.3 23.5178 443.934 18.92 449.532 18.92V16.92ZM437.3 29.104C437.3 35.7947 442.83 41.384 449.532 41.384V39.384C443.945 39.384 439.3 34.7013 439.3 29.104H437.3ZM497.224 12.304H498.224V11.304H497.224V12.304ZM497.224 18.256V19.256H498.224V18.256H497.224ZM471.928 46H470.928V47H471.928V46ZM471.928 40.048V39.048H470.928V40.048H471.928ZM479.272 32.128L479.246 33.1276L479.259 33.128H479.272V32.128ZM479.512 13.304H497.224V11.304H479.512V13.304ZM496.224 12.304V18.256H498.224V12.304H496.224ZM497.224 17.256H479.512V19.256H497.224V17.256ZM479.512 17.256C477.939 17.256 476.688 17.8677 475.843 18.836C475.015 19.7845 474.624 21.0178 474.624 22.216C474.624 23.4142 475.015 24.6475 475.843 25.596C476.688 26.5643 477.939 27.176 479.512 27.176V25.176C478.494 25.176 477.801 24.7977 477.35 24.281C476.882 23.7445 476.624 22.9978 476.624 22.216C476.624 21.4342 476.882 20.6875 477.35 20.151C477.801 19.6343 478.494 19.256 479.512 19.256V17.256ZM479.512 27.176H490.552V25.176H479.512V27.176ZM490.552 27.176C495.478 27.176 499.488 31.1506 499.488 36.064H501.488C501.488 30.0334 496.57 25.176 490.552 25.176V27.176ZM499.488 36.064C499.488 40.9837 495.472 45 490.552 45V47C496.577 47 501.488 42.0883 501.488 36.064H499.488ZM490.552 45H471.928V47H490.552V45ZM472.928 46V40.048H470.928V46H472.928ZM471.928 41.048H490.552V39.048H471.928V41.048ZM490.552 41.048C492.135 41.048 493.394 40.4388 494.246 39.4715C495.081 38.5232 495.476 37.2886 495.476 36.088C495.476 34.8874 495.081 33.6528 494.246 32.7045C493.394 31.7372 492.135 31.128 490.552 31.128V33.128C491.586 33.128 492.289 33.5088 492.745 34.0265C493.218 34.5632 493.476 35.3086 493.476 36.088C493.476 36.8674 493.218 37.6128 492.745 38.1495C492.289 38.6672 491.586 39.048 490.552 39.048V41.048ZM490.552 31.128H479.272V33.128H490.552V31.128ZM479.299 31.1284C474.465 30.9989 470.624 27.0745 470.624 22.192H468.624C468.624 28.1575 473.328 32.9691 479.246 33.1276L479.299 31.1284ZM470.624 22.192C470.624 17.2723 474.593 13.304 479.512 13.304V11.304C473.488 11.304 468.624 16.1677 468.624 22.192H470.624ZM29.392 123V124H30.392V123H29.392ZM17.152 123L17.1416 124H17.152V123ZM29.392 89.304H30.392V88.304H29.392V89.304ZM29.392 95.256V96.256H30.392V95.256H29.392ZM29.392 117.048H30.392V116.048H29.392V117.048ZM24.784 109.128V110.128H25.784V109.128H24.784ZM13.6 109.128H12.6V110.128H13.6V109.128ZM13.6 103.176V102.176H12.6V103.176H13.6ZM24.784 103.176H25.784V102.176H24.784V103.176ZM29.392 122H17.152V124H29.392V122ZM17.1624 122C8.44055 121.91 1.4 114.862 1.4 106.152H-0.6C-0.6 115.97 7.33545 123.898 17.1416 124L17.1624 122ZM1.4 106.152C1.4 97.3923 8.48829 90.304 17.248 90.304V88.304C7.38372 88.304 -0.6 96.2877 -0.6 106.152H1.4ZM17.248 90.304H29.392V88.304H17.248V90.304ZM28.392 89.304V95.256H30.392V89.304H28.392ZM29.392 94.256H17.248V96.256H29.392V94.256ZM17.248 94.256C10.6986 94.256 5.352 99.5488 5.352 106.152H7.352C7.352 100.659 11.7974 96.256 17.248 96.256V94.256ZM5.352 106.152C5.352 112.704 10.6957 118.048 17.248 118.048V116.048C11.8003 116.048 7.352 111.6 7.352 106.152H5.352ZM17.248 118.048H29.392V116.048H17.248V118.048ZM28.392 117.048V123H30.392V117.048H28.392ZM24.784 108.128H13.6V110.128H24.784V108.128ZM14.6 109.128V103.176H12.6V109.128H14.6ZM13.6 104.176H24.784V102.176H13.6V104.176ZM23.784 103.176V109.128H25.784V103.176H23.784ZM67.2689 89.304H68.2689V88.304H67.2689V89.304ZM50.6609 112.44L51.5641 112.011L51.5637 112.01L50.6609 112.44ZM45.8609 102.36L44.9554 102.784L44.958 102.79L45.8609 102.36ZM40.6289 99.192H41.6289V99.179L41.6285 99.166L40.6289 99.192ZM40.6289 123V124H41.6289V123H40.6289ZM34.6769 123H33.6769V124H34.6769V123ZM51.2369 99.816L50.3336 100.245L50.3343 100.247L51.2369 99.816ZM56.2289 110.28L57.1408 109.87L57.1362 109.859L57.1314 109.849L56.2289 110.28ZM61.3169 113.064H60.3169V113.078L60.3173 113.092L61.3169 113.064ZM61.3169 89.304V88.304H60.3169V89.304H61.3169ZM66.2689 89.304V113.064H68.2689V89.304H66.2689ZM66.2689 113.064C66.2689 120.187 62.7633 122 61.2209 122V124C64.2864 124 68.2689 120.821 68.2689 113.064H66.2689ZM61.2209 122C60.1061 122 59.2397 121.888 58.4977 121.628C57.7687 121.373 57.1095 120.956 56.4361 120.275C55.0385 118.861 53.6398 116.379 51.5641 112.011L49.7576 112.869C51.8099 117.189 53.3392 119.987 55.0137 121.681C55.8762 122.554 56.789 123.148 57.8361 123.515C58.87 123.878 59.9837 124 61.2209 124V122ZM51.5637 112.01L46.7637 101.93L44.958 102.79L49.758 112.87L51.5637 112.01ZM46.7663 101.936C46.4148 101.186 45.8811 100.003 45.2977 98.8281C44.719 97.6632 44.0542 96.4293 43.4178 95.572C43.1118 95.1597 42.7392 94.7317 42.3129 94.4765C42.0905 94.3432 41.7815 94.2133 41.4149 94.2247C41.0168 94.2371 40.6779 94.4119 40.4277 94.6678C40.0028 95.1023 39.8291 95.7712 39.7361 96.4126C39.6343 97.1143 39.5986 98.0406 39.6292 99.218L41.6285 99.166C41.5992 98.0394 41.6369 97.2407 41.7154 96.6996C41.8026 96.0983 41.9157 96.0067 41.8576 96.0662C41.7907 96.1346 41.6552 96.2182 41.4771 96.2238C41.3304 96.2283 41.258 96.1759 41.2854 96.1923C41.3588 96.2363 41.5389 96.3963 41.8119 96.764C42.3335 97.4667 42.9318 98.5608 43.5065 99.7179C44.0766 100.865 44.5869 101.998 44.9554 102.784L46.7663 101.936ZM39.6289 99.192V123H41.6289V99.192H39.6289ZM40.6289 122H34.6769V124H40.6289V122ZM35.6769 123V99.192H33.6769V123H35.6769ZM35.6769 99.192C35.6769 92.0666 39.1361 90.304 40.6769 90.304V88.304C37.6096 88.304 33.6769 91.4374 33.6769 99.192H35.6769ZM40.6769 90.304C41.8067 90.304 42.6803 90.4135 43.4254 90.6702C44.1561 90.922 44.8124 91.3325 45.481 92.0063C46.871 93.4072 48.2569 95.8744 50.3336 100.245L52.1401 99.3868C50.0888 95.0696 48.5708 92.2808 46.9007 90.5977C46.0394 89.7295 45.1267 89.141 44.0769 88.7793C43.0415 88.4225 41.923 88.304 40.6769 88.304V90.304ZM50.3343 100.247L55.3263 110.711L57.1314 109.849L52.1394 99.3854L50.3343 100.247ZM55.317 110.69C55.751 111.655 56.3091 112.866 56.8989 114.004C57.4787 115.122 58.1258 116.242 58.7459 116.978C59.0386 117.326 59.4296 117.718 59.9048 117.903C60.1672 118.005 60.5017 118.062 60.8604 117.962C61.2209 117.861 61.4851 117.636 61.6666 117.393C61.995 116.955 62.1466 116.339 62.2297 115.697C62.318 115.016 62.3472 114.136 62.3165 113.036L60.3173 113.092C60.3465 114.14 60.3157 114.904 60.2463 115.44C60.2117 115.707 60.1698 115.9 60.1289 116.032C60.0864 116.17 60.056 116.207 60.0656 116.194C60.0818 116.173 60.1618 116.081 60.3219 116.036C60.4804 115.992 60.5986 116.027 60.6314 116.04C60.6474 116.046 60.5261 115.987 60.2759 115.69C59.8099 115.136 59.248 114.189 58.6744 113.083C58.1107 111.996 57.5708 110.825 57.1408 109.87L55.317 110.69ZM62.3169 113.064V89.304H60.3169V113.064H62.3169ZM61.3169 90.304H67.2689V88.304H61.3169V90.304ZM97.4718 123V124L97.4822 124L97.4718 123ZM85.1838 123H84.1838V124H85.1838V123ZM85.1838 117.048V116.048H84.1838V117.048H85.1838ZM85.1838 95.256H84.1838V96.256H85.1838V95.256ZM85.1838 89.304V88.304H84.1838V89.304H85.1838ZM97.4718 122H85.1838V124H97.4718V122ZM86.1838 123V117.048H84.1838V123H86.1838ZM85.1838 118.048H97.3278V116.048H85.1838V118.048ZM97.3278 118.048C103.931 118.048 109.224 112.701 109.224 106.152H107.224C107.224 111.603 102.821 116.048 97.3278 116.048V118.048ZM109.224 106.152C109.224 99.5517 103.928 94.256 97.3278 94.256V96.256C102.823 96.256 107.224 100.656 107.224 106.152H109.224ZM97.3278 94.256H85.1838V96.256H97.3278V94.256ZM86.1838 95.256V89.304H84.1838V95.256H86.1838ZM85.1838 90.304H97.3278V88.304H85.1838V90.304ZM97.3278 90.304C106.087 90.304 113.176 97.3923 113.176 106.152H115.176C115.176 96.2877 107.192 88.304 97.3278 88.304V90.304ZM113.176 106.152C113.176 114.864 106.133 121.91 97.4613 122L97.4822 124C107.242 123.898 115.176 115.968 115.176 106.152H113.176ZM119.461 89.4V88.4H118.461V89.4H119.461ZM125.413 89.4H126.413V88.4H125.413V89.4ZM140.533 89.4V88.4H139.533V89.4H140.533ZM146.485 89.4H147.485V88.4H146.485V89.4ZM132.997 122.096C126.061 122.096 120.461 116.496 120.461 109.56H118.461C118.461 117.6 124.956 124.096 132.997 124.096V122.096ZM120.461 109.56V89.4H118.461V109.56H120.461ZM119.461 90.4H125.413V88.4H119.461V90.4ZM124.413 89.4V109.56H126.413V89.4H124.413ZM124.413 109.56C124.413 114.288 128.268 118.144 132.997 118.144V116.144C129.373 116.144 126.413 113.184 126.413 109.56H124.413ZM132.997 118.144C137.733 118.144 141.533 114.28 141.533 109.56H139.533C139.533 113.192 136.612 116.144 132.997 116.144V118.144ZM141.533 109.56V89.4H139.533V109.56H141.533ZM140.533 90.4H146.485V88.4H140.533V90.4ZM145.485 89.4V109.56H147.485V89.4H145.485ZM145.485 109.56C145.485 116.498 139.882 122.096 132.997 122.096V124.096C140.991 124.096 147.485 117.598 147.485 109.56H145.485ZM173.417 108.408L173.038 107.482L172.014 107.901L172.534 108.878L173.417 108.408ZM181.193 123V124H182.859L182.075 122.53L181.193 123ZM174.473 123L173.587 123.463L173.867 124H174.473V123ZM171.161 116.664L172.047 116.201L172.036 116.18L172.024 116.159L171.161 116.664ZM157.721 123V124H158.721V123H157.721ZM151.769 123H150.769V124H151.769V123ZM151.769 95.256H150.769V96.256H151.769V95.256ZM151.769 89.304V88.304H150.769V89.304H151.769ZM172.534 108.878L180.31 123.47L182.075 122.53L174.299 107.938L172.534 108.878ZM181.193 122H174.473V124H181.193V122ZM175.359 122.537L172.047 116.201L170.275 117.127L173.587 123.463L175.359 122.537ZM172.024 116.159C171.581 115.401 171.139 114.562 170.681 113.701C170.228 112.85 169.76 111.979 169.283 111.202C168.81 110.433 168.296 109.701 167.737 109.153C167.19 108.617 166.47 108.128 165.593 108.128V110.128C165.699 110.128 165.939 110.191 166.336 110.581C166.721 110.958 167.134 111.525 167.579 112.25C168.019 112.967 168.46 113.785 168.915 114.64C169.365 115.484 169.829 116.367 170.297 117.169L172.024 116.159ZM165.593 108.128H161.657V110.128H165.593V108.128ZM161.657 108.128C158.944 108.128 156.721 110.352 156.721 113.064H158.721C158.721 111.456 160.049 110.128 161.657 110.128V108.128ZM156.721 113.064V123H158.721V113.064H156.721ZM157.721 122H151.769V124H157.721V122ZM152.769 123V113.064H150.769V123H152.769ZM152.769 113.064C152.769 108.144 156.737 104.176 161.657 104.176V102.176C155.632 102.176 150.769 107.04 150.769 113.064H152.769ZM161.657 104.176H169.673V102.176H161.657V104.176ZM169.673 104.176C171.255 104.176 172.514 103.567 173.366 102.599C174.201 101.651 174.597 100.417 174.597 99.216C174.597 98.0154 174.201 96.7808 173.366 95.8325C172.514 94.8652 171.255 94.256 169.673 94.256V96.256C170.706 96.256 171.409 96.6368 171.865 97.1545C172.338 97.6912 172.597 98.4366 172.597 99.216C172.597 99.9954 172.338 100.741 171.865 101.278C171.409 101.795 170.706 102.176 169.673 102.176V104.176ZM169.673 94.256H151.769V96.256H169.673V94.256ZM152.769 95.256V89.304H150.769V95.256H152.769ZM151.769 90.304H169.673V88.304H151.769V90.304ZM169.673 90.304C179.408 90.304 182.022 103.811 173.038 107.482L173.795 109.334C184.78 104.845 181.633 88.304 169.673 88.304V90.304ZM219.645 123V124H220.645V123H219.645ZM213.693 123H212.693V124H213.693V123ZM205.389 101.064L206.228 101.608L206.233 101.6L206.238 101.592L205.389 101.064ZM191.181 123V124H191.725L192.02 123.544L191.181 123ZM184.077 123L183.238 122.456L182.238 124H184.077V123ZM198.285 101.064L199.124 101.608L199.125 101.606L198.285 101.064ZM218.645 99.192V123H220.645V99.192H218.645ZM219.645 122H213.693V124H219.645V122ZM214.693 123V99.192H212.693V123H214.693ZM214.693 99.192C214.693 97.9348 214.603 96.7264 214.22 95.8074C214.02 95.3283 213.721 94.8762 213.266 94.5477C212.804 94.2131 212.26 94.064 211.677 94.064V96.064C211.91 96.064 212.026 96.1189 212.094 96.1683C212.171 96.2238 212.273 96.3357 212.374 96.5766C212.591 97.0976 212.693 97.9532 212.693 99.192H214.693ZM211.677 94.064C210.731 94.064 209.872 94.4287 209.138 94.9214C208.404 95.4142 207.74 96.0708 207.161 96.7484C206.008 98.0975 205.075 99.675 204.54 100.536L206.238 101.592C206.807 100.677 207.65 99.2545 208.681 98.0476C209.194 97.4472 209.724 96.9368 210.253 96.5821C210.781 96.2273 211.255 96.064 211.677 96.064V94.064ZM204.55 100.52L190.342 122.456L192.02 123.544L206.228 101.608L204.55 100.52ZM191.181 122H184.077V124H191.181V122ZM184.916 123.544L199.124 101.608L197.446 100.52L183.238 122.456L184.916 123.544ZM199.125 101.606C201.587 97.7929 203.536 94.9186 205.646 92.9803C207.699 91.0936 209.887 90.112 212.877 90.112V88.112C209.339 88.112 206.679 89.3144 204.292 91.5077C201.962 93.6494 199.879 96.7511 197.445 100.522L199.125 101.606ZM212.877 90.112C214.54 90.112 215.934 90.8659 216.949 92.3425C217.986 93.8516 218.645 96.1519 218.645 99.192H220.645C220.645 95.8961 219.935 93.1564 218.597 91.2095C217.236 89.2301 215.246 88.112 212.877 88.112V90.112ZM257.508 89.304H258.508V88.304H257.508V89.304ZM240.9 112.44L241.803 112.011L241.803 112.01L240.9 112.44ZM236.1 102.36L235.195 102.784L235.197 102.79L236.1 102.36ZM230.868 99.192H231.868V99.179L231.868 99.166L230.868 99.192ZM230.868 123V124H231.868V123H230.868ZM224.916 123H223.916V124H224.916V123ZM241.476 99.816L240.573 100.245L240.574 100.247L241.476 99.816ZM246.468 110.28L247.38 109.87L247.376 109.859L247.371 109.849L246.468 110.28ZM251.556 113.064H250.556V113.078L250.557 113.092L251.556 113.064ZM251.556 89.304V88.304H250.556V89.304H251.556ZM256.508 89.304V113.064H258.508V89.304H256.508ZM256.508 113.064C256.508 120.187 253.003 122 251.46 122V124C254.526 124 258.508 120.821 258.508 113.064H256.508ZM251.46 122C250.345 122 249.479 121.888 248.737 121.628C248.008 121.373 247.349 120.956 246.675 120.275C245.278 118.861 243.879 116.379 241.803 112.011L239.997 112.869C242.049 117.189 243.579 119.987 245.253 121.681C246.116 122.554 247.028 123.148 248.075 123.515C249.109 123.878 250.223 124 251.46 124V122ZM241.803 112.01L237.003 101.93L235.197 102.79L239.997 112.87L241.803 112.01ZM237.006 101.936C236.654 101.186 236.12 100.003 235.537 98.8281C234.958 97.6632 234.294 96.4293 233.657 95.572C233.351 95.1597 232.979 94.7317 232.552 94.4765C232.33 94.3432 232.021 94.2133 231.654 94.2247C231.256 94.2371 230.917 94.4119 230.667 94.6678C230.242 95.1023 230.068 95.7712 229.975 96.4126C229.874 97.1143 229.838 98.0406 229.869 99.218L231.868 99.166C231.839 98.0394 231.876 97.2407 231.955 96.6996C232.042 96.0983 232.155 96.0067 232.097 96.0662C232.03 96.1346 231.895 96.2182 231.716 96.2238C231.57 96.2283 231.497 96.1759 231.525 96.1923C231.598 96.2363 231.778 96.3963 232.051 96.764C232.573 97.4667 233.171 98.5608 233.746 99.7179C234.316 100.865 234.826 101.998 235.195 102.784L237.006 101.936ZM229.868 99.192V123H231.868V99.192H229.868ZM230.868 122H224.916V124H230.868V122ZM225.916 123V99.192H223.916V123H225.916ZM225.916 99.192C225.916 92.0666 229.375 90.304 230.916 90.304V88.304C227.849 88.304 223.916 91.4374 223.916 99.192H225.916ZM230.916 90.304C232.046 90.304 232.92 90.4135 233.665 90.6702C234.395 90.922 235.052 91.3325 235.72 92.0063C237.11 93.4072 238.496 95.8744 240.573 100.245L242.379 99.3868C240.328 95.0696 238.81 92.2808 237.14 90.5977C236.279 89.7295 235.366 89.141 234.316 88.7793C233.281 88.4225 232.162 88.304 230.916 88.304V90.304ZM240.574 100.247L245.566 110.711L247.371 109.849L242.379 99.3854L240.574 100.247ZM245.556 110.69C245.99 111.655 246.548 112.866 247.138 114.004C247.718 115.122 248.365 116.242 248.985 116.978C249.278 117.326 249.669 117.718 250.144 117.903C250.407 118.005 250.741 118.062 251.1 117.962C251.46 117.861 251.724 117.636 251.906 117.393C252.234 116.955 252.386 116.339 252.469 115.697C252.557 115.016 252.587 114.136 252.556 113.036L250.557 113.092C250.586 114.14 250.555 114.904 250.486 115.44C250.451 115.707 250.409 115.9 250.368 116.032C250.326 116.17 250.295 116.207 250.305 116.194C250.321 116.173 250.401 116.081 250.561 116.036C250.72 115.992 250.838 116.027 250.871 116.04C250.887 116.046 250.765 115.987 250.515 115.69C250.049 115.136 249.487 114.189 248.914 113.083C248.35 111.996 247.81 110.825 247.38 109.87L245.556 110.69ZM252.556 113.064V89.304H250.556V113.064H252.556ZM251.556 90.304H257.508V88.304H251.556V90.304ZM273.746 123H272.746V124H273.746V123ZM273.746 95.256H274.746V94.256H273.746V95.256ZM262.802 95.256H261.802V96.256H262.802V95.256ZM262.802 89.304V88.304H261.802V89.304H262.802ZM290.69 89.304H291.69V88.304H290.69V89.304ZM290.69 95.256V96.256H291.69V95.256H290.69ZM279.698 95.256V94.256H278.698V95.256H279.698ZM279.698 123V124H280.698V123H279.698ZM274.746 123V95.256H272.746V123H274.746ZM273.746 94.256H262.802V96.256H273.746V94.256ZM263.802 95.256V89.304H261.802V95.256H263.802ZM262.802 90.304H290.69V88.304H262.802V90.304ZM289.69 89.304V95.256H291.69V89.304H289.69ZM290.69 94.256H279.698V96.256H290.69V94.256ZM278.698 95.256V123H280.698V95.256H278.698ZM279.698 122H273.746V124H279.698V122ZM322.556 123V124H323.556V123H322.556ZM310.316 123L310.305 124H310.316V123ZM322.556 89.304H323.556V88.304H322.556V89.304ZM322.556 95.256V96.256H323.556V95.256H322.556ZM322.556 117.048H323.556V116.048H322.556V117.048ZM317.948 109.128V110.128H318.948V109.128H317.948ZM306.764 109.128H305.764V110.128H306.764V109.128ZM306.764 103.176V102.176H305.764V103.176H306.764ZM317.948 103.176H318.948V102.176H317.948V103.176ZM322.556 122H310.316V124H322.556V122ZM310.326 122C301.604 121.91 294.564 114.862 294.564 106.152H292.564C292.564 115.97 300.499 123.898 310.305 124L310.326 122ZM294.564 106.152C294.564 97.3923 301.652 90.304 310.412 90.304V88.304C300.547 88.304 292.564 96.2877 292.564 106.152H294.564ZM310.412 90.304H322.556V88.304H310.412V90.304ZM321.556 89.304V95.256H323.556V89.304H321.556ZM322.556 94.256H310.412V96.256H322.556V94.256ZM310.412 94.256C303.862 94.256 298.516 99.5488 298.516 106.152H300.516C300.516 100.659 304.961 96.256 310.412 96.256V94.256ZM298.516 106.152C298.516 112.704 303.859 118.048 310.412 118.048V116.048C304.964 116.048 300.516 111.6 300.516 106.152H298.516ZM310.412 118.048H322.556V116.048H310.412V118.048ZM321.556 117.048V123H323.556V117.048H321.556ZM317.948 108.128H306.764V110.128H317.948V108.128ZM307.764 109.128V103.176H305.764V109.128H307.764ZM306.764 104.176H317.948V102.176H306.764V104.176ZM316.948 103.176V109.128H318.948V103.176H316.948ZM369.453 123V124H370.453V123H369.453ZM357.213 123L357.203 124H357.213V123ZM369.453 89.304H370.453V88.304H369.453V89.304ZM369.453 95.256V96.256H370.453V95.256H369.453ZM369.453 117.048H370.453V116.048H369.453V117.048ZM364.845 109.128V110.128H365.845V109.128H364.845ZM353.661 109.128H352.661V110.128H353.661V109.128ZM353.661 103.176V102.176H352.661V103.176H353.661ZM364.845 103.176H365.845V102.176H364.845V103.176ZM369.453 122H357.213V124H369.453V122ZM357.224 122C348.502 121.91 341.461 114.862 341.461 106.152H339.461C339.461 115.97 347.397 123.898 357.203 124L357.224 122ZM341.461 106.152C341.461 97.3923 348.55 90.304 357.309 90.304V88.304C347.445 88.304 339.461 96.2877 339.461 106.152H341.461ZM357.309 90.304H369.453V88.304H357.309V90.304ZM368.453 89.304V95.256H370.453V89.304H368.453ZM369.453 94.256H357.309V96.256H369.453V94.256ZM357.309 94.256C350.76 94.256 345.413 99.5488 345.413 106.152H347.413C347.413 100.659 351.859 96.256 357.309 96.256V94.256ZM345.413 106.152C345.413 112.704 350.757 118.048 357.309 118.048V116.048C351.862 116.048 347.413 111.6 347.413 106.152H345.413ZM357.309 118.048H369.453V116.048H357.309V118.048ZM368.453 117.048V123H370.453V117.048H368.453ZM364.845 108.128H353.661V110.128H364.845V108.128ZM354.661 109.128V103.176H352.661V109.128H354.661ZM353.661 104.176H364.845V102.176H353.661V104.176ZM363.845 103.176V109.128H365.845V103.176H363.845ZM397.154 117.048H398.154V116.048H397.154V117.048ZM397.154 123V124H398.154V123H397.154ZM374.738 89.352V88.352H373.738V89.352H374.738ZM380.69 89.352H381.69V88.352H380.69V89.352ZM384.674 118.048H397.154V116.048H384.674V118.048ZM396.154 117.048V123H398.154V117.048H396.154ZM397.154 122H384.674V124H397.154V122ZM384.674 122C379.754 122 375.738 117.984 375.738 113.064H373.738C373.738 119.088 378.65 124 384.674 124V122ZM375.738 113.064V89.352H373.738V113.064H375.738ZM374.738 90.352H380.69V88.352H374.738V90.352ZM379.69 89.352V113.064H381.69V89.352H379.69ZM379.69 113.064C379.69 115.824 381.914 118.048 384.674 118.048V116.048C383.018 116.048 381.69 114.72 381.69 113.064H379.69ZM0.4 200H-0.6V201H0.4V200ZM0.4 172.256H-0.6V173.256H0.4V172.256ZM0.4 166.304V165.304H-0.6V166.304H0.4ZM19.456 186.032L19.3403 185.039L18.456 185.142V186.032H19.456ZM19.456 186.128V187.128H20.456V186.128H19.456ZM6.352 200V201H7.352V200H6.352ZM1.4 200V190.064H-0.6V200H1.4ZM1.4 190.064C1.4 185.144 5.36828 181.176 10.288 181.176V179.176C4.26372 179.176 -0.6 184.04 -0.6 190.064H1.4ZM10.288 181.176H18.304V179.176H10.288V181.176ZM18.304 181.176C19.8778 181.176 21.1284 180.564 21.9734 179.596C22.8012 178.648 23.192 177.414 23.192 176.216C23.192 175.018 22.8012 173.784 21.9734 172.836C21.1284 171.868 19.8778 171.256 18.304 171.256V173.256C19.3222 173.256 20.0156 173.634 20.4666 174.151C20.9348 174.688 21.192 175.434 21.192 176.216C21.192 176.998 20.9348 177.744 20.4666 178.281C20.0156 178.798 19.3222 179.176 18.304 179.176V181.176ZM18.304 171.256H0.4V173.256H18.304V171.256ZM1.4 172.256V166.304H-0.6V172.256H1.4ZM0.4 167.304H18.304V165.304H0.4V167.304ZM18.304 167.304C23.2237 167.304 27.192 171.272 27.192 176.192H29.192C29.192 170.168 24.3283 165.304 18.304 165.304V167.304ZM27.192 176.192C27.192 180.769 23.7837 184.521 19.3403 185.039L19.5717 187.025C25.0163 186.391 29.192 181.791 29.192 176.192H27.192ZM18.456 186.032V186.128H20.456V186.032H18.456ZM19.456 185.128H10.288V187.128H19.456V185.128ZM10.288 185.128C7.51978 185.128 5.352 187.36 5.352 190.064H7.352C7.352 188.448 8.64022 187.128 10.288 187.128V185.128ZM5.352 190.064V200H7.352V190.064H5.352ZM6.352 199H0.4V201H6.352V199ZM53.8874 185.408L53.5091 184.482L52.4842 184.901L53.0049 185.878L53.8874 185.408ZM61.6634 200V201H63.3294L62.5459 199.53L61.6634 200ZM54.9434 200L54.0571 200.463L54.3377 201H54.9434V200ZM51.6314 193.664L52.5176 193.201L52.5066 193.18L52.4947 193.159L51.6314 193.664ZM38.1914 200V201H39.1914V200H38.1914ZM32.2394 200H31.2394V201H32.2394V200ZM32.2394 172.256H31.2394V173.256H32.2394V172.256ZM32.2394 166.304V165.304H31.2394V166.304H32.2394ZM53.0049 185.878L60.7809 200.47L62.5459 199.53L54.7699 184.938L53.0049 185.878ZM61.6634 199H54.9434V201H61.6634V199ZM55.8296 199.537L52.5176 193.201L50.7452 194.127L54.0571 200.463L55.8296 199.537ZM52.4947 193.159C52.0513 192.401 51.6096 191.562 51.1514 190.701C50.6988 189.85 50.2308 188.979 49.7534 188.202C49.2804 187.433 48.7665 186.701 48.2074 186.153C47.6607 185.617 46.9407 185.128 46.0634 185.128V187.128C46.17 187.128 46.41 187.191 46.8069 187.581C47.1913 187.958 47.6043 188.525 48.0494 189.25C48.4899 189.967 48.9309 190.785 49.3858 191.64C49.8351 192.484 50.2995 193.367 50.7681 194.169L52.4947 193.159ZM46.0634 185.128H42.1274V187.128H46.0634V185.128ZM42.1274 185.128C39.4151 185.128 37.1914 187.352 37.1914 190.064H39.1914C39.1914 188.456 40.5197 187.128 42.1274 187.128V185.128ZM37.1914 190.064V200H39.1914V190.064H37.1914ZM38.1914 199H32.2394V201H38.1914V199ZM33.2394 200V190.064H31.2394V200H33.2394ZM33.2394 190.064C33.2394 185.144 37.2077 181.176 42.1274 181.176V179.176C36.1031 179.176 31.2394 184.04 31.2394 190.064H33.2394ZM42.1274 181.176H50.1434V179.176H42.1274V181.176ZM50.1434 181.176C51.7259 181.176 52.9847 180.567 53.8368 179.599C54.672 178.651 55.0674 177.417 55.0674 176.216C55.0674 175.015 54.672 173.781 53.8368 172.833C52.9847 171.865 51.7259 171.256 50.1434 171.256V173.256C51.1768 173.256 51.88 173.637 52.336 174.154C52.8087 174.691 53.0674 175.437 53.0674 176.216C53.0674 176.995 52.8087 177.741 52.336 178.278C51.88 178.795 51.1768 179.176 50.1434 179.176V181.176ZM50.1434 171.256H32.2394V173.256H50.1434V171.256ZM33.2394 172.256V166.304H31.2394V172.256H33.2394ZM32.2394 167.304H50.1434V165.304H32.2394V167.304ZM50.1434 167.304C59.8788 167.304 62.4922 180.811 53.5091 184.482L54.2657 186.334C65.2506 181.845 62.1039 165.304 50.1434 165.304V167.304ZM80.5128 166.968C89.4183 166.968 96.6968 174.202 96.6968 183.152H98.6968C98.6968 173.094 90.5192 164.968 80.5128 164.968V166.968ZM96.6968 183.152C96.6968 192.056 89.4165 199.336 80.5128 199.336V201.336C90.521 201.336 98.6968 193.16 98.6968 183.152H96.6968ZM80.5128 199.336C71.5629 199.336 64.3287 192.058 64.3287 183.152H62.3287C62.3287 193.158 70.4546 201.336 80.5128 201.336V199.336ZM64.3287 183.152C64.3287 174.2 71.561 166.968 80.5128 166.968V164.968C70.4565 164.968 62.3287 173.096 62.3287 183.152H64.3287ZM80.5128 195.384C87.2146 195.384 92.7448 189.795 92.7448 183.104H90.7448C90.7448 188.701 86.0989 193.384 80.5128 193.384V195.384ZM92.7448 183.104C92.7448 176.402 87.2035 170.92 80.5128 170.92V172.92C86.11 172.92 90.7448 177.518 90.7448 183.104H92.7448ZM80.5128 170.92C73.822 170.92 68.2807 176.402 68.2807 183.104H70.2807C70.2807 177.518 74.9155 172.92 80.5128 172.92V170.92ZM68.2807 183.104C68.2807 189.795 73.8109 195.384 80.5128 195.384V193.384C74.9266 193.384 70.2807 188.701 70.2807 183.104H68.2807ZM130.77 200V201H131.77V200H130.77ZM118.53 200L118.519 201H118.53V200ZM130.77 166.304H131.77V165.304H130.77V166.304ZM130.77 172.256V173.256H131.77V172.256H130.77ZM130.77 194.048H131.77V193.048H130.77V194.048ZM130.77 199H118.53V201H130.77V199ZM118.54 199C109.818 198.91 102.778 191.862 102.778 183.152H100.778C100.778 192.97 108.713 200.898 118.519 201L118.54 199ZM102.778 183.152C102.778 174.39 109.868 167.304 118.578 167.304V165.304C108.759 165.304 100.778 173.29 100.778 183.152H102.778ZM118.578 167.304H130.77V165.304H118.578V167.304ZM129.77 166.304V172.256H131.77V166.304H129.77ZM130.77 171.256H118.578V173.256H130.77V171.256ZM118.578 171.256C112.022 171.256 106.73 176.555 106.73 183.152H108.73C108.73 177.653 113.133 173.256 118.578 173.256V171.256ZM106.73 183.152C106.73 189.699 112.019 195.048 118.578 195.048V193.048C113.136 193.048 108.73 188.605 108.73 183.152H106.73ZM118.578 195.048H130.77V193.048H118.578V195.048ZM129.77 194.048V200H131.77V194.048H129.77ZM162.656 200V201H163.656V200H162.656ZM150.416 200L150.405 201H150.416V200ZM162.656 166.304H163.656V165.304H162.656V166.304ZM162.656 172.256V173.256H163.656V172.256H162.656ZM162.656 194.048H163.656V193.048H162.656V194.048ZM158.048 186.128V187.128H159.048V186.128H158.048ZM146.864 186.128H145.864V187.128H146.864V186.128ZM146.864 180.176V179.176H145.864V180.176H146.864ZM158.048 180.176H159.048V179.176H158.048V180.176ZM162.656 199H150.416V201H162.656V199ZM150.426 199C141.704 198.91 134.664 191.862 134.664 183.152H132.664C132.664 192.97 140.599 200.898 150.405 201L150.426 199ZM134.664 183.152C134.664 174.392 141.752 167.304 150.512 167.304V165.304C140.647 165.304 132.664 173.288 132.664 183.152H134.664ZM150.512 167.304H162.656V165.304H150.512V167.304ZM161.656 166.304V172.256H163.656V166.304H161.656ZM162.656 171.256H150.512V173.256H162.656V171.256ZM150.512 171.256C143.962 171.256 138.616 176.549 138.616 183.152H140.616C140.616 177.659 145.061 173.256 150.512 173.256V171.256ZM138.616 183.152C138.616 189.704 143.959 195.048 150.512 195.048V193.048C145.064 193.048 140.616 188.6 140.616 183.152H138.616ZM150.512 195.048H162.656V193.048H150.512V195.048ZM161.656 194.048V200H163.656V194.048H161.656ZM158.048 185.128H146.864V187.128H158.048V185.128ZM147.864 186.128V180.176H145.864V186.128H147.864ZM146.864 181.176H158.048V179.176H146.864V181.176ZM157.048 180.176V186.128H159.048V180.176H157.048ZM194.322 166.304H195.322V165.304H194.322V166.304ZM194.322 172.256V173.256H195.322V172.256H194.322ZM169.026 200H168.026V201H169.026V200ZM169.026 194.048V193.048H168.026V194.048H169.026ZM176.37 186.128L176.343 187.128L176.356 187.128H176.37V186.128ZM176.61 167.304H194.322V165.304H176.61V167.304ZM193.322 166.304V172.256H195.322V166.304H193.322ZM194.322 171.256H176.61V173.256H194.322V171.256ZM176.61 171.256C175.036 171.256 173.785 171.868 172.94 172.836C172.113 173.784 171.722 175.018 171.722 176.216C171.722 177.414 172.113 178.648 172.94 179.596C173.785 180.564 175.036 181.176 176.61 181.176V179.176C175.592 179.176 174.898 178.798 174.447 178.281C173.979 177.744 173.722 176.998 173.722 176.216C173.722 175.434 173.979 174.688 174.447 174.151C174.898 173.634 175.592 173.256 176.61 173.256V171.256ZM176.61 181.176H187.65V179.176H176.61V181.176ZM187.65 181.176C192.576 181.176 196.586 185.151 196.586 190.064H198.586C198.586 184.033 193.668 179.176 187.65 179.176V181.176ZM196.586 190.064C196.586 194.984 192.57 199 187.65 199V201C193.674 201 198.586 196.088 198.586 190.064H196.586ZM187.65 199H169.026V201H187.65V199ZM170.026 200V194.048H168.026V200H170.026ZM169.026 195.048H187.65V193.048H169.026V195.048ZM187.65 195.048C189.232 195.048 190.491 194.439 191.343 193.471C192.179 192.523 192.574 191.289 192.574 190.088C192.574 188.887 192.179 187.653 191.343 186.705C190.491 185.737 189.232 185.128 187.65 185.128V187.128C188.683 187.128 189.387 187.509 189.842 188.026C190.315 188.563 190.574 189.309 190.574 190.088C190.574 190.867 190.315 191.613 189.842 192.15C189.387 192.667 188.683 193.048 187.65 193.048V195.048ZM187.65 185.128H176.37V187.128H187.65V185.128ZM176.397 185.128C171.563 184.999 167.722 181.075 167.722 176.192H165.722C165.722 182.157 170.425 186.969 176.343 187.128L176.397 185.128ZM167.722 176.192C167.722 171.272 171.69 167.304 176.61 167.304V165.304C170.586 165.304 165.722 170.168 165.722 176.192H167.722ZM217.667 166.968C226.573 166.968 233.851 174.202 233.851 183.152H235.851C235.851 173.094 227.674 164.968 217.667 164.968V166.968ZM233.851 183.152C233.851 192.056 226.571 199.336 217.667 199.336V201.336C227.675 201.336 235.851 193.16 235.851 183.152H233.851ZM217.667 199.336C208.717 199.336 201.483 192.058 201.483 183.152H199.483C199.483 193.158 207.609 201.336 217.667 201.336V199.336ZM201.483 183.152C201.483 174.2 208.715 166.968 217.667 166.968V164.968C207.611 164.968 199.483 173.096 199.483 183.152H201.483ZM217.667 195.384C224.369 195.384 229.899 189.795 229.899 183.104H227.899C227.899 188.701 223.253 193.384 217.667 193.384V195.384ZM229.899 183.104C229.899 176.402 224.358 170.92 217.667 170.92V172.92C223.264 172.92 227.899 177.518 227.899 183.104H229.899ZM217.667 170.92C210.976 170.92 205.435 176.402 205.435 183.104H207.435C207.435 177.518 212.07 172.92 217.667 172.92V170.92ZM205.435 183.104C205.435 189.795 210.965 195.384 217.667 195.384V193.384C212.081 193.384 207.435 188.701 207.435 183.104H205.435Z" fill="black" mask="url(#path-1-outside-1_272573_178)"/>
</svg>
