<svg width="673" height="113" viewBox="0 0 673 113" fill="none" xmlns="http://www.w3.org/2000/svg">
<g filter="url(#filter0_d_270590_279)">
<path d="M14.51 5.99H4.25V0.409999H30.395V5.99H20.09V32H14.51V5.99ZM57.1099 18.86H40.9099V32H35.3299V0.454998H40.9099V13.28H57.1099V0.454998H62.6899V32H57.1099V18.86ZM83.3452 32C81.1852 31.97 79.1452 31.55 77.2252 30.74C75.3052 29.9 73.6402 28.775 72.2302 27.365C70.8202 25.925 69.6952 24.245 68.8552 22.325C68.0452 20.405 67.6402 18.365 67.6402 16.205C67.6402 14.015 68.0452 11.96 68.8552 10.04C69.6952 8.12 70.8202 6.455 72.2302 5.045C73.6702 3.605 75.3502 2.48 77.2702 1.67C79.1902 0.829999 81.2452 0.409999 83.4352 0.409999H94.8202V5.99H83.4352C82.0252 5.99 80.6902 6.26 79.4302 6.8C78.2002 7.34 77.1202 8.075 76.1902 9.005C75.2902 9.905 74.5702 10.985 74.0302 12.245C73.4902 13.475 73.2202 14.795 73.2202 16.205C73.2202 17.615 73.4902 18.95 74.0302 20.21C74.5702 21.44 75.2902 22.52 76.1902 23.45C77.1202 24.35 78.2002 25.07 79.4302 25.61C80.6902 26.15 82.0252 26.42 83.4352 26.42H94.8202V32H83.3452ZM90.5002 18.995V13.415H80.0152V18.995H90.5002ZM117.187 16.205V32H111.607V16.205C111.607 14.015 112.012 11.96 112.822 10.04C113.662 8.12 114.802 6.455 116.242 5.045C117.682 3.605 119.362 2.48 121.282 1.67C123.232 0.829999 125.317 0.409999 127.537 0.409999H138.922V5.99H127.402C125.992 5.99 124.657 6.26 123.397 6.8C122.167 7.34 121.087 8.075 120.157 9.005C119.227 9.905 118.492 10.985 117.952 12.245C117.442 13.475 117.187 14.795 117.187 16.205ZM134.602 18.995V13.415H124.117V18.995H134.602ZM143.873 0.454998H149.453V32H143.873V0.454998ZM184.942 22.685C184.942 24.425 184.747 25.895 184.357 27.095C183.967 28.265 183.487 29.225 182.917 29.975C182.347 30.695 181.732 31.22 181.072 31.55C180.412 31.85 179.812 32 179.272 32C178.162 32 177.202 31.865 176.392 31.595C175.582 31.325 174.817 30.83 174.097 30.11C173.377 29.39 172.642 28.385 171.892 27.095C171.172 25.805 170.332 24.14 169.372 22.1L164.872 12.65C164.632 12.17 164.347 11.57 164.017 10.85C163.687 10.1 163.327 9.38 162.937 8.69C162.577 7.97 162.202 7.355 161.812 6.845C161.452 6.335 161.122 6.05 160.822 5.99C160.552 5.93 160.327 6.17 160.147 6.71C159.997 7.25 159.937 8.24 159.967 9.68V32H154.387V9.68C154.387 7.94 154.582 6.485 154.972 5.315C155.362 4.115 155.827 3.155 156.367 2.435C156.937 1.715 157.552 1.205 158.212 0.904998C158.872 0.574999 159.472 0.409999 160.012 0.409999C161.122 0.409999 162.082 0.544999 162.892 0.814999C163.702 1.085 164.467 1.58 165.187 2.3C165.907 3.02 166.627 4.025 167.347 5.315C168.097 6.575 168.952 8.225 169.912 10.265L174.592 20.075C174.862 20.675 175.162 21.35 175.492 22.1C175.852 22.82 176.212 23.51 176.572 24.17C176.962 24.8 177.322 25.34 177.652 25.79C178.012 26.21 178.327 26.42 178.597 26.42C178.867 26.39 179.062 26.105 179.182 25.565C179.332 24.995 179.392 24.035 179.362 22.685V0.409999H184.942V22.685ZM219.866 32H214.286V9.68C214.286 8.51 214.166 7.58 213.926 6.89C213.686 6.17 213.176 5.81 212.396 5.81C211.766 5.81 211.151 6.035 210.551 6.485C209.951 6.905 209.396 7.415 208.886 8.015C208.376 8.615 207.911 9.23 207.491 9.86C207.101 10.49 206.771 11.015 206.501 11.435L193.181 32H186.521L199.841 11.435C200.981 9.665 202.046 8.09 203.036 6.71C204.056 5.3 205.076 4.115 206.096 3.155C207.146 2.195 208.256 1.475 209.426 0.995C210.626 0.484999 211.991 0.229999 213.521 0.229999C215.411 0.229999 216.941 1.055 218.111 2.705C219.281 4.355 219.866 6.68 219.866 9.68V32ZM255.363 22.685C255.363 24.425 255.168 25.895 254.778 27.095C254.388 28.265 253.908 29.225 253.338 29.975C252.768 30.695 252.153 31.22 251.493 31.55C250.833 31.85 250.233 32 249.693 32C248.583 32 247.623 31.865 246.813 31.595C246.003 31.325 245.238 30.83 244.518 30.11C243.798 29.39 243.063 28.385 242.313 27.095C241.593 25.805 240.753 24.14 239.793 22.1L235.293 12.65C235.053 12.17 234.768 11.57 234.438 10.85C234.108 10.1 233.748 9.38 233.358 8.69C232.998 7.97 232.623 7.355 232.233 6.845C231.873 6.335 231.543 6.05 231.243 5.99C230.973 5.93 230.748 6.17 230.568 6.71C230.418 7.25 230.358 8.24 230.388 9.68V32H224.808V9.68C224.808 7.94 225.003 6.485 225.393 5.315C225.783 4.115 226.248 3.155 226.788 2.435C227.358 1.715 227.973 1.205 228.633 0.904998C229.293 0.574999 229.893 0.409999 230.433 0.409999C231.543 0.409999 232.503 0.544999 233.313 0.814999C234.123 1.085 234.888 1.58 235.608 2.3C236.328 3.02 237.048 4.025 237.768 5.315C238.518 6.575 239.373 8.225 240.333 10.265L245.013 20.075C245.283 20.675 245.583 21.35 245.913 22.1C246.273 22.82 246.633 23.51 246.993 24.17C247.383 24.8 247.743 25.34 248.073 25.79C248.433 26.21 248.748 26.42 249.018 26.42C249.288 26.39 249.483 26.105 249.603 25.565C249.753 24.995 249.813 24.035 249.783 22.685V0.409999H255.363V22.685ZM276.031 32C273.871 31.97 271.831 31.55 269.911 30.74C267.991 29.9 266.326 28.775 264.916 27.365C263.506 25.925 262.381 24.245 261.541 22.325C260.731 20.405 260.326 18.365 260.326 16.205C260.326 14.015 260.731 11.96 261.541 10.04C262.381 8.12 263.506 6.455 264.916 5.045C266.356 3.605 268.036 2.48 269.956 1.67C271.876 0.829999 273.916 0.409999 276.076 0.409999H287.506V5.99H276.076C274.666 5.99 273.346 6.26 272.116 6.8C270.886 7.34 269.806 8.075 268.876 9.005C267.946 9.905 267.211 10.985 266.671 12.245C266.161 13.475 265.906 14.795 265.906 16.205C265.906 17.615 266.161 18.95 266.671 20.21C267.211 21.44 267.946 22.52 268.876 23.45C269.806 24.35 270.886 25.07 272.116 25.61C273.346 26.15 274.666 26.42 276.076 26.42H287.506V32H276.031ZM292.461 0.454998H298.041V32H292.461V0.454998ZM336.319 32H330.739V9.68C330.739 8.51 330.619 7.58 330.379 6.89C330.139 6.17 329.629 5.81 328.849 5.81C328.219 5.81 327.604 6.035 327.004 6.485C326.404 6.905 325.849 7.415 325.339 8.015C324.829 8.615 324.364 9.23 323.944 9.86C323.554 10.49 323.224 11.015 322.954 11.435L309.634 32H302.974L316.294 11.435C317.434 9.665 318.499 8.09 319.489 6.71C320.509 5.3 321.529 4.115 322.549 3.155C323.599 2.195 324.709 1.475 325.879 0.995C327.079 0.484999 328.444 0.229999 329.974 0.229999C331.864 0.229999 333.394 1.055 334.564 2.705C335.734 4.355 336.319 6.68 336.319 9.68V32ZM350.576 26.42H362.276V32H350.576C349.286 32 348.071 31.76 346.931 31.28C345.821 30.77 344.846 30.095 344.006 29.255C343.166 28.415 342.491 27.44 341.981 26.33C341.501 25.19 341.261 23.975 341.261 22.685V0.454998H346.841V22.685C346.841 23.735 347.201 24.62 347.921 25.34C348.641 26.06 349.526 26.42 350.576 26.42ZM394.78 32C392.62 31.97 390.58 31.55 388.66 30.74C386.74 29.9 385.075 28.775 383.665 27.365C382.255 25.925 381.13 24.245 380.29 22.325C379.48 20.405 379.075 18.365 379.075 16.205C379.075 14.015 379.48 11.96 380.29 10.04C381.13 8.12 382.255 6.455 383.665 5.045C385.105 3.605 386.785 2.48 388.705 1.67C390.625 0.829999 392.665 0.409999 394.825 0.409999H406.255V5.99H394.825C393.415 5.99 392.095 6.26 390.865 6.8C389.635 7.34 388.555 8.075 387.625 9.005C386.695 9.905 385.96 10.985 385.42 12.245C384.91 13.475 384.655 14.795 384.655 16.205C384.655 17.615 384.91 18.95 385.42 20.21C385.96 21.44 386.695 22.52 387.625 23.45C388.555 24.35 389.635 25.07 390.865 25.61C392.095 26.15 393.415 26.42 394.825 26.42H406.255V32H394.78ZM432.99 18.86H416.79V32H411.21V0.454998H416.79V13.28H432.99V0.454998H438.57V32H432.99V18.86ZM476.865 32H471.285V9.68C471.285 8.51 471.165 7.58 470.925 6.89C470.685 6.17 470.175 5.81 469.395 5.81C468.765 5.81 468.15 6.035 467.55 6.485C466.95 6.905 466.395 7.415 465.885 8.015C465.375 8.615 464.91 9.23 464.49 9.86C464.1 10.49 463.77 11.015 463.5 11.435L450.18 32H443.52L456.84 11.435C457.98 9.665 459.045 8.09 460.035 6.71C461.055 5.3 462.075 4.115 463.095 3.155C464.145 2.195 465.255 1.475 466.425 0.995C467.625 0.484999 468.99 0.229999 470.52 0.229999C472.41 0.229999 473.94 1.055 475.11 2.705C476.28 4.355 476.865 6.68 476.865 9.68V32ZM491.122 26.42H502.822V32H491.122C489.832 32 488.617 31.76 487.477 31.28C486.367 30.77 485.392 30.095 484.552 29.255C483.712 28.415 483.037 27.44 482.527 26.33C482.047 25.19 481.807 23.975 481.807 22.685V0.454998H487.387V22.685C487.387 23.735 487.747 24.62 488.467 25.34C489.187 26.06 490.072 26.42 491.122 26.42ZM514.863 26.42H526.563V32H514.863C513.573 32 512.358 31.76 511.218 31.28C510.108 30.77 509.133 30.095 508.293 29.255C507.453 28.415 506.778 27.44 506.268 26.33C505.788 25.19 505.548 23.975 505.548 22.685V0.454998H511.128V22.685C511.128 23.735 511.488 24.62 512.208 25.34C512.928 26.06 513.813 26.42 514.863 26.42ZM544.994 32C542.834 31.97 540.794 31.55 538.874 30.74C536.954 29.9 535.289 28.775 533.879 27.365C532.469 25.925 531.344 24.245 530.504 22.325C529.694 20.405 529.289 18.365 529.289 16.205C529.289 14.015 529.694 11.96 530.504 10.04C531.344 8.12 532.469 6.455 533.879 5.045C535.319 3.605 536.999 2.48 538.919 1.67C540.839 0.829999 542.894 0.409999 545.084 0.409999H556.469V5.99H545.084C543.674 5.99 542.339 6.26 541.079 6.8C539.849 7.34 538.769 8.075 537.839 9.005C536.939 9.905 536.219 10.985 535.679 12.245C535.139 13.475 534.869 14.795 534.869 16.205C534.869 17.615 535.139 18.95 535.679 20.21C536.219 21.44 536.939 22.52 537.839 23.45C538.769 24.35 539.849 25.07 541.079 25.61C542.339 26.15 543.674 26.42 545.084 26.42H556.469V32H544.994ZM552.149 18.995V13.415H541.664V18.995H552.149ZM591.979 22.685C591.979 24.425 591.784 25.895 591.394 27.095C591.004 28.265 590.524 29.225 589.954 29.975C589.384 30.695 588.769 31.22 588.109 31.55C587.449 31.85 586.849 32 586.309 32C585.199 32 584.239 31.865 583.429 31.595C582.619 31.325 581.854 30.83 581.134 30.11C580.414 29.39 579.679 28.385 578.929 27.095C578.209 25.805 577.369 24.14 576.409 22.1L571.909 12.65C571.669 12.17 571.384 11.57 571.054 10.85C570.724 10.1 570.364 9.38 569.974 8.69C569.614 7.97 569.239 7.355 568.849 6.845C568.489 6.335 568.159 6.05 567.859 5.99C567.589 5.93 567.364 6.17 567.184 6.71C567.034 7.25 566.974 8.24 567.004 9.68V32H561.424V9.68C561.424 7.94 561.619 6.485 562.009 5.315C562.399 4.115 562.864 3.155 563.404 2.435C563.974 1.715 564.589 1.205 565.249 0.904998C565.909 0.574999 566.509 0.409999 567.049 0.409999C568.159 0.409999 569.119 0.544999 569.929 0.814999C570.739 1.085 571.504 1.58 572.224 2.3C572.944 3.02 573.664 4.025 574.384 5.315C575.134 6.575 575.989 8.225 576.949 10.265L581.629 20.075C581.899 20.675 582.199 21.35 582.529 22.1C582.889 22.82 583.249 23.51 583.609 24.17C583.999 24.8 584.359 25.34 584.689 25.79C585.049 26.21 585.364 26.42 585.634 26.42C585.904 26.39 586.099 26.105 586.219 25.565C586.369 24.995 586.429 24.035 586.399 22.685V0.409999H591.979V22.685ZM618.542 19.04H609.542V13.46H618.542C619.832 13.46 621.032 13.7 622.142 14.18C623.282 14.66 624.272 15.32 625.112 16.16C625.952 17 626.612 17.99 627.092 19.13C627.572 20.24 627.812 21.44 627.812 22.73C627.812 24.02 627.572 25.235 627.092 26.375C626.612 27.485 625.952 28.46 625.112 29.3C624.272 30.14 623.282 30.8 622.142 31.28C621.032 31.76 619.832 32 618.542 32H612.647C610.487 32 608.447 31.58 606.527 30.74C604.607 29.9 602.942 28.775 601.532 27.365C600.122 25.955 598.997 24.29 598.157 22.37C597.347 20.45 596.942 18.41 596.942 16.25C596.942 14.06 597.347 12.005 598.157 10.085C598.997 8.165 600.122 6.5 601.532 5.09C602.972 3.65 604.652 2.525 606.572 1.715C608.492 0.874998 610.547 0.454998 612.737 0.454998H624.122V6.035H612.737C611.327 6.035 609.992 6.305 608.732 6.845C607.502 7.385 606.422 8.12 605.492 9.05C604.562 9.95 603.827 11.03 603.287 12.29C602.777 13.52 602.522 14.84 602.522 16.25C602.522 17.66 602.777 18.98 603.287 20.21C603.827 21.44 604.562 22.52 605.492 23.45C606.422 24.38 607.502 25.115 608.732 25.655C609.992 26.165 611.327 26.42 612.737 26.42H618.542C619.772 26.42 620.687 26.045 621.287 25.295C621.917 24.515 622.232 23.66 622.232 22.73C622.232 21.8 621.917 20.96 621.287 20.21C620.687 19.43 619.772 19.04 618.542 19.04ZM646.232 32C644.072 31.97 642.032 31.55 640.112 30.74C638.192 29.9 636.527 28.775 635.117 27.365C633.707 25.925 632.582 24.245 631.742 22.325C630.932 20.405 630.527 18.365 630.527 16.205C630.527 14.015 630.932 11.96 631.742 10.04C632.582 8.12 633.707 6.455 635.117 5.045C636.557 3.605 638.237 2.48 640.157 1.67C642.077 0.829999 644.132 0.409999 646.322 0.409999H657.707V5.99H646.322C644.912 5.99 643.577 6.26 642.317 6.8C641.087 7.34 640.007 8.075 639.077 9.005C638.177 9.905 637.457 10.985 636.917 12.245C636.377 13.475 636.107 14.795 636.107 16.205C636.107 17.615 636.377 18.95 636.917 20.21C637.457 21.44 638.177 22.52 639.077 23.45C640.007 24.35 641.087 25.07 642.317 25.61C643.577 26.15 644.912 26.42 646.322 26.42H657.707V32H646.232ZM653.387 18.995V13.415H642.902V18.995H653.387ZM662.661 13.955C662.661 13.025 662.946 12.335 663.516 11.885C664.116 11.435 664.761 11.21 665.451 11.21C666.141 11.21 666.771 11.435 667.341 11.885C667.941 12.335 668.241 13.025 668.241 13.955C668.241 14.885 667.941 15.59 667.341 16.07C666.771 16.52 666.141 16.745 665.451 16.745C664.761 16.745 664.116 16.52 663.516 16.07C662.946 15.59 662.661 14.885 662.661 13.955ZM662.661 26.69C662.661 25.76 662.946 25.07 663.516 24.62C664.116 24.17 664.761 23.945 665.451 23.945C666.141 23.945 666.771 24.17 667.341 24.62C667.941 25.07 668.241 25.76 668.241 26.69C668.241 27.59 667.941 28.28 667.341 28.76C666.771 29.21 666.141 29.435 665.451 29.435C664.761 29.435 664.116 29.21 663.516 28.76C662.946 28.31 662.661 27.62 662.661 26.69ZM19.955 104C17.795 103.97 15.755 103.55 13.835 102.74C11.915 101.9 10.25 100.775 8.84 99.365C7.43 97.925 6.305 96.245 5.465 94.325C4.655 92.405 4.25 90.365 4.25 88.205C4.25 86.015 4.655 83.96 5.465 82.04C6.305 80.12 7.43 78.455 8.84 77.045C10.28 75.605 11.96 74.48 13.88 73.67C15.8 72.83 17.84 72.41 20 72.41H31.43V77.99H20C18.59 77.99 17.27 78.26 16.04 78.8C14.81 79.34 13.73 80.075 12.8 81.005C11.87 81.905 11.135 82.985 10.595 84.245C10.085 85.475 9.83 86.795 9.83 88.205C9.83 89.615 10.085 90.95 10.595 92.21C11.135 93.44 11.87 94.52 12.8 95.45C13.73 96.35 14.81 97.07 16.04 97.61C17.27 98.15 18.59 98.42 20 98.42H31.43V104H19.955ZM50.2534 72.095C52.4734 72.095 54.5584 72.515 56.5084 73.355C58.4584 74.195 60.1684 75.35 61.6384 76.82C63.1084 78.26 64.2634 79.97 65.1034 81.95C65.9434 83.9 66.3634 85.985 66.3634 88.205C66.3634 90.425 65.9434 92.51 65.1034 94.46C64.2634 96.41 63.1084 98.12 61.6384 99.59C60.1684 101.06 58.4584 102.215 56.5084 103.055C54.5584 103.895 52.4734 104.315 50.2534 104.315C48.0334 104.315 45.9334 103.895 43.9534 103.055C42.0034 102.215 40.2934 101.06 38.8234 99.59C37.3834 98.12 36.2434 96.41 35.4034 94.46C34.5634 92.51 34.1434 90.425 34.1434 88.205C34.1434 85.985 34.5634 83.9 35.4034 81.95C36.2434 79.97 37.3834 78.26 38.8234 76.82C40.2934 75.35 42.0034 74.195 43.9534 73.355C45.9334 72.515 48.0334 72.095 50.2534 72.095ZM50.2534 98.735C51.6934 98.735 53.0434 98.465 54.3034 97.925C55.5934 97.355 56.7184 96.59 57.6784 95.63C58.6384 94.64 59.3884 93.515 59.9284 92.255C60.4984 90.965 60.7834 89.6 60.7834 88.16C60.7834 86.72 60.4984 85.37 59.9284 84.11C59.3884 82.82 58.6384 81.71 57.6784 80.78C56.7184 79.82 55.5934 79.07 54.3034 78.53C53.0434 77.96 51.6934 77.675 50.2534 77.675C48.8134 77.675 47.4484 77.96 46.1584 78.53C44.8984 79.07 43.7884 79.82 42.8284 80.78C41.8684 81.71 41.1034 82.82 40.5334 84.11C39.9934 85.37 39.7234 86.72 39.7234 88.16C39.7234 89.6 39.9934 90.965 40.5334 92.255C41.1034 93.515 41.8684 94.64 42.8284 95.63C43.7884 96.59 44.8984 97.355 46.1584 97.925C47.4484 98.465 48.8134 98.735 50.2534 98.735ZM84.2642 81.365C84.2942 80.765 84.2942 80.21 84.2642 79.7C84.2342 79.28 84.1742 78.89 84.0842 78.53C83.9942 78.17 83.8592 77.99 83.6792 77.99C83.3492 77.99 83.0342 78.38 82.7342 79.16C82.4342 79.91 81.9692 81.095 81.3392 82.715L72.8342 104H66.8492L75.3092 82.715C75.9392 81.005 76.5542 79.505 77.1542 78.215C77.7842 76.925 78.4592 75.86 79.1792 75.02C79.8992 74.15 80.6792 73.505 81.5192 73.085C82.3892 72.635 83.3792 72.41 84.4892 72.41C86.0792 72.41 87.3692 73.175 88.3592 74.705C89.3492 76.235 89.8442 78.455 89.8442 81.365V95.045C89.8142 95.675 89.8142 96.245 89.8442 96.755C89.8742 97.175 89.9192 97.565 89.9792 97.925C90.0392 98.255 90.1742 98.42 90.3842 98.42C90.6542 98.42 90.9092 98.135 91.1492 97.565C91.4192 96.995 91.7792 96.14 92.2292 95H92.1842L97.0892 82.715C97.7192 81.005 98.3342 79.505 98.9342 78.215C99.5642 76.925 100.239 75.86 100.959 75.02C101.679 74.15 102.459 73.505 103.299 73.085C104.169 72.635 105.159 72.41 106.269 72.41C107.859 72.41 109.149 73.175 110.139 74.705C111.129 76.235 111.624 78.455 111.624 81.365V104H106.044V81.365C106.074 80.765 106.074 80.21 106.044 79.7C106.014 79.28 105.954 78.89 105.864 78.53C105.774 78.17 105.639 77.99 105.459 77.99C105.129 77.99 104.814 78.38 104.514 79.16C104.214 79.91 103.749 81.095 103.119 82.715L98.7092 93.785C98.0792 95.495 97.4492 96.995 96.8192 98.285C96.2192 99.545 95.5592 100.61 94.8392 101.48C94.1492 102.32 93.3692 102.95 92.4992 103.37C91.6592 103.79 90.6842 104 89.5742 104C87.9842 104 86.6942 103.235 85.7042 101.705C84.7442 100.145 84.2642 97.925 84.2642 95.045V81.365ZM116.562 94.685C116.562 93.395 116.802 92.195 117.282 91.085C117.762 89.945 118.422 88.955 119.262 88.115C120.102 87.275 121.077 86.615 122.187 86.135C123.327 85.655 124.542 85.415 125.832 85.415H133.347C134.157 85.415 134.832 85.235 135.372 84.875C135.912 84.515 136.317 84.065 136.587 83.525C136.857 82.955 136.992 82.355 136.992 81.725C136.992 81.065 136.857 80.465 136.587 79.925C136.317 79.355 135.912 78.89 135.372 78.53C134.832 78.17 134.157 77.99 133.347 77.99H116.562V72.41H133.347C134.637 72.41 135.837 72.65 136.947 73.13C138.087 73.61 139.077 74.27 139.917 75.11C140.757 75.95 141.417 76.94 141.897 78.08C142.377 79.19 142.617 80.39 142.617 81.68C142.617 82.88 142.407 84.005 141.987 85.055C141.567 86.105 140.982 87.05 140.232 87.89C139.512 88.7 138.657 89.375 137.667 89.915C136.677 90.455 135.597 90.785 134.427 90.905V90.995H125.832C124.782 90.995 123.897 91.355 123.177 92.075C122.487 92.795 122.142 93.665 122.142 94.685V104H116.562V94.685ZM156.869 98.42H168.569V104H156.869C155.579 104 154.364 103.76 153.224 103.28C152.114 102.77 151.139 102.095 150.299 101.255C149.459 100.415 148.784 99.44 148.274 98.33C147.794 97.19 147.554 95.975 147.554 94.685V72.455H153.134V94.685C153.134 95.735 153.494 96.62 154.214 97.34C154.934 98.06 155.819 98.42 156.869 98.42ZM187 104C184.84 103.97 182.8 103.55 180.88 102.74C178.96 101.9 177.295 100.775 175.885 99.365C174.475 97.925 173.35 96.245 172.51 94.325C171.7 92.405 171.295 90.365 171.295 88.205C171.295 86.015 171.7 83.96 172.51 82.04C173.35 80.12 174.475 78.455 175.885 77.045C177.325 75.605 179.005 74.48 180.925 73.67C182.845 72.83 184.9 72.41 187.09 72.41H198.475V77.99H187.09C185.68 77.99 184.345 78.26 183.085 78.8C181.855 79.34 180.775 80.075 179.845 81.005C178.945 81.905 178.225 82.985 177.685 84.245C177.145 85.475 176.875 86.795 176.875 88.205C176.875 89.615 177.145 90.95 177.685 92.21C178.225 93.44 178.945 94.52 179.845 95.45C180.775 96.35 181.855 97.07 183.085 97.61C184.345 98.15 185.68 98.42 187.09 98.42H198.475V104H187ZM194.155 90.995V85.415H183.67V90.995H194.155ZM212.294 88.25C211.754 87.65 211.259 87.02 210.809 86.36C210.389 85.67 209.999 85.01 209.639 84.38C209.279 83.72 208.949 83.09 208.649 82.49C208.379 81.89 208.124 81.38 207.884 80.96L203.429 72.455H209.729L212.834 78.35C213.254 79.07 213.674 79.85 214.094 80.69C214.514 81.53 214.934 82.31 215.354 83.03C215.804 83.72 216.254 84.305 216.704 84.785C217.154 85.235 217.604 85.46 218.054 85.46C219.164 85.46 220.004 85.445 220.574 85.415C221.144 85.385 221.639 85.175 222.059 84.785C222.509 84.365 222.989 83.675 223.499 82.715C224.039 81.725 224.834 80.27 225.884 78.35L228.989 72.455H235.289L230.834 80.96C230.594 81.38 230.324 81.89 230.024 82.49C229.754 83.09 229.439 83.72 229.079 84.38C228.719 85.01 228.314 85.67 227.864 86.36C227.444 87.02 226.964 87.65 226.424 88.25C226.964 88.85 227.444 89.48 227.864 90.14C228.314 90.8 228.719 91.46 229.079 92.12C229.439 92.78 229.754 93.41 230.024 94.01C230.324 94.58 230.594 95.075 230.834 95.495L235.289 104H228.989L225.884 98.105C225.464 97.385 225.044 96.605 224.624 95.765C224.204 94.925 223.769 94.16 223.319 93.47C222.899 92.78 222.464 92.21 222.014 91.76C221.564 91.28 221.114 91.04 220.664 91.04C219.914 91.04 219.299 91.04 218.819 91.04C218.339 91.04 217.919 91.1 217.559 91.22C217.229 91.31 216.929 91.49 216.659 91.76C216.389 92 216.074 92.39 215.714 92.93C215.384 93.44 214.994 94.115 214.544 94.955C214.094 95.795 213.524 96.845 212.834 98.105L209.729 104H203.429L207.884 95.495C208.124 95.075 208.379 94.58 208.649 94.01C208.949 93.41 209.279 92.78 209.639 92.12C209.999 91.46 210.389 90.8 210.809 90.14C211.259 89.48 211.754 88.85 212.294 88.25ZM240.222 72.455H245.802V104H240.222V72.455ZM260.996 77.99H250.736V72.41H276.881V77.99H266.576V104H260.996V77.99ZM294.956 90.86C293.726 90.59 292.646 90.05 291.716 89.24C290.816 88.43 290.021 87.515 289.331 86.495C288.641 85.475 288.041 84.47 287.531 83.48C287.051 82.46 286.631 81.62 286.271 80.96L281.816 72.455H288.116L291.221 78.35C291.641 79.07 292.061 79.85 292.481 80.69C292.901 81.53 293.321 82.31 293.741 83.03C294.191 83.72 294.641 84.305 295.091 84.785C295.541 85.235 295.991 85.46 296.441 85.46C297.161 85.46 297.746 85.46 298.196 85.46C298.676 85.46 299.081 85.415 299.411 85.325C299.771 85.235 300.086 85.07 300.356 84.83C300.656 84.56 300.971 84.17 301.301 83.66C301.661 83.12 302.066 82.43 302.516 81.59C302.996 80.72 303.581 79.64 304.271 78.35L307.376 72.455H313.676L309.221 80.96C308.861 81.62 308.426 82.46 307.916 83.48C307.436 84.47 306.851 85.475 306.161 86.495C305.471 87.515 304.661 88.43 303.731 89.24C302.831 90.05 301.766 90.59 300.536 90.86V104H294.956V90.86ZM333.545 81.725C333.545 80.435 333.785 79.235 334.265 78.125C334.775 76.985 335.45 75.995 336.29 75.155C337.13 74.315 338.105 73.655 339.215 73.175C340.355 72.665 341.57 72.41 342.86 72.41H346.595C347.885 72.41 349.085 72.665 350.195 73.175C351.335 73.655 352.325 74.315 353.165 75.155C354.005 75.995 354.665 76.985 355.145 78.125C355.625 79.235 355.865 80.435 355.865 81.725C355.865 83.405 355.55 84.83 354.92 86C354.29 87.17 353.465 88.13 352.445 88.88C351.455 89.63 350.315 90.17 349.025 90.5C347.735 90.83 346.43 90.995 345.11 90.995C346.07 91.895 347.12 92.765 348.26 93.605C349.43 94.415 350.585 95.18 351.725 95.9C352.865 96.59 353.945 97.19 354.965 97.7C356.015 98.21 356.885 98.57 357.575 98.78L354.74 104C353.69 103.61 352.46 103.025 351.05 102.245C349.64 101.435 348.155 100.475 346.595 99.365C345.065 98.255 343.535 97.04 342.005 95.72C340.505 94.37 339.155 92.96 337.955 91.49C337.115 91.94 336.56 92.555 336.29 93.335C336.02 94.115 335.975 94.88 336.155 95.63C336.365 96.38 336.77 97.04 337.37 97.61C338 98.15 338.795 98.42 339.755 98.42H343.4V104H339.755C338.195 104 336.815 103.7 335.615 103.1C334.415 102.47 333.41 101.66 332.6 100.67C331.79 99.65 331.205 98.51 330.845 97.25C330.485 95.99 330.38 94.73 330.53 93.47C330.71 92.18 331.145 90.95 331.835 89.78C332.525 88.61 333.53 87.62 334.85 86.81C334.43 85.94 334.1 85.085 333.86 84.245C333.65 83.405 333.545 82.565 333.545 81.725ZM346.595 85.415C347.405 85.415 348.08 85.235 348.62 84.875C349.19 84.515 349.61 84.065 349.88 83.525C350.15 82.955 350.285 82.355 350.285 81.725C350.285 81.065 350.15 80.465 349.88 79.925C349.61 79.355 349.19 78.89 348.62 78.53C348.08 78.17 347.405 77.99 346.595 77.99H342.86C341.81 77.99 340.925 78.35 340.205 79.07C339.485 79.79 339.125 80.675 339.125 81.725C339.125 81.905 339.14 82.16 339.17 82.49C339.23 82.79 339.335 83.12 339.485 83.48C339.635 83.84 339.845 84.2 340.115 84.56C340.385 84.89 340.73 85.175 341.15 85.415H346.595ZM400.238 72.41V77.99H383.633C382.823 77.99 382.148 78.17 381.608 78.53C381.068 78.89 380.663 79.355 380.393 79.925C380.123 80.465 379.988 81.065 379.988 81.725C379.988 82.355 380.123 82.955 380.393 83.525C380.663 84.065 381.068 84.515 381.608 84.875C382.148 85.235 382.823 85.415 383.633 85.415H393.983C395.273 85.415 396.473 85.655 397.583 86.135C398.723 86.615 399.713 87.275 400.553 88.115C401.393 88.955 402.053 89.945 402.533 91.085C403.043 92.195 403.298 93.395 403.298 94.685C403.298 95.975 403.043 97.19 402.533 98.33C402.053 99.44 401.393 100.415 400.553 101.255C399.713 102.095 398.723 102.77 397.583 103.28C396.473 103.76 395.273 104 393.983 104H376.523V98.42H393.983C394.793 98.42 395.468 98.24 396.008 97.88C396.578 97.52 396.998 97.07 397.268 96.53C397.538 95.96 397.673 95.36 397.673 94.73C397.673 94.07 397.538 93.47 397.268 92.93C396.998 92.36 396.578 91.895 396.008 91.535C395.468 91.175 394.793 90.995 393.983 90.995H383.408C382.148 90.965 380.963 90.71 379.853 90.23C378.773 89.72 377.813 89.045 376.973 88.205C376.163 87.365 375.518 86.39 375.038 85.28C374.588 84.14 374.363 82.94 374.363 81.68C374.363 80.39 374.603 79.19 375.083 78.08C375.563 76.94 376.223 75.95 377.063 75.11C377.903 74.27 378.878 73.61 379.988 73.13C381.128 72.65 382.343 72.41 383.633 72.41H400.238ZM422.817 104C420.657 103.97 418.617 103.55 416.697 102.74C414.777 101.9 413.112 100.775 411.702 99.365C410.292 97.925 409.167 96.245 408.327 94.325C407.517 92.405 407.112 90.365 407.112 88.205C407.112 86.015 407.517 83.96 408.327 82.04C409.167 80.12 410.292 78.455 411.702 77.045C413.142 75.605 414.822 74.48 416.742 73.67C418.662 72.83 420.717 72.41 422.907 72.41H434.292V77.99H422.907C421.497 77.99 420.162 78.26 418.902 78.8C417.672 79.34 416.592 80.075 415.662 81.005C414.762 81.905 414.042 82.985 413.502 84.245C412.962 85.475 412.692 86.795 412.692 88.205C412.692 89.615 412.962 90.95 413.502 92.21C414.042 93.44 414.762 94.52 415.662 95.45C416.592 96.35 417.672 97.07 418.902 97.61C420.162 98.15 421.497 98.42 422.907 98.42H434.292V104H422.817ZM429.972 90.995V85.415H419.487V90.995H429.972ZM452.711 104C450.551 103.97 448.511 103.55 446.591 102.74C444.671 101.9 443.006 100.775 441.596 99.365C440.186 97.925 439.061 96.245 438.221 94.325C437.411 92.405 437.006 90.365 437.006 88.205C437.006 86.015 437.411 83.96 438.221 82.04C439.061 80.12 440.186 78.455 441.596 77.045C443.036 75.605 444.716 74.48 446.636 73.67C448.556 72.83 450.596 72.41 452.756 72.41H464.186V77.99H452.756C451.346 77.99 450.026 78.26 448.796 78.8C447.566 79.34 446.486 80.075 445.556 81.005C444.626 81.905 443.891 82.985 443.351 84.245C442.841 85.475 442.586 86.795 442.586 88.205C442.586 89.615 442.841 90.95 443.351 92.21C443.891 93.44 444.626 94.52 445.556 95.45C446.486 96.35 447.566 97.07 448.796 97.61C450.026 98.15 451.346 98.42 452.756 98.42H464.186V104H452.711ZM481.83 104.09C480.06 104.09 478.41 103.76 476.88 103.1C475.35 102.44 474 101.54 472.83 100.4C471.69 99.23 470.79 97.88 470.13 96.35C469.47 94.82 469.14 93.17 469.14 91.4V72.5H474.72V91.4C474.72 92.39 474.9 93.32 475.26 94.19C475.65 95.03 476.16 95.78 476.79 96.44C477.45 97.07 478.2 97.58 479.04 97.97C479.91 98.33 480.84 98.51 481.83 98.51C482.82 98.51 483.735 98.33 484.575 97.97C485.445 97.58 486.195 97.07 486.825 96.44C487.455 95.78 487.95 95.03 488.31 94.19C488.7 93.32 488.895 92.39 488.895 91.4V72.5H494.475V91.4C494.475 93.17 494.145 94.82 493.485 96.35C492.825 97.88 491.91 99.23 490.74 100.4C489.6 101.54 488.265 102.44 486.735 103.1C485.205 103.76 483.57 104.09 481.83 104.09ZM519.724 90.32L527.014 104H520.714L517.609 98.06C517.189 97.34 516.754 96.56 516.304 95.72C515.884 94.88 515.464 94.115 515.044 93.425C514.624 92.735 514.189 92.165 513.739 91.715C513.289 91.235 512.839 90.995 512.389 90.995H508.699C507.679 90.995 506.809 91.355 506.089 92.075C505.369 92.795 505.009 93.665 505.009 94.685V104H499.429V94.685C499.429 93.395 499.669 92.195 500.149 91.085C500.629 89.945 501.289 88.955 502.129 88.115C502.969 87.275 503.944 86.615 505.054 86.135C506.194 85.655 507.409 85.415 508.699 85.415H516.214C517.024 85.415 517.699 85.235 518.239 84.875C518.809 84.515 519.229 84.065 519.499 83.525C519.769 82.955 519.904 82.355 519.904 81.725C519.904 81.065 519.769 80.465 519.499 79.925C519.229 79.355 518.809 78.89 518.239 78.53C517.699 78.17 517.024 77.99 516.214 77.99H499.429V72.41H516.214C517.894 72.41 519.364 72.77 520.624 73.49C521.914 74.18 522.949 75.08 523.729 76.19C524.509 77.3 525.034 78.545 525.304 79.925C525.574 81.305 525.544 82.655 525.214 83.975C524.914 85.295 524.314 86.525 523.414 87.665C522.514 88.805 521.284 89.69 519.724 90.32ZM531.959 72.455H537.539V104H531.959V72.455ZM552.733 77.99H542.473V72.41H568.618V77.99H558.313V104H552.733V77.99ZM586.693 90.86C585.463 90.59 584.383 90.05 583.453 89.24C582.553 88.43 581.758 87.515 581.068 86.495C580.378 85.475 579.778 84.47 579.268 83.48C578.788 82.46 578.368 81.62 578.008 80.96L573.553 72.455H579.853L582.958 78.35C583.378 79.07 583.798 79.85 584.218 80.69C584.638 81.53 585.058 82.31 585.478 83.03C585.928 83.72 586.378 84.305 586.828 84.785C587.278 85.235 587.728 85.46 588.178 85.46C588.898 85.46 589.483 85.46 589.933 85.46C590.413 85.46 590.818 85.415 591.148 85.325C591.508 85.235 591.823 85.07 592.093 84.83C592.393 84.56 592.708 84.17 593.038 83.66C593.398 83.12 593.803 82.43 594.253 81.59C594.733 80.72 595.318 79.64 596.008 78.35L599.113 72.455H605.413L600.958 80.96C600.598 81.62 600.163 82.46 599.653 83.48C599.173 84.47 598.588 85.475 597.898 86.495C597.208 87.515 596.398 88.43 595.468 89.24C594.568 90.05 593.503 90.59 592.273 90.86V104H586.693V90.86Z" fill="#3B10D8"/>
</g>
<defs>
<filter id="filter0_d_270590_279" x="0.25" y="0.22998" width="671.992" height="112.085" filterUnits="userSpaceOnUse" color-interpolation-filters="sRGB">
<feFlood flood-opacity="0" result="BackgroundImageFix"/>
<feColorMatrix in="SourceAlpha" type="matrix" values="0 0 0 0 0 0 0 0 0 0 0 0 0 0 0 0 0 0 127 0" result="hardAlpha"/>
<feOffset dy="4"/>
<feGaussianBlur stdDeviation="2"/>
<feComposite in2="hardAlpha" operator="out"/>
<feColorMatrix type="matrix" values="0 0 0 0 0 0 0 0 0 0 0 0 0 0 0 0 0 0 0.25 0"/>
<feBlend mode="normal" in2="BackgroundImageFix" result="effect1_dropShadow_270590_279"/>
<feBlend mode="normal" in="SourceGraphic" in2="effect1_dropShadow_270590_279" result="shape"/>
</filter>
</defs>
</svg>
