<svg width="455" height="190" viewBox="0 0 455 190" fill="none" xmlns="http://www.w3.org/2000/svg">
<path d="M29.584 25.544C29.552 26.216 29.552 26.824 29.584 27.368C29.616 27.816 29.664 28.232 29.728 28.616C29.792 28.968 29.936 29.144 30.16 29.144C30.512 29.144 30.848 28.728 31.168 27.896C31.488 27.064 31.984 25.784 32.656 24.056L41.728 1.4H48.112L39.088 24.056C38.416 25.88 37.744 27.496 37.072 28.904C36.432 30.28 35.728 31.432 34.96 32.36C34.192 33.256 33.344 33.944 32.416 34.424C31.52 34.872 30.48 35.096 29.296 35.096C27.6 35.096 26.224 34.28 25.168 32.648C24.144 30.984 23.632 28.616 23.632 25.544V10.952C23.664 10.312 23.664 9.72 23.632 9.176C23.6 8.728 23.536 8.312 23.44 7.928C23.344 7.544 23.2 7.352 23.008 7.352C22.72 7.352 22.432 7.656 22.144 8.264C21.888 8.84 21.52 9.736 21.04 10.952H21.088L15.856 24.056C15.184 25.88 14.512 27.496 13.84 28.904C13.2 30.28 12.496 31.432 11.728 32.36C10.96 33.256 10.112 33.944 9.184 34.424C8.288 34.872 7.248 35.096 6.064 35.096C4.368 35.096 2.992 34.28 1.936 32.648C0.912 30.984 0.4 28.616 0.4 25.544V1.4H6.352V25.544C6.32 26.216 6.32 26.824 6.352 27.368C6.384 27.816 6.432 28.232 6.496 28.616C6.56 28.968 6.704 29.144 6.928 29.144C7.28 29.144 7.616 28.728 7.936 27.896C8.256 27.064 8.752 25.784 9.424 24.056L14.128 12.248C14.8 10.456 15.456 8.888 16.096 7.544C16.768 6.168 17.472 5.032 18.208 4.136C18.976 3.208 19.808 2.52 20.704 2.072C21.632 1.624 22.688 1.4 23.872 1.4C25.568 1.4 26.944 2.216 28 3.848C29.056 5.48 29.584 7.848 29.584 10.952V25.544ZM65.3508 35C63.0468 34.968 60.8708 34.52 58.8228 33.656C56.7748 32.76 54.9988 31.56 53.4948 30.056C51.9907 28.52 50.7907 26.728 49.8947 24.68C49.0307 22.632 48.5987 20.456 48.5987 18.152C48.5987 15.816 49.0307 13.624 49.8947 11.576C50.7907 9.528 51.9907 7.752 53.4948 6.248C55.0307 4.712 56.8227 3.512 58.8707 2.648C60.9187 1.752 63.1108 1.304 65.4468 1.304H77.5908V7.256H65.4468C63.9427 7.256 62.5187 7.544 61.1747 8.12C59.8628 8.696 58.7108 9.48 57.7188 10.472C56.7587 11.432 55.9907 12.584 55.4147 13.928C54.8387 15.24 54.5508 16.648 54.5508 18.152C54.5508 19.656 54.8387 21.08 55.4147 22.424C55.9907 23.736 56.7587 24.888 57.7188 25.88C58.7108 26.84 59.8628 27.608 61.1747 28.184C62.5187 28.76 63.9427 29.048 65.4468 29.048H77.5908V35H65.3508ZM72.9828 21.128V15.176H61.7988V21.128H72.9828ZM123.096 1.304V7.256H105.384C104.52 7.256 103.8 7.448 103.224 7.832C102.648 8.216 102.216 8.712 101.928 9.32C101.64 9.896 101.496 10.536 101.496 11.24C101.496 11.912 101.64 12.552 101.928 13.16C102.216 13.736 102.648 14.216 103.224 14.6C103.8 14.984 104.52 15.176 105.384 15.176H116.424C117.8 15.176 119.08 15.432 120.264 15.944C121.48 16.456 122.536 17.16 123.432 18.056C124.328 18.952 125.032 20.008 125.544 21.224C126.088 22.408 126.36 23.688 126.36 25.064C126.36 26.44 126.088 27.736 125.544 28.952C125.032 30.136 124.328 31.176 123.432 32.072C122.536 32.968 121.48 33.688 120.264 34.232C119.08 34.744 117.8 35 116.424 35H97.8003V29.048H116.424C117.288 29.048 118.008 28.856 118.584 28.472C119.192 28.088 119.64 27.608 119.928 27.032C120.216 26.424 120.36 25.784 120.36 25.112C120.36 24.408 120.216 23.768 119.928 23.192C119.64 22.584 119.192 22.088 118.584 21.704C118.008 21.32 117.288 21.128 116.424 21.128H105.144C103.8 21.096 102.536 20.824 101.352 20.312C100.2 19.768 99.1763 19.048 98.2803 18.152C97.4163 17.256 96.7283 16.216 96.2163 15.032C95.7363 13.816 95.4963 12.536 95.4963 11.192C95.4963 9.816 95.7523 8.536 96.2643 7.352C96.7763 6.136 97.4803 5.08 98.3763 4.184C99.2723 3.288 100.312 2.584 101.496 2.072C102.712 1.56 104.008 1.304 105.384 1.304H123.096ZM145.184 35.096C143.296 35.096 141.536 34.744 139.904 34.04C138.272 33.336 136.832 32.376 135.584 31.16C134.368 29.912 133.408 28.472 132.704 26.84C132 25.208 131.648 23.448 131.648 21.56V1.4H137.6V21.56C137.6 22.616 137.792 23.608 138.176 24.536C138.592 25.432 139.136 26.232 139.808 26.936C140.512 27.608 141.312 28.152 142.208 28.568C143.136 28.952 144.128 29.144 145.184 29.144C146.24 29.144 147.216 28.952 148.112 28.568C149.04 28.152 149.84 27.608 150.512 26.936C151.184 26.232 151.712 25.432 152.096 24.536C152.512 23.608 152.72 22.616 152.72 21.56V1.4H158.672V21.56C158.672 23.448 158.32 25.208 157.616 26.84C156.912 28.472 155.936 29.912 154.688 31.16C153.472 32.376 152.048 33.336 150.416 34.04C148.784 34.744 147.04 35.096 145.184 35.096ZM163.956 25.064C163.956 23.688 164.212 22.408 164.724 21.224C165.236 20.008 165.94 18.952 166.836 18.056C167.732 17.16 168.772 16.456 169.956 15.944C171.172 15.432 172.468 15.176 173.844 15.176H181.86C182.724 15.176 183.444 14.984 184.02 14.6C184.596 14.216 185.028 13.736 185.316 13.16C185.604 12.552 185.748 11.912 185.748 11.24C185.748 10.536 185.604 9.896 185.316 9.32C185.028 8.712 184.596 8.216 184.02 7.832C183.444 7.448 182.724 7.256 181.86 7.256H163.956V1.304H181.86C183.236 1.304 184.516 1.56 185.7 2.072C186.916 2.584 187.972 3.288 188.868 4.184C189.764 5.08 190.468 6.136 190.98 7.352C191.492 8.536 191.748 9.816 191.748 11.192C191.748 12.472 191.524 13.672 191.076 14.792C190.628 15.912 190.004 16.92 189.204 17.816C188.436 18.68 187.524 19.4 186.468 19.976C185.412 20.552 184.26 20.904 183.012 21.032V21.128H173.844C172.724 21.128 171.78 21.512 171.012 22.28C170.276 23.048 169.908 23.976 169.908 25.064V35H163.956V25.064ZM197.014 25.064C197.014 23.688 197.27 22.408 197.782 21.224C198.294 20.008 198.998 18.952 199.894 18.056C200.79 17.16 201.83 16.456 203.014 15.944C204.23 15.432 205.526 15.176 206.902 15.176H214.918C215.782 15.176 216.502 14.984 217.078 14.6C217.654 14.216 218.086 13.736 218.374 13.16C218.662 12.552 218.806 11.912 218.806 11.24C218.806 10.536 218.662 9.896 218.374 9.32C218.086 8.712 217.654 8.216 217.078 7.832C216.502 7.448 215.782 7.256 214.918 7.256H197.014V1.304H214.918C216.294 1.304 217.574 1.56 218.758 2.072C219.974 2.584 221.03 3.288 221.926 4.184C222.822 5.08 223.526 6.136 224.038 7.352C224.55 8.536 224.806 9.816 224.806 11.192C224.806 12.472 224.582 13.672 224.134 14.792C223.686 15.912 223.062 16.92 222.262 17.816C221.494 18.68 220.582 19.4 219.526 19.976C218.47 20.552 217.318 20.904 216.07 21.032V21.128H206.902C205.782 21.128 204.838 21.512 204.07 22.28C203.334 23.048 202.966 23.976 202.966 25.064V35H197.014V25.064ZM246.038 0.967998C248.406 0.967998 250.63 1.416 252.71 2.312C254.79 3.208 256.614 4.44 258.182 6.008C259.75 7.544 260.982 9.368 261.878 11.48C262.774 13.56 263.222 15.784 263.222 18.152C263.222 20.52 262.774 22.744 261.878 24.824C260.982 26.904 259.75 28.728 258.182 30.296C256.614 31.864 254.79 33.096 252.71 33.992C250.63 34.888 248.406 35.336 246.038 35.336C243.67 35.336 241.43 34.888 239.318 33.992C237.238 33.096 235.414 31.864 233.846 30.296C232.31 28.728 231.094 26.904 230.198 24.824C229.302 22.744 228.854 20.52 228.854 18.152C228.854 15.784 229.302 13.56 230.198 11.48C231.094 9.368 232.31 7.544 233.846 6.008C235.414 4.44 237.238 3.208 239.318 2.312C241.43 1.416 243.67 0.967998 246.038 0.967998ZM246.038 29.384C247.574 29.384 249.014 29.096 250.358 28.52C251.734 27.912 252.934 27.096 253.958 26.072C254.982 25.016 255.782 23.816 256.358 22.472C256.966 21.096 257.27 19.64 257.27 18.104C257.27 16.568 256.966 15.128 256.358 13.784C255.782 12.408 254.982 11.224 253.958 10.232C252.934 9.208 251.734 8.408 250.358 7.832C249.014 7.224 247.574 6.92 246.038 6.92C244.502 6.92 243.046 7.224 241.67 7.832C240.326 8.408 239.142 9.208 238.118 10.232C237.094 11.224 236.278 12.408 235.67 13.784C235.094 15.128 234.806 16.568 234.806 18.104C234.806 19.64 235.094 21.096 235.67 22.472C236.278 23.816 237.094 25.016 238.118 26.072C239.142 27.096 240.326 27.912 241.67 28.52C243.046 29.096 244.502 29.384 246.038 29.384ZM288.95 20.408L296.726 35H290.006L286.694 28.664C286.246 27.896 285.782 27.064 285.302 26.168C284.854 25.272 284.406 24.456 283.958 23.72C283.51 22.984 283.046 22.376 282.566 21.896C282.086 21.384 281.606 21.128 281.126 21.128H277.19C276.102 21.128 275.174 21.512 274.406 22.28C273.638 23.048 273.254 23.976 273.254 25.064V35H267.302V25.064C267.302 23.688 267.558 22.408 268.07 21.224C268.582 20.008 269.286 18.952 270.182 18.056C271.078 17.16 272.118 16.456 273.302 15.944C274.518 15.432 275.814 15.176 277.19 15.176H285.206C286.07 15.176 286.79 14.984 287.366 14.6C287.974 14.216 288.422 13.736 288.71 13.16C288.998 12.552 289.142 11.912 289.142 11.24C289.142 10.536 288.998 9.896 288.71 9.32C288.422 8.712 287.974 8.216 287.366 7.832C286.79 7.448 286.07 7.256 285.206 7.256H267.302V1.304H285.206C286.998 1.304 288.566 1.688 289.91 2.456C291.286 3.192 292.39 4.152 293.222 5.336C294.054 6.52 294.614 7.848 294.902 9.32C295.19 10.792 295.158 12.232 294.806 13.64C294.486 15.048 293.846 16.36 292.886 17.576C291.926 18.792 290.614 19.736 288.95 20.408ZM310.555 7.256H299.611V1.304H327.499V7.256H316.507V35H310.555V7.256ZM359.399 20.984C358.087 20.696 356.935 20.12 355.943 19.256C354.983 18.392 354.135 17.416 353.399 16.328C352.663 15.24 352.023 14.168 351.479 13.112C350.967 12.024 350.519 11.128 350.135 10.424L345.383 1.352H352.103L355.415 7.64C355.863 8.408 356.311 9.24 356.759 10.136C357.207 11.032 357.655 11.864 358.103 12.632C358.583 13.368 359.063 13.992 359.543 14.504C360.023 14.984 360.503 15.224 360.983 15.224C361.751 15.224 362.375 15.224 362.855 15.224C363.367 15.224 363.799 15.176 364.151 15.08C364.535 14.984 364.871 14.808 365.159 14.552C365.479 14.264 365.815 13.848 366.167 13.304C366.551 12.728 366.983 11.992 367.463 11.096C367.975 10.168 368.599 9.016 369.335 7.64L372.647 1.352H379.367L374.615 10.424C374.231 11.128 373.767 12.024 373.223 13.112C372.711 14.168 372.087 15.24 371.351 16.328C370.615 17.416 369.751 18.392 368.759 19.256C367.799 20.12 366.663 20.696 365.351 20.984V35H359.399V20.984ZM395.813 0.967998C398.181 0.967998 400.405 1.416 402.485 2.312C404.565 3.208 406.389 4.44 407.957 6.008C409.525 7.544 410.757 9.368 411.653 11.48C412.549 13.56 412.997 15.784 412.997 18.152C412.997 20.52 412.549 22.744 411.653 24.824C410.757 26.904 409.525 28.728 407.957 30.296C406.389 31.864 404.565 33.096 402.485 33.992C400.405 34.888 398.181 35.336 395.813 35.336C393.445 35.336 391.205 34.888 389.093 33.992C387.013 33.096 385.189 31.864 383.621 30.296C382.085 28.728 380.869 26.904 379.973 24.824C379.077 22.744 378.629 20.52 378.629 18.152C378.629 15.784 379.077 13.56 379.973 11.48C380.869 9.368 382.085 7.544 383.621 6.008C385.189 4.44 387.013 3.208 389.093 2.312C391.205 1.416 393.445 0.967998 395.813 0.967998ZM395.813 29.384C397.349 29.384 398.789 29.096 400.133 28.52C401.509 27.912 402.709 27.096 403.733 26.072C404.757 25.016 405.557 23.816 406.133 22.472C406.741 21.096 407.045 19.64 407.045 18.104C407.045 16.568 406.741 15.128 406.133 13.784C405.557 12.408 404.757 11.224 403.733 10.232C402.709 9.208 401.509 8.408 400.133 7.832C398.789 7.224 397.349 6.92 395.813 6.92C394.277 6.92 392.821 7.224 391.445 7.832C390.101 8.408 388.917 9.208 387.893 10.232C386.869 11.224 386.053 12.408 385.445 13.784C384.869 15.128 384.581 16.568 384.581 18.104C384.581 19.64 384.869 21.096 385.445 22.472C386.053 23.816 386.869 25.016 387.893 26.072C388.917 27.096 390.101 27.912 391.445 28.52C392.821 29.096 394.277 29.384 395.813 29.384ZM430.613 35.096C428.725 35.096 426.965 34.744 425.333 34.04C423.701 33.336 422.261 32.376 421.013 31.16C419.797 29.912 418.837 28.472 418.133 26.84C417.429 25.208 417.077 23.448 417.077 21.56V1.4H423.029V21.56C423.029 22.616 423.221 23.608 423.605 24.536C424.021 25.432 424.565 26.232 425.237 26.936C425.941 27.608 426.741 28.152 427.637 28.568C428.565 28.952 429.557 29.144 430.613 29.144C431.669 29.144 432.645 28.952 433.541 28.568C434.469 28.152 435.269 27.608 435.941 26.936C436.613 26.232 437.141 25.432 437.525 24.536C437.941 23.608 438.149 22.616 438.149 21.56V1.4H444.101V21.56C444.101 23.448 443.749 25.208 443.045 26.84C442.341 28.472 441.365 29.912 440.117 31.16C438.901 32.376 437.477 33.336 435.845 34.04C434.213 34.744 432.469 35.096 430.613 35.096ZM11.344 84.256H0.4V78.304H28.288V84.256H17.296V112H11.344V84.256ZM56.7839 97.984H39.5039V112H33.5519V78.352H39.5039V92.032H56.7839V78.352H62.7359V112H56.7839V97.984ZM89.6643 97.408L97.4403 112H90.7202L87.4083 105.664C86.9603 104.896 86.4963 104.064 86.0162 103.168C85.5682 102.272 85.1202 101.456 84.6722 100.72C84.2242 99.984 83.7603 99.376 83.2803 98.896C82.8003 98.384 82.3203 98.128 81.8403 98.128H77.9042C76.8162 98.128 75.8882 98.512 75.1202 99.28C74.3522 100.048 73.9682 100.976 73.9682 102.064V112H68.0162V102.064C68.0162 100.688 68.2722 99.408 68.7842 98.224C69.2962 97.008 70.0002 95.952 70.8962 95.056C71.7922 94.16 72.8322 93.456 74.0162 92.944C75.2322 92.432 76.5282 92.176 77.9042 92.176H85.9202C86.7842 92.176 87.5043 91.984 88.0803 91.6C88.6883 91.216 89.1363 90.736 89.4243 90.16C89.7122 89.552 89.8562 88.912 89.8562 88.24C89.8562 87.536 89.7122 86.896 89.4243 86.32C89.1363 85.712 88.6883 85.216 88.0803 84.832C87.5043 84.448 86.7842 84.256 85.9202 84.256H68.0162V78.304H85.9202C87.7123 78.304 89.2803 78.688 90.6243 79.456C92.0002 80.192 93.1042 81.152 93.9363 82.336C94.7683 83.52 95.3283 84.848 95.6162 86.32C95.9042 87.792 95.8722 89.232 95.5203 90.64C95.2003 92.048 94.5603 93.36 93.6002 94.576C92.6403 95.792 91.3283 96.736 89.6643 97.408ZM116.29 77.968C118.658 77.968 120.882 78.416 122.962 79.312C125.042 80.208 126.866 81.44 128.434 83.008C130.002 84.544 131.234 86.368 132.13 88.48C133.026 90.56 133.474 92.784 133.474 95.152C133.474 97.52 133.026 99.744 132.13 101.824C131.234 103.904 130.002 105.728 128.434 107.296C126.866 108.864 125.042 110.096 122.962 110.992C120.882 111.888 118.658 112.336 116.29 112.336C113.922 112.336 111.682 111.888 109.57 110.992C107.49 110.096 105.666 108.864 104.098 107.296C102.562 105.728 101.346 103.904 100.45 101.824C99.5536 99.744 99.1056 97.52 99.1056 95.152C99.1056 92.784 99.5536 90.56 100.45 88.48C101.346 86.368 102.562 84.544 104.098 83.008C105.666 81.44 107.49 80.208 109.57 79.312C111.682 78.416 113.922 77.968 116.29 77.968ZM116.29 106.384C117.826 106.384 119.266 106.096 120.61 105.52C121.986 104.912 123.186 104.096 124.21 103.072C125.234 102.016 126.034 100.816 126.61 99.472C127.218 98.096 127.522 96.64 127.522 95.104C127.522 93.568 127.218 92.128 126.61 90.784C126.034 89.408 125.234 88.224 124.21 87.232C123.186 86.208 121.986 85.408 120.61 84.832C119.266 84.224 117.826 83.92 116.29 83.92C114.754 83.92 113.298 84.224 111.922 84.832C110.578 85.408 109.394 86.208 108.37 87.232C107.346 88.224 106.53 89.408 105.922 90.784C105.346 92.128 105.058 93.568 105.058 95.104C105.058 96.64 105.346 98.096 105.922 99.472C106.53 100.816 107.346 102.016 108.37 103.072C109.394 104.096 110.578 104.912 111.922 105.52C113.298 106.096 114.754 106.384 116.29 106.384ZM151.09 112.096C149.202 112.096 147.442 111.744 145.81 111.04C144.178 110.336 142.738 109.376 141.49 108.16C140.274 106.912 139.314 105.472 138.61 103.84C137.906 102.208 137.554 100.448 137.554 98.56V78.4H143.506V98.56C143.506 99.616 143.698 100.608 144.082 101.536C144.498 102.432 145.042 103.232 145.714 103.936C146.418 104.608 147.218 105.152 148.114 105.568C149.042 105.952 150.034 106.144 151.09 106.144C152.146 106.144 153.122 105.952 154.018 105.568C154.946 105.152 155.746 104.608 156.418 103.936C157.09 103.232 157.618 102.432 158.002 101.536C158.418 100.608 158.626 99.616 158.626 98.56V78.4H164.578V98.56C164.578 100.448 164.226 102.208 163.522 103.84C162.818 105.472 161.842 106.912 160.594 108.16C159.378 109.376 157.954 110.336 156.322 111.04C154.69 111.744 152.946 112.096 151.09 112.096ZM192.902 98.176H183.302V92.224H192.902C194.278 92.224 195.558 92.48 196.742 92.992C197.958 93.504 199.014 94.208 199.91 95.104C200.806 96 201.51 97.056 202.022 98.272C202.534 99.456 202.79 100.736 202.79 102.112C202.79 103.488 202.534 104.784 202.022 106C201.51 107.184 200.806 108.224 199.91 109.12C199.014 110.016 197.958 110.72 196.742 111.232C195.558 111.744 194.278 112 192.902 112H186.614C184.31 112 182.134 111.552 180.086 110.656C178.038 109.76 176.262 108.56 174.758 107.056C173.254 105.552 172.054 103.776 171.158 101.728C170.294 99.68 169.862 97.504 169.862 95.2C169.862 92.864 170.294 90.672 171.158 88.624C172.054 86.576 173.254 84.8 174.758 83.296C176.294 81.76 178.086 80.56 180.134 79.696C182.182 78.8 184.374 78.352 186.71 78.352H198.854V84.304H186.71C185.206 84.304 183.782 84.592 182.438 85.168C181.126 85.744 179.974 86.528 178.982 87.52C177.99 88.48 177.206 89.632 176.63 90.976C176.086 92.288 175.814 93.696 175.814 95.2C175.814 96.704 176.086 98.112 176.63 99.424C177.206 100.736 177.99 101.888 178.982 102.88C179.974 103.872 181.126 104.656 182.438 105.232C183.782 105.776 185.206 106.048 186.71 106.048H192.902C194.214 106.048 195.19 105.648 195.83 104.848C196.502 104.016 196.838 103.104 196.838 102.112C196.838 101.12 196.502 100.224 195.83 99.424C195.19 98.592 194.214 98.176 192.902 98.176ZM231.309 97.984H214.029V112H208.077V78.352H214.029V92.032H231.309V78.352H237.261V112H231.309V97.984ZM258.507 77.968C260.875 77.968 263.099 78.416 265.179 79.312C267.259 80.208 269.083 81.44 270.651 83.008C272.219 84.544 273.451 86.368 274.347 88.48C275.243 90.56 275.691 92.784 275.691 95.152C275.691 97.52 275.243 99.744 274.347 101.824C273.451 103.904 272.219 105.728 270.651 107.296C269.083 108.864 267.259 110.096 265.179 110.992C263.099 111.888 260.875 112.336 258.507 112.336C256.139 112.336 253.899 111.888 251.787 110.992C249.707 110.096 247.883 108.864 246.315 107.296C244.779 105.728 243.563 103.904 242.667 101.824C241.771 99.744 241.323 97.52 241.323 95.152C241.323 92.784 241.771 90.56 242.667 88.48C243.563 86.368 244.779 84.544 246.315 83.008C247.883 81.44 249.707 80.208 251.787 79.312C253.899 78.416 256.139 77.968 258.507 77.968ZM258.507 106.384C260.043 106.384 261.483 106.096 262.827 105.52C264.203 104.912 265.403 104.096 266.427 103.072C267.451 102.016 268.251 100.816 268.827 99.472C269.435 98.096 269.739 96.64 269.739 95.104C269.739 93.568 269.435 92.128 268.827 90.784C268.251 89.408 267.451 88.224 266.427 87.232C265.403 86.208 264.203 85.408 262.827 84.832C261.483 84.224 260.043 83.92 258.507 83.92C256.971 83.92 255.515 84.224 254.139 84.832C252.795 85.408 251.611 86.208 250.587 87.232C249.563 88.224 248.747 89.408 248.139 90.784C247.563 92.128 247.275 93.568 247.275 95.104C247.275 96.64 247.563 98.096 248.139 99.472C248.747 100.816 249.563 102.016 250.587 103.072C251.611 104.096 252.795 104.912 254.139 105.52C255.515 106.096 256.971 106.384 258.507 106.384ZM293.307 112.096C291.419 112.096 289.659 111.744 288.027 111.04C286.395 110.336 284.955 109.376 283.707 108.16C282.491 106.912 281.531 105.472 280.827 103.84C280.123 102.208 279.771 100.448 279.771 98.56V78.4H285.723V98.56C285.723 99.616 285.915 100.608 286.299 101.536C286.715 102.432 287.259 103.232 287.931 103.936C288.635 104.608 289.435 105.152 290.331 105.568C291.259 105.952 292.251 106.144 293.307 106.144C294.363 106.144 295.339 105.952 296.235 105.568C297.163 105.152 297.963 104.608 298.635 103.936C299.307 103.232 299.835 102.432 300.219 101.536C300.635 100.608 300.843 99.616 300.843 98.56V78.4H306.795V98.56C306.795 100.448 306.443 102.208 305.739 103.84C305.035 105.472 304.059 106.912 302.811 108.16C301.595 109.376 300.171 110.336 298.539 111.04C296.907 111.744 295.163 112.096 293.307 112.096ZM323.023 84.256H312.079V78.304H339.967V84.256H328.975V112H323.023V84.256ZM368.796 84.256H357.852V78.304H385.74V84.256H374.748V112H368.796V84.256ZM414.236 97.984H396.956V112H391.004V78.352H396.956V92.032H414.236V78.352H420.188V112H414.236V97.984ZM442.22 112C439.916 111.968 437.74 111.52 435.692 110.656C433.644 109.76 431.868 108.56 430.364 107.056C428.86 105.52 427.66 103.728 426.764 101.68C425.9 99.632 425.468 97.456 425.468 95.152C425.468 92.816 425.9 90.624 426.764 88.576C427.66 86.528 428.86 84.752 430.364 83.248C431.9 81.712 433.692 80.512 435.74 79.648C437.788 78.752 439.98 78.304 442.316 78.304H454.46V84.256H442.316C440.812 84.256 439.388 84.544 438.044 85.12C436.732 85.696 435.58 86.48 434.588 87.472C433.628 88.432 432.86 89.584 432.284 90.928C431.708 92.24 431.42 93.648 431.42 95.152C431.42 96.656 431.708 98.08 432.284 99.424C432.86 100.736 433.628 101.888 434.588 102.88C435.58 103.84 436.732 104.608 438.044 105.184C439.388 105.76 440.812 106.048 442.316 106.048H454.46V112H442.22ZM449.852 98.128V92.176H438.668V98.128H449.852ZM0.4 179.064C0.4 177.688 0.656 176.408 1.168 175.224C1.68 174.008 2.384 172.952 3.28 172.056C4.176 171.16 5.216 170.456 6.4 169.944C7.616 169.432 8.912 169.176 10.288 169.176H18.304C19.168 169.176 19.888 168.984 20.464 168.6C21.04 168.216 21.472 167.736 21.76 167.16C22.048 166.552 22.192 165.912 22.192 165.24C22.192 164.536 22.048 163.896 21.76 163.32C21.472 162.712 21.04 162.216 20.464 161.832C19.888 161.448 19.168 161.256 18.304 161.256H0.4V155.304H18.304C19.68 155.304 20.96 155.56 22.144 156.072C23.36 156.584 24.416 157.288 25.312 158.184C26.208 159.08 26.912 160.136 27.424 161.352C27.936 162.536 28.192 163.816 28.192 165.192C28.192 166.472 27.968 167.672 27.52 168.792C27.072 169.912 26.448 170.92 25.648 171.816C24.88 172.68 23.968 173.4 22.912 173.976C21.856 174.552 20.704 174.904 19.456 175.032V175.128H10.288C9.168 175.128 8.224 175.512 7.456 176.28C6.72 177.048 6.352 177.976 6.352 179.064V189H0.4V179.064ZM53.8874 174.408L61.6634 189H54.9434L51.6314 182.664C51.1834 181.896 50.7194 181.064 50.2394 180.168C49.7914 179.272 49.3434 178.456 48.8954 177.72C48.4474 176.984 47.9834 176.376 47.5034 175.896C47.0234 175.384 46.5434 175.128 46.0634 175.128H42.1274C41.0394 175.128 40.1114 175.512 39.3434 176.28C38.5754 177.048 38.1914 177.976 38.1914 179.064V189H32.2394V179.064C32.2394 177.688 32.4954 176.408 33.0074 175.224C33.5194 174.008 34.2234 172.952 35.1194 172.056C36.0154 171.16 37.0554 170.456 38.2394 169.944C39.4554 169.432 40.7514 169.176 42.1274 169.176H50.1434C51.0074 169.176 51.7274 168.984 52.3034 168.6C52.9114 168.216 53.3594 167.736 53.6474 167.16C53.9354 166.552 54.0794 165.912 54.0794 165.24C54.0794 164.536 53.9354 163.896 53.6474 163.32C53.3594 162.712 52.9114 162.216 52.3034 161.832C51.7274 161.448 51.0074 161.256 50.1434 161.256H32.2394V155.304H50.1434C51.9354 155.304 53.5034 155.688 54.8474 156.456C56.2234 157.192 57.3274 158.152 58.1594 159.336C58.9914 160.52 59.5514 161.848 59.8394 163.32C60.1274 164.792 60.0954 166.232 59.7434 167.64C59.4234 169.048 58.7834 170.36 57.8234 171.576C56.8634 172.792 55.5514 173.736 53.8874 174.408ZM80.5128 154.968C82.8808 154.968 85.1048 155.416 87.1848 156.312C89.2648 157.208 91.0888 158.44 92.6567 160.008C94.2248 161.544 95.4568 163.368 96.3528 165.48C97.2488 167.56 97.6968 169.784 97.6968 172.152C97.6968 174.52 97.2488 176.744 96.3528 178.824C95.4568 180.904 94.2248 182.728 92.6567 184.296C91.0888 185.864 89.2648 187.096 87.1848 187.992C85.1048 188.888 82.8808 189.336 80.5128 189.336C78.1448 189.336 75.9047 188.888 73.7927 187.992C71.7127 187.096 69.8887 185.864 68.3207 184.296C66.7847 182.728 65.5687 180.904 64.6727 178.824C63.7767 176.744 63.3287 174.52 63.3287 172.152C63.3287 169.784 63.7767 167.56 64.6727 165.48C65.5687 163.368 66.7847 161.544 68.3207 160.008C69.8887 158.44 71.7127 157.208 73.7927 156.312C75.9047 155.416 78.1448 154.968 80.5128 154.968ZM80.5128 183.384C82.0488 183.384 83.4888 183.096 84.8328 182.52C86.2087 181.912 87.4087 181.096 88.4327 180.072C89.4567 179.016 90.2568 177.816 90.8328 176.472C91.4408 175.096 91.7448 173.64 91.7448 172.104C91.7448 170.568 91.4408 169.128 90.8328 167.784C90.2568 166.408 89.4567 165.224 88.4327 164.232C87.4087 163.208 86.2087 162.408 84.8328 161.832C83.4888 161.224 82.0488 160.92 80.5128 160.92C78.9767 160.92 77.5207 161.224 76.1447 161.832C74.8007 162.408 73.6167 163.208 72.5927 164.232C71.5687 165.224 70.7527 166.408 70.1447 167.784C69.5687 169.128 69.2807 170.568 69.2807 172.104C69.2807 173.64 69.5687 175.096 70.1447 176.472C70.7527 177.816 71.5687 179.016 72.5927 180.072C73.6167 181.096 74.8007 181.912 76.1447 182.52C77.5207 183.096 78.9767 183.384 80.5128 183.384ZM118.53 189C116.226 188.968 114.05 188.52 112.002 187.656C109.954 186.76 108.178 185.56 106.674 184.056C105.17 182.52 103.97 180.728 103.074 178.68C102.21 176.632 101.778 174.456 101.778 172.152C101.778 169.816 102.21 167.624 103.074 165.576C103.97 163.528 105.17 161.752 106.674 160.248C108.21 158.712 110.002 157.512 112.05 156.648C114.098 155.752 116.274 155.304 118.578 155.304H130.77V161.256H118.578C117.074 161.256 115.666 161.544 114.354 162.12C113.042 162.696 111.89 163.48 110.898 164.472C109.906 165.432 109.122 166.584 108.546 167.928C108.002 169.24 107.73 170.648 107.73 172.152C107.73 173.656 108.002 175.08 108.546 176.424C109.122 177.736 109.906 178.888 110.898 179.88C111.89 180.84 113.042 181.608 114.354 182.184C115.666 182.76 117.074 183.048 118.578 183.048H130.77V189H118.53ZM150.416 189C148.112 188.968 145.936 188.52 143.888 187.656C141.84 186.76 140.064 185.56 138.56 184.056C137.056 182.52 135.856 180.728 134.96 178.68C134.096 176.632 133.664 174.456 133.664 172.152C133.664 169.816 134.096 167.624 134.96 165.576C135.856 163.528 137.056 161.752 138.56 160.248C140.096 158.712 141.888 157.512 143.936 156.648C145.984 155.752 148.176 155.304 150.512 155.304H162.656V161.256H150.512C149.008 161.256 147.584 161.544 146.24 162.12C144.928 162.696 143.776 163.48 142.784 164.472C141.824 165.432 141.056 166.584 140.48 167.928C139.904 169.24 139.616 170.648 139.616 172.152C139.616 173.656 139.904 175.08 140.48 176.424C141.056 177.736 141.824 178.888 142.784 179.88C143.776 180.84 144.928 181.608 146.24 182.184C147.584 182.76 149.008 183.048 150.512 183.048H162.656V189H150.416ZM158.048 175.128V169.176H146.864V175.128H158.048ZM194.322 155.304V161.256H176.61C175.746 161.256 175.026 161.448 174.45 161.832C173.874 162.216 173.442 162.712 173.154 163.32C172.866 163.896 172.722 164.536 172.722 165.24C172.722 165.912 172.866 166.552 173.154 167.16C173.442 167.736 173.874 168.216 174.45 168.6C175.026 168.984 175.746 169.176 176.61 169.176H187.65C189.026 169.176 190.306 169.432 191.49 169.944C192.706 170.456 193.762 171.16 194.658 172.056C195.554 172.952 196.258 174.008 196.77 175.224C197.314 176.408 197.586 177.688 197.586 179.064C197.586 180.44 197.314 181.736 196.77 182.952C196.258 184.136 195.554 185.176 194.658 186.072C193.762 186.968 192.706 187.688 191.49 188.232C190.306 188.744 189.026 189 187.65 189H169.026V183.048H187.65C188.514 183.048 189.234 182.856 189.81 182.472C190.418 182.088 190.866 181.608 191.154 181.032C191.442 180.424 191.586 179.784 191.586 179.112C191.586 178.408 191.442 177.768 191.154 177.192C190.866 176.584 190.418 176.088 189.81 175.704C189.234 175.32 188.514 175.128 187.65 175.128H176.37C175.026 175.096 173.762 174.824 172.578 174.312C171.426 173.768 170.402 173.048 169.506 172.152C168.642 171.256 167.954 170.216 167.442 169.032C166.962 167.816 166.722 166.536 166.722 165.192C166.722 163.816 166.978 162.536 167.49 161.352C168.002 160.136 168.706 159.08 169.602 158.184C170.498 157.288 171.538 156.584 172.722 156.072C173.938 155.56 175.234 155.304 176.61 155.304H194.322ZM228.083 155.304V161.256H210.371C209.507 161.256 208.787 161.448 208.211 161.832C207.635 162.216 207.203 162.712 206.915 163.32C206.627 163.896 206.483 164.536 206.483 165.24C206.483 165.912 206.627 166.552 206.915 167.16C207.203 167.736 207.635 168.216 208.211 168.6C208.787 168.984 209.507 169.176 210.371 169.176H221.411C222.787 169.176 224.067 169.432 225.251 169.944C226.467 170.456 227.523 171.16 228.419 172.056C229.315 172.952 230.019 174.008 230.531 175.224C231.075 176.408 231.347 177.688 231.347 179.064C231.347 180.44 231.075 181.736 230.531 182.952C230.019 184.136 229.315 185.176 228.419 186.072C227.523 186.968 226.467 187.688 225.251 188.232C224.067 188.744 222.787 189 221.411 189H202.787V183.048H221.411C222.275 183.048 222.995 182.856 223.571 182.472C224.179 182.088 224.627 181.608 224.915 181.032C225.203 180.424 225.347 179.784 225.347 179.112C225.347 178.408 225.203 177.768 224.915 177.192C224.627 176.584 224.179 176.088 223.571 175.704C222.995 175.32 222.275 175.128 221.411 175.128H210.131C208.787 175.096 207.523 174.824 206.339 174.312C205.187 173.768 204.163 173.048 203.267 172.152C202.403 171.256 201.715 170.216 201.203 169.032C200.723 167.816 200.483 166.536 200.483 165.192C200.483 163.816 200.739 162.536 201.251 161.352C201.763 160.136 202.467 159.08 203.363 158.184C204.259 157.288 205.299 156.584 206.483 156.072C207.699 155.56 208.995 155.304 210.371 155.304H228.083Z" fill="white"/>
</svg>
